solid fish
 facet normal 0.999827 0.0186219 0
  outer loop
   vertex 9.68436 0 -3.4715
   vertex 9.63131 2.8484 -3.4715
   vertex 9.63131 2.8484 1.731
  end loop
 end facet
 facet normal 0.999827 0.0186219 -0
  outer loop
   vertex 9.68436 0 -3.4715
   vertex 9.63131 2.8484 1.731
   vertex 9.68436 0 1.731
  end loop
 end facet
 facet normal 0.99842 0.0561992 0
  outer loop
   vertex 9.63131 2.8484 -3.4715
   vertex 9.47273 5.66559 -3.4715
   vertex 9.47273 5.66559 1.731
  end loop
 end facet
 facet normal 0.99842 0.0561992 -0
  outer loop
   vertex 9.63131 2.8484 -3.4715
   vertex 9.47273 5.66559 1.731
   vertex 9.63131 2.8484 1.731
  end loop
 end facet
 facet normal 0.995497 0.0947974 0
  outer loop
   vertex 9.47273 5.66559 -3.4715
   vertex 9.21037 8.42071 -3.4715
   vertex 9.21037 8.42071 1.731
  end loop
 end facet
 facet normal 0.995497 0.0947974 -0
  outer loop
   vertex 9.47273 5.66559 -3.4715
   vertex 9.21037 8.42071 1.731
   vertex 9.47273 5.66559 1.731
  end loop
 end facet
 facet normal 0.990823 0.135169 0
  outer loop
   vertex 9.21037 8.42071 -3.4715
   vertex 8.8471 11.0836 -3.4715
   vertex 8.8471 11.0836 1.731
  end loop
 end facet
 facet normal 0.990823 0.135169 -0
  outer loop
   vertex 9.21037 8.42071 -3.4715
   vertex 8.8471 11.0836 1.731
   vertex 9.21037 8.42071 1.731
  end loop
 end facet
 facet normal 0.983998 0.178182 0
  outer loop
   vertex 8.8471 11.0836 -3.4715
   vertex 8.3869 13.625 -3.4715
   vertex 8.3869 13.625 1.731
  end loop
 end facet
 facet normal 0.983998 0.178182 -0
  outer loop
   vertex 8.8471 11.0836 -3.4715
   vertex 8.3869 13.625 1.731
   vertex 8.8471 11.0836 1.731
  end loop
 end facet
 facet normal 0.974386 0.224881 0
  outer loop
   vertex 8.3869 13.625 -3.4715
   vertex 7.83481 16.0171 -3.4715
   vertex 7.83481 16.0171 1.731
  end loop
 end facet
 facet normal 0.974386 0.224881 -0
  outer loop
   vertex 8.3869 13.625 -3.4715
   vertex 7.83481 16.0171 1.731
   vertex 8.3869 13.625 1.731
  end loop
 end facet
 facet normal 0.960996 0.276564 0
  outer loop
   vertex 7.83481 16.0171 -3.4715
   vertex 7.19688 18.2338 -3.4715
   vertex 7.19688 18.2338 1.731
  end loop
 end facet
 facet normal 0.960996 0.276564 -0
  outer loop
   vertex 7.83481 16.0171 -3.4715
   vertex 7.19688 18.2338 1.731
   vertex 7.83481 16.0171 1.731
  end loop
 end facet
 facet normal 0.942264 0.334871 0
  outer loop
   vertex 7.19688 18.2338 -3.4715
   vertex 6.4801 20.2507 -3.4715
   vertex 6.4801 20.2507 1.731
  end loop
 end facet
 facet normal 0.942264 0.334871 -0
  outer loop
   vertex 7.19688 18.2338 -3.4715
   vertex 6.4801 20.2507 1.731
   vertex 7.19688 18.2338 1.731
  end loop
 end facet
 facet normal 0.915696 0.401871 0
  outer loop
   vertex 6.4801 20.2507 -3.4715
   vertex 5.69232 22.0457 -3.4715
   vertex 5.69232 22.0457 1.731
  end loop
 end facet
 facet normal 0.915696 0.401871 -0
  outer loop
   vertex 6.4801 20.2507 -3.4715
   vertex 5.69232 22.0457 1.731
   vertex 6.4801 20.2507 1.731
  end loop
 end facet
 facet normal 0.877232 0.480067 0
  outer loop
   vertex 5.69232 22.0457 -3.4715
   vertex 4.84218 23.5992 -3.4715
   vertex 4.84218 23.5992 1.731
  end loop
 end facet
 facet normal 0.877232 0.480067 -0
  outer loop
   vertex 5.69232 22.0457 -3.4715
   vertex 4.84218 23.5992 1.731
   vertex 5.69232 22.0457 1.731
  end loop
 end facet
 facet normal 0.820198 0.57208 0
  outer loop
   vertex 4.84218 23.5992 -3.4715
   vertex 3.93898 24.8941 -3.4715
   vertex 3.93898 24.8941 1.731
  end loop
 end facet
 facet normal 0.820198 0.57208 -0
  outer loop
   vertex 4.84218 23.5992 -3.4715
   vertex 3.93898 24.8941 1.731
   vertex 4.84218 23.5992 1.731
  end loop
 end facet
 facet normal 0.733799 0.679367 0
  outer loop
   vertex 3.93898 24.8941 -3.4715
   vertex 2.99263 25.9163 -3.4715
   vertex 2.99263 25.9163 1.731
  end loop
 end facet
 facet normal 0.733799 0.679367 -0
  outer loop
   vertex 3.93898 24.8941 -3.4715
   vertex 2.99263 25.9163 1.731
   vertex 3.93898 24.8941 1.731
  end loop
 end facet
 facet normal 0.602022 0.79848 0
  outer loop
   vertex 2.99263 25.9163 -3.4715
   vertex 2.01349 26.6545 -3.4715
   vertex 2.01349 26.6545 1.731
  end loop
 end facet
 facet normal 0.602022 0.79848 -0
  outer loop
   vertex 2.99263 25.9163 -3.4715
   vertex 2.01349 26.6545 1.731
   vertex 2.99263 25.9163 1.731
  end loop
 end facet
 facet normal 0.407069 0.913397 0
  outer loop
   vertex 2.01349 26.6545 -3.4715
   vertex 1.01229 27.1007 -3.4715
   vertex 1.01229 27.1007 1.731
  end loop
 end facet
 facet normal 0.407069 0.913397 -0
  outer loop
   vertex 2.01349 26.6545 -3.4715
   vertex 1.01229 27.1007 1.731
   vertex 2.01349 26.6545 1.731
  end loop
 end facet
 facet normal 0.145888 0.989301 0
  outer loop
   vertex 1.01229 27.1007 -3.4715
   vertex 2.74336e-15 27.25 -3.4715
   vertex 2.74336e-15 27.25 1.731
  end loop
 end facet
 facet normal 0.145888 0.989301 -0
  outer loop
   vertex 1.01229 27.1007 -3.4715
   vertex 2.74336e-15 27.25 1.731
   vertex 1.01229 27.1007 1.731
  end loop
 end facet
 facet normal -0.145888 0.989301 0
  outer loop
   vertex 2.74336e-15 27.25 -3.4715
   vertex -1.01229 27.1007 -3.4715
   vertex -1.01229 27.1007 1.731
  end loop
 end facet
 facet normal -0.145888 0.989301 0
  outer loop
   vertex 2.74336e-15 27.25 -3.4715
   vertex -1.01229 27.1007 1.731
   vertex 2.74336e-15 27.25 1.731
  end loop
 end facet
 facet normal -0.407069 0.913397 0
  outer loop
   vertex -1.01229 27.1007 -3.4715
   vertex -2.01349 26.6545 -3.4715
   vertex -2.01349 26.6545 1.731
  end loop
 end facet
 facet normal -0.407069 0.913397 0
  outer loop
   vertex -1.01229 27.1007 -3.4715
   vertex -2.01349 26.6545 1.731
   vertex -1.01229 27.1007 1.731
  end loop
 end facet
 facet normal -0.602022 0.79848 0
  outer loop
   vertex -2.01349 26.6545 -3.4715
   vertex -2.99263 25.9163 -3.4715
   vertex -2.99263 25.9163 1.731
  end loop
 end facet
 facet normal -0.602022 0.79848 0
  outer loop
   vertex -2.01349 26.6545 -3.4715
   vertex -2.99263 25.9163 1.731
   vertex -2.01349 26.6545 1.731
  end loop
 end facet
 facet normal -0.733799 0.679367 0
  outer loop
   vertex -2.99263 25.9163 -3.4715
   vertex -3.93898 24.8941 -3.4715
   vertex -3.93898 24.8941 1.731
  end loop
 end facet
 facet normal -0.733799 0.679367 0
  outer loop
   vertex -2.99263 25.9163 -3.4715
   vertex -3.93898 24.8941 1.731
   vertex -2.99263 25.9163 1.731
  end loop
 end facet
 facet normal -0.820198 0.57208 0
  outer loop
   vertex -3.93898 24.8941 -3.4715
   vertex -4.84218 23.5992 -3.4715
   vertex -4.84218 23.5992 1.731
  end loop
 end facet
 facet normal -0.820198 0.57208 0
  outer loop
   vertex -3.93898 24.8941 -3.4715
   vertex -4.84218 23.5992 1.731
   vertex -3.93898 24.8941 1.731
  end loop
 end facet
 facet normal -0.877232 0.480067 0
  outer loop
   vertex -4.84218 23.5992 -3.4715
   vertex -5.69232 22.0457 -3.4715
   vertex -5.69232 22.0457 1.731
  end loop
 end facet
 facet normal -0.877232 0.480067 0
  outer loop
   vertex -4.84218 23.5992 -3.4715
   vertex -5.69232 22.0457 1.731
   vertex -4.84218 23.5992 1.731
  end loop
 end facet
 facet normal -0.915696 0.401871 0
  outer loop
   vertex -5.69232 22.0457 -3.4715
   vertex -6.4801 20.2507 -3.4715
   vertex -6.4801 20.2507 1.731
  end loop
 end facet
 facet normal -0.915696 0.401871 0
  outer loop
   vertex -5.69232 22.0457 -3.4715
   vertex -6.4801 20.2507 1.731
   vertex -5.69232 22.0457 1.731
  end loop
 end facet
 facet normal -0.942264 0.334871 0
  outer loop
   vertex -6.4801 20.2507 -3.4715
   vertex -7.19688 18.2338 -3.4715
   vertex -7.19688 18.2338 1.731
  end loop
 end facet
 facet normal -0.942264 0.334871 0
  outer loop
   vertex -6.4801 20.2507 -3.4715
   vertex -7.19688 18.2338 1.731
   vertex -6.4801 20.2507 1.731
  end loop
 end facet
 facet normal -0.960996 0.276564 0
  outer loop
   vertex -7.19688 18.2338 -3.4715
   vertex -7.83481 16.0171 -3.4715
   vertex -7.83481 16.0171 1.731
  end loop
 end facet
 facet normal -0.960996 0.276564 0
  outer loop
   vertex -7.19688 18.2338 -3.4715
   vertex -7.83481 16.0171 1.731
   vertex -7.19688 18.2338 1.731
  end loop
 end facet
 facet normal -0.974386 0.224881 0
  outer loop
   vertex -7.83481 16.0171 -3.4715
   vertex -8.3869 13.625 -3.4715
   vertex -8.3869 13.625 1.731
  end loop
 end facet
 facet normal -0.974386 0.224881 0
  outer loop
   vertex -7.83481 16.0171 -3.4715
   vertex -8.3869 13.625 1.731
   vertex -7.83481 16.0171 1.731
  end loop
 end facet
 facet normal -0.983998 0.178182 0
  outer loop
   vertex -8.3869 13.625 -3.4715
   vertex -8.8471 11.0836 -3.4715
   vertex -8.8471 11.0836 1.731
  end loop
 end facet
 facet normal -0.983998 0.178182 0
  outer loop
   vertex -8.3869 13.625 -3.4715
   vertex -8.8471 11.0836 1.731
   vertex -8.3869 13.625 1.731
  end loop
 end facet
 facet normal -0.990823 0.135169 0
  outer loop
   vertex -8.8471 11.0836 -3.4715
   vertex -9.21037 8.42071 -3.4715
   vertex -9.21037 8.42071 1.731
  end loop
 end facet
 facet normal -0.990823 0.135169 0
  outer loop
   vertex -8.8471 11.0836 -3.4715
   vertex -9.21037 8.42071 1.731
   vertex -8.8471 11.0836 1.731
  end loop
 end facet
 facet normal -0.995497 0.0947974 0
  outer loop
   vertex -9.21037 8.42071 -3.4715
   vertex -9.47273 5.66559 -3.4715
   vertex -9.47273 5.66559 1.731
  end loop
 end facet
 facet normal -0.995497 0.0947974 0
  outer loop
   vertex -9.21037 8.42071 -3.4715
   vertex -9.47273 5.66559 1.731
   vertex -9.21037 8.42071 1.731
  end loop
 end facet
 facet normal -0.99842 0.0561992 0
  outer loop
   vertex -9.47273 5.66559 -3.4715
   vertex -9.63131 2.8484 -3.4715
   vertex -9.63131 2.8484 1.731
  end loop
 end facet
 facet normal -0.99842 0.0561992 0
  outer loop
   vertex -9.47273 5.66559 -3.4715
   vertex -9.63131 2.8484 1.731
   vertex -9.47273 5.66559 1.731
  end loop
 end facet
 facet normal -0.999827 0.0186219 0
  outer loop
   vertex -9.63131 2.8484 -3.4715
   vertex -9.68436 1.54386e-14 -3.4715
   vertex -9.68436 1.54386e-14 1.731
  end loop
 end facet
 facet normal -0.999827 0.0186219 0
  outer loop
   vertex -9.63131 2.8484 -3.4715
   vertex -9.68436 1.54386e-14 1.731
   vertex -9.63131 2.8484 1.731
  end loop
 end facet
 facet normal -0.999827 -0.0186219 0
  outer loop
   vertex -9.68436 1.54386e-14 -3.4715
   vertex -9.63131 -2.8484 -3.4715
   vertex -9.63131 -2.8484 1.731
  end loop
 end facet
 facet normal -0.999827 -0.0186219 0
  outer loop
   vertex -9.68436 1.54386e-14 -3.4715
   vertex -9.63131 -2.8484 1.731
   vertex -9.68436 1.54386e-14 1.731
  end loop
 end facet
 facet normal -0.99842 -0.0561992 0
  outer loop
   vertex -9.63131 -2.8484 -3.4715
   vertex -9.47273 -5.66559 -3.4715
   vertex -9.47273 -5.66559 1.731
  end loop
 end facet
 facet normal -0.99842 -0.0561992 0
  outer loop
   vertex -9.63131 -2.8484 -3.4715
   vertex -9.47273 -5.66559 1.731
   vertex -9.63131 -2.8484 1.731
  end loop
 end facet
 facet normal -0.995497 -0.0947974 0
  outer loop
   vertex -9.47273 -5.66559 -3.4715
   vertex -9.21037 -8.42071 -3.4715
   vertex -9.21037 -8.42071 1.731
  end loop
 end facet
 facet normal -0.995497 -0.0947974 0
  outer loop
   vertex -9.47273 -5.66559 -3.4715
   vertex -9.21037 -8.42071 1.731
   vertex -9.47273 -5.66559 1.731
  end loop
 end facet
 facet normal -0.990823 -0.135169 0
  outer loop
   vertex -9.21037 -8.42071 -3.4715
   vertex -8.8471 -11.0836 -3.4715
   vertex -8.8471 -11.0836 1.731
  end loop
 end facet
 facet normal -0.990823 -0.135169 0
  outer loop
   vertex -9.21037 -8.42071 -3.4715
   vertex -8.8471 -11.0836 1.731
   vertex -9.21037 -8.42071 1.731
  end loop
 end facet
 facet normal -0.983998 -0.178182 0
  outer loop
   vertex -8.8471 -11.0836 -3.4715
   vertex -8.3869 -13.625 -3.4715
   vertex -8.3869 -13.625 1.731
  end loop
 end facet
 facet normal -0.983998 -0.178182 0
  outer loop
   vertex -8.8471 -11.0836 -3.4715
   vertex -8.3869 -13.625 1.731
   vertex -8.8471 -11.0836 1.731
  end loop
 end facet
 facet normal -0.974386 -0.224881 0
  outer loop
   vertex -8.3869 -13.625 -3.4715
   vertex -7.83481 -16.0171 -3.4715
   vertex -7.83481 -16.0171 1.731
  end loop
 end facet
 facet normal -0.974386 -0.224881 0
  outer loop
   vertex -8.3869 -13.625 -3.4715
   vertex -7.83481 -16.0171 1.731
   vertex -8.3869 -13.625 1.731
  end loop
 end facet
 facet normal -0.960996 -0.276564 0
  outer loop
   vertex -7.83481 -16.0171 -3.4715
   vertex -7.19688 -18.2338 -3.4715
   vertex -7.19688 -18.2338 1.731
  end loop
 end facet
 facet normal -0.960996 -0.276564 0
  outer loop
   vertex -7.83481 -16.0171 -3.4715
   vertex -7.19688 -18.2338 1.731
   vertex -7.83481 -16.0171 1.731
  end loop
 end facet
 facet normal -0.942264 -0.334871 0
  outer loop
   vertex -7.19688 -18.2338 -3.4715
   vertex -6.4801 -20.2507 -3.4715
   vertex -6.4801 -20.2507 1.731
  end loop
 end facet
 facet normal -0.942264 -0.334871 0
  outer loop
   vertex -7.19688 -18.2338 -3.4715
   vertex -6.4801 -20.2507 1.731
   vertex -7.19688 -18.2338 1.731
  end loop
 end facet
 facet normal -0.915696 -0.401871 0
  outer loop
   vertex -6.4801 -20.2507 -3.4715
   vertex -5.69232 -22.0457 -3.4715
   vertex -5.69232 -22.0457 1.731
  end loop
 end facet
 facet normal -0.915696 -0.401871 0
  outer loop
   vertex -6.4801 -20.2507 -3.4715
   vertex -5.69232 -22.0457 1.731
   vertex -6.4801 -20.2507 1.731
  end loop
 end facet
 facet normal -0.877232 -0.480067 0
  outer loop
   vertex -5.69232 -22.0457 -3.4715
   vertex -4.84218 -23.5992 -3.4715
   vertex -4.84218 -23.5992 1.731
  end loop
 end facet
 facet normal -0.877232 -0.480067 0
  outer loop
   vertex -5.69232 -22.0457 -3.4715
   vertex -4.84218 -23.5992 1.731
   vertex -5.69232 -22.0457 1.731
  end loop
 end facet
 facet normal -0.820198 -0.57208 0
  outer loop
   vertex -4.84218 -23.5992 -3.4715
   vertex -3.93898 -24.8941 -3.4715
   vertex -3.93898 -24.8941 1.731
  end loop
 end facet
 facet normal -0.820198 -0.57208 0
  outer loop
   vertex -4.84218 -23.5992 -3.4715
   vertex -3.93898 -24.8941 1.731
   vertex -4.84218 -23.5992 1.731
  end loop
 end facet
 facet normal -0.733799 -0.679367 0
  outer loop
   vertex -3.93898 -24.8941 -3.4715
   vertex -2.99263 -25.9163 -3.4715
   vertex -2.99263 -25.9163 1.731
  end loop
 end facet
 facet normal -0.733799 -0.679367 0
  outer loop
   vertex -3.93898 -24.8941 -3.4715
   vertex -2.99263 -25.9163 1.731
   vertex -3.93898 -24.8941 1.731
  end loop
 end facet
 facet normal -0.602022 -0.79848 0
  outer loop
   vertex -2.99263 -25.9163 -3.4715
   vertex -2.01349 -26.6545 -3.4715
   vertex -2.01349 -26.6545 1.731
  end loop
 end facet
 facet normal -0.602022 -0.79848 0
  outer loop
   vertex -2.99263 -25.9163 -3.4715
   vertex -2.01349 -26.6545 1.731
   vertex -2.99263 -25.9163 1.731
  end loop
 end facet
 facet normal -0.407069 -0.913397 0
  outer loop
   vertex -2.01349 -26.6545 -3.4715
   vertex -1.01229 -27.1007 -3.4715
   vertex -1.01229 -27.1007 1.731
  end loop
 end facet
 facet normal -0.407069 -0.913397 0
  outer loop
   vertex -2.01349 -26.6545 -3.4715
   vertex -1.01229 -27.1007 1.731
   vertex -2.01349 -26.6545 1.731
  end loop
 end facet
 facet normal -0.145888 -0.989301 0
  outer loop
   vertex -1.01229 -27.1007 -3.4715
   vertex -1.77899e-15 -27.25 -3.4715
   vertex -1.77899e-15 -27.25 1.731
  end loop
 end facet
 facet normal -0.145888 -0.989301 0
  outer loop
   vertex -1.01229 -27.1007 -3.4715
   vertex -1.77899e-15 -27.25 1.731
   vertex -1.01229 -27.1007 1.731
  end loop
 end facet
 facet normal 0.145888 -0.989301 0
  outer loop
   vertex -1.77899e-15 -27.25 -3.4715
   vertex 1.01229 -27.1007 -3.4715
   vertex 1.01229 -27.1007 1.731
  end loop
 end facet
 facet normal 0.145888 -0.989301 0
  outer loop
   vertex -1.77899e-15 -27.25 -3.4715
   vertex 1.01229 -27.1007 1.731
   vertex -1.77899e-15 -27.25 1.731
  end loop
 end facet
 facet normal 0.407069 -0.913397 0
  outer loop
   vertex 1.01229 -27.1007 -3.4715
   vertex 2.01349 -26.6545 -3.4715
   vertex 2.01349 -26.6545 1.731
  end loop
 end facet
 facet normal 0.407069 -0.913397 0
  outer loop
   vertex 1.01229 -27.1007 -3.4715
   vertex 2.01349 -26.6545 1.731
   vertex 1.01229 -27.1007 1.731
  end loop
 end facet
 facet normal 0.602022 -0.79848 0
  outer loop
   vertex 2.01349 -26.6545 -3.4715
   vertex 2.99263 -25.9163 -3.4715
   vertex 2.99263 -25.9163 1.731
  end loop
 end facet
 facet normal 0.602022 -0.79848 0
  outer loop
   vertex 2.01349 -26.6545 -3.4715
   vertex 2.99263 -25.9163 1.731
   vertex 2.01349 -26.6545 1.731
  end loop
 end facet
 facet normal 0.733799 -0.679367 0
  outer loop
   vertex 2.99263 -25.9163 -3.4715
   vertex 3.93898 -24.8941 -3.4715
   vertex 3.93898 -24.8941 1.731
  end loop
 end facet
 facet normal 0.733799 -0.679367 0
  outer loop
   vertex 2.99263 -25.9163 -3.4715
   vertex 3.93898 -24.8941 1.731
   vertex 2.99263 -25.9163 1.731
  end loop
 end facet
 facet normal 0.820198 -0.57208 0
  outer loop
   vertex 3.93898 -24.8941 -3.4715
   vertex 4.84218 -23.5992 -3.4715
   vertex 4.84218 -23.5992 1.731
  end loop
 end facet
 facet normal 0.820198 -0.57208 0
  outer loop
   vertex 3.93898 -24.8941 -3.4715
   vertex 4.84218 -23.5992 1.731
   vertex 3.93898 -24.8941 1.731
  end loop
 end facet
 facet normal 0.877232 -0.480067 0
  outer loop
   vertex 4.84218 -23.5992 -3.4715
   vertex 5.69232 -22.0457 -3.4715
   vertex 5.69232 -22.0457 1.731
  end loop
 end facet
 facet normal 0.877232 -0.480067 0
  outer loop
   vertex 4.84218 -23.5992 -3.4715
   vertex 5.69232 -22.0457 1.731
   vertex 4.84218 -23.5992 1.731
  end loop
 end facet
 facet normal 0.915696 -0.401871 0
  outer loop
   vertex 5.69232 -22.0457 -3.4715
   vertex 6.4801 -20.2507 -3.4715
   vertex 6.4801 -20.2507 1.731
  end loop
 end facet
 facet normal 0.915696 -0.401871 0
  outer loop
   vertex 5.69232 -22.0457 -3.4715
   vertex 6.4801 -20.2507 1.731
   vertex 5.69232 -22.0457 1.731
  end loop
 end facet
 facet normal 0.942264 -0.334871 0
  outer loop
   vertex 6.4801 -20.2507 -3.4715
   vertex 7.19688 -18.2338 -3.4715
   vertex 7.19688 -18.2338 1.731
  end loop
 end facet
 facet normal 0.942264 -0.334871 0
  outer loop
   vertex 6.4801 -20.2507 -3.4715
   vertex 7.19688 -18.2338 1.731
   vertex 6.4801 -20.2507 1.731
  end loop
 end facet
 facet normal 0.960996 -0.276564 0
  outer loop
   vertex 7.19688 -18.2338 -3.4715
   vertex 7.83481 -16.0171 -3.4715
   vertex 7.83481 -16.0171 1.731
  end loop
 end facet
 facet normal 0.960996 -0.276564 0
  outer loop
   vertex 7.19688 -18.2338 -3.4715
   vertex 7.83481 -16.0171 1.731
   vertex 7.19688 -18.2338 1.731
  end loop
 end facet
 facet normal 0.974386 -0.224881 0
  outer loop
   vertex 7.83481 -16.0171 -3.4715
   vertex 8.3869 -13.625 -3.4715
   vertex 8.3869 -13.625 1.731
  end loop
 end facet
 facet normal 0.974386 -0.224881 0
  outer loop
   vertex 7.83481 -16.0171 -3.4715
   vertex 8.3869 -13.625 1.731
   vertex 7.83481 -16.0171 1.731
  end loop
 end facet
 facet normal 0.983998 -0.178182 0
  outer loop
   vertex 8.3869 -13.625 -3.4715
   vertex 8.8471 -11.0836 -3.4715
   vertex 8.8471 -11.0836 1.731
  end loop
 end facet
 facet normal 0.983998 -0.178182 0
  outer loop
   vertex 8.3869 -13.625 -3.4715
   vertex 8.8471 -11.0836 1.731
   vertex 8.3869 -13.625 1.731
  end loop
 end facet
 facet normal 0.990823 -0.135169 0
  outer loop
   vertex 8.8471 -11.0836 -3.4715
   vertex 9.21037 -8.42071 -3.4715
   vertex 9.21037 -8.42071 1.731
  end loop
 end facet
 facet normal 0.990823 -0.135169 0
  outer loop
   vertex 8.8471 -11.0836 -3.4715
   vertex 9.21037 -8.42071 1.731
   vertex 8.8471 -11.0836 1.731
  end loop
 end facet
 facet normal 0.995497 -0.0947974 0
  outer loop
   vertex 9.21037 -8.42071 -3.4715
   vertex 9.47273 -5.66559 -3.4715
   vertex 9.47273 -5.66559 1.731
  end loop
 end facet
 facet normal 0.995497 -0.0947974 0
  outer loop
   vertex 9.21037 -8.42071 -3.4715
   vertex 9.47273 -5.66559 1.731
   vertex 9.21037 -8.42071 1.731
  end loop
 end facet
 facet normal 0.99842 -0.0561992 0
  outer loop
   vertex 9.47273 -5.66559 -3.4715
   vertex 9.63131 -2.8484 -3.4715
   vertex 9.63131 -2.8484 1.731
  end loop
 end facet
 facet normal 0.99842 -0.0561992 0
  outer loop
   vertex 9.47273 -5.66559 -3.4715
   vertex 9.63131 -2.8484 1.731
   vertex 9.47273 -5.66559 1.731
  end loop
 end facet
 facet normal 0.999827 -0.0186219 0
  outer loop
   vertex 9.63131 -2.8484 -3.4715
   vertex 9.68436 0 -3.4715
   vertex 9.68436 0 1.731
  end loop
 end facet
 facet normal 0.999827 -0.0186219 0
  outer loop
   vertex 9.63131 -2.8484 -3.4715
   vertex 9.68436 0 1.731
   vertex 9.63131 -2.8484 1.731
  end loop
 end facet
 facet normal -0.999844 -0.0176663 0
  outer loop
   vertex 8.93436 0 -3.4715
   vertex 8.88542 2.77 1.731
   vertex 8.88542 2.77 -3.4715
  end loop
 end facet
 facet normal -0.999844 -0.0176663 0
  outer loop
   vertex 8.93436 0 -3.4715
   vertex 8.93436 0 1.731
   vertex 8.88542 2.77 1.731
  end loop
 end facet
 facet normal -0.998577 -0.0533227 0
  outer loop
   vertex 8.88542 2.77 -3.4715
   vertex 8.73912 5.50966 1.731
   vertex 8.73912 5.50966 -3.4715
  end loop
 end facet
 facet normal -0.998577 -0.0533227 0
  outer loop
   vertex 8.88542 2.77 -3.4715
   vertex 8.88542 2.77 1.731
   vertex 8.73912 5.50966 1.731
  end loop
 end facet
 facet normal -0.995944 -0.0899715 0
  outer loop
   vertex 8.73912 5.50966 -3.4715
   vertex 8.49708 8.18895 1.731
   vertex 8.49708 8.18895 -3.4715
  end loop
 end facet
 facet normal -0.995944 -0.0899715 0
  outer loop
   vertex 8.73912 5.50966 -3.4715
   vertex 8.73912 5.50966 1.731
   vertex 8.49708 8.18895 1.731
  end loop
 end facet
 facet normal -0.991729 -0.128348 0
  outer loop
   vertex 8.49708 8.18895 -3.4715
   vertex 8.16194 10.7785 1.731
   vertex 8.16194 10.7785 -3.4715
  end loop
 end facet
 facet normal -0.991729 -0.128348 0
  outer loop
   vertex 8.49708 8.18895 -3.4715
   vertex 8.49708 8.18895 1.731
   vertex 8.16194 10.7785 1.731
  end loop
 end facet
 facet normal -0.985564 -0.169304 0
  outer loop
   vertex 8.16194 10.7785 -3.4715
   vertex 7.73738 13.25 1.731
   vertex 7.73738 13.25 -3.4715
  end loop
 end facet
 facet normal -0.985564 -0.169304 0
  outer loop
   vertex 8.16194 10.7785 -3.4715
   vertex 8.16194 10.7785 1.731
   vertex 7.73738 13.25 1.731
  end loop
 end facet
 facet normal -0.97686 -0.213879 0
  outer loop
   vertex 7.73738 13.25 -3.4715
   vertex 7.22805 15.5763 1.731
   vertex 7.22805 15.5763 -3.4715
  end loop
 end facet
 facet normal -0.97686 -0.213879 0
  outer loop
   vertex 7.73738 13.25 -3.4715
   vertex 7.73738 13.25 1.731
   vertex 7.22805 15.5763 1.731
  end loop
 end facet
 facet normal -0.964693 -0.263376 0
  outer loop
   vertex 7.22805 15.5763 -3.4715
   vertex 6.63952 17.732 1.731
   vertex 6.63952 17.732 -3.4715
  end loop
 end facet
 facet normal -0.964693 -0.263376 0
  outer loop
   vertex 7.22805 15.5763 -3.4715
   vertex 7.22805 15.5763 1.731
   vertex 6.63952 17.732 1.731
  end loop
 end facet
 facet normal -0.947594 -0.319477 0
  outer loop
   vertex 6.63952 17.732 -3.4715
   vertex 5.97825 19.6933 1.731
   vertex 5.97825 19.6933 -3.4715
  end loop
 end facet
 facet normal -0.947594 -0.319477 0
  outer loop
   vertex 6.63952 17.732 -3.4715
   vertex 6.63952 17.732 1.731
   vertex 5.97825 19.6933 1.731
  end loop
 end facet
 facet normal -0.923184 -0.384359 0
  outer loop
   vertex 5.97825 19.6933 -3.4715
   vertex 5.25149 21.439 1.731
   vertex 5.25149 21.439 -3.4715
  end loop
 end facet
 facet normal -0.923184 -0.384359 0
  outer loop
   vertex 5.97825 19.6933 -3.4715
   vertex 5.97825 19.6933 1.731
   vertex 5.25149 21.439 1.731
  end loop
 end facet
 facet normal -0.887522 -0.460765 0
  outer loop
   vertex 5.25149 21.439 -3.4715
   vertex 4.46718 22.9497 1.731
   vertex 4.46718 22.9497 -3.4715
  end loop
 end facet
 facet normal -0.887522 -0.460765 0
  outer loop
   vertex 5.25149 21.439 -3.4715
   vertex 5.25149 21.439 1.731
   vertex 4.46718 22.9497 1.731
  end loop
 end facet
 facet normal -0.833963 -0.551821 0
  outer loop
   vertex 4.46718 22.9497 -3.4715
   vertex 3.63393 24.209 1.731
   vertex 3.63393 24.209 -3.4715
  end loop
 end facet
 facet normal -0.833963 -0.551821 0
  outer loop
   vertex 4.46718 22.9497 -3.4715
   vertex 4.46718 22.9497 1.731
   vertex 3.63393 24.209 1.731
  end loop
 end facet
 facet normal -0.751349 -0.659905 0
  outer loop
   vertex 3.63393 24.209 -3.4715
   vertex 2.76087 25.203 1.731
   vertex 2.76087 25.203 -3.4715
  end loop
 end facet
 facet normal -0.751349 -0.659905 0
  outer loop
   vertex 3.63393 24.209 -3.4715
   vertex 3.63393 24.209 1.731
   vertex 2.76087 25.203 1.731
  end loop
 end facet
 facet normal -0.62219 -0.782867 0
  outer loop
   vertex 2.76087 25.203 -3.4715
   vertex 1.85756 25.9209 1.731
   vertex 1.85756 25.9209 -3.4715
  end loop
 end facet
 facet normal -0.62219 -0.782867 0
  outer loop
   vertex 2.76087 25.203 -3.4715
   vertex 2.76087 25.203 1.731
   vertex 1.85756 25.9209 1.731
  end loop
 end facet
 facet normal -0.425198 -0.9051 0
  outer loop
   vertex 1.85756 25.9209 -3.4715
   vertex 0.933895 26.3548 1.731
   vertex 0.933895 26.3548 -3.4715
  end loop
 end facet
 facet normal -0.425198 -0.9051 0
  outer loop
   vertex 1.85756 25.9209 -3.4715
   vertex 1.85756 25.9209 1.731
   vertex 0.933895 26.3548 1.731
  end loop
 end facet
 facet normal -0.153601 -0.988133 0
  outer loop
   vertex 0.933895 26.3548 -3.4715
   vertex 2.5309e-15 26.5 1.731
   vertex 2.5309e-15 26.5 -3.4715
  end loop
 end facet
 facet normal -0.153601 -0.988133 0
  outer loop
   vertex 0.933895 26.3548 -3.4715
   vertex 0.933895 26.3548 1.731
   vertex 2.5309e-15 26.5 1.731
  end loop
 end facet
 facet normal 0.153601 -0.988133 0
  outer loop
   vertex 2.5309e-15 26.5 -3.4715
   vertex -0.933895 26.3548 1.731
   vertex -0.933895 26.3548 -3.4715
  end loop
 end facet
 facet normal 0.153601 -0.988133 0
  outer loop
   vertex 2.5309e-15 26.5 -3.4715
   vertex 2.5309e-15 26.5 1.731
   vertex -0.933895 26.3548 1.731
  end loop
 end facet
 facet normal 0.425198 -0.9051 0
  outer loop
   vertex -0.933895 26.3548 -3.4715
   vertex -1.85756 25.9209 1.731
   vertex -1.85756 25.9209 -3.4715
  end loop
 end facet
 facet normal 0.425198 -0.9051 0
  outer loop
   vertex -0.933895 26.3548 -3.4715
   vertex -0.933895 26.3548 1.731
   vertex -1.85756 25.9209 1.731
  end loop
 end facet
 facet normal 0.62219 -0.782867 0
  outer loop
   vertex -1.85756 25.9209 -3.4715
   vertex -2.76087 25.203 1.731
   vertex -2.76087 25.203 -3.4715
  end loop
 end facet
 facet normal 0.62219 -0.782867 0
  outer loop
   vertex -1.85756 25.9209 -3.4715
   vertex -1.85756 25.9209 1.731
   vertex -2.76087 25.203 1.731
  end loop
 end facet
 facet normal 0.751349 -0.659905 0
  outer loop
   vertex -2.76087 25.203 -3.4715
   vertex -3.63393 24.209 1.731
   vertex -3.63393 24.209 -3.4715
  end loop
 end facet
 facet normal 0.751349 -0.659905 0
  outer loop
   vertex -2.76087 25.203 -3.4715
   vertex -2.76087 25.203 1.731
   vertex -3.63393 24.209 1.731
  end loop
 end facet
 facet normal 0.833963 -0.551821 0
  outer loop
   vertex -3.63393 24.209 -3.4715
   vertex -4.46718 22.9497 1.731
   vertex -4.46718 22.9497 -3.4715
  end loop
 end facet
 facet normal 0.833963 -0.551821 0
  outer loop
   vertex -3.63393 24.209 -3.4715
   vertex -3.63393 24.209 1.731
   vertex -4.46718 22.9497 1.731
  end loop
 end facet
 facet normal 0.887522 -0.460765 0
  outer loop
   vertex -4.46718 22.9497 -3.4715
   vertex -5.25149 21.439 1.731
   vertex -5.25149 21.439 -3.4715
  end loop
 end facet
 facet normal 0.887522 -0.460765 0
  outer loop
   vertex -4.46718 22.9497 -3.4715
   vertex -4.46718 22.9497 1.731
   vertex -5.25149 21.439 1.731
  end loop
 end facet
 facet normal 0.923184 -0.384359 0
  outer loop
   vertex -5.25149 21.439 -3.4715
   vertex -5.97825 19.6933 1.731
   vertex -5.97825 19.6933 -3.4715
  end loop
 end facet
 facet normal 0.923184 -0.384359 0
  outer loop
   vertex -5.25149 21.439 -3.4715
   vertex -5.25149 21.439 1.731
   vertex -5.97825 19.6933 1.731
  end loop
 end facet
 facet normal 0.947594 -0.319477 0
  outer loop
   vertex -5.97825 19.6933 -3.4715
   vertex -6.63952 17.732 1.731
   vertex -6.63952 17.732 -3.4715
  end loop
 end facet
 facet normal 0.947594 -0.319477 0
  outer loop
   vertex -5.97825 19.6933 -3.4715
   vertex -5.97825 19.6933 1.731
   vertex -6.63952 17.732 1.731
  end loop
 end facet
 facet normal 0.964693 -0.263376 0
  outer loop
   vertex -6.63952 17.732 -3.4715
   vertex -7.22805 15.5763 1.731
   vertex -7.22805 15.5763 -3.4715
  end loop
 end facet
 facet normal 0.964693 -0.263376 0
  outer loop
   vertex -6.63952 17.732 -3.4715
   vertex -6.63952 17.732 1.731
   vertex -7.22805 15.5763 1.731
  end loop
 end facet
 facet normal 0.97686 -0.213879 0
  outer loop
   vertex -7.22805 15.5763 -3.4715
   vertex -7.73738 13.25 1.731
   vertex -7.73738 13.25 -3.4715
  end loop
 end facet
 facet normal 0.97686 -0.213879 0
  outer loop
   vertex -7.22805 15.5763 -3.4715
   vertex -7.22805 15.5763 1.731
   vertex -7.73738 13.25 1.731
  end loop
 end facet
 facet normal 0.985564 -0.169304 0
  outer loop
   vertex -7.73738 13.25 -3.4715
   vertex -8.16194 10.7785 1.731
   vertex -8.16194 10.7785 -3.4715
  end loop
 end facet
 facet normal 0.985564 -0.169304 0
  outer loop
   vertex -7.73738 13.25 -3.4715
   vertex -7.73738 13.25 1.731
   vertex -8.16194 10.7785 1.731
  end loop
 end facet
 facet normal 0.991729 -0.128348 0
  outer loop
   vertex -8.16194 10.7785 -3.4715
   vertex -8.49708 8.18895 1.731
   vertex -8.49708 8.18895 -3.4715
  end loop
 end facet
 facet normal 0.991729 -0.128348 0
  outer loop
   vertex -8.16194 10.7785 -3.4715
   vertex -8.16194 10.7785 1.731
   vertex -8.49708 8.18895 1.731
  end loop
 end facet
 facet normal 0.995944 -0.0899715 0
  outer loop
   vertex -8.49708 8.18895 -3.4715
   vertex -8.73912 5.50966 1.731
   vertex -8.73912 5.50966 -3.4715
  end loop
 end facet
 facet normal 0.995944 -0.0899715 0
  outer loop
   vertex -8.49708 8.18895 -3.4715
   vertex -8.49708 8.18895 1.731
   vertex -8.73912 5.50966 1.731
  end loop
 end facet
 facet normal 0.998577 -0.0533227 0
  outer loop
   vertex -8.73912 5.50966 -3.4715
   vertex -8.88542 2.77 1.731
   vertex -8.88542 2.77 -3.4715
  end loop
 end facet
 facet normal 0.998577 -0.0533227 0
  outer loop
   vertex -8.73912 5.50966 -3.4715
   vertex -8.73912 5.50966 1.731
   vertex -8.88542 2.77 1.731
  end loop
 end facet
 facet normal 0.999844 -0.0176663 0
  outer loop
   vertex -8.88542 2.77 -3.4715
   vertex -8.93436 1.50137e-14 1.731
   vertex -8.93436 1.50137e-14 -3.4715
  end loop
 end facet
 facet normal 0.999844 -0.0176663 0
  outer loop
   vertex -8.88542 2.77 -3.4715
   vertex -8.88542 2.77 1.731
   vertex -8.93436 1.50137e-14 1.731
  end loop
 end facet
 facet normal 0.999844 0.0176663 0
  outer loop
   vertex -8.93436 1.50137e-14 -3.4715
   vertex -8.88542 -2.77 1.731
   vertex -8.88542 -2.77 -3.4715
  end loop
 end facet
 facet normal 0.999844 0.0176663 -0
  outer loop
   vertex -8.93436 1.50137e-14 -3.4715
   vertex -8.93436 1.50137e-14 1.731
   vertex -8.88542 -2.77 1.731
  end loop
 end facet
 facet normal 0.998577 0.0533227 0
  outer loop
   vertex -8.88542 -2.77 -3.4715
   vertex -8.73912 -5.50966 1.731
   vertex -8.73912 -5.50966 -3.4715
  end loop
 end facet
 facet normal 0.998577 0.0533227 -0
  outer loop
   vertex -8.88542 -2.77 -3.4715
   vertex -8.88542 -2.77 1.731
   vertex -8.73912 -5.50966 1.731
  end loop
 end facet
 facet normal 0.995944 0.0899715 0
  outer loop
   vertex -8.73912 -5.50966 -3.4715
   vertex -8.49708 -8.18895 1.731
   vertex -8.49708 -8.18895 -3.4715
  end loop
 end facet
 facet normal 0.995944 0.0899715 -0
  outer loop
   vertex -8.73912 -5.50966 -3.4715
   vertex -8.73912 -5.50966 1.731
   vertex -8.49708 -8.18895 1.731
  end loop
 end facet
 facet normal 0.991729 0.128348 0
  outer loop
   vertex -8.49708 -8.18895 -3.4715
   vertex -8.16194 -10.7785 1.731
   vertex -8.16194 -10.7785 -3.4715
  end loop
 end facet
 facet normal 0.991729 0.128348 -0
  outer loop
   vertex -8.49708 -8.18895 -3.4715
   vertex -8.49708 -8.18895 1.731
   vertex -8.16194 -10.7785 1.731
  end loop
 end facet
 facet normal 0.985564 0.169304 0
  outer loop
   vertex -8.16194 -10.7785 -3.4715
   vertex -7.73738 -13.25 1.731
   vertex -7.73738 -13.25 -3.4715
  end loop
 end facet
 facet normal 0.985564 0.169304 -0
  outer loop
   vertex -8.16194 -10.7785 -3.4715
   vertex -8.16194 -10.7785 1.731
   vertex -7.73738 -13.25 1.731
  end loop
 end facet
 facet normal 0.97686 0.213879 0
  outer loop
   vertex -7.73738 -13.25 -3.4715
   vertex -7.22805 -15.5763 1.731
   vertex -7.22805 -15.5763 -3.4715
  end loop
 end facet
 facet normal 0.97686 0.213879 -0
  outer loop
   vertex -7.73738 -13.25 -3.4715
   vertex -7.73738 -13.25 1.731
   vertex -7.22805 -15.5763 1.731
  end loop
 end facet
 facet normal 0.964693 0.263376 0
  outer loop
   vertex -7.22805 -15.5763 -3.4715
   vertex -6.63952 -17.732 1.731
   vertex -6.63952 -17.732 -3.4715
  end loop
 end facet
 facet normal 0.964693 0.263376 -0
  outer loop
   vertex -7.22805 -15.5763 -3.4715
   vertex -7.22805 -15.5763 1.731
   vertex -6.63952 -17.732 1.731
  end loop
 end facet
 facet normal 0.947594 0.319477 0
  outer loop
   vertex -6.63952 -17.732 -3.4715
   vertex -5.97825 -19.6933 1.731
   vertex -5.97825 -19.6933 -3.4715
  end loop
 end facet
 facet normal 0.947594 0.319477 -0
  outer loop
   vertex -6.63952 -17.732 -3.4715
   vertex -6.63952 -17.732 1.731
   vertex -5.97825 -19.6933 1.731
  end loop
 end facet
 facet normal 0.923184 0.384359 0
  outer loop
   vertex -5.97825 -19.6933 -3.4715
   vertex -5.25149 -21.439 1.731
   vertex -5.25149 -21.439 -3.4715
  end loop
 end facet
 facet normal 0.923184 0.384359 -0
  outer loop
   vertex -5.97825 -19.6933 -3.4715
   vertex -5.97825 -19.6933 1.731
   vertex -5.25149 -21.439 1.731
  end loop
 end facet
 facet normal 0.887522 0.460765 0
  outer loop
   vertex -5.25149 -21.439 -3.4715
   vertex -4.46718 -22.9497 1.731
   vertex -4.46718 -22.9497 -3.4715
  end loop
 end facet
 facet normal 0.887522 0.460765 -0
  outer loop
   vertex -5.25149 -21.439 -3.4715
   vertex -5.25149 -21.439 1.731
   vertex -4.46718 -22.9497 1.731
  end loop
 end facet
 facet normal 0.833963 0.551821 0
  outer loop
   vertex -4.46718 -22.9497 -3.4715
   vertex -3.63393 -24.209 1.731
   vertex -3.63393 -24.209 -3.4715
  end loop
 end facet
 facet normal 0.833963 0.551821 -0
  outer loop
   vertex -4.46718 -22.9497 -3.4715
   vertex -4.46718 -22.9497 1.731
   vertex -3.63393 -24.209 1.731
  end loop
 end facet
 facet normal 0.751349 0.659905 0
  outer loop
   vertex -3.63393 -24.209 -3.4715
   vertex -2.76087 -25.203 1.731
   vertex -2.76087 -25.203 -3.4715
  end loop
 end facet
 facet normal 0.751349 0.659905 -0
  outer loop
   vertex -3.63393 -24.209 -3.4715
   vertex -3.63393 -24.209 1.731
   vertex -2.76087 -25.203 1.731
  end loop
 end facet
 facet normal 0.62219 0.782867 0
  outer loop
   vertex -2.76087 -25.203 -3.4715
   vertex -1.85756 -25.9209 1.731
   vertex -1.85756 -25.9209 -3.4715
  end loop
 end facet
 facet normal 0.62219 0.782867 -0
  outer loop
   vertex -2.76087 -25.203 -3.4715
   vertex -2.76087 -25.203 1.731
   vertex -1.85756 -25.9209 1.731
  end loop
 end facet
 facet normal 0.425198 0.9051 0
  outer loop
   vertex -1.85756 -25.9209 -3.4715
   vertex -0.933895 -26.3548 1.731
   vertex -0.933895 -26.3548 -3.4715
  end loop
 end facet
 facet normal 0.425198 0.9051 -0
  outer loop
   vertex -1.85756 -25.9209 -3.4715
   vertex -1.85756 -25.9209 1.731
   vertex -0.933895 -26.3548 1.731
  end loop
 end facet
 facet normal 0.153601 0.988133 0
  outer loop
   vertex -0.933895 -26.3548 -3.4715
   vertex -1.64122e-15 -26.5 1.731
   vertex -1.64122e-15 -26.5 -3.4715
  end loop
 end facet
 facet normal 0.153601 0.988133 -0
  outer loop
   vertex -0.933895 -26.3548 -3.4715
   vertex -0.933895 -26.3548 1.731
   vertex -1.64122e-15 -26.5 1.731
  end loop
 end facet
 facet normal -0.153601 0.988133 0
  outer loop
   vertex -1.64122e-15 -26.5 -3.4715
   vertex 0.933895 -26.3548 1.731
   vertex 0.933895 -26.3548 -3.4715
  end loop
 end facet
 facet normal -0.153601 0.988133 0
  outer loop
   vertex -1.64122e-15 -26.5 -3.4715
   vertex -1.64122e-15 -26.5 1.731
   vertex 0.933895 -26.3548 1.731
  end loop
 end facet
 facet normal -0.425198 0.9051 0
  outer loop
   vertex 0.933895 -26.3548 -3.4715
   vertex 1.85756 -25.9209 1.731
   vertex 1.85756 -25.9209 -3.4715
  end loop
 end facet
 facet normal -0.425198 0.9051 0
  outer loop
   vertex 0.933895 -26.3548 -3.4715
   vertex 0.933895 -26.3548 1.731
   vertex 1.85756 -25.9209 1.731
  end loop
 end facet
 facet normal -0.62219 0.782867 0
  outer loop
   vertex 1.85756 -25.9209 -3.4715
   vertex 2.76087 -25.203 1.731
   vertex 2.76087 -25.203 -3.4715
  end loop
 end facet
 facet normal -0.62219 0.782867 0
  outer loop
   vertex 1.85756 -25.9209 -3.4715
   vertex 1.85756 -25.9209 1.731
   vertex 2.76087 -25.203 1.731
  end loop
 end facet
 facet normal -0.751349 0.659905 0
  outer loop
   vertex 2.76087 -25.203 -3.4715
   vertex 3.63393 -24.209 1.731
   vertex 3.63393 -24.209 -3.4715
  end loop
 end facet
 facet normal -0.751349 0.659905 0
  outer loop
   vertex 2.76087 -25.203 -3.4715
   vertex 2.76087 -25.203 1.731
   vertex 3.63393 -24.209 1.731
  end loop
 end facet
 facet normal -0.833963 0.551821 0
  outer loop
   vertex 3.63393 -24.209 -3.4715
   vertex 4.46718 -22.9497 1.731
   vertex 4.46718 -22.9497 -3.4715
  end loop
 end facet
 facet normal -0.833963 0.551821 0
  outer loop
   vertex 3.63393 -24.209 -3.4715
   vertex 3.63393 -24.209 1.731
   vertex 4.46718 -22.9497 1.731
  end loop
 end facet
 facet normal -0.887522 0.460765 0
  outer loop
   vertex 4.46718 -22.9497 -3.4715
   vertex 5.25149 -21.439 1.731
   vertex 5.25149 -21.439 -3.4715
  end loop
 end facet
 facet normal -0.887522 0.460765 0
  outer loop
   vertex 4.46718 -22.9497 -3.4715
   vertex 4.46718 -22.9497 1.731
   vertex 5.25149 -21.439 1.731
  end loop
 end facet
 facet normal -0.923184 0.384359 0
  outer loop
   vertex 5.25149 -21.439 -3.4715
   vertex 5.97825 -19.6933 1.731
   vertex 5.97825 -19.6933 -3.4715
  end loop
 end facet
 facet normal -0.923184 0.384359 0
  outer loop
   vertex 5.25149 -21.439 -3.4715
   vertex 5.25149 -21.439 1.731
   vertex 5.97825 -19.6933 1.731
  end loop
 end facet
 facet normal -0.947594 0.319477 0
  outer loop
   vertex 5.97825 -19.6933 -3.4715
   vertex 6.63952 -17.732 1.731
   vertex 6.63952 -17.732 -3.4715
  end loop
 end facet
 facet normal -0.947594 0.319477 0
  outer loop
   vertex 5.97825 -19.6933 -3.4715
   vertex 5.97825 -19.6933 1.731
   vertex 6.63952 -17.732 1.731
  end loop
 end facet
 facet normal -0.964693 0.263376 0
  outer loop
   vertex 6.63952 -17.732 -3.4715
   vertex 7.22805 -15.5763 1.731
   vertex 7.22805 -15.5763 -3.4715
  end loop
 end facet
 facet normal -0.964693 0.263376 0
  outer loop
   vertex 6.63952 -17.732 -3.4715
   vertex 6.63952 -17.732 1.731
   vertex 7.22805 -15.5763 1.731
  end loop
 end facet
 facet normal -0.97686 0.213879 0
  outer loop
   vertex 7.22805 -15.5763 -3.4715
   vertex 7.73738 -13.25 1.731
   vertex 7.73738 -13.25 -3.4715
  end loop
 end facet
 facet normal -0.97686 0.213879 0
  outer loop
   vertex 7.22805 -15.5763 -3.4715
   vertex 7.22805 -15.5763 1.731
   vertex 7.73738 -13.25 1.731
  end loop
 end facet
 facet normal -0.985564 0.169304 0
  outer loop
   vertex 7.73738 -13.25 -3.4715
   vertex 8.16194 -10.7785 1.731
   vertex 8.16194 -10.7785 -3.4715
  end loop
 end facet
 facet normal -0.985564 0.169304 0
  outer loop
   vertex 7.73738 -13.25 -3.4715
   vertex 7.73738 -13.25 1.731
   vertex 8.16194 -10.7785 1.731
  end loop
 end facet
 facet normal -0.991729 0.128348 0
  outer loop
   vertex 8.16194 -10.7785 -3.4715
   vertex 8.49708 -8.18895 1.731
   vertex 8.49708 -8.18895 -3.4715
  end loop
 end facet
 facet normal -0.991729 0.128348 0
  outer loop
   vertex 8.16194 -10.7785 -3.4715
   vertex 8.16194 -10.7785 1.731
   vertex 8.49708 -8.18895 1.731
  end loop
 end facet
 facet normal -0.995944 0.0899715 0
  outer loop
   vertex 8.49708 -8.18895 -3.4715
   vertex 8.73912 -5.50966 1.731
   vertex 8.73912 -5.50966 -3.4715
  end loop
 end facet
 facet normal -0.995944 0.0899715 0
  outer loop
   vertex 8.49708 -8.18895 -3.4715
   vertex 8.49708 -8.18895 1.731
   vertex 8.73912 -5.50966 1.731
  end loop
 end facet
 facet normal -0.998577 0.0533227 0
  outer loop
   vertex 8.73912 -5.50966 -3.4715
   vertex 8.88542 -2.77 1.731
   vertex 8.88542 -2.77 -3.4715
  end loop
 end facet
 facet normal -0.998577 0.0533227 0
  outer loop
   vertex 8.73912 -5.50966 -3.4715
   vertex 8.73912 -5.50966 1.731
   vertex 8.88542 -2.77 1.731
  end loop
 end facet
 facet normal -0.999844 0.0176663 0
  outer loop
   vertex 8.88542 -2.77 -3.4715
   vertex 8.93436 0 1.731
   vertex 8.93436 0 -3.4715
  end loop
 end facet
 facet normal -0.999844 0.0176663 0
  outer loop
   vertex 8.88542 -2.77 -3.4715
   vertex 8.88542 -2.77 1.731
   vertex 8.93436 0 1.731
  end loop
 end facet
 facet normal 0 0 -1
  outer loop
   vertex 9.68436 0 -3.4715
   vertex 8.88542 2.77 -3.4715
   vertex 9.63131 2.8484 -3.4715
  end loop
 end facet
 facet normal 0 0 -1
  outer loop
   vertex 9.68436 0 -3.4715
   vertex 8.93436 0 -3.4715
   vertex 8.88542 2.77 -3.4715
  end loop
 end facet
 facet normal 0 0 -1
  outer loop
   vertex 9.63131 2.8484 -3.4715
   vertex 8.73912 5.50966 -3.4715
   vertex 9.47273 5.66559 -3.4715
  end loop
 end facet
 facet normal -0 0 -1
  outer loop
   vertex 9.63131 2.8484 -3.4715
   vertex 8.88542 2.77 -3.4715
   vertex 8.73912 5.50966 -3.4715
  end loop
 end facet
 facet normal 0 0 -1
  outer loop
   vertex 9.47273 5.66559 -3.4715
   vertex 8.49708 8.18895 -3.4715
   vertex 9.21037 8.42071 -3.4715
  end loop
 end facet
 facet normal -0 0 -1
  outer loop
   vertex 9.47273 5.66559 -3.4715
   vertex 8.73912 5.50966 -3.4715
   vertex 8.49708 8.18895 -3.4715
  end loop
 end facet
 facet normal 0 0 -1
  outer loop
   vertex 9.21037 8.42071 -3.4715
   vertex 8.16194 10.7785 -3.4715
   vertex 8.8471 11.0836 -3.4715
  end loop
 end facet
 facet normal -0 0 -1
  outer loop
   vertex 9.21037 8.42071 -3.4715
   vertex 8.49708 8.18895 -3.4715
   vertex 8.16194 10.7785 -3.4715
  end loop
 end facet
 facet normal 0 0 -1
  outer loop
   vertex 8.8471 11.0836 -3.4715
   vertex 7.73738 13.25 -3.4715
   vertex 8.3869 13.625 -3.4715
  end loop
 end facet
 facet normal -0 0 -1
  outer loop
   vertex 8.8471 11.0836 -3.4715
   vertex 8.16194 10.7785 -3.4715
   vertex 7.73738 13.25 -3.4715
  end loop
 end facet
 facet normal 0 0 -1
  outer loop
   vertex 8.3869 13.625 -3.4715
   vertex 7.22805 15.5763 -3.4715
   vertex 7.83481 16.0171 -3.4715
  end loop
 end facet
 facet normal -0 0 -1
  outer loop
   vertex 8.3869 13.625 -3.4715
   vertex 7.73738 13.25 -3.4715
   vertex 7.22805 15.5763 -3.4715
  end loop
 end facet
 facet normal 0 0 -1
  outer loop
   vertex 7.83481 16.0171 -3.4715
   vertex 6.63952 17.732 -3.4715
   vertex 7.19688 18.2338 -3.4715
  end loop
 end facet
 facet normal -0 0 -1
  outer loop
   vertex 7.83481 16.0171 -3.4715
   vertex 7.22805 15.5763 -3.4715
   vertex 6.63952 17.732 -3.4715
  end loop
 end facet
 facet normal 0 0 -1
  outer loop
   vertex 7.19688 18.2338 -3.4715
   vertex 5.97825 19.6933 -3.4715
   vertex 6.4801 20.2507 -3.4715
  end loop
 end facet
 facet normal -0 0 -1
  outer loop
   vertex 7.19688 18.2338 -3.4715
   vertex 6.63952 17.732 -3.4715
   vertex 5.97825 19.6933 -3.4715
  end loop
 end facet
 facet normal 0 0 -1
  outer loop
   vertex 6.4801 20.2507 -3.4715
   vertex 5.25149 21.439 -3.4715
   vertex 5.69232 22.0457 -3.4715
  end loop
 end facet
 facet normal -0 0 -1
  outer loop
   vertex 6.4801 20.2507 -3.4715
   vertex 5.97825 19.6933 -3.4715
   vertex 5.25149 21.439 -3.4715
  end loop
 end facet
 facet normal 0 0 -1
  outer loop
   vertex 5.69232 22.0457 -3.4715
   vertex 4.46718 22.9497 -3.4715
   vertex 4.84218 23.5992 -3.4715
  end loop
 end facet
 facet normal -0 0 -1
  outer loop
   vertex 5.69232 22.0457 -3.4715
   vertex 5.25149 21.439 -3.4715
   vertex 4.46718 22.9497 -3.4715
  end loop
 end facet
 facet normal 0 0 -1
  outer loop
   vertex 4.84218 23.5992 -3.4715
   vertex 3.63393 24.209 -3.4715
   vertex 3.93898 24.8941 -3.4715
  end loop
 end facet
 facet normal -0 0 -1
  outer loop
   vertex 4.84218 23.5992 -3.4715
   vertex 4.46718 22.9497 -3.4715
   vertex 3.63393 24.209 -3.4715
  end loop
 end facet
 facet normal 0 0 -1
  outer loop
   vertex 3.93898 24.8941 -3.4715
   vertex 2.76087 25.203 -3.4715
   vertex 2.99263 25.9163 -3.4715
  end loop
 end facet
 facet normal -0 0 -1
  outer loop
   vertex 3.93898 24.8941 -3.4715
   vertex 3.63393 24.209 -3.4715
   vertex 2.76087 25.203 -3.4715
  end loop
 end facet
 facet normal 0 0 -1
  outer loop
   vertex 2.99263 25.9163 -3.4715
   vertex 1.85756 25.9209 -3.4715
   vertex 2.01349 26.6545 -3.4715
  end loop
 end facet
 facet normal -0 0 -1
  outer loop
   vertex 2.99263 25.9163 -3.4715
   vertex 2.76087 25.203 -3.4715
   vertex 1.85756 25.9209 -3.4715
  end loop
 end facet
 facet normal -0 0 -1
  outer loop
   vertex 2.01349 26.6545 -3.4715
   vertex 0.933895 26.3548 -3.4715
   vertex 1.01229 27.1007 -3.4715
  end loop
 end facet
 facet normal 0 0 -1
  outer loop
   vertex 2.01349 26.6545 -3.4715
   vertex 1.85756 25.9209 -3.4715
   vertex 0.933895 26.3548 -3.4715
  end loop
 end facet
 facet normal -0 0 -1
  outer loop
   vertex 1.01229 27.1007 -3.4715
   vertex 2.5309e-15 26.5 -3.4715
   vertex 2.74336e-15 27.25 -3.4715
  end loop
 end facet
 facet normal 0 0 -1
  outer loop
   vertex 1.01229 27.1007 -3.4715
   vertex 0.933895 26.3548 -3.4715
   vertex 2.5309e-15 26.5 -3.4715
  end loop
 end facet
 facet normal 0 0 -1
  outer loop
   vertex 2.74336e-15 27.25 -3.4715
   vertex -0.933895 26.3548 -3.4715
   vertex -1.01229 27.1007 -3.4715
  end loop
 end facet
 facet normal 0 0 -1
  outer loop
   vertex 2.74336e-15 27.25 -3.4715
   vertex 2.5309e-15 26.5 -3.4715
   vertex -0.933895 26.3548 -3.4715
  end loop
 end facet
 facet normal 0 0 -1
  outer loop
   vertex -1.01229 27.1007 -3.4715
   vertex -1.85756 25.9209 -3.4715
   vertex -2.01349 26.6545 -3.4715
  end loop
 end facet
 facet normal 0 -0 -1
  outer loop
   vertex -1.01229 27.1007 -3.4715
   vertex -0.933895 26.3548 -3.4715
   vertex -1.85756 25.9209 -3.4715
  end loop
 end facet
 facet normal 0 0 -1
  outer loop
   vertex -2.01349 26.6545 -3.4715
   vertex -2.76087 25.203 -3.4715
   vertex -2.99263 25.9163 -3.4715
  end loop
 end facet
 facet normal 0 -0 -1
  outer loop
   vertex -2.01349 26.6545 -3.4715
   vertex -1.85756 25.9209 -3.4715
   vertex -2.76087 25.203 -3.4715
  end loop
 end facet
 facet normal 0 0 -1
  outer loop
   vertex -2.99263 25.9163 -3.4715
   vertex -3.63393 24.209 -3.4715
   vertex -3.93898 24.8941 -3.4715
  end loop
 end facet
 facet normal 0 -0 -1
  outer loop
   vertex -2.99263 25.9163 -3.4715
   vertex -2.76087 25.203 -3.4715
   vertex -3.63393 24.209 -3.4715
  end loop
 end facet
 facet normal 0 0 -1
  outer loop
   vertex -3.93898 24.8941 -3.4715
   vertex -4.46718 22.9497 -3.4715
   vertex -4.84218 23.5992 -3.4715
  end loop
 end facet
 facet normal 0 -0 -1
  outer loop
   vertex -3.93898 24.8941 -3.4715
   vertex -3.63393 24.209 -3.4715
   vertex -4.46718 22.9497 -3.4715
  end loop
 end facet
 facet normal 0 0 -1
  outer loop
   vertex -4.84218 23.5992 -3.4715
   vertex -5.25149 21.439 -3.4715
   vertex -5.69232 22.0457 -3.4715
  end loop
 end facet
 facet normal 0 -0 -1
  outer loop
   vertex -4.84218 23.5992 -3.4715
   vertex -4.46718 22.9497 -3.4715
   vertex -5.25149 21.439 -3.4715
  end loop
 end facet
 facet normal 0 0 -1
  outer loop
   vertex -5.69232 22.0457 -3.4715
   vertex -5.97825 19.6933 -3.4715
   vertex -6.4801 20.2507 -3.4715
  end loop
 end facet
 facet normal 0 -0 -1
  outer loop
   vertex -5.69232 22.0457 -3.4715
   vertex -5.25149 21.439 -3.4715
   vertex -5.97825 19.6933 -3.4715
  end loop
 end facet
 facet normal 0 0 -1
  outer loop
   vertex -6.4801 20.2507 -3.4715
   vertex -6.63952 17.732 -3.4715
   vertex -7.19688 18.2338 -3.4715
  end loop
 end facet
 facet normal 0 -0 -1
  outer loop
   vertex -6.4801 20.2507 -3.4715
   vertex -5.97825 19.6933 -3.4715
   vertex -6.63952 17.732 -3.4715
  end loop
 end facet
 facet normal 0 0 -1
  outer loop
   vertex -7.19688 18.2338 -3.4715
   vertex -7.22805 15.5763 -3.4715
   vertex -7.83481 16.0171 -3.4715
  end loop
 end facet
 facet normal 0 -0 -1
  outer loop
   vertex -7.19688 18.2338 -3.4715
   vertex -6.63952 17.732 -3.4715
   vertex -7.22805 15.5763 -3.4715
  end loop
 end facet
 facet normal 0 -0 -1
  outer loop
   vertex -7.83481 16.0171 -3.4715
   vertex -7.73738 13.25 -3.4715
   vertex -8.3869 13.625 -3.4715
  end loop
 end facet
 facet normal 0 0 -1
  outer loop
   vertex -7.83481 16.0171 -3.4715
   vertex -7.22805 15.5763 -3.4715
   vertex -7.73738 13.25 -3.4715
  end loop
 end facet
 facet normal 0 -0 -1
  outer loop
   vertex -8.3869 13.625 -3.4715
   vertex -8.16194 10.7785 -3.4715
   vertex -8.8471 11.0836 -3.4715
  end loop
 end facet
 facet normal 0 0 -1
  outer loop
   vertex -8.3869 13.625 -3.4715
   vertex -7.73738 13.25 -3.4715
   vertex -8.16194 10.7785 -3.4715
  end loop
 end facet
 facet normal 0 -0 -1
  outer loop
   vertex -8.8471 11.0836 -3.4715
   vertex -8.49708 8.18895 -3.4715
   vertex -9.21037 8.42071 -3.4715
  end loop
 end facet
 facet normal 0 0 -1
  outer loop
   vertex -8.8471 11.0836 -3.4715
   vertex -8.16194 10.7785 -3.4715
   vertex -8.49708 8.18895 -3.4715
  end loop
 end facet
 facet normal 0 -0 -1
  outer loop
   vertex -9.21037 8.42071 -3.4715
   vertex -8.73912 5.50966 -3.4715
   vertex -9.47273 5.66559 -3.4715
  end loop
 end facet
 facet normal 0 0 -1
  outer loop
   vertex -9.21037 8.42071 -3.4715
   vertex -8.49708 8.18895 -3.4715
   vertex -8.73912 5.50966 -3.4715
  end loop
 end facet
 facet normal 0 -0 -1
  outer loop
   vertex -9.47273 5.66559 -3.4715
   vertex -8.88542 2.77 -3.4715
   vertex -9.63131 2.8484 -3.4715
  end loop
 end facet
 facet normal 0 0 -1
  outer loop
   vertex -9.47273 5.66559 -3.4715
   vertex -8.73912 5.50966 -3.4715
   vertex -8.88542 2.77 -3.4715
  end loop
 end facet
 facet normal 0 -0 -1
  outer loop
   vertex -9.63131 2.8484 -3.4715
   vertex -8.93436 1.50137e-14 -3.4715
   vertex -9.68436 1.54386e-14 -3.4715
  end loop
 end facet
 facet normal 0 0 -1
  outer loop
   vertex -9.63131 2.8484 -3.4715
   vertex -8.88542 2.77 -3.4715
   vertex -8.93436 1.50137e-14 -3.4715
  end loop
 end facet
 facet normal 0 0 -1
  outer loop
   vertex -9.68436 1.54386e-14 -3.4715
   vertex -8.88542 -2.77 -3.4715
   vertex -9.63131 -2.8484 -3.4715
  end loop
 end facet
 facet normal 0 0 -1
  outer loop
   vertex -9.68436 1.54386e-14 -3.4715
   vertex -8.93436 1.50137e-14 -3.4715
   vertex -8.88542 -2.77 -3.4715
  end loop
 end facet
 facet normal 0 0 -1
  outer loop
   vertex -9.63131 -2.8484 -3.4715
   vertex -8.73912 -5.50966 -3.4715
   vertex -9.47273 -5.66559 -3.4715
  end loop
 end facet
 facet normal 0 0 -1
  outer loop
   vertex -9.63131 -2.8484 -3.4715
   vertex -8.88542 -2.77 -3.4715
   vertex -8.73912 -5.50966 -3.4715
  end loop
 end facet
 facet normal 0 0 -1
  outer loop
   vertex -9.47273 -5.66559 -3.4715
   vertex -8.49708 -8.18895 -3.4715
   vertex -9.21037 -8.42071 -3.4715
  end loop
 end facet
 facet normal 0 0 -1
  outer loop
   vertex -9.47273 -5.66559 -3.4715
   vertex -8.73912 -5.50966 -3.4715
   vertex -8.49708 -8.18895 -3.4715
  end loop
 end facet
 facet normal 0 0 -1
  outer loop
   vertex -9.21037 -8.42071 -3.4715
   vertex -8.16194 -10.7785 -3.4715
   vertex -8.8471 -11.0836 -3.4715
  end loop
 end facet
 facet normal 0 0 -1
  outer loop
   vertex -9.21037 -8.42071 -3.4715
   vertex -8.49708 -8.18895 -3.4715
   vertex -8.16194 -10.7785 -3.4715
  end loop
 end facet
 facet normal 0 0 -1
  outer loop
   vertex -8.8471 -11.0836 -3.4715
   vertex -7.73738 -13.25 -3.4715
   vertex -8.3869 -13.625 -3.4715
  end loop
 end facet
 facet normal 0 0 -1
  outer loop
   vertex -8.8471 -11.0836 -3.4715
   vertex -8.16194 -10.7785 -3.4715
   vertex -7.73738 -13.25 -3.4715
  end loop
 end facet
 facet normal 0 0 -1
  outer loop
   vertex -8.3869 -13.625 -3.4715
   vertex -7.22805 -15.5763 -3.4715
   vertex -7.83481 -16.0171 -3.4715
  end loop
 end facet
 facet normal 0 0 -1
  outer loop
   vertex -8.3869 -13.625 -3.4715
   vertex -7.73738 -13.25 -3.4715
   vertex -7.22805 -15.5763 -3.4715
  end loop
 end facet
 facet normal 0 0 -1
  outer loop
   vertex -7.83481 -16.0171 -3.4715
   vertex -6.63952 -17.732 -3.4715
   vertex -7.19688 -18.2338 -3.4715
  end loop
 end facet
 facet normal 0 0 -1
  outer loop
   vertex -7.83481 -16.0171 -3.4715
   vertex -7.22805 -15.5763 -3.4715
   vertex -6.63952 -17.732 -3.4715
  end loop
 end facet
 facet normal 0 0 -1
  outer loop
   vertex -7.19688 -18.2338 -3.4715
   vertex -5.97825 -19.6933 -3.4715
   vertex -6.4801 -20.2507 -3.4715
  end loop
 end facet
 facet normal 0 0 -1
  outer loop
   vertex -7.19688 -18.2338 -3.4715
   vertex -6.63952 -17.732 -3.4715
   vertex -5.97825 -19.6933 -3.4715
  end loop
 end facet
 facet normal 0 0 -1
  outer loop
   vertex -6.4801 -20.2507 -3.4715
   vertex -5.25149 -21.439 -3.4715
   vertex -5.69232 -22.0457 -3.4715
  end loop
 end facet
 facet normal 0 0 -1
  outer loop
   vertex -6.4801 -20.2507 -3.4715
   vertex -5.97825 -19.6933 -3.4715
   vertex -5.25149 -21.439 -3.4715
  end loop
 end facet
 facet normal 0 0 -1
  outer loop
   vertex -5.69232 -22.0457 -3.4715
   vertex -4.46718 -22.9497 -3.4715
   vertex -4.84218 -23.5992 -3.4715
  end loop
 end facet
 facet normal 0 0 -1
  outer loop
   vertex -5.69232 -22.0457 -3.4715
   vertex -5.25149 -21.439 -3.4715
   vertex -4.46718 -22.9497 -3.4715
  end loop
 end facet
 facet normal 0 0 -1
  outer loop
   vertex -4.84218 -23.5992 -3.4715
   vertex -3.63393 -24.209 -3.4715
   vertex -3.93898 -24.8941 -3.4715
  end loop
 end facet
 facet normal 0 0 -1
  outer loop
   vertex -4.84218 -23.5992 -3.4715
   vertex -4.46718 -22.9497 -3.4715
   vertex -3.63393 -24.209 -3.4715
  end loop
 end facet
 facet normal 0 0 -1
  outer loop
   vertex -3.93898 -24.8941 -3.4715
   vertex -2.76087 -25.203 -3.4715
   vertex -2.99263 -25.9163 -3.4715
  end loop
 end facet
 facet normal 0 0 -1
  outer loop
   vertex -3.93898 -24.8941 -3.4715
   vertex -3.63393 -24.209 -3.4715
   vertex -2.76087 -25.203 -3.4715
  end loop
 end facet
 facet normal 0 0 -1
  outer loop
   vertex -2.99263 -25.9163 -3.4715
   vertex -1.85756 -25.9209 -3.4715
   vertex -2.01349 -26.6545 -3.4715
  end loop
 end facet
 facet normal 0 0 -1
  outer loop
   vertex -2.99263 -25.9163 -3.4715
   vertex -2.76087 -25.203 -3.4715
   vertex -1.85756 -25.9209 -3.4715
  end loop
 end facet
 facet normal 0 0 -1
  outer loop
   vertex -2.01349 -26.6545 -3.4715
   vertex -0.933895 -26.3548 -3.4715
   vertex -1.01229 -27.1007 -3.4715
  end loop
 end facet
 facet normal 0 0 -1
  outer loop
   vertex -2.01349 -26.6545 -3.4715
   vertex -1.85756 -25.9209 -3.4715
   vertex -0.933895 -26.3548 -3.4715
  end loop
 end facet
 facet normal 0 0 -1
  outer loop
   vertex -1.01229 -27.1007 -3.4715
   vertex -1.64122e-15 -26.5 -3.4715
   vertex -1.77899e-15 -27.25 -3.4715
  end loop
 end facet
 facet normal 0 0 -1
  outer loop
   vertex -1.01229 -27.1007 -3.4715
   vertex -0.933895 -26.3548 -3.4715
   vertex -1.64122e-15 -26.5 -3.4715
  end loop
 end facet
 facet normal 0 0 -1
  outer loop
   vertex -1.77899e-15 -27.25 -3.4715
   vertex 0.933895 -26.3548 -3.4715
   vertex 1.01229 -27.1007 -3.4715
  end loop
 end facet
 facet normal 0 0 -1
  outer loop
   vertex -1.77899e-15 -27.25 -3.4715
   vertex -1.64122e-15 -26.5 -3.4715
   vertex 0.933895 -26.3548 -3.4715
  end loop
 end facet
 facet normal 0 0 -1
  outer loop
   vertex 1.01229 -27.1007 -3.4715
   vertex 1.85756 -25.9209 -3.4715
   vertex 2.01349 -26.6545 -3.4715
  end loop
 end facet
 facet normal 0 0 -1
  outer loop
   vertex 1.01229 -27.1007 -3.4715
   vertex 0.933895 -26.3548 -3.4715
   vertex 1.85756 -25.9209 -3.4715
  end loop
 end facet
 facet normal 0 0 -1
  outer loop
   vertex 2.01349 -26.6545 -3.4715
   vertex 2.76087 -25.203 -3.4715
   vertex 2.99263 -25.9163 -3.4715
  end loop
 end facet
 facet normal 0 0 -1
  outer loop
   vertex 2.01349 -26.6545 -3.4715
   vertex 1.85756 -25.9209 -3.4715
   vertex 2.76087 -25.203 -3.4715
  end loop
 end facet
 facet normal 0 0 -1
  outer loop
   vertex 2.99263 -25.9163 -3.4715
   vertex 3.63393 -24.209 -3.4715
   vertex 3.93898 -24.8941 -3.4715
  end loop
 end facet
 facet normal 0 0 -1
  outer loop
   vertex 2.99263 -25.9163 -3.4715
   vertex 2.76087 -25.203 -3.4715
   vertex 3.63393 -24.209 -3.4715
  end loop
 end facet
 facet normal 0 0 -1
  outer loop
   vertex 3.93898 -24.8941 -3.4715
   vertex 4.46718 -22.9497 -3.4715
   vertex 4.84218 -23.5992 -3.4715
  end loop
 end facet
 facet normal 0 0 -1
  outer loop
   vertex 3.93898 -24.8941 -3.4715
   vertex 3.63393 -24.209 -3.4715
   vertex 4.46718 -22.9497 -3.4715
  end loop
 end facet
 facet normal 0 0 -1
  outer loop
   vertex 4.84218 -23.5992 -3.4715
   vertex 5.25149 -21.439 -3.4715
   vertex 5.69232 -22.0457 -3.4715
  end loop
 end facet
 facet normal 0 0 -1
  outer loop
   vertex 4.84218 -23.5992 -3.4715
   vertex 4.46718 -22.9497 -3.4715
   vertex 5.25149 -21.439 -3.4715
  end loop
 end facet
 facet normal 0 0 -1
  outer loop
   vertex 5.69232 -22.0457 -3.4715
   vertex 5.97825 -19.6933 -3.4715
   vertex 6.4801 -20.2507 -3.4715
  end loop
 end facet
 facet normal 0 0 -1
  outer loop
   vertex 5.69232 -22.0457 -3.4715
   vertex 5.25149 -21.439 -3.4715
   vertex 5.97825 -19.6933 -3.4715
  end loop
 end facet
 facet normal 0 0 -1
  outer loop
   vertex 6.4801 -20.2507 -3.4715
   vertex 6.63952 -17.732 -3.4715
   vertex 7.19688 -18.2338 -3.4715
  end loop
 end facet
 facet normal 0 0 -1
  outer loop
   vertex 6.4801 -20.2507 -3.4715
   vertex 5.97825 -19.6933 -3.4715
   vertex 6.63952 -17.732 -3.4715
  end loop
 end facet
 facet normal 0 0 -1
  outer loop
   vertex 7.19688 -18.2338 -3.4715
   vertex 7.22805 -15.5763 -3.4715
   vertex 7.83481 -16.0171 -3.4715
  end loop
 end facet
 facet normal 0 0 -1
  outer loop
   vertex 7.19688 -18.2338 -3.4715
   vertex 6.63952 -17.732 -3.4715
   vertex 7.22805 -15.5763 -3.4715
  end loop
 end facet
 facet normal 0 0 -1
  outer loop
   vertex 7.83481 -16.0171 -3.4715
   vertex 7.73738 -13.25 -3.4715
   vertex 8.3869 -13.625 -3.4715
  end loop
 end facet
 facet normal 0 0 -1
  outer loop
   vertex 7.83481 -16.0171 -3.4715
   vertex 7.22805 -15.5763 -3.4715
   vertex 7.73738 -13.25 -3.4715
  end loop
 end facet
 facet normal 0 0 -1
  outer loop
   vertex 8.3869 -13.625 -3.4715
   vertex 8.16194 -10.7785 -3.4715
   vertex 8.8471 -11.0836 -3.4715
  end loop
 end facet
 facet normal 0 0 -1
  outer loop
   vertex 8.3869 -13.625 -3.4715
   vertex 7.73738 -13.25 -3.4715
   vertex 8.16194 -10.7785 -3.4715
  end loop
 end facet
 facet normal 0 0 -1
  outer loop
   vertex 8.8471 -11.0836 -3.4715
   vertex 8.49708 -8.18895 -3.4715
   vertex 9.21037 -8.42071 -3.4715
  end loop
 end facet
 facet normal 0 0 -1
  outer loop
   vertex 8.8471 -11.0836 -3.4715
   vertex 8.16194 -10.7785 -3.4715
   vertex 8.49708 -8.18895 -3.4715
  end loop
 end facet
 facet normal 0 0 -1
  outer loop
   vertex 9.21037 -8.42071 -3.4715
   vertex 8.73912 -5.50966 -3.4715
   vertex 9.47273 -5.66559 -3.4715
  end loop
 end facet
 facet normal 0 0 -1
  outer loop
   vertex 9.21037 -8.42071 -3.4715
   vertex 8.49708 -8.18895 -3.4715
   vertex 8.73912 -5.50966 -3.4715
  end loop
 end facet
 facet normal 0 0 -1
  outer loop
   vertex 9.47273 -5.66559 -3.4715
   vertex 8.88542 -2.77 -3.4715
   vertex 9.63131 -2.8484 -3.4715
  end loop
 end facet
 facet normal 0 0 -1
  outer loop
   vertex 9.47273 -5.66559 -3.4715
   vertex 8.73912 -5.50966 -3.4715
   vertex 8.88542 -2.77 -3.4715
  end loop
 end facet
 facet normal 0 0 -1
  outer loop
   vertex 9.63131 -2.8484 -3.4715
   vertex 8.93436 0 -3.4715
   vertex 9.68436 0 -3.4715
  end loop
 end facet
 facet normal 0 0 -1
  outer loop
   vertex 9.63131 -2.8484 -3.4715
   vertex 8.88542 -2.77 -3.4715
   vertex 8.93436 0 -3.4715
  end loop
 end facet
 facet normal 0 0 1
  outer loop
   vertex 9.68436 0 1.731
   vertex 9.63131 2.8484 1.731
   vertex 8.88542 2.77 1.731
  end loop
 end facet
 facet normal 0 0 1
  outer loop
   vertex 9.68436 0 1.731
   vertex 8.88542 2.77 1.731
   vertex 8.93436 0 1.731
  end loop
 end facet
 facet normal 0 0 1
  outer loop
   vertex 9.63131 2.8484 1.731
   vertex 9.47273 5.66559 1.731
   vertex 8.73912 5.50966 1.731
  end loop
 end facet
 facet normal 0 0 1
  outer loop
   vertex 9.63131 2.8484 1.731
   vertex 8.73912 5.50966 1.731
   vertex 8.88542 2.77 1.731
  end loop
 end facet
 facet normal 0 0 1
  outer loop
   vertex 9.47273 5.66559 1.731
   vertex 9.21037 8.42071 1.731
   vertex 8.49708 8.18895 1.731
  end loop
 end facet
 facet normal 0 0 1
  outer loop
   vertex 9.47273 5.66559 1.731
   vertex 8.49708 8.18895 1.731
   vertex 8.73912 5.50966 1.731
  end loop
 end facet
 facet normal 0 0 1
  outer loop
   vertex 9.21037 8.42071 1.731
   vertex 8.8471 11.0836 1.731
   vertex 8.16194 10.7785 1.731
  end loop
 end facet
 facet normal 0 0 1
  outer loop
   vertex 9.21037 8.42071 1.731
   vertex 8.16194 10.7785 1.731
   vertex 8.49708 8.18895 1.731
  end loop
 end facet
 facet normal 0 0 1
  outer loop
   vertex 8.8471 11.0836 1.731
   vertex 8.3869 13.625 1.731
   vertex 7.73738 13.25 1.731
  end loop
 end facet
 facet normal 0 0 1
  outer loop
   vertex 8.8471 11.0836 1.731
   vertex 7.73738 13.25 1.731
   vertex 8.16194 10.7785 1.731
  end loop
 end facet
 facet normal 0 0 1
  outer loop
   vertex 8.3869 13.625 1.731
   vertex 7.83481 16.0171 1.731
   vertex 7.22805 15.5763 1.731
  end loop
 end facet
 facet normal 0 0 1
  outer loop
   vertex 8.3869 13.625 1.731
   vertex 7.22805 15.5763 1.731
   vertex 7.73738 13.25 1.731
  end loop
 end facet
 facet normal 0 0 1
  outer loop
   vertex 7.83481 16.0171 1.731
   vertex 7.19688 18.2338 1.731
   vertex 6.63952 17.732 1.731
  end loop
 end facet
 facet normal 0 0 1
  outer loop
   vertex 7.83481 16.0171 1.731
   vertex 6.63952 17.732 1.731
   vertex 7.22805 15.5763 1.731
  end loop
 end facet
 facet normal 0 0 1
  outer loop
   vertex 7.19688 18.2338 1.731
   vertex 6.4801 20.2507 1.731
   vertex 5.97825 19.6933 1.731
  end loop
 end facet
 facet normal 0 0 1
  outer loop
   vertex 7.19688 18.2338 1.731
   vertex 5.97825 19.6933 1.731
   vertex 6.63952 17.732 1.731
  end loop
 end facet
 facet normal 0 0 1
  outer loop
   vertex 6.4801 20.2507 1.731
   vertex 5.69232 22.0457 1.731
   vertex 5.25149 21.439 1.731
  end loop
 end facet
 facet normal 0 0 1
  outer loop
   vertex 6.4801 20.2507 1.731
   vertex 5.25149 21.439 1.731
   vertex 5.97825 19.6933 1.731
  end loop
 end facet
 facet normal 0 0 1
  outer loop
   vertex 5.69232 22.0457 1.731
   vertex 4.84218 23.5992 1.731
   vertex 4.46718 22.9497 1.731
  end loop
 end facet
 facet normal 0 0 1
  outer loop
   vertex 5.69232 22.0457 1.731
   vertex 4.46718 22.9497 1.731
   vertex 5.25149 21.439 1.731
  end loop
 end facet
 facet normal 0 0 1
  outer loop
   vertex 4.84218 23.5992 1.731
   vertex 3.93898 24.8941 1.731
   vertex 3.63393 24.209 1.731
  end loop
 end facet
 facet normal 0 0 1
  outer loop
   vertex 4.84218 23.5992 1.731
   vertex 3.63393 24.209 1.731
   vertex 4.46718 22.9497 1.731
  end loop
 end facet
 facet normal 0 0 1
  outer loop
   vertex 3.93898 24.8941 1.731
   vertex 2.99263 25.9163 1.731
   vertex 2.76087 25.203 1.731
  end loop
 end facet
 facet normal 0 0 1
  outer loop
   vertex 3.93898 24.8941 1.731
   vertex 2.76087 25.203 1.731
   vertex 3.63393 24.209 1.731
  end loop
 end facet
 facet normal 0 0 1
  outer loop
   vertex 2.99263 25.9163 1.731
   vertex 2.01349 26.6545 1.731
   vertex 1.85756 25.9209 1.731
  end loop
 end facet
 facet normal 0 0 1
  outer loop
   vertex 2.99263 25.9163 1.731
   vertex 1.85756 25.9209 1.731
   vertex 2.76087 25.203 1.731
  end loop
 end facet
 facet normal 0 0 1
  outer loop
   vertex 2.01349 26.6545 1.731
   vertex 1.01229 27.1007 1.731
   vertex 0.933895 26.3548 1.731
  end loop
 end facet
 facet normal 0 0 1
  outer loop
   vertex 2.01349 26.6545 1.731
   vertex 0.933895 26.3548 1.731
   vertex 1.85756 25.9209 1.731
  end loop
 end facet
 facet normal 0 0 1
  outer loop
   vertex 1.01229 27.1007 1.731
   vertex 2.74336e-15 27.25 1.731
   vertex 2.5309e-15 26.5 1.731
  end loop
 end facet
 facet normal 0 0 1
  outer loop
   vertex 1.01229 27.1007 1.731
   vertex 2.5309e-15 26.5 1.731
   vertex 0.933895 26.3548 1.731
  end loop
 end facet
 facet normal 0 0 1
  outer loop
   vertex 2.74336e-15 27.25 1.731
   vertex -1.01229 27.1007 1.731
   vertex -0.933895 26.3548 1.731
  end loop
 end facet
 facet normal 0 0 1
  outer loop
   vertex 2.74336e-15 27.25 1.731
   vertex -0.933895 26.3548 1.731
   vertex 2.5309e-15 26.5 1.731
  end loop
 end facet
 facet normal 0 0 1
  outer loop
   vertex -1.01229 27.1007 1.731
   vertex -2.01349 26.6545 1.731
   vertex -1.85756 25.9209 1.731
  end loop
 end facet
 facet normal 0 0 1
  outer loop
   vertex -1.01229 27.1007 1.731
   vertex -1.85756 25.9209 1.731
   vertex -0.933895 26.3548 1.731
  end loop
 end facet
 facet normal 0 0 1
  outer loop
   vertex -2.01349 26.6545 1.731
   vertex -2.99263 25.9163 1.731
   vertex -2.76087 25.203 1.731
  end loop
 end facet
 facet normal 0 0 1
  outer loop
   vertex -2.01349 26.6545 1.731
   vertex -2.76087 25.203 1.731
   vertex -1.85756 25.9209 1.731
  end loop
 end facet
 facet normal 0 0 1
  outer loop
   vertex -2.99263 25.9163 1.731
   vertex -3.93898 24.8941 1.731
   vertex -3.63393 24.209 1.731
  end loop
 end facet
 facet normal 0 0 1
  outer loop
   vertex -2.99263 25.9163 1.731
   vertex -3.63393 24.209 1.731
   vertex -2.76087 25.203 1.731
  end loop
 end facet
 facet normal 0 0 1
  outer loop
   vertex -3.93898 24.8941 1.731
   vertex -4.84218 23.5992 1.731
   vertex -4.46718 22.9497 1.731
  end loop
 end facet
 facet normal 0 0 1
  outer loop
   vertex -3.93898 24.8941 1.731
   vertex -4.46718 22.9497 1.731
   vertex -3.63393 24.209 1.731
  end loop
 end facet
 facet normal 0 0 1
  outer loop
   vertex -4.84218 23.5992 1.731
   vertex -5.69232 22.0457 1.731
   vertex -5.25149 21.439 1.731
  end loop
 end facet
 facet normal 0 0 1
  outer loop
   vertex -4.84218 23.5992 1.731
   vertex -5.25149 21.439 1.731
   vertex -4.46718 22.9497 1.731
  end loop
 end facet
 facet normal 0 0 1
  outer loop
   vertex -5.69232 22.0457 1.731
   vertex -6.4801 20.2507 1.731
   vertex -5.97825 19.6933 1.731
  end loop
 end facet
 facet normal 0 0 1
  outer loop
   vertex -5.69232 22.0457 1.731
   vertex -5.97825 19.6933 1.731
   vertex -5.25149 21.439 1.731
  end loop
 end facet
 facet normal 0 0 1
  outer loop
   vertex -6.4801 20.2507 1.731
   vertex -7.19688 18.2338 1.731
   vertex -6.63952 17.732 1.731
  end loop
 end facet
 facet normal 0 0 1
  outer loop
   vertex -6.4801 20.2507 1.731
   vertex -6.63952 17.732 1.731
   vertex -5.97825 19.6933 1.731
  end loop
 end facet
 facet normal 0 0 1
  outer loop
   vertex -7.19688 18.2338 1.731
   vertex -7.83481 16.0171 1.731
   vertex -7.22805 15.5763 1.731
  end loop
 end facet
 facet normal 0 0 1
  outer loop
   vertex -7.19688 18.2338 1.731
   vertex -7.22805 15.5763 1.731
   vertex -6.63952 17.732 1.731
  end loop
 end facet
 facet normal 0 0 1
  outer loop
   vertex -7.83481 16.0171 1.731
   vertex -8.3869 13.625 1.731
   vertex -7.73738 13.25 1.731
  end loop
 end facet
 facet normal 0 0 1
  outer loop
   vertex -7.83481 16.0171 1.731
   vertex -7.73738 13.25 1.731
   vertex -7.22805 15.5763 1.731
  end loop
 end facet
 facet normal 0 0 1
  outer loop
   vertex -8.3869 13.625 1.731
   vertex -8.8471 11.0836 1.731
   vertex -8.16194 10.7785 1.731
  end loop
 end facet
 facet normal 0 0 1
  outer loop
   vertex -8.3869 13.625 1.731
   vertex -8.16194 10.7785 1.731
   vertex -7.73738 13.25 1.731
  end loop
 end facet
 facet normal 0 0 1
  outer loop
   vertex -8.8471 11.0836 1.731
   vertex -9.21037 8.42071 1.731
   vertex -8.49708 8.18895 1.731
  end loop
 end facet
 facet normal 0 0 1
  outer loop
   vertex -8.8471 11.0836 1.731
   vertex -8.49708 8.18895 1.731
   vertex -8.16194 10.7785 1.731
  end loop
 end facet
 facet normal 0 0 1
  outer loop
   vertex -9.21037 8.42071 1.731
   vertex -9.47273 5.66559 1.731
   vertex -8.73912 5.50966 1.731
  end loop
 end facet
 facet normal 0 0 1
  outer loop
   vertex -9.21037 8.42071 1.731
   vertex -8.73912 5.50966 1.731
   vertex -8.49708 8.18895 1.731
  end loop
 end facet
 facet normal 0 0 1
  outer loop
   vertex -9.47273 5.66559 1.731
   vertex -9.63131 2.8484 1.731
   vertex -8.88542 2.77 1.731
  end loop
 end facet
 facet normal 0 0 1
  outer loop
   vertex -9.47273 5.66559 1.731
   vertex -8.88542 2.77 1.731
   vertex -8.73912 5.50966 1.731
  end loop
 end facet
 facet normal 0 0 1
  outer loop
   vertex -9.63131 2.8484 1.731
   vertex -9.68436 1.54386e-14 1.731
   vertex -8.93436 1.50137e-14 1.731
  end loop
 end facet
 facet normal 0 0 1
  outer loop
   vertex -9.63131 2.8484 1.731
   vertex -8.93436 1.50137e-14 1.731
   vertex -8.88542 2.77 1.731
  end loop
 end facet
 facet normal 0 0 1
  outer loop
   vertex -9.68436 1.54386e-14 1.731
   vertex -9.63131 -2.8484 1.731
   vertex -8.88542 -2.77 1.731
  end loop
 end facet
 facet normal 0 0 1
  outer loop
   vertex -9.68436 1.54386e-14 1.731
   vertex -8.88542 -2.77 1.731
   vertex -8.93436 1.50137e-14 1.731
  end loop
 end facet
 facet normal 0 0 1
  outer loop
   vertex -9.63131 -2.8484 1.731
   vertex -9.47273 -5.66559 1.731
   vertex -8.73912 -5.50966 1.731
  end loop
 end facet
 facet normal -0 0 1
  outer loop
   vertex -9.63131 -2.8484 1.731
   vertex -8.73912 -5.50966 1.731
   vertex -8.88542 -2.77 1.731
  end loop
 end facet
 facet normal 0 0 1
  outer loop
   vertex -9.47273 -5.66559 1.731
   vertex -9.21037 -8.42071 1.731
   vertex -8.49708 -8.18895 1.731
  end loop
 end facet
 facet normal -0 0 1
  outer loop
   vertex -9.47273 -5.66559 1.731
   vertex -8.49708 -8.18895 1.731
   vertex -8.73912 -5.50966 1.731
  end loop
 end facet
 facet normal 0 0 1
  outer loop
   vertex -9.21037 -8.42071 1.731
   vertex -8.8471 -11.0836 1.731
   vertex -8.16194 -10.7785 1.731
  end loop
 end facet
 facet normal -0 0 1
  outer loop
   vertex -9.21037 -8.42071 1.731
   vertex -8.16194 -10.7785 1.731
   vertex -8.49708 -8.18895 1.731
  end loop
 end facet
 facet normal 0 0 1
  outer loop
   vertex -8.8471 -11.0836 1.731
   vertex -8.3869 -13.625 1.731
   vertex -7.73738 -13.25 1.731
  end loop
 end facet
 facet normal -0 0 1
  outer loop
   vertex -8.8471 -11.0836 1.731
   vertex -7.73738 -13.25 1.731
   vertex -8.16194 -10.7785 1.731
  end loop
 end facet
 facet normal 0 0 1
  outer loop
   vertex -8.3869 -13.625 1.731
   vertex -7.83481 -16.0171 1.731
   vertex -7.22805 -15.5763 1.731
  end loop
 end facet
 facet normal -0 0 1
  outer loop
   vertex -8.3869 -13.625 1.731
   vertex -7.22805 -15.5763 1.731
   vertex -7.73738 -13.25 1.731
  end loop
 end facet
 facet normal 0 0 1
  outer loop
   vertex -7.83481 -16.0171 1.731
   vertex -7.19688 -18.2338 1.731
   vertex -6.63952 -17.732 1.731
  end loop
 end facet
 facet normal -0 0 1
  outer loop
   vertex -7.83481 -16.0171 1.731
   vertex -6.63952 -17.732 1.731
   vertex -7.22805 -15.5763 1.731
  end loop
 end facet
 facet normal 0 0 1
  outer loop
   vertex -7.19688 -18.2338 1.731
   vertex -6.4801 -20.2507 1.731
   vertex -5.97825 -19.6933 1.731
  end loop
 end facet
 facet normal -0 0 1
  outer loop
   vertex -7.19688 -18.2338 1.731
   vertex -5.97825 -19.6933 1.731
   vertex -6.63952 -17.732 1.731
  end loop
 end facet
 facet normal 0 0 1
  outer loop
   vertex -6.4801 -20.2507 1.731
   vertex -5.69232 -22.0457 1.731
   vertex -5.25149 -21.439 1.731
  end loop
 end facet
 facet normal -0 0 1
  outer loop
   vertex -6.4801 -20.2507 1.731
   vertex -5.25149 -21.439 1.731
   vertex -5.97825 -19.6933 1.731
  end loop
 end facet
 facet normal 0 0 1
  outer loop
   vertex -5.69232 -22.0457 1.731
   vertex -4.84218 -23.5992 1.731
   vertex -4.46718 -22.9497 1.731
  end loop
 end facet
 facet normal -0 0 1
  outer loop
   vertex -5.69232 -22.0457 1.731
   vertex -4.46718 -22.9497 1.731
   vertex -5.25149 -21.439 1.731
  end loop
 end facet
 facet normal 0 0 1
  outer loop
   vertex -4.84218 -23.5992 1.731
   vertex -3.93898 -24.8941 1.731
   vertex -3.63393 -24.209 1.731
  end loop
 end facet
 facet normal -0 0 1
  outer loop
   vertex -4.84218 -23.5992 1.731
   vertex -3.63393 -24.209 1.731
   vertex -4.46718 -22.9497 1.731
  end loop
 end facet
 facet normal 0 0 1
  outer loop
   vertex -3.93898 -24.8941 1.731
   vertex -2.99263 -25.9163 1.731
   vertex -2.76087 -25.203 1.731
  end loop
 end facet
 facet normal -0 0 1
  outer loop
   vertex -3.93898 -24.8941 1.731
   vertex -2.76087 -25.203 1.731
   vertex -3.63393 -24.209 1.731
  end loop
 end facet
 facet normal 0 0 1
  outer loop
   vertex -2.99263 -25.9163 1.731
   vertex -2.01349 -26.6545 1.731
   vertex -1.85756 -25.9209 1.731
  end loop
 end facet
 facet normal -0 0 1
  outer loop
   vertex -2.99263 -25.9163 1.731
   vertex -1.85756 -25.9209 1.731
   vertex -2.76087 -25.203 1.731
  end loop
 end facet
 facet normal -0 0 1
  outer loop
   vertex -2.01349 -26.6545 1.731
   vertex -1.01229 -27.1007 1.731
   vertex -0.933895 -26.3548 1.731
  end loop
 end facet
 facet normal 0 0 1
  outer loop
   vertex -2.01349 -26.6545 1.731
   vertex -0.933895 -26.3548 1.731
   vertex -1.85756 -25.9209 1.731
  end loop
 end facet
 facet normal -0 0 1
  outer loop
   vertex -1.01229 -27.1007 1.731
   vertex -1.77899e-15 -27.25 1.731
   vertex -1.64122e-15 -26.5 1.731
  end loop
 end facet
 facet normal 0 0 1
  outer loop
   vertex -1.01229 -27.1007 1.731
   vertex -1.64122e-15 -26.5 1.731
   vertex -0.933895 -26.3548 1.731
  end loop
 end facet
 facet normal 0 0 1
  outer loop
   vertex -1.77899e-15 -27.25 1.731
   vertex 1.01229 -27.1007 1.731
   vertex 0.933895 -26.3548 1.731
  end loop
 end facet
 facet normal 0 0 1
  outer loop
   vertex -1.77899e-15 -27.25 1.731
   vertex 0.933895 -26.3548 1.731
   vertex -1.64122e-15 -26.5 1.731
  end loop
 end facet
 facet normal 0 0 1
  outer loop
   vertex 1.01229 -27.1007 1.731
   vertex 2.01349 -26.6545 1.731
   vertex 1.85756 -25.9209 1.731
  end loop
 end facet
 facet normal 0 -0 1
  outer loop
   vertex 1.01229 -27.1007 1.731
   vertex 1.85756 -25.9209 1.731
   vertex 0.933895 -26.3548 1.731
  end loop
 end facet
 facet normal 0 0 1
  outer loop
   vertex 2.01349 -26.6545 1.731
   vertex 2.99263 -25.9163 1.731
   vertex 2.76087 -25.203 1.731
  end loop
 end facet
 facet normal 0 -0 1
  outer loop
   vertex 2.01349 -26.6545 1.731
   vertex 2.76087 -25.203 1.731
   vertex 1.85756 -25.9209 1.731
  end loop
 end facet
 facet normal 0 0 1
  outer loop
   vertex 2.99263 -25.9163 1.731
   vertex 3.93898 -24.8941 1.731
   vertex 3.63393 -24.209 1.731
  end loop
 end facet
 facet normal 0 -0 1
  outer loop
   vertex 2.99263 -25.9163 1.731
   vertex 3.63393 -24.209 1.731
   vertex 2.76087 -25.203 1.731
  end loop
 end facet
 facet normal 0 0 1
  outer loop
   vertex 3.93898 -24.8941 1.731
   vertex 4.84218 -23.5992 1.731
   vertex 4.46718 -22.9497 1.731
  end loop
 end facet
 facet normal 0 -0 1
  outer loop
   vertex 3.93898 -24.8941 1.731
   vertex 4.46718 -22.9497 1.731
   vertex 3.63393 -24.209 1.731
  end loop
 end facet
 facet normal 0 0 1
  outer loop
   vertex 4.84218 -23.5992 1.731
   vertex 5.69232 -22.0457 1.731
   vertex 5.25149 -21.439 1.731
  end loop
 end facet
 facet normal 0 -0 1
  outer loop
   vertex 4.84218 -23.5992 1.731
   vertex 5.25149 -21.439 1.731
   vertex 4.46718 -22.9497 1.731
  end loop
 end facet
 facet normal 0 0 1
  outer loop
   vertex 5.69232 -22.0457 1.731
   vertex 6.4801 -20.2507 1.731
   vertex 5.97825 -19.6933 1.731
  end loop
 end facet
 facet normal 0 -0 1
  outer loop
   vertex 5.69232 -22.0457 1.731
   vertex 5.97825 -19.6933 1.731
   vertex 5.25149 -21.439 1.731
  end loop
 end facet
 facet normal 0 0 1
  outer loop
   vertex 6.4801 -20.2507 1.731
   vertex 7.19688 -18.2338 1.731
   vertex 6.63952 -17.732 1.731
  end loop
 end facet
 facet normal 0 -0 1
  outer loop
   vertex 6.4801 -20.2507 1.731
   vertex 6.63952 -17.732 1.731
   vertex 5.97825 -19.6933 1.731
  end loop
 end facet
 facet normal 0 0 1
  outer loop
   vertex 7.19688 -18.2338 1.731
   vertex 7.83481 -16.0171 1.731
   vertex 7.22805 -15.5763 1.731
  end loop
 end facet
 facet normal 0 -0 1
  outer loop
   vertex 7.19688 -18.2338 1.731
   vertex 7.22805 -15.5763 1.731
   vertex 6.63952 -17.732 1.731
  end loop
 end facet
 facet normal 0 -0 1
  outer loop
   vertex 7.83481 -16.0171 1.731
   vertex 8.3869 -13.625 1.731
   vertex 7.73738 -13.25 1.731
  end loop
 end facet
 facet normal 0 0 1
  outer loop
   vertex 7.83481 -16.0171 1.731
   vertex 7.73738 -13.25 1.731
   vertex 7.22805 -15.5763 1.731
  end loop
 end facet
 facet normal 0 -0 1
  outer loop
   vertex 8.3869 -13.625 1.731
   vertex 8.8471 -11.0836 1.731
   vertex 8.16194 -10.7785 1.731
  end loop
 end facet
 facet normal 0 0 1
  outer loop
   vertex 8.3869 -13.625 1.731
   vertex 8.16194 -10.7785 1.731
   vertex 7.73738 -13.25 1.731
  end loop
 end facet
 facet normal 0 -0 1
  outer loop
   vertex 8.8471 -11.0836 1.731
   vertex 9.21037 -8.42071 1.731
   vertex 8.49708 -8.18895 1.731
  end loop
 end facet
 facet normal 0 0 1
  outer loop
   vertex 8.8471 -11.0836 1.731
   vertex 8.49708 -8.18895 1.731
   vertex 8.16194 -10.7785 1.731
  end loop
 end facet
 facet normal 0 -0 1
  outer loop
   vertex 9.21037 -8.42071 1.731
   vertex 9.47273 -5.66559 1.731
   vertex 8.73912 -5.50966 1.731
  end loop
 end facet
 facet normal 0 0 1
  outer loop
   vertex 9.21037 -8.42071 1.731
   vertex 8.73912 -5.50966 1.731
   vertex 8.49708 -8.18895 1.731
  end loop
 end facet
 facet normal 0 -0 1
  outer loop
   vertex 9.47273 -5.66559 1.731
   vertex 9.63131 -2.8484 1.731
   vertex 8.88542 -2.77 1.731
  end loop
 end facet
 facet normal 0 0 1
  outer loop
   vertex 9.47273 -5.66559 1.731
   vertex 8.88542 -2.77 1.731
   vertex 8.73912 -5.50966 1.731
  end loop
 end facet
 facet normal 0 -0 1
  outer loop
   vertex 9.63131 -2.8484 1.731
   vertex 9.68436 0 1.731
   vertex 8.93436 0 1.731
  end loop
 end facet
 facet normal 0 0 1
  outer loop
   vertex 9.63131 -2.8484 1.731
   vertex 8.93436 0 1.731
   vertex 8.88542 -2.77 1.731
  end loop
 end facet
endsolid
