solid fish
 facet normal 0.999801 0.0199343 0
  outer loop
   vertex 9.97872 0 -7.7013
   vertex 9.92406 2.74169 -7.7013
   vertex 9.92406 2.74169 5.7416
  end loop
 end facet
 facet normal 0.999801 0.0199343 -0
  outer loop
   vertex 9.97872 0 -7.7013
   vertex 9.92406 2.74169 5.7416
   vertex 9.97872 0 5.7416
  end loop
 end facet
 facet normal 0.99819 0.0601473 0
  outer loop
   vertex 9.92406 2.74169 -7.7013
   vertex 9.76067 5.45335 -7.7013
   vertex 9.76067 5.45335 5.7416
  end loop
 end facet
 facet normal 0.99819 0.0601473 -0
  outer loop
   vertex 9.92406 2.74169 -7.7013
   vertex 9.76067 5.45335 5.7416
   vertex 9.92406 2.74169 5.7416
  end loop
 end facet
 facet normal 0.994844 0.101414 0
  outer loop
   vertex 9.76067 5.45335 -7.7013
   vertex 9.49033 8.10526 -7.7013
   vertex 9.49033 8.10526 5.7416
  end loop
 end facet
 facet normal 0.994844 0.101414 -0
  outer loop
   vertex 9.76067 5.45335 -7.7013
   vertex 9.49033 8.10526 5.7416
   vertex 9.76067 5.45335 5.7416
  end loop
 end facet
 facet normal 0.989504 0.144506 0
  outer loop
   vertex 9.49033 8.10526 -7.7013
   vertex 9.11602 10.6684 -7.7013
   vertex 9.11602 10.6684 5.7416
  end loop
 end facet
 facet normal 0.989504 0.144506 -0
  outer loop
   vertex 9.49033 8.10526 -7.7013
   vertex 9.11602 10.6684 5.7416
   vertex 9.49033 8.10526 5.7416
  end loop
 end facet
 facet normal 0.981725 0.190303 0
  outer loop
   vertex 9.11602 10.6684 -7.7013
   vertex 8.64183 13.1146 -7.7013
   vertex 8.64183 13.1146 5.7416
  end loop
 end facet
 facet normal 0.981725 0.190303 -0
  outer loop
   vertex 9.11602 10.6684 -7.7013
   vertex 8.64183 13.1146 5.7416
   vertex 9.11602 10.6684 5.7416
  end loop
 end facet
 facet normal 0.97081 0.239851 0
  outer loop
   vertex 8.64183 13.1146 -7.7013
   vertex 8.07296 15.4171 -7.7013
   vertex 8.07296 15.4171 5.7416
  end loop
 end facet
 facet normal 0.97081 0.239851 -0
  outer loop
   vertex 8.64183 13.1146 -7.7013
   vertex 8.07296 15.4171 5.7416
   vertex 8.64183 13.1146 5.7416
  end loop
 end facet
 facet normal 0.955676 0.294422 0
  outer loop
   vertex 8.07296 15.4171 -7.7013
   vertex 7.41564 17.5507 -7.7013
   vertex 7.41564 17.5507 5.7416
  end loop
 end facet
 facet normal 0.955676 0.294422 -0
  outer loop
   vertex 8.07296 15.4171 -7.7013
   vertex 7.41564 17.5507 5.7416
   vertex 8.07296 15.4171 5.7416
  end loop
 end facet
 facet normal 0.934646 0.35558 0
  outer loop
   vertex 7.41564 17.5507 -7.7013
   vertex 6.67707 19.4921 -7.7013
   vertex 6.67707 19.4921 5.7416
  end loop
 end facet
 facet normal 0.934646 0.35558 -0
  outer loop
   vertex 7.41564 17.5507 -7.7013
   vertex 6.67707 19.4921 5.7416
   vertex 7.41564 17.5507 5.7416
  end loop
 end facet
 facet normal 0.90509 0.42522 0
  outer loop
   vertex 6.67707 19.4921 -7.7013
   vertex 5.86535 21.2198 -7.7013
   vertex 5.86535 21.2198 5.7416
  end loop
 end facet
 facet normal 0.90509 0.42522 -0
  outer loop
   vertex 6.67707 19.4921 -7.7013
   vertex 5.86535 21.2198 5.7416
   vertex 6.67707 19.4921 5.7416
  end loop
 end facet
 facet normal 0.862839 0.505479 0
  outer loop
   vertex 5.86535 21.2198 -7.7013
   vertex 4.98936 22.7151 -7.7013
   vertex 4.98936 22.7151 5.7416
  end loop
 end facet
 facet normal 0.862839 0.505479 -0
  outer loop
   vertex 5.86535 21.2198 -7.7013
   vertex 4.98936 22.7151 5.7416
   vertex 5.86535 21.2198 5.7416
  end loop
 end facet
 facet normal 0.801282 0.598287 0
  outer loop
   vertex 4.98936 22.7151 -7.7013
   vertex 4.05871 23.9615 -7.7013
   vertex 4.05871 23.9615 5.7416
  end loop
 end facet
 facet normal 0.801282 0.598287 -0
  outer loop
   vertex 4.98936 22.7151 -7.7013
   vertex 4.05871 23.9615 5.7416
   vertex 4.98936 22.7151 5.7416
  end loop
 end facet
 facet normal 0.710264 0.703935 0
  outer loop
   vertex 4.05871 23.9615 -7.7013
   vertex 3.0836 24.9454 -7.7013
   vertex 3.0836 24.9454 5.7416
  end loop
 end facet
 facet normal 0.710264 0.703935 -0
  outer loop
   vertex 4.05871 23.9615 -7.7013
   vertex 3.0836 24.9454 5.7416
   vertex 4.05871 23.9615 5.7416
  end loop
 end facet
 facet normal 0.575823 0.817574 0
  outer loop
   vertex 3.0836 24.9454 -7.7013
   vertex 2.07469 25.656 -7.7013
   vertex 2.07469 25.656 5.7416
  end loop
 end facet
 facet normal 0.575823 0.817574 -0
  outer loop
   vertex 3.0836 24.9454 -7.7013
   vertex 2.07469 25.656 5.7416
   vertex 3.0836 24.9454 5.7416
  end loop
 end facet
 facet normal 0.384339 0.923192 0
  outer loop
   vertex 2.07469 25.656 -7.7013
   vertex 1.04306 26.0855 -7.7013
   vertex 1.04306 26.0855 5.7416
  end loop
 end facet
 facet normal 0.384339 0.923192 -0
  outer loop
   vertex 2.07469 25.656 -7.7013
   vertex 1.04306 26.0855 5.7416
   vertex 2.07469 25.656 5.7416
  end loop
 end facet
 facet normal 0.136466 0.990645 0
  outer loop
   vertex 1.04306 26.0855 -7.7013
   vertex 2.82674e-15 26.2292 -7.7013
   vertex 2.82674e-15 26.2292 5.7416
  end loop
 end facet
 facet normal 0.136466 0.990645 -0
  outer loop
   vertex 1.04306 26.0855 -7.7013
   vertex 2.82674e-15 26.2292 5.7416
   vertex 1.04306 26.0855 5.7416
  end loop
 end facet
 facet normal -0.136466 0.990645 0
  outer loop
   vertex 2.82674e-15 26.2292 -7.7013
   vertex -1.04306 26.0855 -7.7013
   vertex -1.04306 26.0855 5.7416
  end loop
 end facet
 facet normal -0.136466 0.990645 0
  outer loop
   vertex 2.82674e-15 26.2292 -7.7013
   vertex -1.04306 26.0855 5.7416
   vertex 2.82674e-15 26.2292 5.7416
  end loop
 end facet
 facet normal -0.384339 0.923192 0
  outer loop
   vertex -1.04306 26.0855 -7.7013
   vertex -2.07469 25.656 -7.7013
   vertex -2.07469 25.656 5.7416
  end loop
 end facet
 facet normal -0.384339 0.923192 0
  outer loop
   vertex -1.04306 26.0855 -7.7013
   vertex -2.07469 25.656 5.7416
   vertex -1.04306 26.0855 5.7416
  end loop
 end facet
 facet normal -0.575823 0.817574 0
  outer loop
   vertex -2.07469 25.656 -7.7013
   vertex -3.0836 24.9454 -7.7013
   vertex -3.0836 24.9454 5.7416
  end loop
 end facet
 facet normal -0.575823 0.817574 0
  outer loop
   vertex -2.07469 25.656 -7.7013
   vertex -3.0836 24.9454 5.7416
   vertex -2.07469 25.656 5.7416
  end loop
 end facet
 facet normal -0.710264 0.703935 0
  outer loop
   vertex -3.0836 24.9454 -7.7013
   vertex -4.05871 23.9615 -7.7013
   vertex -4.05871 23.9615 5.7416
  end loop
 end facet
 facet normal -0.710264 0.703935 0
  outer loop
   vertex -3.0836 24.9454 -7.7013
   vertex -4.05871 23.9615 5.7416
   vertex -3.0836 24.9454 5.7416
  end loop
 end facet
 facet normal -0.801282 0.598287 0
  outer loop
   vertex -4.05871 23.9615 -7.7013
   vertex -4.98936 22.7151 -7.7013
   vertex -4.98936 22.7151 5.7416
  end loop
 end facet
 facet normal -0.801282 0.598287 0
  outer loop
   vertex -4.05871 23.9615 -7.7013
   vertex -4.98936 22.7151 5.7416
   vertex -4.05871 23.9615 5.7416
  end loop
 end facet
 facet normal -0.862839 0.505479 0
  outer loop
   vertex -4.98936 22.7151 -7.7013
   vertex -5.86535 21.2198 -7.7013
   vertex -5.86535 21.2198 5.7416
  end loop
 end facet
 facet normal -0.862839 0.505479 0
  outer loop
   vertex -4.98936 22.7151 -7.7013
   vertex -5.86535 21.2198 5.7416
   vertex -4.98936 22.7151 5.7416
  end loop
 end facet
 facet normal -0.90509 0.42522 0
  outer loop
   vertex -5.86535 21.2198 -7.7013
   vertex -6.67707 19.4921 -7.7013
   vertex -6.67707 19.4921 5.7416
  end loop
 end facet
 facet normal -0.90509 0.42522 0
  outer loop
   vertex -5.86535 21.2198 -7.7013
   vertex -6.67707 19.4921 5.7416
   vertex -5.86535 21.2198 5.7416
  end loop
 end facet
 facet normal -0.934646 0.35558 0
  outer loop
   vertex -6.67707 19.4921 -7.7013
   vertex -7.41564 17.5507 -7.7013
   vertex -7.41564 17.5507 5.7416
  end loop
 end facet
 facet normal -0.934646 0.35558 0
  outer loop
   vertex -6.67707 19.4921 -7.7013
   vertex -7.41564 17.5507 5.7416
   vertex -6.67707 19.4921 5.7416
  end loop
 end facet
 facet normal -0.955676 0.294422 0
  outer loop
   vertex -7.41564 17.5507 -7.7013
   vertex -8.07296 15.4171 -7.7013
   vertex -8.07296 15.4171 5.7416
  end loop
 end facet
 facet normal -0.955676 0.294422 0
  outer loop
   vertex -7.41564 17.5507 -7.7013
   vertex -8.07296 15.4171 5.7416
   vertex -7.41564 17.5507 5.7416
  end loop
 end facet
 facet normal -0.97081 0.239851 0
  outer loop
   vertex -8.07296 15.4171 -7.7013
   vertex -8.64183 13.1146 -7.7013
   vertex -8.64183 13.1146 5.7416
  end loop
 end facet
 facet normal -0.97081 0.239851 0
  outer loop
   vertex -8.07296 15.4171 -7.7013
   vertex -8.64183 13.1146 5.7416
   vertex -8.07296 15.4171 5.7416
  end loop
 end facet
 facet normal -0.981725 0.190303 0
  outer loop
   vertex -8.64183 13.1146 -7.7013
   vertex -9.11602 10.6684 -7.7013
   vertex -9.11602 10.6684 5.7416
  end loop
 end facet
 facet normal -0.981725 0.190303 0
  outer loop
   vertex -8.64183 13.1146 -7.7013
   vertex -9.11602 10.6684 5.7416
   vertex -8.64183 13.1146 5.7416
  end loop
 end facet
 facet normal -0.989504 0.144506 0
  outer loop
   vertex -9.11602 10.6684 -7.7013
   vertex -9.49033 8.10526 -7.7013
   vertex -9.49033 8.10526 5.7416
  end loop
 end facet
 facet normal -0.989504 0.144506 0
  outer loop
   vertex -9.11602 10.6684 -7.7013
   vertex -9.49033 8.10526 5.7416
   vertex -9.11602 10.6684 5.7416
  end loop
 end facet
 facet normal -0.994844 0.101414 0
  outer loop
   vertex -9.49033 8.10526 -7.7013
   vertex -9.76067 5.45335 -7.7013
   vertex -9.76067 5.45335 5.7416
  end loop
 end facet
 facet normal -0.994844 0.101414 0
  outer loop
   vertex -9.49033 8.10526 -7.7013
   vertex -9.76067 5.45335 5.7416
   vertex -9.49033 8.10526 5.7416
  end loop
 end facet
 facet normal -0.99819 0.0601473 0
  outer loop
   vertex -9.76067 5.45335 -7.7013
   vertex -9.92406 2.74169 -7.7013
   vertex -9.92406 2.74169 5.7416
  end loop
 end facet
 facet normal -0.99819 0.0601473 0
  outer loop
   vertex -9.76067 5.45335 -7.7013
   vertex -9.92406 2.74169 5.7416
   vertex -9.76067 5.45335 5.7416
  end loop
 end facet
 facet normal -0.999801 0.0199343 0
  outer loop
   vertex -9.92406 2.74169 -7.7013
   vertex -9.97872 1.48602e-14 -7.7013
   vertex -9.97872 1.48602e-14 5.7416
  end loop
 end facet
 facet normal -0.999801 0.0199343 0
  outer loop
   vertex -9.92406 2.74169 -7.7013
   vertex -9.97872 1.48602e-14 5.7416
   vertex -9.92406 2.74169 5.7416
  end loop
 end facet
 facet normal -0.999801 -0.0199343 0
  outer loop
   vertex -9.97872 1.48602e-14 -7.7013
   vertex -9.92406 -2.74169 -7.7013
   vertex -9.92406 -2.74169 5.7416
  end loop
 end facet
 facet normal -0.999801 -0.0199343 0
  outer loop
   vertex -9.97872 1.48602e-14 -7.7013
   vertex -9.92406 -2.74169 5.7416
   vertex -9.97872 1.48602e-14 5.7416
  end loop
 end facet
 facet normal -0.99819 -0.0601473 0
  outer loop
   vertex -9.92406 -2.74169 -7.7013
   vertex -9.76067 -5.45335 -7.7013
   vertex -9.76067 -5.45335 5.7416
  end loop
 end facet
 facet normal -0.99819 -0.0601473 0
  outer loop
   vertex -9.92406 -2.74169 -7.7013
   vertex -9.76067 -5.45335 5.7416
   vertex -9.92406 -2.74169 5.7416
  end loop
 end facet
 facet normal -0.994844 -0.101414 0
  outer loop
   vertex -9.76067 -5.45335 -7.7013
   vertex -9.49033 -8.10526 -7.7013
   vertex -9.49033 -8.10526 5.7416
  end loop
 end facet
 facet normal -0.994844 -0.101414 0
  outer loop
   vertex -9.76067 -5.45335 -7.7013
   vertex -9.49033 -8.10526 5.7416
   vertex -9.76067 -5.45335 5.7416
  end loop
 end facet
 facet normal -0.989504 -0.144506 0
  outer loop
   vertex -9.49033 -8.10526 -7.7013
   vertex -9.11602 -10.6684 -7.7013
   vertex -9.11602 -10.6684 5.7416
  end loop
 end facet
 facet normal -0.989504 -0.144506 0
  outer loop
   vertex -9.49033 -8.10526 -7.7013
   vertex -9.11602 -10.6684 5.7416
   vertex -9.49033 -8.10526 5.7416
  end loop
 end facet
 facet normal -0.981725 -0.190303 0
  outer loop
   vertex -9.11602 -10.6684 -7.7013
   vertex -8.64183 -13.1146 -7.7013
   vertex -8.64183 -13.1146 5.7416
  end loop
 end facet
 facet normal -0.981725 -0.190303 0
  outer loop
   vertex -9.11602 -10.6684 -7.7013
   vertex -8.64183 -13.1146 5.7416
   vertex -9.11602 -10.6684 5.7416
  end loop
 end facet
 facet normal -0.97081 -0.239851 0
  outer loop
   vertex -8.64183 -13.1146 -7.7013
   vertex -8.07296 -15.4171 -7.7013
   vertex -8.07296 -15.4171 5.7416
  end loop
 end facet
 facet normal -0.97081 -0.239851 0
  outer loop
   vertex -8.64183 -13.1146 -7.7013
   vertex -8.07296 -15.4171 5.7416
   vertex -8.64183 -13.1146 5.7416
  end loop
 end facet
 facet normal -0.955676 -0.294422 0
  outer loop
   vertex -8.07296 -15.4171 -7.7013
   vertex -7.41564 -17.5507 -7.7013
   vertex -7.41564 -17.5507 5.7416
  end loop
 end facet
 facet normal -0.955676 -0.294422 0
  outer loop
   vertex -8.07296 -15.4171 -7.7013
   vertex -7.41564 -17.5507 5.7416
   vertex -8.07296 -15.4171 5.7416
  end loop
 end facet
 facet normal -0.934646 -0.35558 0
  outer loop
   vertex -7.41564 -17.5507 -7.7013
   vertex -6.67707 -19.4921 -7.7013
   vertex -6.67707 -19.4921 5.7416
  end loop
 end facet
 facet normal -0.934646 -0.35558 0
  outer loop
   vertex -7.41564 -17.5507 -7.7013
   vertex -6.67707 -19.4921 5.7416
   vertex -7.41564 -17.5507 5.7416
  end loop
 end facet
 facet normal -0.90509 -0.42522 0
  outer loop
   vertex -6.67707 -19.4921 -7.7013
   vertex -5.86535 -21.2198 -7.7013
   vertex -5.86535 -21.2198 5.7416
  end loop
 end facet
 facet normal -0.90509 -0.42522 0
  outer loop
   vertex -6.67707 -19.4921 -7.7013
   vertex -5.86535 -21.2198 5.7416
   vertex -6.67707 -19.4921 5.7416
  end loop
 end facet
 facet normal -0.862839 -0.505479 0
  outer loop
   vertex -5.86535 -21.2198 -7.7013
   vertex -4.98936 -22.7151 -7.7013
   vertex -4.98936 -22.7151 5.7416
  end loop
 end facet
 facet normal -0.862839 -0.505479 0
  outer loop
   vertex -5.86535 -21.2198 -7.7013
   vertex -4.98936 -22.7151 5.7416
   vertex -5.86535 -21.2198 5.7416
  end loop
 end facet
 facet normal -0.801282 -0.598287 0
  outer loop
   vertex -4.98936 -22.7151 -7.7013
   vertex -4.05871 -23.9615 -7.7013
   vertex -4.05871 -23.9615 5.7416
  end loop
 end facet
 facet normal -0.801282 -0.598287 0
  outer loop
   vertex -4.98936 -22.7151 -7.7013
   vertex -4.05871 -23.9615 5.7416
   vertex -4.98936 -22.7151 5.7416
  end loop
 end facet
 facet normal -0.710264 -0.703935 0
  outer loop
   vertex -4.05871 -23.9615 -7.7013
   vertex -3.0836 -24.9454 -7.7013
   vertex -3.0836 -24.9454 5.7416
  end loop
 end facet
 facet normal -0.710264 -0.703935 0
  outer loop
   vertex -4.05871 -23.9615 -7.7013
   vertex -3.0836 -24.9454 5.7416
   vertex -4.05871 -23.9615 5.7416
  end loop
 end facet
 facet normal -0.575823 -0.817574 0
  outer loop
   vertex -3.0836 -24.9454 -7.7013
   vertex -2.07469 -25.656 -7.7013
   vertex -2.07469 -25.656 5.7416
  end loop
 end facet
 facet normal -0.575823 -0.817574 0
  outer loop
   vertex -3.0836 -24.9454 -7.7013
   vertex -2.07469 -25.656 5.7416
   vertex -3.0836 -24.9454 5.7416
  end loop
 end facet
 facet normal -0.384339 -0.923192 0
  outer loop
   vertex -2.07469 -25.656 -7.7013
   vertex -1.04306 -26.0855 -7.7013
   vertex -1.04306 -26.0855 5.7416
  end loop
 end facet
 facet normal -0.384339 -0.923192 0
  outer loop
   vertex -2.07469 -25.656 -7.7013
   vertex -1.04306 -26.0855 5.7416
   vertex -2.07469 -25.656 5.7416
  end loop
 end facet
 facet normal -0.136466 -0.990645 0
  outer loop
   vertex -1.04306 -26.0855 -7.7013
   vertex -1.83306e-15 -26.2292 -7.7013
   vertex -1.83306e-15 -26.2292 5.7416
  end loop
 end facet
 facet normal -0.136466 -0.990645 0
  outer loop
   vertex -1.04306 -26.0855 -7.7013
   vertex -1.83306e-15 -26.2292 5.7416
   vertex -1.04306 -26.0855 5.7416
  end loop
 end facet
 facet normal 0.136466 -0.990645 0
  outer loop
   vertex -1.83306e-15 -26.2292 -7.7013
   vertex 1.04306 -26.0855 -7.7013
   vertex 1.04306 -26.0855 5.7416
  end loop
 end facet
 facet normal 0.136466 -0.990645 0
  outer loop
   vertex -1.83306e-15 -26.2292 -7.7013
   vertex 1.04306 -26.0855 5.7416
   vertex -1.83306e-15 -26.2292 5.7416
  end loop
 end facet
 facet normal 0.384339 -0.923192 0
  outer loop
   vertex 1.04306 -26.0855 -7.7013
   vertex 2.07469 -25.656 -7.7013
   vertex 2.07469 -25.656 5.7416
  end loop
 end facet
 facet normal 0.384339 -0.923192 0
  outer loop
   vertex 1.04306 -26.0855 -7.7013
   vertex 2.07469 -25.656 5.7416
   vertex 1.04306 -26.0855 5.7416
  end loop
 end facet
 facet normal 0.575823 -0.817574 0
  outer loop
   vertex 2.07469 -25.656 -7.7013
   vertex 3.0836 -24.9454 -7.7013
   vertex 3.0836 -24.9454 5.7416
  end loop
 end facet
 facet normal 0.575823 -0.817574 0
  outer loop
   vertex 2.07469 -25.656 -7.7013
   vertex 3.0836 -24.9454 5.7416
   vertex 2.07469 -25.656 5.7416
  end loop
 end facet
 facet normal 0.710264 -0.703935 0
  outer loop
   vertex 3.0836 -24.9454 -7.7013
   vertex 4.05871 -23.9615 -7.7013
   vertex 4.05871 -23.9615 5.7416
  end loop
 end facet
 facet normal 0.710264 -0.703935 0
  outer loop
   vertex 3.0836 -24.9454 -7.7013
   vertex 4.05871 -23.9615 5.7416
   vertex 3.0836 -24.9454 5.7416
  end loop
 end facet
 facet normal 0.801282 -0.598287 0
  outer loop
   vertex 4.05871 -23.9615 -7.7013
   vertex 4.98936 -22.7151 -7.7013
   vertex 4.98936 -22.7151 5.7416
  end loop
 end facet
 facet normal 0.801282 -0.598287 0
  outer loop
   vertex 4.05871 -23.9615 -7.7013
   vertex 4.98936 -22.7151 5.7416
   vertex 4.05871 -23.9615 5.7416
  end loop
 end facet
 facet normal 0.862839 -0.505479 0
  outer loop
   vertex 4.98936 -22.7151 -7.7013
   vertex 5.86535 -21.2198 -7.7013
   vertex 5.86535 -21.2198 5.7416
  end loop
 end facet
 facet normal 0.862839 -0.505479 0
  outer loop
   vertex 4.98936 -22.7151 -7.7013
   vertex 5.86535 -21.2198 5.7416
   vertex 4.98936 -22.7151 5.7416
  end loop
 end facet
 facet normal 0.90509 -0.42522 0
  outer loop
   vertex 5.86535 -21.2198 -7.7013
   vertex 6.67707 -19.4921 -7.7013
   vertex 6.67707 -19.4921 5.7416
  end loop
 end facet
 facet normal 0.90509 -0.42522 0
  outer loop
   vertex 5.86535 -21.2198 -7.7013
   vertex 6.67707 -19.4921 5.7416
   vertex 5.86535 -21.2198 5.7416
  end loop
 end facet
 facet normal 0.934646 -0.35558 0
  outer loop
   vertex 6.67707 -19.4921 -7.7013
   vertex 7.41564 -17.5507 -7.7013
   vertex 7.41564 -17.5507 5.7416
  end loop
 end facet
 facet normal 0.934646 -0.35558 0
  outer loop
   vertex 6.67707 -19.4921 -7.7013
   vertex 7.41564 -17.5507 5.7416
   vertex 6.67707 -19.4921 5.7416
  end loop
 end facet
 facet normal 0.955676 -0.294422 0
  outer loop
   vertex 7.41564 -17.5507 -7.7013
   vertex 8.07296 -15.4171 -7.7013
   vertex 8.07296 -15.4171 5.7416
  end loop
 end facet
 facet normal 0.955676 -0.294422 0
  outer loop
   vertex 7.41564 -17.5507 -7.7013
   vertex 8.07296 -15.4171 5.7416
   vertex 7.41564 -17.5507 5.7416
  end loop
 end facet
 facet normal 0.97081 -0.239851 0
  outer loop
   vertex 8.07296 -15.4171 -7.7013
   vertex 8.64183 -13.1146 -7.7013
   vertex 8.64183 -13.1146 5.7416
  end loop
 end facet
 facet normal 0.97081 -0.239851 0
  outer loop
   vertex 8.07296 -15.4171 -7.7013
   vertex 8.64183 -13.1146 5.7416
   vertex 8.07296 -15.4171 5.7416
  end loop
 end facet
 facet normal 0.981725 -0.190303 0
  outer loop
   vertex 8.64183 -13.1146 -7.7013
   vertex 9.11602 -10.6684 -7.7013
   vertex 9.11602 -10.6684 5.7416
  end loop
 end facet
 facet normal 0.981725 -0.190303 0
  outer loop
   vertex 8.64183 -13.1146 -7.7013
   vertex 9.11602 -10.6684 5.7416
   vertex 8.64183 -13.1146 5.7416
  end loop
 end facet
 facet normal 0.989504 -0.144506 0
  outer loop
   vertex 9.11602 -10.6684 -7.7013
   vertex 9.49033 -8.10526 -7.7013
   vertex 9.49033 -8.10526 5.7416
  end loop
 end facet
 facet normal 0.989504 -0.144506 0
  outer loop
   vertex 9.11602 -10.6684 -7.7013
   vertex 9.49033 -8.10526 5.7416
   vertex 9.11602 -10.6684 5.7416
  end loop
 end facet
 facet normal 0.994844 -0.101414 0
  outer loop
   vertex 9.49033 -8.10526 -7.7013
   vertex 9.76067 -5.45335 -7.7013
   vertex 9.76067 -5.45335 5.7416
  end loop
 end facet
 facet normal 0.994844 -0.101414 0
  outer loop
   vertex 9.49033 -8.10526 -7.7013
   vertex 9.76067 -5.45335 5.7416
   vertex 9.49033 -8.10526 5.7416
  end loop
 end facet
 facet normal 0.99819 -0.0601473 0
  outer loop
   vertex 9.76067 -5.45335 -7.7013
   vertex 9.92406 -2.74169 -7.7013
   vertex 9.92406 -2.74169 5.7416
  end loop
 end facet
 facet normal 0.99819 -0.0601473 0
  outer loop
   vertex 9.76067 -5.45335 -7.7013
   vertex 9.92406 -2.74169 5.7416
   vertex 9.76067 -5.45335 5.7416
  end loop
 end facet
 facet normal 0.999801 -0.0199343 0
  outer loop
   vertex 9.92406 -2.74169 -7.7013
   vertex 9.97872 0 -7.7013
   vertex 9.97872 0 5.7416
  end loop
 end facet
 facet normal 0.999801 -0.0199343 0
  outer loop
   vertex 9.92406 -2.74169 -7.7013
   vertex 9.97872 0 5.7416
   vertex 9.92406 -2.74169 5.7416
  end loop
 end facet
 facet normal -0.999832 -0.0183103 0
  outer loop
   vertex 8.72872 0 -7.7013
   vertex 8.68091 2.61103 5.7416
   vertex 8.68091 2.61103 -7.7013
  end loop
 end facet
 facet normal -0.999832 -0.0183103 0
  outer loop
   vertex 8.72872 0 -7.7013
   vertex 8.72872 0 5.7416
   vertex 8.68091 2.61103 5.7416
  end loop
 end facet
 facet normal -0.998472 -0.0552613 0
  outer loop
   vertex 8.68091 2.61103 -7.7013
   vertex 8.53798 5.19346 5.7416
   vertex 8.53798 5.19346 -7.7013
  end loop
 end facet
 facet normal -0.998472 -0.0552613 0
  outer loop
   vertex 8.68091 2.61103 -7.7013
   vertex 8.68091 2.61103 5.7416
   vertex 8.53798 5.19346 5.7416
  end loop
 end facet
 facet normal -0.995645 -0.0932245 0
  outer loop
   vertex 8.53798 5.19346 -7.7013
   vertex 8.30151 7.71899 5.7416
   vertex 8.30151 7.71899 -7.7013
  end loop
 end facet
 facet normal -0.995645 -0.0932245 0
  outer loop
   vertex 8.53798 5.19346 -7.7013
   vertex 8.53798 5.19346 5.7416
   vertex 8.30151 7.71899 5.7416
  end loop
 end facet
 facet normal -0.991123 -0.132947 0
  outer loop
   vertex 8.30151 7.71899 -7.7013
   vertex 7.97409 10.1599 5.7416
   vertex 7.97409 10.1599 -7.7013
  end loop
 end facet
 facet normal -0.991123 -0.132947 0
  outer loop
   vertex 8.30151 7.71899 -7.7013
   vertex 8.30151 7.71899 5.7416
   vertex 7.97409 10.1599 5.7416
  end loop
 end facet
 facet normal -0.984517 -0.175292 0
  outer loop
   vertex 7.97409 10.1599 -7.7013
   vertex 7.5593 12.4896 5.7416
   vertex 7.5593 12.4896 -7.7013
  end loop
 end facet
 facet normal -0.984517 -0.175292 0
  outer loop
   vertex 7.97409 10.1599 -7.7013
   vertex 7.97409 10.1599 5.7416
   vertex 7.5593 12.4896 5.7416
  end loop
 end facet
 facet normal -0.975205 -0.221302 0
  outer loop
   vertex 7.5593 12.4896 -7.7013
   vertex 7.06169 14.6824 5.7416
   vertex 7.06169 14.6824 -7.7013
  end loop
 end facet
 facet normal -0.975205 -0.221302 0
  outer loop
   vertex 7.5593 12.4896 -7.7013
   vertex 7.5593 12.4896 5.7416
   vertex 7.06169 14.6824 5.7416
  end loop
 end facet
 facet normal -0.962218 -0.27228 0
  outer loop
   vertex 7.06169 14.6824 -7.7013
   vertex 6.48671 16.7143 5.7416
   vertex 6.48671 16.7143 -7.7013
  end loop
 end facet
 facet normal -0.962218 -0.27228 0
  outer loop
   vertex 7.06169 14.6824 -7.7013
   vertex 7.06169 14.6824 5.7416
   vertex 6.48671 16.7143 5.7416
  end loop
 end facet
 facet normal -0.944023 -0.32988 0
  outer loop
   vertex 6.48671 16.7143 -7.7013
   vertex 5.84066 18.5631 5.7416
   vertex 5.84066 18.5631 -7.7013
  end loop
 end facet
 facet normal -0.944023 -0.32988 0
  outer loop
   vertex 6.48671 16.7143 -7.7013
   vertex 6.48671 16.7143 5.7416
   vertex 5.84066 18.5631 5.7416
  end loop
 end facet
 facet normal -0.918161 -0.396207 0
  outer loop
   vertex 5.84066 18.5631 -7.7013
   vertex 5.13062 20.2086 5.7416
   vertex 5.13062 20.2086 -7.7013
  end loop
 end facet
 facet normal -0.918161 -0.396207 0
  outer loop
   vertex 5.84066 18.5631 -7.7013
   vertex 5.84066 18.5631 5.7416
   vertex 5.13062 20.2086 5.7416
  end loop
 end facet
 facet normal -0.880607 -0.473847 0
  outer loop
   vertex 5.13062 20.2086 -7.7013
   vertex 4.36436 21.6326 5.7416
   vertex 4.36436 21.6326 -7.7013
  end loop
 end facet
 facet normal -0.880607 -0.473847 0
  outer loop
   vertex 5.13062 20.2086 -7.7013
   vertex 5.13062 20.2086 5.7416
   vertex 4.36436 21.6326 5.7416
  end loop
 end facet
 facet normal -0.82469 -0.565585 0
  outer loop
   vertex 4.36436 21.6326 -7.7013
   vertex 3.55029 22.8196 5.7416
   vertex 3.55029 22.8196 -7.7013
  end loop
 end facet
 facet normal -0.82469 -0.565585 0
  outer loop
   vertex 4.36436 21.6326 -7.7013
   vertex 4.36436 21.6326 5.7416
   vertex 3.55029 22.8196 5.7416
  end loop
 end facet
 facet normal -0.739486 -0.673171 0
  outer loop
   vertex 3.55029 22.8196 -7.7013
   vertex 2.69732 23.7566 5.7416
   vertex 2.69732 23.7566 -7.7013
  end loop
 end facet
 facet normal -0.739486 -0.673171 0
  outer loop
   vertex 3.55029 22.8196 -7.7013
   vertex 3.55029 22.8196 5.7416
   vertex 2.69732 23.7566 5.7416
  end loop
 end facet
 facet normal -0.608496 -0.793557 0
  outer loop
   vertex 2.69732 23.7566 -7.7013
   vertex 1.8148 24.4333 5.7416
   vertex 1.8148 24.4333 -7.7013
  end loop
 end facet
 facet normal -0.608496 -0.793557 0
  outer loop
   vertex 2.69732 23.7566 -7.7013
   vertex 2.69732 23.7566 5.7416
   vertex 1.8148 24.4333 5.7416
  end loop
 end facet
 facet normal -0.412826 -0.91081 0
  outer loop
   vertex 1.8148 24.4333 -7.7013
   vertex 0.9124 24.8423 5.7416
   vertex 0.9124 24.8423 -7.7013
  end loop
 end facet
 facet normal -0.412826 -0.91081 0
  outer loop
   vertex 1.8148 24.4333 -7.7013
   vertex 1.8148 24.4333 5.7416
   vertex 0.9124 24.8423 5.7416
  end loop
 end facet
 facet normal -0.148318 -0.98894 0
  outer loop
   vertex 0.9124 24.8423 -7.7013
   vertex 2.47265e-15 24.9792 5.7416
   vertex 2.47265e-15 24.9792 -7.7013
  end loop
 end facet
 facet normal -0.148318 -0.98894 0
  outer loop
   vertex 0.9124 24.8423 -7.7013
   vertex 0.9124 24.8423 5.7416
   vertex 2.47265e-15 24.9792 5.7416
  end loop
 end facet
 facet normal 0.148318 -0.98894 0
  outer loop
   vertex 2.47265e-15 24.9792 -7.7013
   vertex -0.9124 24.8423 5.7416
   vertex -0.9124 24.8423 -7.7013
  end loop
 end facet
 facet normal 0.148318 -0.98894 0
  outer loop
   vertex 2.47265e-15 24.9792 -7.7013
   vertex 2.47265e-15 24.9792 5.7416
   vertex -0.9124 24.8423 5.7416
  end loop
 end facet
 facet normal 0.412826 -0.91081 0
  outer loop
   vertex -0.9124 24.8423 -7.7013
   vertex -1.8148 24.4333 5.7416
   vertex -1.8148 24.4333 -7.7013
  end loop
 end facet
 facet normal 0.412826 -0.91081 0
  outer loop
   vertex -0.9124 24.8423 -7.7013
   vertex -0.9124 24.8423 5.7416
   vertex -1.8148 24.4333 5.7416
  end loop
 end facet
 facet normal 0.608496 -0.793557 0
  outer loop
   vertex -1.8148 24.4333 -7.7013
   vertex -2.69732 23.7566 5.7416
   vertex -2.69732 23.7566 -7.7013
  end loop
 end facet
 facet normal 0.608496 -0.793557 0
  outer loop
   vertex -1.8148 24.4333 -7.7013
   vertex -1.8148 24.4333 5.7416
   vertex -2.69732 23.7566 5.7416
  end loop
 end facet
 facet normal 0.739486 -0.673171 0
  outer loop
   vertex -2.69732 23.7566 -7.7013
   vertex -3.55029 22.8196 5.7416
   vertex -3.55029 22.8196 -7.7013
  end loop
 end facet
 facet normal 0.739486 -0.673171 0
  outer loop
   vertex -2.69732 23.7566 -7.7013
   vertex -2.69732 23.7566 5.7416
   vertex -3.55029 22.8196 5.7416
  end loop
 end facet
 facet normal 0.82469 -0.565585 0
  outer loop
   vertex -3.55029 22.8196 -7.7013
   vertex -4.36436 21.6326 5.7416
   vertex -4.36436 21.6326 -7.7013
  end loop
 end facet
 facet normal 0.82469 -0.565585 0
  outer loop
   vertex -3.55029 22.8196 -7.7013
   vertex -3.55029 22.8196 5.7416
   vertex -4.36436 21.6326 5.7416
  end loop
 end facet
 facet normal 0.880607 -0.473847 0
  outer loop
   vertex -4.36436 21.6326 -7.7013
   vertex -5.13062 20.2086 5.7416
   vertex -5.13062 20.2086 -7.7013
  end loop
 end facet
 facet normal 0.880607 -0.473847 0
  outer loop
   vertex -4.36436 21.6326 -7.7013
   vertex -4.36436 21.6326 5.7416
   vertex -5.13062 20.2086 5.7416
  end loop
 end facet
 facet normal 0.918161 -0.396207 0
  outer loop
   vertex -5.13062 20.2086 -7.7013
   vertex -5.84066 18.5631 5.7416
   vertex -5.84066 18.5631 -7.7013
  end loop
 end facet
 facet normal 0.918161 -0.396207 0
  outer loop
   vertex -5.13062 20.2086 -7.7013
   vertex -5.13062 20.2086 5.7416
   vertex -5.84066 18.5631 5.7416
  end loop
 end facet
 facet normal 0.944023 -0.32988 0
  outer loop
   vertex -5.84066 18.5631 -7.7013
   vertex -6.48671 16.7143 5.7416
   vertex -6.48671 16.7143 -7.7013
  end loop
 end facet
 facet normal 0.944023 -0.32988 0
  outer loop
   vertex -5.84066 18.5631 -7.7013
   vertex -5.84066 18.5631 5.7416
   vertex -6.48671 16.7143 5.7416
  end loop
 end facet
 facet normal 0.962218 -0.27228 0
  outer loop
   vertex -6.48671 16.7143 -7.7013
   vertex -7.06169 14.6824 5.7416
   vertex -7.06169 14.6824 -7.7013
  end loop
 end facet
 facet normal 0.962218 -0.27228 0
  outer loop
   vertex -6.48671 16.7143 -7.7013
   vertex -6.48671 16.7143 5.7416
   vertex -7.06169 14.6824 5.7416
  end loop
 end facet
 facet normal 0.975205 -0.221302 0
  outer loop
   vertex -7.06169 14.6824 -7.7013
   vertex -7.5593 12.4896 5.7416
   vertex -7.5593 12.4896 -7.7013
  end loop
 end facet
 facet normal 0.975205 -0.221302 0
  outer loop
   vertex -7.06169 14.6824 -7.7013
   vertex -7.06169 14.6824 5.7416
   vertex -7.5593 12.4896 5.7416
  end loop
 end facet
 facet normal 0.984517 -0.175292 0
  outer loop
   vertex -7.5593 12.4896 -7.7013
   vertex -7.97409 10.1599 5.7416
   vertex -7.97409 10.1599 -7.7013
  end loop
 end facet
 facet normal 0.984517 -0.175292 0
  outer loop
   vertex -7.5593 12.4896 -7.7013
   vertex -7.5593 12.4896 5.7416
   vertex -7.97409 10.1599 5.7416
  end loop
 end facet
 facet normal 0.991123 -0.132947 0
  outer loop
   vertex -7.97409 10.1599 -7.7013
   vertex -8.30151 7.71899 5.7416
   vertex -8.30151 7.71899 -7.7013
  end loop
 end facet
 facet normal 0.991123 -0.132947 0
  outer loop
   vertex -7.97409 10.1599 -7.7013
   vertex -7.97409 10.1599 5.7416
   vertex -8.30151 7.71899 5.7416
  end loop
 end facet
 facet normal 0.995645 -0.0932245 0
  outer loop
   vertex -8.30151 7.71899 -7.7013
   vertex -8.53798 5.19346 5.7416
   vertex -8.53798 5.19346 -7.7013
  end loop
 end facet
 facet normal 0.995645 -0.0932245 0
  outer loop
   vertex -8.30151 7.71899 -7.7013
   vertex -8.30151 7.71899 5.7416
   vertex -8.53798 5.19346 5.7416
  end loop
 end facet
 facet normal 0.998472 -0.0552613 0
  outer loop
   vertex -8.53798 5.19346 -7.7013
   vertex -8.68091 2.61103 5.7416
   vertex -8.68091 2.61103 -7.7013
  end loop
 end facet
 facet normal 0.998472 -0.0552613 0
  outer loop
   vertex -8.53798 5.19346 -7.7013
   vertex -8.53798 5.19346 5.7416
   vertex -8.68091 2.61103 5.7416
  end loop
 end facet
 facet normal 0.999832 -0.0183103 0
  outer loop
   vertex -8.68091 2.61103 -7.7013
   vertex -8.72872 1.4152e-14 5.7416
   vertex -8.72872 1.4152e-14 -7.7013
  end loop
 end facet
 facet normal 0.999832 -0.0183103 0
  outer loop
   vertex -8.68091 2.61103 -7.7013
   vertex -8.68091 2.61103 5.7416
   vertex -8.72872 1.4152e-14 5.7416
  end loop
 end facet
 facet normal 0.999832 0.0183103 0
  outer loop
   vertex -8.72872 1.4152e-14 -7.7013
   vertex -8.68091 -2.61103 5.7416
   vertex -8.68091 -2.61103 -7.7013
  end loop
 end facet
 facet normal 0.999832 0.0183103 -0
  outer loop
   vertex -8.72872 1.4152e-14 -7.7013
   vertex -8.72872 1.4152e-14 5.7416
   vertex -8.68091 -2.61103 5.7416
  end loop
 end facet
 facet normal 0.998472 0.0552613 0
  outer loop
   vertex -8.68091 -2.61103 -7.7013
   vertex -8.53798 -5.19346 5.7416
   vertex -8.53798 -5.19346 -7.7013
  end loop
 end facet
 facet normal 0.998472 0.0552613 -0
  outer loop
   vertex -8.68091 -2.61103 -7.7013
   vertex -8.68091 -2.61103 5.7416
   vertex -8.53798 -5.19346 5.7416
  end loop
 end facet
 facet normal 0.995645 0.0932245 0
  outer loop
   vertex -8.53798 -5.19346 -7.7013
   vertex -8.30151 -7.71899 5.7416
   vertex -8.30151 -7.71899 -7.7013
  end loop
 end facet
 facet normal 0.995645 0.0932245 -0
  outer loop
   vertex -8.53798 -5.19346 -7.7013
   vertex -8.53798 -5.19346 5.7416
   vertex -8.30151 -7.71899 5.7416
  end loop
 end facet
 facet normal 0.991123 0.132947 0
  outer loop
   vertex -8.30151 -7.71899 -7.7013
   vertex -7.97409 -10.1599 5.7416
   vertex -7.97409 -10.1599 -7.7013
  end loop
 end facet
 facet normal 0.991123 0.132947 -0
  outer loop
   vertex -8.30151 -7.71899 -7.7013
   vertex -8.30151 -7.71899 5.7416
   vertex -7.97409 -10.1599 5.7416
  end loop
 end facet
 facet normal 0.984517 0.175292 0
  outer loop
   vertex -7.97409 -10.1599 -7.7013
   vertex -7.5593 -12.4896 5.7416
   vertex -7.5593 -12.4896 -7.7013
  end loop
 end facet
 facet normal 0.984517 0.175292 -0
  outer loop
   vertex -7.97409 -10.1599 -7.7013
   vertex -7.97409 -10.1599 5.7416
   vertex -7.5593 -12.4896 5.7416
  end loop
 end facet
 facet normal 0.975205 0.221302 0
  outer loop
   vertex -7.5593 -12.4896 -7.7013
   vertex -7.06169 -14.6824 5.7416
   vertex -7.06169 -14.6824 -7.7013
  end loop
 end facet
 facet normal 0.975205 0.221302 -0
  outer loop
   vertex -7.5593 -12.4896 -7.7013
   vertex -7.5593 -12.4896 5.7416
   vertex -7.06169 -14.6824 5.7416
  end loop
 end facet
 facet normal 0.962218 0.27228 0
  outer loop
   vertex -7.06169 -14.6824 -7.7013
   vertex -6.48671 -16.7143 5.7416
   vertex -6.48671 -16.7143 -7.7013
  end loop
 end facet
 facet normal 0.962218 0.27228 -0
  outer loop
   vertex -7.06169 -14.6824 -7.7013
   vertex -7.06169 -14.6824 5.7416
   vertex -6.48671 -16.7143 5.7416
  end loop
 end facet
 facet normal 0.944023 0.32988 0
  outer loop
   vertex -6.48671 -16.7143 -7.7013
   vertex -5.84066 -18.5631 5.7416
   vertex -5.84066 -18.5631 -7.7013
  end loop
 end facet
 facet normal 0.944023 0.32988 -0
  outer loop
   vertex -6.48671 -16.7143 -7.7013
   vertex -6.48671 -16.7143 5.7416
   vertex -5.84066 -18.5631 5.7416
  end loop
 end facet
 facet normal 0.918161 0.396207 0
  outer loop
   vertex -5.84066 -18.5631 -7.7013
   vertex -5.13062 -20.2086 5.7416
   vertex -5.13062 -20.2086 -7.7013
  end loop
 end facet
 facet normal 0.918161 0.396207 -0
  outer loop
   vertex -5.84066 -18.5631 -7.7013
   vertex -5.84066 -18.5631 5.7416
   vertex -5.13062 -20.2086 5.7416
  end loop
 end facet
 facet normal 0.880607 0.473847 0
  outer loop
   vertex -5.13062 -20.2086 -7.7013
   vertex -4.36436 -21.6326 5.7416
   vertex -4.36436 -21.6326 -7.7013
  end loop
 end facet
 facet normal 0.880607 0.473847 -0
  outer loop
   vertex -5.13062 -20.2086 -7.7013
   vertex -5.13062 -20.2086 5.7416
   vertex -4.36436 -21.6326 5.7416
  end loop
 end facet
 facet normal 0.82469 0.565585 0
  outer loop
   vertex -4.36436 -21.6326 -7.7013
   vertex -3.55029 -22.8196 5.7416
   vertex -3.55029 -22.8196 -7.7013
  end loop
 end facet
 facet normal 0.82469 0.565585 -0
  outer loop
   vertex -4.36436 -21.6326 -7.7013
   vertex -4.36436 -21.6326 5.7416
   vertex -3.55029 -22.8196 5.7416
  end loop
 end facet
 facet normal 0.739486 0.673171 0
  outer loop
   vertex -3.55029 -22.8196 -7.7013
   vertex -2.69732 -23.7566 5.7416
   vertex -2.69732 -23.7566 -7.7013
  end loop
 end facet
 facet normal 0.739486 0.673171 -0
  outer loop
   vertex -3.55029 -22.8196 -7.7013
   vertex -3.55029 -22.8196 5.7416
   vertex -2.69732 -23.7566 5.7416
  end loop
 end facet
 facet normal 0.608496 0.793557 0
  outer loop
   vertex -2.69732 -23.7566 -7.7013
   vertex -1.8148 -24.4333 5.7416
   vertex -1.8148 -24.4333 -7.7013
  end loop
 end facet
 facet normal 0.608496 0.793557 -0
  outer loop
   vertex -2.69732 -23.7566 -7.7013
   vertex -2.69732 -23.7566 5.7416
   vertex -1.8148 -24.4333 5.7416
  end loop
 end facet
 facet normal 0.412826 0.91081 0
  outer loop
   vertex -1.8148 -24.4333 -7.7013
   vertex -0.9124 -24.8423 5.7416
   vertex -0.9124 -24.8423 -7.7013
  end loop
 end facet
 facet normal 0.412826 0.91081 -0
  outer loop
   vertex -1.8148 -24.4333 -7.7013
   vertex -1.8148 -24.4333 5.7416
   vertex -0.9124 -24.8423 5.7416
  end loop
 end facet
 facet normal 0.148318 0.98894 0
  outer loop
   vertex -0.9124 -24.8423 -7.7013
   vertex -1.60344e-15 -24.9792 5.7416
   vertex -1.60344e-15 -24.9792 -7.7013
  end loop
 end facet
 facet normal 0.148318 0.98894 -0
  outer loop
   vertex -0.9124 -24.8423 -7.7013
   vertex -0.9124 -24.8423 5.7416
   vertex -1.60344e-15 -24.9792 5.7416
  end loop
 end facet
 facet normal -0.148318 0.98894 0
  outer loop
   vertex -1.60344e-15 -24.9792 -7.7013
   vertex 0.9124 -24.8423 5.7416
   vertex 0.9124 -24.8423 -7.7013
  end loop
 end facet
 facet normal -0.148318 0.98894 0
  outer loop
   vertex -1.60344e-15 -24.9792 -7.7013
   vertex -1.60344e-15 -24.9792 5.7416
   vertex 0.9124 -24.8423 5.7416
  end loop
 end facet
 facet normal -0.412826 0.91081 0
  outer loop
   vertex 0.9124 -24.8423 -7.7013
   vertex 1.8148 -24.4333 5.7416
   vertex 1.8148 -24.4333 -7.7013
  end loop
 end facet
 facet normal -0.412826 0.91081 0
  outer loop
   vertex 0.9124 -24.8423 -7.7013
   vertex 0.9124 -24.8423 5.7416
   vertex 1.8148 -24.4333 5.7416
  end loop
 end facet
 facet normal -0.608496 0.793557 0
  outer loop
   vertex 1.8148 -24.4333 -7.7013
   vertex 2.69732 -23.7566 5.7416
   vertex 2.69732 -23.7566 -7.7013
  end loop
 end facet
 facet normal -0.608496 0.793557 0
  outer loop
   vertex 1.8148 -24.4333 -7.7013
   vertex 1.8148 -24.4333 5.7416
   vertex 2.69732 -23.7566 5.7416
  end loop
 end facet
 facet normal -0.739486 0.673171 0
  outer loop
   vertex 2.69732 -23.7566 -7.7013
   vertex 3.55029 -22.8196 5.7416
   vertex 3.55029 -22.8196 -7.7013
  end loop
 end facet
 facet normal -0.739486 0.673171 0
  outer loop
   vertex 2.69732 -23.7566 -7.7013
   vertex 2.69732 -23.7566 5.7416
   vertex 3.55029 -22.8196 5.7416
  end loop
 end facet
 facet normal -0.82469 0.565585 0
  outer loop
   vertex 3.55029 -22.8196 -7.7013
   vertex 4.36436 -21.6326 5.7416
   vertex 4.36436 -21.6326 -7.7013
  end loop
 end facet
 facet normal -0.82469 0.565585 0
  outer loop
   vertex 3.55029 -22.8196 -7.7013
   vertex 3.55029 -22.8196 5.7416
   vertex 4.36436 -21.6326 5.7416
  end loop
 end facet
 facet normal -0.880607 0.473847 0
  outer loop
   vertex 4.36436 -21.6326 -7.7013
   vertex 5.13062 -20.2086 5.7416
   vertex 5.13062 -20.2086 -7.7013
  end loop
 end facet
 facet normal -0.880607 0.473847 0
  outer loop
   vertex 4.36436 -21.6326 -7.7013
   vertex 4.36436 -21.6326 5.7416
   vertex 5.13062 -20.2086 5.7416
  end loop
 end facet
 facet normal -0.918161 0.396207 0
  outer loop
   vertex 5.13062 -20.2086 -7.7013
   vertex 5.84066 -18.5631 5.7416
   vertex 5.84066 -18.5631 -7.7013
  end loop
 end facet
 facet normal -0.918161 0.396207 0
  outer loop
   vertex 5.13062 -20.2086 -7.7013
   vertex 5.13062 -20.2086 5.7416
   vertex 5.84066 -18.5631 5.7416
  end loop
 end facet
 facet normal -0.944023 0.32988 0
  outer loop
   vertex 5.84066 -18.5631 -7.7013
   vertex 6.48671 -16.7143 5.7416
   vertex 6.48671 -16.7143 -7.7013
  end loop
 end facet
 facet normal -0.944023 0.32988 0
  outer loop
   vertex 5.84066 -18.5631 -7.7013
   vertex 5.84066 -18.5631 5.7416
   vertex 6.48671 -16.7143 5.7416
  end loop
 end facet
 facet normal -0.962218 0.27228 0
  outer loop
   vertex 6.48671 -16.7143 -7.7013
   vertex 7.06169 -14.6824 5.7416
   vertex 7.06169 -14.6824 -7.7013
  end loop
 end facet
 facet normal -0.962218 0.27228 0
  outer loop
   vertex 6.48671 -16.7143 -7.7013
   vertex 6.48671 -16.7143 5.7416
   vertex 7.06169 -14.6824 5.7416
  end loop
 end facet
 facet normal -0.975205 0.221302 0
  outer loop
   vertex 7.06169 -14.6824 -7.7013
   vertex 7.5593 -12.4896 5.7416
   vertex 7.5593 -12.4896 -7.7013
  end loop
 end facet
 facet normal -0.975205 0.221302 0
  outer loop
   vertex 7.06169 -14.6824 -7.7013
   vertex 7.06169 -14.6824 5.7416
   vertex 7.5593 -12.4896 5.7416
  end loop
 end facet
 facet normal -0.984517 0.175292 0
  outer loop
   vertex 7.5593 -12.4896 -7.7013
   vertex 7.97409 -10.1599 5.7416
   vertex 7.97409 -10.1599 -7.7013
  end loop
 end facet
 facet normal -0.984517 0.175292 0
  outer loop
   vertex 7.5593 -12.4896 -7.7013
   vertex 7.5593 -12.4896 5.7416
   vertex 7.97409 -10.1599 5.7416
  end loop
 end facet
 facet normal -0.991123 0.132947 0
  outer loop
   vertex 7.97409 -10.1599 -7.7013
   vertex 8.30151 -7.71899 5.7416
   vertex 8.30151 -7.71899 -7.7013
  end loop
 end facet
 facet normal -0.991123 0.132947 0
  outer loop
   vertex 7.97409 -10.1599 -7.7013
   vertex 7.97409 -10.1599 5.7416
   vertex 8.30151 -7.71899 5.7416
  end loop
 end facet
 facet normal -0.995645 0.0932245 0
  outer loop
   vertex 8.30151 -7.71899 -7.7013
   vertex 8.53798 -5.19346 5.7416
   vertex 8.53798 -5.19346 -7.7013
  end loop
 end facet
 facet normal -0.995645 0.0932245 0
  outer loop
   vertex 8.30151 -7.71899 -7.7013
   vertex 8.30151 -7.71899 5.7416
   vertex 8.53798 -5.19346 5.7416
  end loop
 end facet
 facet normal -0.998472 0.0552613 0
  outer loop
   vertex 8.53798 -5.19346 -7.7013
   vertex 8.68091 -2.61103 5.7416
   vertex 8.68091 -2.61103 -7.7013
  end loop
 end facet
 facet normal -0.998472 0.0552613 0
  outer loop
   vertex 8.53798 -5.19346 -7.7013
   vertex 8.53798 -5.19346 5.7416
   vertex 8.68091 -2.61103 5.7416
  end loop
 end facet
 facet normal -0.999832 0.0183103 0
  outer loop
   vertex 8.68091 -2.61103 -7.7013
   vertex 8.72872 0 5.7416
   vertex 8.72872 0 -7.7013
  end loop
 end facet
 facet normal -0.999832 0.0183103 0
  outer loop
   vertex 8.68091 -2.61103 -7.7013
   vertex 8.68091 -2.61103 5.7416
   vertex 8.72872 0 5.7416
  end loop
 end facet
 facet normal 0 0 -1
  outer loop
   vertex 9.97872 0 -7.7013
   vertex 8.68091 2.61103 -7.7013
   vertex 9.92406 2.74169 -7.7013
  end loop
 end facet
 facet normal 0 0 -1
  outer loop
   vertex 9.97872 0 -7.7013
   vertex 8.72872 0 -7.7013
   vertex 8.68091 2.61103 -7.7013
  end loop
 end facet
 facet normal 0 0 -1
  outer loop
   vertex 9.92406 2.74169 -7.7013
   vertex 8.53798 5.19346 -7.7013
   vertex 9.76067 5.45335 -7.7013
  end loop
 end facet
 facet normal -0 0 -1
  outer loop
   vertex 9.92406 2.74169 -7.7013
   vertex 8.68091 2.61103 -7.7013
   vertex 8.53798 5.19346 -7.7013
  end loop
 end facet
 facet normal 0 0 -1
  outer loop
   vertex 9.76067 5.45335 -7.7013
   vertex 8.30151 7.71899 -7.7013
   vertex 9.49033 8.10526 -7.7013
  end loop
 end facet
 facet normal -0 0 -1
  outer loop
   vertex 9.76067 5.45335 -7.7013
   vertex 8.53798 5.19346 -7.7013
   vertex 8.30151 7.71899 -7.7013
  end loop
 end facet
 facet normal 0 0 -1
  outer loop
   vertex 9.49033 8.10526 -7.7013
   vertex 7.97409 10.1599 -7.7013
   vertex 9.11602 10.6684 -7.7013
  end loop
 end facet
 facet normal -0 0 -1
  outer loop
   vertex 9.49033 8.10526 -7.7013
   vertex 8.30151 7.71899 -7.7013
   vertex 7.97409 10.1599 -7.7013
  end loop
 end facet
 facet normal 0 0 -1
  outer loop
   vertex 9.11602 10.6684 -7.7013
   vertex 7.5593 12.4896 -7.7013
   vertex 8.64183 13.1146 -7.7013
  end loop
 end facet
 facet normal -0 0 -1
  outer loop
   vertex 9.11602 10.6684 -7.7013
   vertex 7.97409 10.1599 -7.7013
   vertex 7.5593 12.4896 -7.7013
  end loop
 end facet
 facet normal 0 0 -1
  outer loop
   vertex 8.64183 13.1146 -7.7013
   vertex 7.06169 14.6824 -7.7013
   vertex 8.07296 15.4171 -7.7013
  end loop
 end facet
 facet normal -0 0 -1
  outer loop
   vertex 8.64183 13.1146 -7.7013
   vertex 7.5593 12.4896 -7.7013
   vertex 7.06169 14.6824 -7.7013
  end loop
 end facet
 facet normal 0 0 -1
  outer loop
   vertex 8.07296 15.4171 -7.7013
   vertex 6.48671 16.7143 -7.7013
   vertex 7.41564 17.5507 -7.7013
  end loop
 end facet
 facet normal -0 0 -1
  outer loop
   vertex 8.07296 15.4171 -7.7013
   vertex 7.06169 14.6824 -7.7013
   vertex 6.48671 16.7143 -7.7013
  end loop
 end facet
 facet normal 0 0 -1
  outer loop
   vertex 7.41564 17.5507 -7.7013
   vertex 5.84066 18.5631 -7.7013
   vertex 6.67707 19.4921 -7.7013
  end loop
 end facet
 facet normal -0 0 -1
  outer loop
   vertex 7.41564 17.5507 -7.7013
   vertex 6.48671 16.7143 -7.7013
   vertex 5.84066 18.5631 -7.7013
  end loop
 end facet
 facet normal 0 0 -1
  outer loop
   vertex 6.67707 19.4921 -7.7013
   vertex 5.13062 20.2086 -7.7013
   vertex 5.86535 21.2198 -7.7013
  end loop
 end facet
 facet normal -0 0 -1
  outer loop
   vertex 6.67707 19.4921 -7.7013
   vertex 5.84066 18.5631 -7.7013
   vertex 5.13062 20.2086 -7.7013
  end loop
 end facet
 facet normal 0 0 -1
  outer loop
   vertex 5.86535 21.2198 -7.7013
   vertex 4.36436 21.6326 -7.7013
   vertex 4.98936 22.7151 -7.7013
  end loop
 end facet
 facet normal -0 0 -1
  outer loop
   vertex 5.86535 21.2198 -7.7013
   vertex 5.13062 20.2086 -7.7013
   vertex 4.36436 21.6326 -7.7013
  end loop
 end facet
 facet normal 0 0 -1
  outer loop
   vertex 4.98936 22.7151 -7.7013
   vertex 3.55029 22.8196 -7.7013
   vertex 4.05871 23.9615 -7.7013
  end loop
 end facet
 facet normal -0 0 -1
  outer loop
   vertex 4.98936 22.7151 -7.7013
   vertex 4.36436 21.6326 -7.7013
   vertex 3.55029 22.8196 -7.7013
  end loop
 end facet
 facet normal -0 0 -1
  outer loop
   vertex 4.05871 23.9615 -7.7013
   vertex 2.69732 23.7566 -7.7013
   vertex 3.0836 24.9454 -7.7013
  end loop
 end facet
 facet normal 0 0 -1
  outer loop
   vertex 4.05871 23.9615 -7.7013
   vertex 3.55029 22.8196 -7.7013
   vertex 2.69732 23.7566 -7.7013
  end loop
 end facet
 facet normal -0 0 -1
  outer loop
   vertex 3.0836 24.9454 -7.7013
   vertex 1.8148 24.4333 -7.7013
   vertex 2.07469 25.656 -7.7013
  end loop
 end facet
 facet normal 0 0 -1
  outer loop
   vertex 3.0836 24.9454 -7.7013
   vertex 2.69732 23.7566 -7.7013
   vertex 1.8148 24.4333 -7.7013
  end loop
 end facet
 facet normal -0 0 -1
  outer loop
   vertex 2.07469 25.656 -7.7013
   vertex 0.9124 24.8423 -7.7013
   vertex 1.04306 26.0855 -7.7013
  end loop
 end facet
 facet normal 0 0 -1
  outer loop
   vertex 2.07469 25.656 -7.7013
   vertex 1.8148 24.4333 -7.7013
   vertex 0.9124 24.8423 -7.7013
  end loop
 end facet
 facet normal -0 0 -1
  outer loop
   vertex 1.04306 26.0855 -7.7013
   vertex 2.47265e-15 24.9792 -7.7013
   vertex 2.82674e-15 26.2292 -7.7013
  end loop
 end facet
 facet normal 0 0 -1
  outer loop
   vertex 1.04306 26.0855 -7.7013
   vertex 0.9124 24.8423 -7.7013
   vertex 2.47265e-15 24.9792 -7.7013
  end loop
 end facet
 facet normal 0 0 -1
  outer loop
   vertex 2.82674e-15 26.2292 -7.7013
   vertex -0.9124 24.8423 -7.7013
   vertex -1.04306 26.0855 -7.7013
  end loop
 end facet
 facet normal 0 0 -1
  outer loop
   vertex 2.82674e-15 26.2292 -7.7013
   vertex 2.47265e-15 24.9792 -7.7013
   vertex -0.9124 24.8423 -7.7013
  end loop
 end facet
 facet normal 0 0 -1
  outer loop
   vertex -1.04306 26.0855 -7.7013
   vertex -1.8148 24.4333 -7.7013
   vertex -2.07469 25.656 -7.7013
  end loop
 end facet
 facet normal 0 -0 -1
  outer loop
   vertex -1.04306 26.0855 -7.7013
   vertex -0.9124 24.8423 -7.7013
   vertex -1.8148 24.4333 -7.7013
  end loop
 end facet
 facet normal 0 0 -1
  outer loop
   vertex -2.07469 25.656 -7.7013
   vertex -2.69732 23.7566 -7.7013
   vertex -3.0836 24.9454 -7.7013
  end loop
 end facet
 facet normal 0 -0 -1
  outer loop
   vertex -2.07469 25.656 -7.7013
   vertex -1.8148 24.4333 -7.7013
   vertex -2.69732 23.7566 -7.7013
  end loop
 end facet
 facet normal 0 0 -1
  outer loop
   vertex -3.0836 24.9454 -7.7013
   vertex -3.55029 22.8196 -7.7013
   vertex -4.05871 23.9615 -7.7013
  end loop
 end facet
 facet normal 0 -0 -1
  outer loop
   vertex -3.0836 24.9454 -7.7013
   vertex -2.69732 23.7566 -7.7013
   vertex -3.55029 22.8196 -7.7013
  end loop
 end facet
 facet normal 0 0 -1
  outer loop
   vertex -4.05871 23.9615 -7.7013
   vertex -4.36436 21.6326 -7.7013
   vertex -4.98936 22.7151 -7.7013
  end loop
 end facet
 facet normal 0 -0 -1
  outer loop
   vertex -4.05871 23.9615 -7.7013
   vertex -3.55029 22.8196 -7.7013
   vertex -4.36436 21.6326 -7.7013
  end loop
 end facet
 facet normal 0 0 -1
  outer loop
   vertex -4.98936 22.7151 -7.7013
   vertex -5.13062 20.2086 -7.7013
   vertex -5.86535 21.2198 -7.7013
  end loop
 end facet
 facet normal 0 -0 -1
  outer loop
   vertex -4.98936 22.7151 -7.7013
   vertex -4.36436 21.6326 -7.7013
   vertex -5.13062 20.2086 -7.7013
  end loop
 end facet
 facet normal 0 -0 -1
  outer loop
   vertex -5.86535 21.2198 -7.7013
   vertex -5.84066 18.5631 -7.7013
   vertex -6.67707 19.4921 -7.7013
  end loop
 end facet
 facet normal 0 0 -1
  outer loop
   vertex -5.86535 21.2198 -7.7013
   vertex -5.13062 20.2086 -7.7013
   vertex -5.84066 18.5631 -7.7013
  end loop
 end facet
 facet normal 0 -0 -1
  outer loop
   vertex -6.67707 19.4921 -7.7013
   vertex -6.48671 16.7143 -7.7013
   vertex -7.41564 17.5507 -7.7013
  end loop
 end facet
 facet normal 0 0 -1
  outer loop
   vertex -6.67707 19.4921 -7.7013
   vertex -5.84066 18.5631 -7.7013
   vertex -6.48671 16.7143 -7.7013
  end loop
 end facet
 facet normal 0 -0 -1
  outer loop
   vertex -7.41564 17.5507 -7.7013
   vertex -7.06169 14.6824 -7.7013
   vertex -8.07296 15.4171 -7.7013
  end loop
 end facet
 facet normal 0 0 -1
  outer loop
   vertex -7.41564 17.5507 -7.7013
   vertex -6.48671 16.7143 -7.7013
   vertex -7.06169 14.6824 -7.7013
  end loop
 end facet
 facet normal 0 -0 -1
  outer loop
   vertex -8.07296 15.4171 -7.7013
   vertex -7.5593 12.4896 -7.7013
   vertex -8.64183 13.1146 -7.7013
  end loop
 end facet
 facet normal 0 0 -1
  outer loop
   vertex -8.07296 15.4171 -7.7013
   vertex -7.06169 14.6824 -7.7013
   vertex -7.5593 12.4896 -7.7013
  end loop
 end facet
 facet normal 0 -0 -1
  outer loop
   vertex -8.64183 13.1146 -7.7013
   vertex -7.97409 10.1599 -7.7013
   vertex -9.11602 10.6684 -7.7013
  end loop
 end facet
 facet normal 0 0 -1
  outer loop
   vertex -8.64183 13.1146 -7.7013
   vertex -7.5593 12.4896 -7.7013
   vertex -7.97409 10.1599 -7.7013
  end loop
 end facet
 facet normal 0 -0 -1
  outer loop
   vertex -9.11602 10.6684 -7.7013
   vertex -8.30151 7.71899 -7.7013
   vertex -9.49033 8.10526 -7.7013
  end loop
 end facet
 facet normal 0 0 -1
  outer loop
   vertex -9.11602 10.6684 -7.7013
   vertex -7.97409 10.1599 -7.7013
   vertex -8.30151 7.71899 -7.7013
  end loop
 end facet
 facet normal 0 -0 -1
  outer loop
   vertex -9.49033 8.10526 -7.7013
   vertex -8.53798 5.19346 -7.7013
   vertex -9.76067 5.45335 -7.7013
  end loop
 end facet
 facet normal 0 0 -1
  outer loop
   vertex -9.49033 8.10526 -7.7013
   vertex -8.30151 7.71899 -7.7013
   vertex -8.53798 5.19346 -7.7013
  end loop
 end facet
 facet normal 0 -0 -1
  outer loop
   vertex -9.76067 5.45335 -7.7013
   vertex -8.68091 2.61103 -7.7013
   vertex -9.92406 2.74169 -7.7013
  end loop
 end facet
 facet normal 0 0 -1
  outer loop
   vertex -9.76067 5.45335 -7.7013
   vertex -8.53798 5.19346 -7.7013
   vertex -8.68091 2.61103 -7.7013
  end loop
 end facet
 facet normal 0 -0 -1
  outer loop
   vertex -9.92406 2.74169 -7.7013
   vertex -8.72872 1.4152e-14 -7.7013
   vertex -9.97872 1.48602e-14 -7.7013
  end loop
 end facet
 facet normal 0 0 -1
  outer loop
   vertex -9.92406 2.74169 -7.7013
   vertex -8.68091 2.61103 -7.7013
   vertex -8.72872 1.4152e-14 -7.7013
  end loop
 end facet
 facet normal 0 0 -1
  outer loop
   vertex -9.97872 1.48602e-14 -7.7013
   vertex -8.68091 -2.61103 -7.7013
   vertex -9.92406 -2.74169 -7.7013
  end loop
 end facet
 facet normal 0 0 -1
  outer loop
   vertex -9.97872 1.48602e-14 -7.7013
   vertex -8.72872 1.4152e-14 -7.7013
   vertex -8.68091 -2.61103 -7.7013
  end loop
 end facet
 facet normal 0 0 -1
  outer loop
   vertex -9.92406 -2.74169 -7.7013
   vertex -8.53798 -5.19346 -7.7013
   vertex -9.76067 -5.45335 -7.7013
  end loop
 end facet
 facet normal 0 0 -1
  outer loop
   vertex -9.92406 -2.74169 -7.7013
   vertex -8.68091 -2.61103 -7.7013
   vertex -8.53798 -5.19346 -7.7013
  end loop
 end facet
 facet normal 0 0 -1
  outer loop
   vertex -9.76067 -5.45335 -7.7013
   vertex -8.30151 -7.71899 -7.7013
   vertex -9.49033 -8.10526 -7.7013
  end loop
 end facet
 facet normal 0 0 -1
  outer loop
   vertex -9.76067 -5.45335 -7.7013
   vertex -8.53798 -5.19346 -7.7013
   vertex -8.30151 -7.71899 -7.7013
  end loop
 end facet
 facet normal 0 0 -1
  outer loop
   vertex -9.49033 -8.10526 -7.7013
   vertex -7.97409 -10.1599 -7.7013
   vertex -9.11602 -10.6684 -7.7013
  end loop
 end facet
 facet normal 0 0 -1
  outer loop
   vertex -9.49033 -8.10526 -7.7013
   vertex -8.30151 -7.71899 -7.7013
   vertex -7.97409 -10.1599 -7.7013
  end loop
 end facet
 facet normal 0 0 -1
  outer loop
   vertex -9.11602 -10.6684 -7.7013
   vertex -7.5593 -12.4896 -7.7013
   vertex -8.64183 -13.1146 -7.7013
  end loop
 end facet
 facet normal 0 0 -1
  outer loop
   vertex -9.11602 -10.6684 -7.7013
   vertex -7.97409 -10.1599 -7.7013
   vertex -7.5593 -12.4896 -7.7013
  end loop
 end facet
 facet normal 0 0 -1
  outer loop
   vertex -8.64183 -13.1146 -7.7013
   vertex -7.06169 -14.6824 -7.7013
   vertex -8.07296 -15.4171 -7.7013
  end loop
 end facet
 facet normal 0 0 -1
  outer loop
   vertex -8.64183 -13.1146 -7.7013
   vertex -7.5593 -12.4896 -7.7013
   vertex -7.06169 -14.6824 -7.7013
  end loop
 end facet
 facet normal 0 0 -1
  outer loop
   vertex -8.07296 -15.4171 -7.7013
   vertex -6.48671 -16.7143 -7.7013
   vertex -7.41564 -17.5507 -7.7013
  end loop
 end facet
 facet normal 0 0 -1
  outer loop
   vertex -8.07296 -15.4171 -7.7013
   vertex -7.06169 -14.6824 -7.7013
   vertex -6.48671 -16.7143 -7.7013
  end loop
 end facet
 facet normal 0 0 -1
  outer loop
   vertex -7.41564 -17.5507 -7.7013
   vertex -5.84066 -18.5631 -7.7013
   vertex -6.67707 -19.4921 -7.7013
  end loop
 end facet
 facet normal 0 0 -1
  outer loop
   vertex -7.41564 -17.5507 -7.7013
   vertex -6.48671 -16.7143 -7.7013
   vertex -5.84066 -18.5631 -7.7013
  end loop
 end facet
 facet normal 0 0 -1
  outer loop
   vertex -6.67707 -19.4921 -7.7013
   vertex -5.13062 -20.2086 -7.7013
   vertex -5.86535 -21.2198 -7.7013
  end loop
 end facet
 facet normal 0 0 -1
  outer loop
   vertex -6.67707 -19.4921 -7.7013
   vertex -5.84066 -18.5631 -7.7013
   vertex -5.13062 -20.2086 -7.7013
  end loop
 end facet
 facet normal 0 0 -1
  outer loop
   vertex -5.86535 -21.2198 -7.7013
   vertex -4.36436 -21.6326 -7.7013
   vertex -4.98936 -22.7151 -7.7013
  end loop
 end facet
 facet normal 0 0 -1
  outer loop
   vertex -5.86535 -21.2198 -7.7013
   vertex -5.13062 -20.2086 -7.7013
   vertex -4.36436 -21.6326 -7.7013
  end loop
 end facet
 facet normal 0 0 -1
  outer loop
   vertex -4.98936 -22.7151 -7.7013
   vertex -3.55029 -22.8196 -7.7013
   vertex -4.05871 -23.9615 -7.7013
  end loop
 end facet
 facet normal 0 0 -1
  outer loop
   vertex -4.98936 -22.7151 -7.7013
   vertex -4.36436 -21.6326 -7.7013
   vertex -3.55029 -22.8196 -7.7013
  end loop
 end facet
 facet normal 0 0 -1
  outer loop
   vertex -4.05871 -23.9615 -7.7013
   vertex -2.69732 -23.7566 -7.7013
   vertex -3.0836 -24.9454 -7.7013
  end loop
 end facet
 facet normal 0 0 -1
  outer loop
   vertex -4.05871 -23.9615 -7.7013
   vertex -3.55029 -22.8196 -7.7013
   vertex -2.69732 -23.7566 -7.7013
  end loop
 end facet
 facet normal 0 0 -1
  outer loop
   vertex -3.0836 -24.9454 -7.7013
   vertex -1.8148 -24.4333 -7.7013
   vertex -2.07469 -25.656 -7.7013
  end loop
 end facet
 facet normal 0 0 -1
  outer loop
   vertex -3.0836 -24.9454 -7.7013
   vertex -2.69732 -23.7566 -7.7013
   vertex -1.8148 -24.4333 -7.7013
  end loop
 end facet
 facet normal 0 0 -1
  outer loop
   vertex -2.07469 -25.656 -7.7013
   vertex -0.9124 -24.8423 -7.7013
   vertex -1.04306 -26.0855 -7.7013
  end loop
 end facet
 facet normal 0 0 -1
  outer loop
   vertex -2.07469 -25.656 -7.7013
   vertex -1.8148 -24.4333 -7.7013
   vertex -0.9124 -24.8423 -7.7013
  end loop
 end facet
 facet normal 0 0 -1
  outer loop
   vertex -1.04306 -26.0855 -7.7013
   vertex -1.60344e-15 -24.9792 -7.7013
   vertex -1.83306e-15 -26.2292 -7.7013
  end loop
 end facet
 facet normal 0 0 -1
  outer loop
   vertex -1.04306 -26.0855 -7.7013
   vertex -0.9124 -24.8423 -7.7013
   vertex -1.60344e-15 -24.9792 -7.7013
  end loop
 end facet
 facet normal 0 0 -1
  outer loop
   vertex -1.83306e-15 -26.2292 -7.7013
   vertex 0.9124 -24.8423 -7.7013
   vertex 1.04306 -26.0855 -7.7013
  end loop
 end facet
 facet normal 0 0 -1
  outer loop
   vertex -1.83306e-15 -26.2292 -7.7013
   vertex -1.60344e-15 -24.9792 -7.7013
   vertex 0.9124 -24.8423 -7.7013
  end loop
 end facet
 facet normal 0 0 -1
  outer loop
   vertex 1.04306 -26.0855 -7.7013
   vertex 1.8148 -24.4333 -7.7013
   vertex 2.07469 -25.656 -7.7013
  end loop
 end facet
 facet normal 0 0 -1
  outer loop
   vertex 1.04306 -26.0855 -7.7013
   vertex 0.9124 -24.8423 -7.7013
   vertex 1.8148 -24.4333 -7.7013
  end loop
 end facet
 facet normal 0 0 -1
  outer loop
   vertex 2.07469 -25.656 -7.7013
   vertex 2.69732 -23.7566 -7.7013
   vertex 3.0836 -24.9454 -7.7013
  end loop
 end facet
 facet normal 0 0 -1
  outer loop
   vertex 2.07469 -25.656 -7.7013
   vertex 1.8148 -24.4333 -7.7013
   vertex 2.69732 -23.7566 -7.7013
  end loop
 end facet
 facet normal 0 0 -1
  outer loop
   vertex 3.0836 -24.9454 -7.7013
   vertex 3.55029 -22.8196 -7.7013
   vertex 4.05871 -23.9615 -7.7013
  end loop
 end facet
 facet normal 0 0 -1
  outer loop
   vertex 3.0836 -24.9454 -7.7013
   vertex 2.69732 -23.7566 -7.7013
   vertex 3.55029 -22.8196 -7.7013
  end loop
 end facet
 facet normal 0 0 -1
  outer loop
   vertex 4.05871 -23.9615 -7.7013
   vertex 4.36436 -21.6326 -7.7013
   vertex 4.98936 -22.7151 -7.7013
  end loop
 end facet
 facet normal 0 0 -1
  outer loop
   vertex 4.05871 -23.9615 -7.7013
   vertex 3.55029 -22.8196 -7.7013
   vertex 4.36436 -21.6326 -7.7013
  end loop
 end facet
 facet normal 0 0 -1
  outer loop
   vertex 4.98936 -22.7151 -7.7013
   vertex 5.13062 -20.2086 -7.7013
   vertex 5.86535 -21.2198 -7.7013
  end loop
 end facet
 facet normal 0 0 -1
  outer loop
   vertex 4.98936 -22.7151 -7.7013
   vertex 4.36436 -21.6326 -7.7013
   vertex 5.13062 -20.2086 -7.7013
  end loop
 end facet
 facet normal 0 0 -1
  outer loop
   vertex 5.86535 -21.2198 -7.7013
   vertex 5.84066 -18.5631 -7.7013
   vertex 6.67707 -19.4921 -7.7013
  end loop
 end facet
 facet normal 0 0 -1
  outer loop
   vertex 5.86535 -21.2198 -7.7013
   vertex 5.13062 -20.2086 -7.7013
   vertex 5.84066 -18.5631 -7.7013
  end loop
 end facet
 facet normal 0 0 -1
  outer loop
   vertex 6.67707 -19.4921 -7.7013
   vertex 6.48671 -16.7143 -7.7013
   vertex 7.41564 -17.5507 -7.7013
  end loop
 end facet
 facet normal 0 0 -1
  outer loop
   vertex 6.67707 -19.4921 -7.7013
   vertex 5.84066 -18.5631 -7.7013
   vertex 6.48671 -16.7143 -7.7013
  end loop
 end facet
 facet normal 0 0 -1
  outer loop
   vertex 7.41564 -17.5507 -7.7013
   vertex 7.06169 -14.6824 -7.7013
   vertex 8.07296 -15.4171 -7.7013
  end loop
 end facet
 facet normal 0 0 -1
  outer loop
   vertex 7.41564 -17.5507 -7.7013
   vertex 6.48671 -16.7143 -7.7013
   vertex 7.06169 -14.6824 -7.7013
  end loop
 end facet
 facet normal 0 0 -1
  outer loop
   vertex 8.07296 -15.4171 -7.7013
   vertex 7.5593 -12.4896 -7.7013
   vertex 8.64183 -13.1146 -7.7013
  end loop
 end facet
 facet normal 0 0 -1
  outer loop
   vertex 8.07296 -15.4171 -7.7013
   vertex 7.06169 -14.6824 -7.7013
   vertex 7.5593 -12.4896 -7.7013
  end loop
 end facet
 facet normal 0 0 -1
  outer loop
   vertex 8.64183 -13.1146 -7.7013
   vertex 7.97409 -10.1599 -7.7013
   vertex 9.11602 -10.6684 -7.7013
  end loop
 end facet
 facet normal 0 0 -1
  outer loop
   vertex 8.64183 -13.1146 -7.7013
   vertex 7.5593 -12.4896 -7.7013
   vertex 7.97409 -10.1599 -7.7013
  end loop
 end facet
 facet normal 0 0 -1
  outer loop
   vertex 9.11602 -10.6684 -7.7013
   vertex 8.30151 -7.71899 -7.7013
   vertex 9.49033 -8.10526 -7.7013
  end loop
 end facet
 facet normal 0 0 -1
  outer loop
   vertex 9.11602 -10.6684 -7.7013
   vertex 7.97409 -10.1599 -7.7013
   vertex 8.30151 -7.71899 -7.7013
  end loop
 end facet
 facet normal 0 0 -1
  outer loop
   vertex 9.49033 -8.10526 -7.7013
   vertex 8.53798 -5.19346 -7.7013
   vertex 9.76067 -5.45335 -7.7013
  end loop
 end facet
 facet normal 0 0 -1
  outer loop
   vertex 9.49033 -8.10526 -7.7013
   vertex 8.30151 -7.71899 -7.7013
   vertex 8.53798 -5.19346 -7.7013
  end loop
 end facet
 facet normal 0 0 -1
  outer loop
   vertex 9.76067 -5.45335 -7.7013
   vertex 8.68091 -2.61103 -7.7013
   vertex 9.92406 -2.74169 -7.7013
  end loop
 end facet
 facet normal 0 0 -1
  outer loop
   vertex 9.76067 -5.45335 -7.7013
   vertex 8.53798 -5.19346 -7.7013
   vertex 8.68091 -2.61103 -7.7013
  end loop
 end facet
 facet normal 0 0 -1
  outer loop
   vertex 9.92406 -2.74169 -7.7013
   vertex 8.72872 0 -7.7013
   vertex 9.97872 0 -7.7013
  end loop
 end facet
 facet normal 0 0 -1
  outer loop
   vertex 9.92406 -2.74169 -7.7013
   vertex 8.68091 -2.61103 -7.7013
   vertex 8.72872 0 -7.7013
  end loop
 end facet
 facet normal 0 0 1
  outer loop
   vertex 9.97872 0 5.7416
   vertex 9.92406 2.74169 5.7416
   vertex 8.68091 2.61103 5.7416
  end loop
 end facet
 facet normal 0 0 1
  outer loop
   vertex 9.97872 0 5.7416
   vertex 8.68091 2.61103 5.7416
   vertex 8.72872 0 5.7416
  end loop
 end facet
 facet normal 0 0 1
  outer loop
   vertex 9.92406 2.74169 5.7416
   vertex 9.76067 5.45335 5.7416
   vertex 8.53798 5.19346 5.7416
  end loop
 end facet
 facet normal 0 0 1
  outer loop
   vertex 9.92406 2.74169 5.7416
   vertex 8.53798 5.19346 5.7416
   vertex 8.68091 2.61103 5.7416
  end loop
 end facet
 facet normal 0 0 1
  outer loop
   vertex 9.76067 5.45335 5.7416
   vertex 9.49033 8.10526 5.7416
   vertex 8.30151 7.71899 5.7416
  end loop
 end facet
 facet normal 0 0 1
  outer loop
   vertex 9.76067 5.45335 5.7416
   vertex 8.30151 7.71899 5.7416
   vertex 8.53798 5.19346 5.7416
  end loop
 end facet
 facet normal 0 0 1
  outer loop
   vertex 9.49033 8.10526 5.7416
   vertex 9.11602 10.6684 5.7416
   vertex 7.97409 10.1599 5.7416
  end loop
 end facet
 facet normal 0 0 1
  outer loop
   vertex 9.49033 8.10526 5.7416
   vertex 7.97409 10.1599 5.7416
   vertex 8.30151 7.71899 5.7416
  end loop
 end facet
 facet normal 0 0 1
  outer loop
   vertex 9.11602 10.6684 5.7416
   vertex 8.64183 13.1146 5.7416
   vertex 7.5593 12.4896 5.7416
  end loop
 end facet
 facet normal 0 0 1
  outer loop
   vertex 9.11602 10.6684 5.7416
   vertex 7.5593 12.4896 5.7416
   vertex 7.97409 10.1599 5.7416
  end loop
 end facet
 facet normal 0 0 1
  outer loop
   vertex 8.64183 13.1146 5.7416
   vertex 8.07296 15.4171 5.7416
   vertex 7.06169 14.6824 5.7416
  end loop
 end facet
 facet normal 0 0 1
  outer loop
   vertex 8.64183 13.1146 5.7416
   vertex 7.06169 14.6824 5.7416
   vertex 7.5593 12.4896 5.7416
  end loop
 end facet
 facet normal 0 0 1
  outer loop
   vertex 8.07296 15.4171 5.7416
   vertex 7.41564 17.5507 5.7416
   vertex 6.48671 16.7143 5.7416
  end loop
 end facet
 facet normal 0 0 1
  outer loop
   vertex 8.07296 15.4171 5.7416
   vertex 6.48671 16.7143 5.7416
   vertex 7.06169 14.6824 5.7416
  end loop
 end facet
 facet normal 0 0 1
  outer loop
   vertex 7.41564 17.5507 5.7416
   vertex 6.67707 19.4921 5.7416
   vertex 5.84066 18.5631 5.7416
  end loop
 end facet
 facet normal 0 0 1
  outer loop
   vertex 7.41564 17.5507 5.7416
   vertex 5.84066 18.5631 5.7416
   vertex 6.48671 16.7143 5.7416
  end loop
 end facet
 facet normal 0 0 1
  outer loop
   vertex 6.67707 19.4921 5.7416
   vertex 5.86535 21.2198 5.7416
   vertex 5.13062 20.2086 5.7416
  end loop
 end facet
 facet normal 0 0 1
  outer loop
   vertex 6.67707 19.4921 5.7416
   vertex 5.13062 20.2086 5.7416
   vertex 5.84066 18.5631 5.7416
  end loop
 end facet
 facet normal 0 0 1
  outer loop
   vertex 5.86535 21.2198 5.7416
   vertex 4.98936 22.7151 5.7416
   vertex 4.36436 21.6326 5.7416
  end loop
 end facet
 facet normal 0 0 1
  outer loop
   vertex 5.86535 21.2198 5.7416
   vertex 4.36436 21.6326 5.7416
   vertex 5.13062 20.2086 5.7416
  end loop
 end facet
 facet normal 0 0 1
  outer loop
   vertex 4.98936 22.7151 5.7416
   vertex 4.05871 23.9615 5.7416
   vertex 3.55029 22.8196 5.7416
  end loop
 end facet
 facet normal 0 0 1
  outer loop
   vertex 4.98936 22.7151 5.7416
   vertex 3.55029 22.8196 5.7416
   vertex 4.36436 21.6326 5.7416
  end loop
 end facet
 facet normal 0 0 1
  outer loop
   vertex 4.05871 23.9615 5.7416
   vertex 3.0836 24.9454 5.7416
   vertex 2.69732 23.7566 5.7416
  end loop
 end facet
 facet normal 0 0 1
  outer loop
   vertex 4.05871 23.9615 5.7416
   vertex 2.69732 23.7566 5.7416
   vertex 3.55029 22.8196 5.7416
  end loop
 end facet
 facet normal 0 0 1
  outer loop
   vertex 3.0836 24.9454 5.7416
   vertex 2.07469 25.656 5.7416
   vertex 1.8148 24.4333 5.7416
  end loop
 end facet
 facet normal 0 0 1
  outer loop
   vertex 3.0836 24.9454 5.7416
   vertex 1.8148 24.4333 5.7416
   vertex 2.69732 23.7566 5.7416
  end loop
 end facet
 facet normal 0 0 1
  outer loop
   vertex 2.07469 25.656 5.7416
   vertex 1.04306 26.0855 5.7416
   vertex 0.9124 24.8423 5.7416
  end loop
 end facet
 facet normal 0 0 1
  outer loop
   vertex 2.07469 25.656 5.7416
   vertex 0.9124 24.8423 5.7416
   vertex 1.8148 24.4333 5.7416
  end loop
 end facet
 facet normal 0 0 1
  outer loop
   vertex 1.04306 26.0855 5.7416
   vertex 2.82674e-15 26.2292 5.7416
   vertex 2.47265e-15 24.9792 5.7416
  end loop
 end facet
 facet normal 0 0 1
  outer loop
   vertex 1.04306 26.0855 5.7416
   vertex 2.47265e-15 24.9792 5.7416
   vertex 0.9124 24.8423 5.7416
  end loop
 end facet
 facet normal 0 0 1
  outer loop
   vertex 2.82674e-15 26.2292 5.7416
   vertex -1.04306 26.0855 5.7416
   vertex -0.9124 24.8423 5.7416
  end loop
 end facet
 facet normal 0 0 1
  outer loop
   vertex 2.82674e-15 26.2292 5.7416
   vertex -0.9124 24.8423 5.7416
   vertex 2.47265e-15 24.9792 5.7416
  end loop
 end facet
 facet normal 0 0 1
  outer loop
   vertex -1.04306 26.0855 5.7416
   vertex -2.07469 25.656 5.7416
   vertex -1.8148 24.4333 5.7416
  end loop
 end facet
 facet normal 0 0 1
  outer loop
   vertex -1.04306 26.0855 5.7416
   vertex -1.8148 24.4333 5.7416
   vertex -0.9124 24.8423 5.7416
  end loop
 end facet
 facet normal 0 0 1
  outer loop
   vertex -2.07469 25.656 5.7416
   vertex -3.0836 24.9454 5.7416
   vertex -2.69732 23.7566 5.7416
  end loop
 end facet
 facet normal 0 0 1
  outer loop
   vertex -2.07469 25.656 5.7416
   vertex -2.69732 23.7566 5.7416
   vertex -1.8148 24.4333 5.7416
  end loop
 end facet
 facet normal 0 0 1
  outer loop
   vertex -3.0836 24.9454 5.7416
   vertex -4.05871 23.9615 5.7416
   vertex -3.55029 22.8196 5.7416
  end loop
 end facet
 facet normal 0 0 1
  outer loop
   vertex -3.0836 24.9454 5.7416
   vertex -3.55029 22.8196 5.7416
   vertex -2.69732 23.7566 5.7416
  end loop
 end facet
 facet normal 0 0 1
  outer loop
   vertex -4.05871 23.9615 5.7416
   vertex -4.98936 22.7151 5.7416
   vertex -4.36436 21.6326 5.7416
  end loop
 end facet
 facet normal 0 0 1
  outer loop
   vertex -4.05871 23.9615 5.7416
   vertex -4.36436 21.6326 5.7416
   vertex -3.55029 22.8196 5.7416
  end loop
 end facet
 facet normal 0 0 1
  outer loop
   vertex -4.98936 22.7151 5.7416
   vertex -5.86535 21.2198 5.7416
   vertex -5.13062 20.2086 5.7416
  end loop
 end facet
 facet normal 0 0 1
  outer loop
   vertex -4.98936 22.7151 5.7416
   vertex -5.13062 20.2086 5.7416
   vertex -4.36436 21.6326 5.7416
  end loop
 end facet
 facet normal 0 0 1
  outer loop
   vertex -5.86535 21.2198 5.7416
   vertex -6.67707 19.4921 5.7416
   vertex -5.84066 18.5631 5.7416
  end loop
 end facet
 facet normal 0 0 1
  outer loop
   vertex -5.86535 21.2198 5.7416
   vertex -5.84066 18.5631 5.7416
   vertex -5.13062 20.2086 5.7416
  end loop
 end facet
 facet normal 0 0 1
  outer loop
   vertex -6.67707 19.4921 5.7416
   vertex -7.41564 17.5507 5.7416
   vertex -6.48671 16.7143 5.7416
  end loop
 end facet
 facet normal 0 0 1
  outer loop
   vertex -6.67707 19.4921 5.7416
   vertex -6.48671 16.7143 5.7416
   vertex -5.84066 18.5631 5.7416
  end loop
 end facet
 facet normal 0 0 1
  outer loop
   vertex -7.41564 17.5507 5.7416
   vertex -8.07296 15.4171 5.7416
   vertex -7.06169 14.6824 5.7416
  end loop
 end facet
 facet normal 0 0 1
  outer loop
   vertex -7.41564 17.5507 5.7416
   vertex -7.06169 14.6824 5.7416
   vertex -6.48671 16.7143 5.7416
  end loop
 end facet
 facet normal 0 0 1
  outer loop
   vertex -8.07296 15.4171 5.7416
   vertex -8.64183 13.1146 5.7416
   vertex -7.5593 12.4896 5.7416
  end loop
 end facet
 facet normal 0 0 1
  outer loop
   vertex -8.07296 15.4171 5.7416
   vertex -7.5593 12.4896 5.7416
   vertex -7.06169 14.6824 5.7416
  end loop
 end facet
 facet normal 0 0 1
  outer loop
   vertex -8.64183 13.1146 5.7416
   vertex -9.11602 10.6684 5.7416
   vertex -7.97409 10.1599 5.7416
  end loop
 end facet
 facet normal 0 0 1
  outer loop
   vertex -8.64183 13.1146 5.7416
   vertex -7.97409 10.1599 5.7416
   vertex -7.5593 12.4896 5.7416
  end loop
 end facet
 facet normal 0 0 1
  outer loop
   vertex -9.11602 10.6684 5.7416
   vertex -9.49033 8.10526 5.7416
   vertex -8.30151 7.71899 5.7416
  end loop
 end facet
 facet normal 0 0 1
  outer loop
   vertex -9.11602 10.6684 5.7416
   vertex -8.30151 7.71899 5.7416
   vertex -7.97409 10.1599 5.7416
  end loop
 end facet
 facet normal 0 0 1
  outer loop
   vertex -9.49033 8.10526 5.7416
   vertex -9.76067 5.45335 5.7416
   vertex -8.53798 5.19346 5.7416
  end loop
 end facet
 facet normal 0 0 1
  outer loop
   vertex -9.49033 8.10526 5.7416
   vertex -8.53798 5.19346 5.7416
   vertex -8.30151 7.71899 5.7416
  end loop
 end facet
 facet normal 0 0 1
  outer loop
   vertex -9.76067 5.45335 5.7416
   vertex -9.92406 2.74169 5.7416
   vertex -8.68091 2.61103 5.7416
  end loop
 end facet
 facet normal 0 0 1
  outer loop
   vertex -9.76067 5.45335 5.7416
   vertex -8.68091 2.61103 5.7416
   vertex -8.53798 5.19346 5.7416
  end loop
 end facet
 facet normal 0 0 1
  outer loop
   vertex -9.92406 2.74169 5.7416
   vertex -9.97872 1.48602e-14 5.7416
   vertex -8.72872 1.4152e-14 5.7416
  end loop
 end facet
 facet normal 0 0 1
  outer loop
   vertex -9.92406 2.74169 5.7416
   vertex -8.72872 1.4152e-14 5.7416
   vertex -8.68091 2.61103 5.7416
  end loop
 end facet
 facet normal 0 0 1
  outer loop
   vertex -9.97872 1.48602e-14 5.7416
   vertex -9.92406 -2.74169 5.7416
   vertex -8.68091 -2.61103 5.7416
  end loop
 end facet
 facet normal 0 0 1
  outer loop
   vertex -9.97872 1.48602e-14 5.7416
   vertex -8.68091 -2.61103 5.7416
   vertex -8.72872 1.4152e-14 5.7416
  end loop
 end facet
 facet normal 0 0 1
  outer loop
   vertex -9.92406 -2.74169 5.7416
   vertex -9.76067 -5.45335 5.7416
   vertex -8.53798 -5.19346 5.7416
  end loop
 end facet
 facet normal -0 0 1
  outer loop
   vertex -9.92406 -2.74169 5.7416
   vertex -8.53798 -5.19346 5.7416
   vertex -8.68091 -2.61103 5.7416
  end loop
 end facet
 facet normal 0 0 1
  outer loop
   vertex -9.76067 -5.45335 5.7416
   vertex -9.49033 -8.10526 5.7416
   vertex -8.30151 -7.71899 5.7416
  end loop
 end facet
 facet normal -0 0 1
  outer loop
   vertex -9.76067 -5.45335 5.7416
   vertex -8.30151 -7.71899 5.7416
   vertex -8.53798 -5.19346 5.7416
  end loop
 end facet
 facet normal 0 0 1
  outer loop
   vertex -9.49033 -8.10526 5.7416
   vertex -9.11602 -10.6684 5.7416
   vertex -7.97409 -10.1599 5.7416
  end loop
 end facet
 facet normal -0 0 1
  outer loop
   vertex -9.49033 -8.10526 5.7416
   vertex -7.97409 -10.1599 5.7416
   vertex -8.30151 -7.71899 5.7416
  end loop
 end facet
 facet normal 0 0 1
  outer loop
   vertex -9.11602 -10.6684 5.7416
   vertex -8.64183 -13.1146 5.7416
   vertex -7.5593 -12.4896 5.7416
  end loop
 end facet
 facet normal -0 0 1
  outer loop
   vertex -9.11602 -10.6684 5.7416
   vertex -7.5593 -12.4896 5.7416
   vertex -7.97409 -10.1599 5.7416
  end loop
 end facet
 facet normal 0 0 1
  outer loop
   vertex -8.64183 -13.1146 5.7416
   vertex -8.07296 -15.4171 5.7416
   vertex -7.06169 -14.6824 5.7416
  end loop
 end facet
 facet normal -0 0 1
  outer loop
   vertex -8.64183 -13.1146 5.7416
   vertex -7.06169 -14.6824 5.7416
   vertex -7.5593 -12.4896 5.7416
  end loop
 end facet
 facet normal 0 0 1
  outer loop
   vertex -8.07296 -15.4171 5.7416
   vertex -7.41564 -17.5507 5.7416
   vertex -6.48671 -16.7143 5.7416
  end loop
 end facet
 facet normal -0 0 1
  outer loop
   vertex -8.07296 -15.4171 5.7416
   vertex -6.48671 -16.7143 5.7416
   vertex -7.06169 -14.6824 5.7416
  end loop
 end facet
 facet normal 0 0 1
  outer loop
   vertex -7.41564 -17.5507 5.7416
   vertex -6.67707 -19.4921 5.7416
   vertex -5.84066 -18.5631 5.7416
  end loop
 end facet
 facet normal -0 0 1
  outer loop
   vertex -7.41564 -17.5507 5.7416
   vertex -5.84066 -18.5631 5.7416
   vertex -6.48671 -16.7143 5.7416
  end loop
 end facet
 facet normal 0 0 1
  outer loop
   vertex -6.67707 -19.4921 5.7416
   vertex -5.86535 -21.2198 5.7416
   vertex -5.13062 -20.2086 5.7416
  end loop
 end facet
 facet normal -0 0 1
  outer loop
   vertex -6.67707 -19.4921 5.7416
   vertex -5.13062 -20.2086 5.7416
   vertex -5.84066 -18.5631 5.7416
  end loop
 end facet
 facet normal 0 0 1
  outer loop
   vertex -5.86535 -21.2198 5.7416
   vertex -4.98936 -22.7151 5.7416
   vertex -4.36436 -21.6326 5.7416
  end loop
 end facet
 facet normal -0 0 1
  outer loop
   vertex -5.86535 -21.2198 5.7416
   vertex -4.36436 -21.6326 5.7416
   vertex -5.13062 -20.2086 5.7416
  end loop
 end facet
 facet normal 0 0 1
  outer loop
   vertex -4.98936 -22.7151 5.7416
   vertex -4.05871 -23.9615 5.7416
   vertex -3.55029 -22.8196 5.7416
  end loop
 end facet
 facet normal -0 0 1
  outer loop
   vertex -4.98936 -22.7151 5.7416
   vertex -3.55029 -22.8196 5.7416
   vertex -4.36436 -21.6326 5.7416
  end loop
 end facet
 facet normal -0 0 1
  outer loop
   vertex -4.05871 -23.9615 5.7416
   vertex -3.0836 -24.9454 5.7416
   vertex -2.69732 -23.7566 5.7416
  end loop
 end facet
 facet normal 0 0 1
  outer loop
   vertex -4.05871 -23.9615 5.7416
   vertex -2.69732 -23.7566 5.7416
   vertex -3.55029 -22.8196 5.7416
  end loop
 end facet
 facet normal -0 0 1
  outer loop
   vertex -3.0836 -24.9454 5.7416
   vertex -2.07469 -25.656 5.7416
   vertex -1.8148 -24.4333 5.7416
  end loop
 end facet
 facet normal 0 0 1
  outer loop
   vertex -3.0836 -24.9454 5.7416
   vertex -1.8148 -24.4333 5.7416
   vertex -2.69732 -23.7566 5.7416
  end loop
 end facet
 facet normal -0 0 1
  outer loop
   vertex -2.07469 -25.656 5.7416
   vertex -1.04306 -26.0855 5.7416
   vertex -0.9124 -24.8423 5.7416
  end loop
 end facet
 facet normal 0 0 1
  outer loop
   vertex -2.07469 -25.656 5.7416
   vertex -0.9124 -24.8423 5.7416
   vertex -1.8148 -24.4333 5.7416
  end loop
 end facet
 facet normal -0 0 1
  outer loop
   vertex -1.04306 -26.0855 5.7416
   vertex -1.83306e-15 -26.2292 5.7416
   vertex -1.60344e-15 -24.9792 5.7416
  end loop
 end facet
 facet normal 0 0 1
  outer loop
   vertex -1.04306 -26.0855 5.7416
   vertex -1.60344e-15 -24.9792 5.7416
   vertex -0.9124 -24.8423 5.7416
  end loop
 end facet
 facet normal 0 0 1
  outer loop
   vertex -1.83306e-15 -26.2292 5.7416
   vertex 1.04306 -26.0855 5.7416
   vertex 0.9124 -24.8423 5.7416
  end loop
 end facet
 facet normal 0 0 1
  outer loop
   vertex -1.83306e-15 -26.2292 5.7416
   vertex 0.9124 -24.8423 5.7416
   vertex -1.60344e-15 -24.9792 5.7416
  end loop
 end facet
 facet normal 0 0 1
  outer loop
   vertex 1.04306 -26.0855 5.7416
   vertex 2.07469 -25.656 5.7416
   vertex 1.8148 -24.4333 5.7416
  end loop
 end facet
 facet normal 0 -0 1
  outer loop
   vertex 1.04306 -26.0855 5.7416
   vertex 1.8148 -24.4333 5.7416
   vertex 0.9124 -24.8423 5.7416
  end loop
 end facet
 facet normal 0 0 1
  outer loop
   vertex 2.07469 -25.656 5.7416
   vertex 3.0836 -24.9454 5.7416
   vertex 2.69732 -23.7566 5.7416
  end loop
 end facet
 facet normal 0 -0 1
  outer loop
   vertex 2.07469 -25.656 5.7416
   vertex 2.69732 -23.7566 5.7416
   vertex 1.8148 -24.4333 5.7416
  end loop
 end facet
 facet normal 0 0 1
  outer loop
   vertex 3.0836 -24.9454 5.7416
   vertex 4.05871 -23.9615 5.7416
   vertex 3.55029 -22.8196 5.7416
  end loop
 end facet
 facet normal 0 -0 1
  outer loop
   vertex 3.0836 -24.9454 5.7416
   vertex 3.55029 -22.8196 5.7416
   vertex 2.69732 -23.7566 5.7416
  end loop
 end facet
 facet normal 0 0 1
  outer loop
   vertex 4.05871 -23.9615 5.7416
   vertex 4.98936 -22.7151 5.7416
   vertex 4.36436 -21.6326 5.7416
  end loop
 end facet
 facet normal 0 -0 1
  outer loop
   vertex 4.05871 -23.9615 5.7416
   vertex 4.36436 -21.6326 5.7416
   vertex 3.55029 -22.8196 5.7416
  end loop
 end facet
 facet normal 0 0 1
  outer loop
   vertex 4.98936 -22.7151 5.7416
   vertex 5.86535 -21.2198 5.7416
   vertex 5.13062 -20.2086 5.7416
  end loop
 end facet
 facet normal 0 -0 1
  outer loop
   vertex 4.98936 -22.7151 5.7416
   vertex 5.13062 -20.2086 5.7416
   vertex 4.36436 -21.6326 5.7416
  end loop
 end facet
 facet normal 0 -0 1
  outer loop
   vertex 5.86535 -21.2198 5.7416
   vertex 6.67707 -19.4921 5.7416
   vertex 5.84066 -18.5631 5.7416
  end loop
 end facet
 facet normal 0 0 1
  outer loop
   vertex 5.86535 -21.2198 5.7416
   vertex 5.84066 -18.5631 5.7416
   vertex 5.13062 -20.2086 5.7416
  end loop
 end facet
 facet normal 0 -0 1
  outer loop
   vertex 6.67707 -19.4921 5.7416
   vertex 7.41564 -17.5507 5.7416
   vertex 6.48671 -16.7143 5.7416
  end loop
 end facet
 facet normal 0 0 1
  outer loop
   vertex 6.67707 -19.4921 5.7416
   vertex 6.48671 -16.7143 5.7416
   vertex 5.84066 -18.5631 5.7416
  end loop
 end facet
 facet normal 0 -0 1
  outer loop
   vertex 7.41564 -17.5507 5.7416
   vertex 8.07296 -15.4171 5.7416
   vertex 7.06169 -14.6824 5.7416
  end loop
 end facet
 facet normal 0 0 1
  outer loop
   vertex 7.41564 -17.5507 5.7416
   vertex 7.06169 -14.6824 5.7416
   vertex 6.48671 -16.7143 5.7416
  end loop
 end facet
 facet normal 0 -0 1
  outer loop
   vertex 8.07296 -15.4171 5.7416
   vertex 8.64183 -13.1146 5.7416
   vertex 7.5593 -12.4896 5.7416
  end loop
 end facet
 facet normal 0 0 1
  outer loop
   vertex 8.07296 -15.4171 5.7416
   vertex 7.5593 -12.4896 5.7416
   vertex 7.06169 -14.6824 5.7416
  end loop
 end facet
 facet normal 0 -0 1
  outer loop
   vertex 8.64183 -13.1146 5.7416
   vertex 9.11602 -10.6684 5.7416
   vertex 7.97409 -10.1599 5.7416
  end loop
 end facet
 facet normal 0 0 1
  outer loop
   vertex 8.64183 -13.1146 5.7416
   vertex 7.97409 -10.1599 5.7416
   vertex 7.5593 -12.4896 5.7416
  end loop
 end facet
 facet normal 0 -0 1
  outer loop
   vertex 9.11602 -10.6684 5.7416
   vertex 9.49033 -8.10526 5.7416
   vertex 8.30151 -7.71899 5.7416
  end loop
 end facet
 facet normal 0 0 1
  outer loop
   vertex 9.11602 -10.6684 5.7416
   vertex 8.30151 -7.71899 5.7416
   vertex 7.97409 -10.1599 5.7416
  end loop
 end facet
 facet normal 0 -0 1
  outer loop
   vertex 9.49033 -8.10526 5.7416
   vertex 9.76067 -5.45335 5.7416
   vertex 8.53798 -5.19346 5.7416
  end loop
 end facet
 facet normal 0 0 1
  outer loop
   vertex 9.49033 -8.10526 5.7416
   vertex 8.53798 -5.19346 5.7416
   vertex 8.30151 -7.71899 5.7416
  end loop
 end facet
 facet normal 0 -0 1
  outer loop
   vertex 9.76067 -5.45335 5.7416
   vertex 9.92406 -2.74169 5.7416
   vertex 8.68091 -2.61103 5.7416
  end loop
 end facet
 facet normal 0 0 1
  outer loop
   vertex 9.76067 -5.45335 5.7416
   vertex 8.68091 -2.61103 5.7416
   vertex 8.53798 -5.19346 5.7416
  end loop
 end facet
 facet normal 0 -0 1
  outer loop
   vertex 9.92406 -2.74169 5.7416
   vertex 9.97872 0 5.7416
   vertex 8.72872 0 5.7416
  end loop
 end facet
 facet normal 0 0 1
  outer loop
   vertex 9.92406 -2.74169 5.7416
   vertex 8.72872 0 5.7416
   vertex 8.68091 -2.61103 5.7416
  end loop
 end facet
endsolid
