solid fish
 facet normal 0.999789 0.0205413 0
  outer loop
   vertex 10.4787 0 -4.5432
   vertex 10.4213 2.79396 -4.5432
   vertex 10.4213 2.79396 3.8176
  end loop
 end facet
 facet normal 0.999789 0.0205413 -0
  outer loop
   vertex 10.4787 0 -4.5432
   vertex 10.4213 2.79396 3.8176
   vertex 10.4787 0 3.8176
  end loop
 end facet
 facet normal 0.998078 0.0619726 0
  outer loop
   vertex 10.4213 2.79396 -4.5432
   vertex 10.2497 5.55731 -4.5432
   vertex 10.2497 5.55731 3.8176
  end loop
 end facet
 facet normal 0.998078 0.0619726 -0
  outer loop
   vertex 10.4213 2.79396 -4.5432
   vertex 10.2497 5.55731 3.8176
   vertex 10.4213 2.79396 3.8176
  end loop
 end facet
 facet normal 0.994528 0.10447 0
  outer loop
   vertex 10.2497 5.55731 -4.5432
   vertex 9.96586 8.25977 -4.5432
   vertex 9.96586 8.25977 3.8176
  end loop
 end facet
 facet normal 0.994528 0.10447 -0
  outer loop
   vertex 10.2497 5.55731 -4.5432
   vertex 9.96586 8.25977 3.8176
   vertex 10.2497 5.55731 3.8176
  end loop
 end facet
 facet normal 0.988866 0.148812 0
  outer loop
   vertex 9.96586 8.25977 -4.5432
   vertex 9.57279 10.8717 -4.5432
   vertex 9.57279 10.8717 3.8176
  end loop
 end facet
 facet normal 0.988866 0.148812 -0
  outer loop
   vertex 9.96586 8.25977 -4.5432
   vertex 9.57279 10.8717 3.8176
   vertex 9.96586 8.25977 3.8176
  end loop
 end facet
 facet normal 0.980628 0.195881 0
  outer loop
   vertex 9.57279 10.8717 -4.5432
   vertex 9.07484 13.3646 -4.5432
   vertex 9.07484 13.3646 3.8176
  end loop
 end facet
 facet normal 0.980628 0.195881 -0
  outer loop
   vertex 9.57279 10.8717 -4.5432
   vertex 9.07484 13.3646 3.8176
   vertex 9.57279 10.8717 3.8176
  end loop
 end facet
 facet normal 0.969087 0.246719 0
  outer loop
   vertex 9.07484 13.3646 -4.5432
   vertex 8.47747 15.711 -4.5432
   vertex 8.47747 15.711 3.8176
  end loop
 end facet
 facet normal 0.969087 0.246719 -0
  outer loop
   vertex 9.07484 13.3646 -4.5432
   vertex 8.47747 15.711 3.8176
   vertex 9.07484 13.3646 3.8176
  end loop
 end facet
 facet normal 0.953124 0.302581 0
  outer loop
   vertex 8.47747 15.711 -4.5432
   vertex 7.78721 17.8853 -4.5432
   vertex 7.78721 17.8853 3.8176
  end loop
 end facet
 facet normal 0.953124 0.302581 -0
  outer loop
   vertex 8.47747 15.711 -4.5432
   vertex 7.78721 17.8853 3.8176
   vertex 8.47747 15.711 3.8176
  end loop
 end facet
 facet normal 0.931012 0.364988 0
  outer loop
   vertex 7.78721 17.8853 -4.5432
   vertex 7.01164 19.8636 -4.5432
   vertex 7.01164 19.8636 3.8176
  end loop
 end facet
 facet normal 0.931012 0.364988 -0
  outer loop
   vertex 7.78721 17.8853 -4.5432
   vertex 7.01164 19.8636 3.8176
   vertex 7.78721 17.8853 3.8176
  end loop
 end facet
 facet normal 0.900071 0.435743 0
  outer loop
   vertex 7.01164 19.8636 -4.5432
   vertex 6.15924 21.6244 -4.5432
   vertex 6.15924 21.6244 3.8176
  end loop
 end facet
 facet normal 0.900071 0.435743 -0
  outer loop
   vertex 7.01164 19.8636 -4.5432
   vertex 6.15924 21.6244 3.8176
   vertex 7.01164 19.8636 3.8176
  end loop
 end facet
 facet normal 0.8561 0.516809 0
  outer loop
   vertex 6.15924 21.6244 -4.5432
   vertex 5.23936 23.1481 -4.5432
   vertex 5.23936 23.1481 3.8176
  end loop
 end facet
 facet normal 0.8561 0.516809 -0
  outer loop
   vertex 6.15924 21.6244 -4.5432
   vertex 5.23936 23.1481 3.8176
   vertex 6.15924 21.6244 3.8176
  end loop
 end facet
 facet normal 0.792556 0.609799 0
  outer loop
   vertex 5.23936 23.1481 -4.5432
   vertex 4.26208 24.4183 -4.5432
   vertex 4.26208 24.4183 3.8176
  end loop
 end facet
 facet normal 0.792556 0.609799 -0
  outer loop
   vertex 5.23936 23.1481 -4.5432
   vertex 4.26208 24.4183 3.8176
   vertex 5.23936 23.1481 3.8176
  end loop
 end facet
 facet normal 0.699623 0.714512 0
  outer loop
   vertex 4.26208 24.4183 -4.5432
   vertex 3.2381 25.4209 -4.5432
   vertex 3.2381 25.4209 3.8176
  end loop
 end facet
 facet normal 0.699623 0.714512 -0
  outer loop
   vertex 4.26208 24.4183 -4.5432
   vertex 3.2381 25.4209 3.8176
   vertex 4.26208 24.4183 3.8176
  end loop
 end facet
 facet normal 0.564276 0.825586 0
  outer loop
   vertex 3.2381 25.4209 -4.5432
   vertex 2.17865 26.1451 -4.5432
   vertex 2.17865 26.1451 3.8176
  end loop
 end facet
 facet normal 0.564276 0.825586 -0
  outer loop
   vertex 3.2381 25.4209 -4.5432
   vertex 2.17865 26.1451 3.8176
   vertex 3.2381 25.4209 3.8176
  end loop
 end facet
 facet normal 0.374592 0.92719 0
  outer loop
   vertex 2.17865 26.1451 -4.5432
   vertex 1.09532 26.5827 -4.5432
   vertex 1.09532 26.5827 3.8176
  end loop
 end facet
 facet normal 0.374592 0.92719 -0
  outer loop
   vertex 2.17865 26.1451 -4.5432
   vertex 1.09532 26.5827 3.8176
   vertex 2.17865 26.1451 3.8176
  end loop
 end facet
 facet normal 0.132503 0.991183 0
  outer loop
   vertex 1.09532 26.5827 -4.5432
   vertex 2.96838e-15 26.7292 -4.5432
   vertex 2.96838e-15 26.7292 3.8176
  end loop
 end facet
 facet normal 0.132503 0.991183 -0
  outer loop
   vertex 1.09532 26.5827 -4.5432
   vertex 2.96838e-15 26.7292 3.8176
   vertex 1.09532 26.5827 3.8176
  end loop
 end facet
 facet normal -0.132503 0.991183 0
  outer loop
   vertex 2.96838e-15 26.7292 -4.5432
   vertex -1.09532 26.5827 -4.5432
   vertex -1.09532 26.5827 3.8176
  end loop
 end facet
 facet normal -0.132503 0.991183 0
  outer loop
   vertex 2.96838e-15 26.7292 -4.5432
   vertex -1.09532 26.5827 3.8176
   vertex 2.96838e-15 26.7292 3.8176
  end loop
 end facet
 facet normal -0.374592 0.92719 0
  outer loop
   vertex -1.09532 26.5827 -4.5432
   vertex -2.17865 26.1451 -4.5432
   vertex -2.17865 26.1451 3.8176
  end loop
 end facet
 facet normal -0.374592 0.92719 0
  outer loop
   vertex -1.09532 26.5827 -4.5432
   vertex -2.17865 26.1451 3.8176
   vertex -1.09532 26.5827 3.8176
  end loop
 end facet
 facet normal -0.564276 0.825586 0
  outer loop
   vertex -2.17865 26.1451 -4.5432
   vertex -3.2381 25.4209 -4.5432
   vertex -3.2381 25.4209 3.8176
  end loop
 end facet
 facet normal -0.564276 0.825586 0
  outer loop
   vertex -2.17865 26.1451 -4.5432
   vertex -3.2381 25.4209 3.8176
   vertex -2.17865 26.1451 3.8176
  end loop
 end facet
 facet normal -0.699623 0.714512 0
  outer loop
   vertex -3.2381 25.4209 -4.5432
   vertex -4.26208 24.4183 -4.5432
   vertex -4.26208 24.4183 3.8176
  end loop
 end facet
 facet normal -0.699623 0.714512 0
  outer loop
   vertex -3.2381 25.4209 -4.5432
   vertex -4.26208 24.4183 3.8176
   vertex -3.2381 25.4209 3.8176
  end loop
 end facet
 facet normal -0.792556 0.609799 0
  outer loop
   vertex -4.26208 24.4183 -4.5432
   vertex -5.23936 23.1481 -4.5432
   vertex -5.23936 23.1481 3.8176
  end loop
 end facet
 facet normal -0.792556 0.609799 0
  outer loop
   vertex -4.26208 24.4183 -4.5432
   vertex -5.23936 23.1481 3.8176
   vertex -4.26208 24.4183 3.8176
  end loop
 end facet
 facet normal -0.8561 0.516809 0
  outer loop
   vertex -5.23936 23.1481 -4.5432
   vertex -6.15924 21.6244 -4.5432
   vertex -6.15924 21.6244 3.8176
  end loop
 end facet
 facet normal -0.8561 0.516809 0
  outer loop
   vertex -5.23936 23.1481 -4.5432
   vertex -6.15924 21.6244 3.8176
   vertex -5.23936 23.1481 3.8176
  end loop
 end facet
 facet normal -0.900071 0.435743 0
  outer loop
   vertex -6.15924 21.6244 -4.5432
   vertex -7.01164 19.8636 -4.5432
   vertex -7.01164 19.8636 3.8176
  end loop
 end facet
 facet normal -0.900071 0.435743 0
  outer loop
   vertex -6.15924 21.6244 -4.5432
   vertex -7.01164 19.8636 3.8176
   vertex -6.15924 21.6244 3.8176
  end loop
 end facet
 facet normal -0.931012 0.364988 0
  outer loop
   vertex -7.01164 19.8636 -4.5432
   vertex -7.78721 17.8853 -4.5432
   vertex -7.78721 17.8853 3.8176
  end loop
 end facet
 facet normal -0.931012 0.364988 0
  outer loop
   vertex -7.01164 19.8636 -4.5432
   vertex -7.78721 17.8853 3.8176
   vertex -7.01164 19.8636 3.8176
  end loop
 end facet
 facet normal -0.953124 0.302581 0
  outer loop
   vertex -7.78721 17.8853 -4.5432
   vertex -8.47747 15.711 -4.5432
   vertex -8.47747 15.711 3.8176
  end loop
 end facet
 facet normal -0.953124 0.302581 0
  outer loop
   vertex -7.78721 17.8853 -4.5432
   vertex -8.47747 15.711 3.8176
   vertex -7.78721 17.8853 3.8176
  end loop
 end facet
 facet normal -0.969087 0.246719 0
  outer loop
   vertex -8.47747 15.711 -4.5432
   vertex -9.07484 13.3646 -4.5432
   vertex -9.07484 13.3646 3.8176
  end loop
 end facet
 facet normal -0.969087 0.246719 0
  outer loop
   vertex -8.47747 15.711 -4.5432
   vertex -9.07484 13.3646 3.8176
   vertex -8.47747 15.711 3.8176
  end loop
 end facet
 facet normal -0.980628 0.195881 0
  outer loop
   vertex -9.07484 13.3646 -4.5432
   vertex -9.57279 10.8717 -4.5432
   vertex -9.57279 10.8717 3.8176
  end loop
 end facet
 facet normal -0.980628 0.195881 0
  outer loop
   vertex -9.07484 13.3646 -4.5432
   vertex -9.57279 10.8717 3.8176
   vertex -9.07484 13.3646 3.8176
  end loop
 end facet
 facet normal -0.988866 0.148812 0
  outer loop
   vertex -9.57279 10.8717 -4.5432
   vertex -9.96586 8.25977 -4.5432
   vertex -9.96586 8.25977 3.8176
  end loop
 end facet
 facet normal -0.988866 0.148812 0
  outer loop
   vertex -9.57279 10.8717 -4.5432
   vertex -9.96586 8.25977 3.8176
   vertex -9.57279 10.8717 3.8176
  end loop
 end facet
 facet normal -0.994528 0.10447 0
  outer loop
   vertex -9.96586 8.25977 -4.5432
   vertex -10.2497 5.55731 -4.5432
   vertex -10.2497 5.55731 3.8176
  end loop
 end facet
 facet normal -0.994528 0.10447 0
  outer loop
   vertex -9.96586 8.25977 -4.5432
   vertex -10.2497 5.55731 3.8176
   vertex -9.96586 8.25977 3.8176
  end loop
 end facet
 facet normal -0.998078 0.0619726 0
  outer loop
   vertex -10.2497 5.55731 -4.5432
   vertex -10.4213 2.79396 -4.5432
   vertex -10.4213 2.79396 3.8176
  end loop
 end facet
 facet normal -0.998078 0.0619726 0
  outer loop
   vertex -10.2497 5.55731 -4.5432
   vertex -10.4213 2.79396 3.8176
   vertex -10.2497 5.55731 3.8176
  end loop
 end facet
 facet normal -0.999789 0.0205413 0
  outer loop
   vertex -10.4213 2.79396 -4.5432
   vertex -10.4787 1.51435e-14 -4.5432
   vertex -10.4787 1.51435e-14 3.8176
  end loop
 end facet
 facet normal -0.999789 0.0205413 0
  outer loop
   vertex -10.4213 2.79396 -4.5432
   vertex -10.4787 1.51435e-14 3.8176
   vertex -10.4213 2.79396 3.8176
  end loop
 end facet
 facet normal -0.999789 -0.0205413 0
  outer loop
   vertex -10.4787 1.51435e-14 -4.5432
   vertex -10.4213 -2.79396 -4.5432
   vertex -10.4213 -2.79396 3.8176
  end loop
 end facet
 facet normal -0.999789 -0.0205413 0
  outer loop
   vertex -10.4787 1.51435e-14 -4.5432
   vertex -10.4213 -2.79396 3.8176
   vertex -10.4787 1.51435e-14 3.8176
  end loop
 end facet
 facet normal -0.998078 -0.0619726 0
  outer loop
   vertex -10.4213 -2.79396 -4.5432
   vertex -10.2497 -5.55731 -4.5432
   vertex -10.2497 -5.55731 3.8176
  end loop
 end facet
 facet normal -0.998078 -0.0619726 0
  outer loop
   vertex -10.4213 -2.79396 -4.5432
   vertex -10.2497 -5.55731 3.8176
   vertex -10.4213 -2.79396 3.8176
  end loop
 end facet
 facet normal -0.994528 -0.10447 0
  outer loop
   vertex -10.2497 -5.55731 -4.5432
   vertex -9.96586 -8.25977 -4.5432
   vertex -9.96586 -8.25977 3.8176
  end loop
 end facet
 facet normal -0.994528 -0.10447 0
  outer loop
   vertex -10.2497 -5.55731 -4.5432
   vertex -9.96586 -8.25977 3.8176
   vertex -10.2497 -5.55731 3.8176
  end loop
 end facet
 facet normal -0.988866 -0.148812 0
  outer loop
   vertex -9.96586 -8.25977 -4.5432
   vertex -9.57279 -10.8717 -4.5432
   vertex -9.57279 -10.8717 3.8176
  end loop
 end facet
 facet normal -0.988866 -0.148812 0
  outer loop
   vertex -9.96586 -8.25977 -4.5432
   vertex -9.57279 -10.8717 3.8176
   vertex -9.96586 -8.25977 3.8176
  end loop
 end facet
 facet normal -0.980628 -0.195881 0
  outer loop
   vertex -9.57279 -10.8717 -4.5432
   vertex -9.07484 -13.3646 -4.5432
   vertex -9.07484 -13.3646 3.8176
  end loop
 end facet
 facet normal -0.980628 -0.195881 0
  outer loop
   vertex -9.57279 -10.8717 -4.5432
   vertex -9.07484 -13.3646 3.8176
   vertex -9.57279 -10.8717 3.8176
  end loop
 end facet
 facet normal -0.969087 -0.246719 0
  outer loop
   vertex -9.07484 -13.3646 -4.5432
   vertex -8.47747 -15.711 -4.5432
   vertex -8.47747 -15.711 3.8176
  end loop
 end facet
 facet normal -0.969087 -0.246719 0
  outer loop
   vertex -9.07484 -13.3646 -4.5432
   vertex -8.47747 -15.711 3.8176
   vertex -9.07484 -13.3646 3.8176
  end loop
 end facet
 facet normal -0.953124 -0.302581 0
  outer loop
   vertex -8.47747 -15.711 -4.5432
   vertex -7.78721 -17.8853 -4.5432
   vertex -7.78721 -17.8853 3.8176
  end loop
 end facet
 facet normal -0.953124 -0.302581 0
  outer loop
   vertex -8.47747 -15.711 -4.5432
   vertex -7.78721 -17.8853 3.8176
   vertex -8.47747 -15.711 3.8176
  end loop
 end facet
 facet normal -0.931012 -0.364988 0
  outer loop
   vertex -7.78721 -17.8853 -4.5432
   vertex -7.01164 -19.8636 -4.5432
   vertex -7.01164 -19.8636 3.8176
  end loop
 end facet
 facet normal -0.931012 -0.364988 0
  outer loop
   vertex -7.78721 -17.8853 -4.5432
   vertex -7.01164 -19.8636 3.8176
   vertex -7.78721 -17.8853 3.8176
  end loop
 end facet
 facet normal -0.900071 -0.435743 0
  outer loop
   vertex -7.01164 -19.8636 -4.5432
   vertex -6.15924 -21.6244 -4.5432
   vertex -6.15924 -21.6244 3.8176
  end loop
 end facet
 facet normal -0.900071 -0.435743 0
  outer loop
   vertex -7.01164 -19.8636 -4.5432
   vertex -6.15924 -21.6244 3.8176
   vertex -7.01164 -19.8636 3.8176
  end loop
 end facet
 facet normal -0.8561 -0.516809 0
  outer loop
   vertex -6.15924 -21.6244 -4.5432
   vertex -5.23936 -23.1481 -4.5432
   vertex -5.23936 -23.1481 3.8176
  end loop
 end facet
 facet normal -0.8561 -0.516809 0
  outer loop
   vertex -6.15924 -21.6244 -4.5432
   vertex -5.23936 -23.1481 3.8176
   vertex -6.15924 -21.6244 3.8176
  end loop
 end facet
 facet normal -0.792556 -0.609799 0
  outer loop
   vertex -5.23936 -23.1481 -4.5432
   vertex -4.26208 -24.4183 -4.5432
   vertex -4.26208 -24.4183 3.8176
  end loop
 end facet
 facet normal -0.792556 -0.609799 0
  outer loop
   vertex -5.23936 -23.1481 -4.5432
   vertex -4.26208 -24.4183 3.8176
   vertex -5.23936 -23.1481 3.8176
  end loop
 end facet
 facet normal -0.699623 -0.714512 0
  outer loop
   vertex -4.26208 -24.4183 -4.5432
   vertex -3.2381 -25.4209 -4.5432
   vertex -3.2381 -25.4209 3.8176
  end loop
 end facet
 facet normal -0.699623 -0.714512 0
  outer loop
   vertex -4.26208 -24.4183 -4.5432
   vertex -3.2381 -25.4209 3.8176
   vertex -4.26208 -24.4183 3.8176
  end loop
 end facet
 facet normal -0.564276 -0.825586 0
  outer loop
   vertex -3.2381 -25.4209 -4.5432
   vertex -2.17865 -26.1451 -4.5432
   vertex -2.17865 -26.1451 3.8176
  end loop
 end facet
 facet normal -0.564276 -0.825586 0
  outer loop
   vertex -3.2381 -25.4209 -4.5432
   vertex -2.17865 -26.1451 3.8176
   vertex -3.2381 -25.4209 3.8176
  end loop
 end facet
 facet normal -0.374592 -0.92719 0
  outer loop
   vertex -2.17865 -26.1451 -4.5432
   vertex -1.09532 -26.5827 -4.5432
   vertex -1.09532 -26.5827 3.8176
  end loop
 end facet
 facet normal -0.374592 -0.92719 0
  outer loop
   vertex -2.17865 -26.1451 -4.5432
   vertex -1.09532 -26.5827 3.8176
   vertex -2.17865 -26.1451 3.8176
  end loop
 end facet
 facet normal -0.132503 -0.991183 0
  outer loop
   vertex -1.09532 -26.5827 -4.5432
   vertex -1.92491e-15 -26.7292 -4.5432
   vertex -1.92491e-15 -26.7292 3.8176
  end loop
 end facet
 facet normal -0.132503 -0.991183 0
  outer loop
   vertex -1.09532 -26.5827 -4.5432
   vertex -1.92491e-15 -26.7292 3.8176
   vertex -1.09532 -26.5827 3.8176
  end loop
 end facet
 facet normal 0.132503 -0.991183 0
  outer loop
   vertex -1.92491e-15 -26.7292 -4.5432
   vertex 1.09532 -26.5827 -4.5432
   vertex 1.09532 -26.5827 3.8176
  end loop
 end facet
 facet normal 0.132503 -0.991183 0
  outer loop
   vertex -1.92491e-15 -26.7292 -4.5432
   vertex 1.09532 -26.5827 3.8176
   vertex -1.92491e-15 -26.7292 3.8176
  end loop
 end facet
 facet normal 0.374592 -0.92719 0
  outer loop
   vertex 1.09532 -26.5827 -4.5432
   vertex 2.17865 -26.1451 -4.5432
   vertex 2.17865 -26.1451 3.8176
  end loop
 end facet
 facet normal 0.374592 -0.92719 0
  outer loop
   vertex 1.09532 -26.5827 -4.5432
   vertex 2.17865 -26.1451 3.8176
   vertex 1.09532 -26.5827 3.8176
  end loop
 end facet
 facet normal 0.564276 -0.825586 0
  outer loop
   vertex 2.17865 -26.1451 -4.5432
   vertex 3.2381 -25.4209 -4.5432
   vertex 3.2381 -25.4209 3.8176
  end loop
 end facet
 facet normal 0.564276 -0.825586 0
  outer loop
   vertex 2.17865 -26.1451 -4.5432
   vertex 3.2381 -25.4209 3.8176
   vertex 2.17865 -26.1451 3.8176
  end loop
 end facet
 facet normal 0.699623 -0.714512 0
  outer loop
   vertex 3.2381 -25.4209 -4.5432
   vertex 4.26208 -24.4183 -4.5432
   vertex 4.26208 -24.4183 3.8176
  end loop
 end facet
 facet normal 0.699623 -0.714512 0
  outer loop
   vertex 3.2381 -25.4209 -4.5432
   vertex 4.26208 -24.4183 3.8176
   vertex 3.2381 -25.4209 3.8176
  end loop
 end facet
 facet normal 0.792556 -0.609799 0
  outer loop
   vertex 4.26208 -24.4183 -4.5432
   vertex 5.23936 -23.1481 -4.5432
   vertex 5.23936 -23.1481 3.8176
  end loop
 end facet
 facet normal 0.792556 -0.609799 0
  outer loop
   vertex 4.26208 -24.4183 -4.5432
   vertex 5.23936 -23.1481 3.8176
   vertex 4.26208 -24.4183 3.8176
  end loop
 end facet
 facet normal 0.8561 -0.516809 0
  outer loop
   vertex 5.23936 -23.1481 -4.5432
   vertex 6.15924 -21.6244 -4.5432
   vertex 6.15924 -21.6244 3.8176
  end loop
 end facet
 facet normal 0.8561 -0.516809 0
  outer loop
   vertex 5.23936 -23.1481 -4.5432
   vertex 6.15924 -21.6244 3.8176
   vertex 5.23936 -23.1481 3.8176
  end loop
 end facet
 facet normal 0.900071 -0.435743 0
  outer loop
   vertex 6.15924 -21.6244 -4.5432
   vertex 7.01164 -19.8636 -4.5432
   vertex 7.01164 -19.8636 3.8176
  end loop
 end facet
 facet normal 0.900071 -0.435743 0
  outer loop
   vertex 6.15924 -21.6244 -4.5432
   vertex 7.01164 -19.8636 3.8176
   vertex 6.15924 -21.6244 3.8176
  end loop
 end facet
 facet normal 0.931012 -0.364988 0
  outer loop
   vertex 7.01164 -19.8636 -4.5432
   vertex 7.78721 -17.8853 -4.5432
   vertex 7.78721 -17.8853 3.8176
  end loop
 end facet
 facet normal 0.931012 -0.364988 0
  outer loop
   vertex 7.01164 -19.8636 -4.5432
   vertex 7.78721 -17.8853 3.8176
   vertex 7.01164 -19.8636 3.8176
  end loop
 end facet
 facet normal 0.953124 -0.302581 0
  outer loop
   vertex 7.78721 -17.8853 -4.5432
   vertex 8.47747 -15.711 -4.5432
   vertex 8.47747 -15.711 3.8176
  end loop
 end facet
 facet normal 0.953124 -0.302581 0
  outer loop
   vertex 7.78721 -17.8853 -4.5432
   vertex 8.47747 -15.711 3.8176
   vertex 7.78721 -17.8853 3.8176
  end loop
 end facet
 facet normal 0.969087 -0.246719 0
  outer loop
   vertex 8.47747 -15.711 -4.5432
   vertex 9.07484 -13.3646 -4.5432
   vertex 9.07484 -13.3646 3.8176
  end loop
 end facet
 facet normal 0.969087 -0.246719 0
  outer loop
   vertex 8.47747 -15.711 -4.5432
   vertex 9.07484 -13.3646 3.8176
   vertex 8.47747 -15.711 3.8176
  end loop
 end facet
 facet normal 0.980628 -0.195881 0
  outer loop
   vertex 9.07484 -13.3646 -4.5432
   vertex 9.57279 -10.8717 -4.5432
   vertex 9.57279 -10.8717 3.8176
  end loop
 end facet
 facet normal 0.980628 -0.195881 0
  outer loop
   vertex 9.07484 -13.3646 -4.5432
   vertex 9.57279 -10.8717 3.8176
   vertex 9.07484 -13.3646 3.8176
  end loop
 end facet
 facet normal 0.988866 -0.148812 0
  outer loop
   vertex 9.57279 -10.8717 -4.5432
   vertex 9.96586 -8.25977 -4.5432
   vertex 9.96586 -8.25977 3.8176
  end loop
 end facet
 facet normal 0.988866 -0.148812 0
  outer loop
   vertex 9.57279 -10.8717 -4.5432
   vertex 9.96586 -8.25977 3.8176
   vertex 9.57279 -10.8717 3.8176
  end loop
 end facet
 facet normal 0.994528 -0.10447 0
  outer loop
   vertex 9.96586 -8.25977 -4.5432
   vertex 10.2497 -5.55731 -4.5432
   vertex 10.2497 -5.55731 3.8176
  end loop
 end facet
 facet normal 0.994528 -0.10447 0
  outer loop
   vertex 9.96586 -8.25977 -4.5432
   vertex 10.2497 -5.55731 3.8176
   vertex 9.96586 -8.25977 3.8176
  end loop
 end facet
 facet normal 0.998078 -0.0619726 0
  outer loop
   vertex 10.2497 -5.55731 -4.5432
   vertex 10.4213 -2.79396 -4.5432
   vertex 10.4213 -2.79396 3.8176
  end loop
 end facet
 facet normal 0.998078 -0.0619726 0
  outer loop
   vertex 10.2497 -5.55731 -4.5432
   vertex 10.4213 -2.79396 3.8176
   vertex 10.2497 -5.55731 3.8176
  end loop
 end facet
 facet normal 0.999789 -0.0205413 0
  outer loop
   vertex 10.4213 -2.79396 -4.5432
   vertex 10.4787 0 -4.5432
   vertex 10.4787 0 3.8176
  end loop
 end facet
 facet normal 0.999789 -0.0205413 0
  outer loop
   vertex 10.4213 -2.79396 -4.5432
   vertex 10.4787 0 3.8176
   vertex 10.4213 -2.79396 3.8176
  end loop
 end facet
 facet normal -0.999807 -0.019622 0
  outer loop
   vertex 9.72872 0 -4.5432
   vertex 9.67543 2.71556 3.8176
   vertex 9.67543 2.71556 -4.5432
  end loop
 end facet
 facet normal -0.999807 -0.019622 0
  outer loop
   vertex 9.72872 0 -4.5432
   vertex 9.72872 0 3.8176
   vertex 9.67543 2.71556 3.8176
  end loop
 end facet
 facet normal -0.998246 -0.059208 0
  outer loop
   vertex 9.67543 2.71556 -4.5432
   vertex 9.51613 5.40137 3.8176
   vertex 9.51613 5.40137 -4.5432
  end loop
 end facet
 facet normal -0.998246 -0.059208 0
  outer loop
   vertex 9.67543 2.71556 -4.5432
   vertex 9.67543 2.71556 3.8176
   vertex 9.51613 5.40137 3.8176
  end loop
 end facet
 facet normal -0.995003 -0.0998407 0
  outer loop
   vertex 9.51613 5.40137 -4.5432
   vertex 9.25257 8.028 3.8176
   vertex 9.25257 8.028 -4.5432
  end loop
 end facet
 facet normal -0.995003 -0.0998407 0
  outer loop
   vertex 9.51613 5.40137 -4.5432
   vertex 9.51613 5.40137 3.8176
   vertex 9.25257 8.028 3.8176
  end loop
 end facet
 facet normal -0.989825 -0.142287 0
  outer loop
   vertex 9.25257 8.028 -4.5432
   vertex 8.88763 10.5667 3.8176
   vertex 8.88763 10.5667 -4.5432
  end loop
 end facet
 facet normal -0.989825 -0.142287 0
  outer loop
   vertex 9.25257 8.028 -4.5432
   vertex 9.25257 8.028 3.8176
   vertex 8.88763 10.5667 3.8176
  end loop
 end facet
 facet normal -0.982279 -0.187427 0
  outer loop
   vertex 8.88763 10.5667 -4.5432
   vertex 8.42532 12.9896 3.8176
   vertex 8.42532 12.9896 -4.5432
  end loop
 end facet
 facet normal -0.982279 -0.187427 0
  outer loop
   vertex 8.88763 10.5667 -4.5432
   vertex 8.88763 10.5667 3.8176
   vertex 8.42532 12.9896 3.8176
  end loop
 end facet
 facet normal -0.971679 -0.236304 0
  outer loop
   vertex 8.42532 12.9896 -4.5432
   vertex 7.8707 15.2702 3.8176
   vertex 7.8707 15.2702 -4.5432
  end loop
 end facet
 facet normal -0.971679 -0.236304 0
  outer loop
   vertex 8.42532 12.9896 -4.5432
   vertex 8.42532 12.9896 3.8176
   vertex 7.8707 15.2702 3.8176
  end loop
 end facet
 facet normal -0.956966 -0.290199 0
  outer loop
   vertex 7.8707 15.2702 -4.5432
   vertex 7.22985 17.3835 3.8176
   vertex 7.22985 17.3835 -4.5432
  end loop
 end facet
 facet normal -0.956966 -0.290199 0
  outer loop
   vertex 7.8707 15.2702 -4.5432
   vertex 7.8707 15.2702 3.8176
   vertex 7.22985 17.3835 3.8176
  end loop
 end facet
 facet normal -0.936489 -0.350698 0
  outer loop
   vertex 7.22985 17.3835 -4.5432
   vertex 6.50979 19.3063 3.8176
   vertex 6.50979 19.3063 -4.5432
  end loop
 end facet
 facet normal -0.936489 -0.350698 0
  outer loop
   vertex 7.22985 17.3835 -4.5432
   vertex 7.22985 17.3835 3.8176
   vertex 6.50979 19.3063 3.8176
  end loop
 end facet
 facet normal -0.907646 -0.419737 0
  outer loop
   vertex 6.50979 19.3063 -4.5432
   vertex 5.7184 21.0176 3.8176
   vertex 5.7184 21.0176 -4.5432
  end loop
 end facet
 facet normal -0.907646 -0.419737 0
  outer loop
   vertex 6.50979 19.3063 -4.5432
   vertex 6.50979 19.3063 3.8176
   vertex 5.7184 21.0176 3.8176
  end loop
 end facet
 facet normal -0.866287 -0.499546 0
  outer loop
   vertex 5.7184 21.0176 -4.5432
   vertex 4.86436 22.4986 3.8176
   vertex 4.86436 22.4986 -4.5432
  end loop
 end facet
 facet normal -0.866287 -0.499546 0
  outer loop
   vertex 5.7184 21.0176 -4.5432
   vertex 5.7184 21.0176 3.8176
   vertex 4.86436 22.4986 3.8176
  end loop
 end facet
 facet normal -0.805779 -0.592217 0
  outer loop
   vertex 4.86436 22.4986 -4.5432
   vertex 3.95703 23.7331 3.8176
   vertex 3.95703 23.7331 -4.5432
  end loop
 end facet
 facet normal -0.805779 -0.592217 0
  outer loop
   vertex 4.86436 22.4986 -4.5432
   vertex 4.86436 22.4986 3.8176
   vertex 3.95703 23.7331 3.8176
  end loop
 end facet
 facet normal -0.7158 -0.698305 0
  outer loop
   vertex 3.95703 23.7331 -4.5432
   vertex 3.00634 24.7077 3.8176
   vertex 3.00634 24.7077 -4.5432
  end loop
 end facet
 facet normal -0.7158 -0.698305 0
  outer loop
   vertex 3.95703 23.7331 -4.5432
   vertex 3.95703 23.7331 3.8176
   vertex 3.00634 24.7077 3.8176
  end loop
 end facet
 facet normal -0.581903 -0.813258 0
  outer loop
   vertex 3.00634 24.7077 -4.5432
   vertex 2.02272 25.4115 3.8176
   vertex 2.02272 25.4115 -4.5432
  end loop
 end facet
 facet normal -0.581903 -0.813258 0
  outer loop
   vertex 3.00634 24.7077 -4.5432
   vertex 3.00634 24.7077 3.8176
   vertex 2.02272 25.4115 3.8176
  end loop
 end facet
 facet normal -0.389535 -0.921012 0
  outer loop
   vertex 2.02272 25.4115 -4.5432
   vertex 1.01693 25.8369 3.8176
   vertex 1.01693 25.8369 -4.5432
  end loop
 end facet
 facet normal -0.389535 -0.921012 0
  outer loop
   vertex 2.02272 25.4115 -4.5432
   vertex 2.02272 25.4115 3.8176
   vertex 1.01693 25.8369 3.8176
  end loop
 end facet
 facet normal -0.138597 -0.990349 0
  outer loop
   vertex 1.01693 25.8369 -4.5432
   vertex 2.75592e-15 25.9792 3.8176
   vertex 2.75592e-15 25.9792 -4.5432
  end loop
 end facet
 facet normal -0.138597 -0.990349 0
  outer loop
   vertex 1.01693 25.8369 -4.5432
   vertex 1.01693 25.8369 3.8176
   vertex 2.75592e-15 25.9792 3.8176
  end loop
 end facet
 facet normal 0.138597 -0.990349 0
  outer loop
   vertex 2.75592e-15 25.9792 -4.5432
   vertex -1.01693 25.8369 3.8176
   vertex -1.01693 25.8369 -4.5432
  end loop
 end facet
 facet normal 0.138597 -0.990349 0
  outer loop
   vertex 2.75592e-15 25.9792 -4.5432
   vertex 2.75592e-15 25.9792 3.8176
   vertex -1.01693 25.8369 3.8176
  end loop
 end facet
 facet normal 0.389535 -0.921012 0
  outer loop
   vertex -1.01693 25.8369 -4.5432
   vertex -2.02272 25.4115 3.8176
   vertex -2.02272 25.4115 -4.5432
  end loop
 end facet
 facet normal 0.389535 -0.921012 0
  outer loop
   vertex -1.01693 25.8369 -4.5432
   vertex -1.01693 25.8369 3.8176
   vertex -2.02272 25.4115 3.8176
  end loop
 end facet
 facet normal 0.581903 -0.813258 0
  outer loop
   vertex -2.02272 25.4115 -4.5432
   vertex -3.00634 24.7077 3.8176
   vertex -3.00634 24.7077 -4.5432
  end loop
 end facet
 facet normal 0.581903 -0.813258 0
  outer loop
   vertex -2.02272 25.4115 -4.5432
   vertex -2.02272 25.4115 3.8176
   vertex -3.00634 24.7077 3.8176
  end loop
 end facet
 facet normal 0.7158 -0.698305 0
  outer loop
   vertex -3.00634 24.7077 -4.5432
   vertex -3.95703 23.7331 3.8176
   vertex -3.95703 23.7331 -4.5432
  end loop
 end facet
 facet normal 0.7158 -0.698305 0
  outer loop
   vertex -3.00634 24.7077 -4.5432
   vertex -3.00634 24.7077 3.8176
   vertex -3.95703 23.7331 3.8176
  end loop
 end facet
 facet normal 0.805779 -0.592217 0
  outer loop
   vertex -3.95703 23.7331 -4.5432
   vertex -4.86436 22.4986 3.8176
   vertex -4.86436 22.4986 -4.5432
  end loop
 end facet
 facet normal 0.805779 -0.592217 0
  outer loop
   vertex -3.95703 23.7331 -4.5432
   vertex -3.95703 23.7331 3.8176
   vertex -4.86436 22.4986 3.8176
  end loop
 end facet
 facet normal 0.866287 -0.499546 0
  outer loop
   vertex -4.86436 22.4986 -4.5432
   vertex -5.7184 21.0176 3.8176
   vertex -5.7184 21.0176 -4.5432
  end loop
 end facet
 facet normal 0.866287 -0.499546 0
  outer loop
   vertex -4.86436 22.4986 -4.5432
   vertex -4.86436 22.4986 3.8176
   vertex -5.7184 21.0176 3.8176
  end loop
 end facet
 facet normal 0.907646 -0.419737 0
  outer loop
   vertex -5.7184 21.0176 -4.5432
   vertex -6.50979 19.3063 3.8176
   vertex -6.50979 19.3063 -4.5432
  end loop
 end facet
 facet normal 0.907646 -0.419737 0
  outer loop
   vertex -5.7184 21.0176 -4.5432
   vertex -5.7184 21.0176 3.8176
   vertex -6.50979 19.3063 3.8176
  end loop
 end facet
 facet normal 0.936489 -0.350698 0
  outer loop
   vertex -6.50979 19.3063 -4.5432
   vertex -7.22985 17.3835 3.8176
   vertex -7.22985 17.3835 -4.5432
  end loop
 end facet
 facet normal 0.936489 -0.350698 0
  outer loop
   vertex -6.50979 19.3063 -4.5432
   vertex -6.50979 19.3063 3.8176
   vertex -7.22985 17.3835 3.8176
  end loop
 end facet
 facet normal 0.956966 -0.290199 0
  outer loop
   vertex -7.22985 17.3835 -4.5432
   vertex -7.8707 15.2702 3.8176
   vertex -7.8707 15.2702 -4.5432
  end loop
 end facet
 facet normal 0.956966 -0.290199 0
  outer loop
   vertex -7.22985 17.3835 -4.5432
   vertex -7.22985 17.3835 3.8176
   vertex -7.8707 15.2702 3.8176
  end loop
 end facet
 facet normal 0.971679 -0.236304 0
  outer loop
   vertex -7.8707 15.2702 -4.5432
   vertex -8.42532 12.9896 3.8176
   vertex -8.42532 12.9896 -4.5432
  end loop
 end facet
 facet normal 0.971679 -0.236304 0
  outer loop
   vertex -7.8707 15.2702 -4.5432
   vertex -7.8707 15.2702 3.8176
   vertex -8.42532 12.9896 3.8176
  end loop
 end facet
 facet normal 0.982279 -0.187427 0
  outer loop
   vertex -8.42532 12.9896 -4.5432
   vertex -8.88763 10.5667 3.8176
   vertex -8.88763 10.5667 -4.5432
  end loop
 end facet
 facet normal 0.982279 -0.187427 0
  outer loop
   vertex -8.42532 12.9896 -4.5432
   vertex -8.42532 12.9896 3.8176
   vertex -8.88763 10.5667 3.8176
  end loop
 end facet
 facet normal 0.989825 -0.142287 0
  outer loop
   vertex -8.88763 10.5667 -4.5432
   vertex -9.25257 8.028 3.8176
   vertex -9.25257 8.028 -4.5432
  end loop
 end facet
 facet normal 0.989825 -0.142287 0
  outer loop
   vertex -8.88763 10.5667 -4.5432
   vertex -8.88763 10.5667 3.8176
   vertex -9.25257 8.028 3.8176
  end loop
 end facet
 facet normal 0.995003 -0.0998407 0
  outer loop
   vertex -9.25257 8.028 -4.5432
   vertex -9.51613 5.40137 3.8176
   vertex -9.51613 5.40137 -4.5432
  end loop
 end facet
 facet normal 0.995003 -0.0998407 0
  outer loop
   vertex -9.25257 8.028 -4.5432
   vertex -9.25257 8.028 3.8176
   vertex -9.51613 5.40137 3.8176
  end loop
 end facet
 facet normal 0.998246 -0.059208 0
  outer loop
   vertex -9.51613 5.40137 -4.5432
   vertex -9.67543 2.71556 3.8176
   vertex -9.67543 2.71556 -4.5432
  end loop
 end facet
 facet normal 0.998246 -0.059208 0
  outer loop
   vertex -9.51613 5.40137 -4.5432
   vertex -9.51613 5.40137 3.8176
   vertex -9.67543 2.71556 3.8176
  end loop
 end facet
 facet normal 0.999807 -0.019622 0
  outer loop
   vertex -9.67543 2.71556 -4.5432
   vertex -9.72872 1.47186e-14 3.8176
   vertex -9.72872 1.47186e-14 -4.5432
  end loop
 end facet
 facet normal 0.999807 -0.019622 0
  outer loop
   vertex -9.67543 2.71556 -4.5432
   vertex -9.67543 2.71556 3.8176
   vertex -9.72872 1.47186e-14 3.8176
  end loop
 end facet
 facet normal 0.999807 0.019622 0
  outer loop
   vertex -9.72872 1.47186e-14 -4.5432
   vertex -9.67543 -2.71556 3.8176
   vertex -9.67543 -2.71556 -4.5432
  end loop
 end facet
 facet normal 0.999807 0.019622 -0
  outer loop
   vertex -9.72872 1.47186e-14 -4.5432
   vertex -9.72872 1.47186e-14 3.8176
   vertex -9.67543 -2.71556 3.8176
  end loop
 end facet
 facet normal 0.998246 0.059208 0
  outer loop
   vertex -9.67543 -2.71556 -4.5432
   vertex -9.51613 -5.40137 3.8176
   vertex -9.51613 -5.40137 -4.5432
  end loop
 end facet
 facet normal 0.998246 0.059208 -0
  outer loop
   vertex -9.67543 -2.71556 -4.5432
   vertex -9.67543 -2.71556 3.8176
   vertex -9.51613 -5.40137 3.8176
  end loop
 end facet
 facet normal 0.995003 0.0998407 0
  outer loop
   vertex -9.51613 -5.40137 -4.5432
   vertex -9.25257 -8.028 3.8176
   vertex -9.25257 -8.028 -4.5432
  end loop
 end facet
 facet normal 0.995003 0.0998407 -0
  outer loop
   vertex -9.51613 -5.40137 -4.5432
   vertex -9.51613 -5.40137 3.8176
   vertex -9.25257 -8.028 3.8176
  end loop
 end facet
 facet normal 0.989825 0.142287 0
  outer loop
   vertex -9.25257 -8.028 -4.5432
   vertex -8.88763 -10.5667 3.8176
   vertex -8.88763 -10.5667 -4.5432
  end loop
 end facet
 facet normal 0.989825 0.142287 -0
  outer loop
   vertex -9.25257 -8.028 -4.5432
   vertex -9.25257 -8.028 3.8176
   vertex -8.88763 -10.5667 3.8176
  end loop
 end facet
 facet normal 0.982279 0.187427 0
  outer loop
   vertex -8.88763 -10.5667 -4.5432
   vertex -8.42532 -12.9896 3.8176
   vertex -8.42532 -12.9896 -4.5432
  end loop
 end facet
 facet normal 0.982279 0.187427 -0
  outer loop
   vertex -8.88763 -10.5667 -4.5432
   vertex -8.88763 -10.5667 3.8176
   vertex -8.42532 -12.9896 3.8176
  end loop
 end facet
 facet normal 0.971679 0.236304 0
  outer loop
   vertex -8.42532 -12.9896 -4.5432
   vertex -7.8707 -15.2702 3.8176
   vertex -7.8707 -15.2702 -4.5432
  end loop
 end facet
 facet normal 0.971679 0.236304 -0
  outer loop
   vertex -8.42532 -12.9896 -4.5432
   vertex -8.42532 -12.9896 3.8176
   vertex -7.8707 -15.2702 3.8176
  end loop
 end facet
 facet normal 0.956966 0.290199 0
  outer loop
   vertex -7.8707 -15.2702 -4.5432
   vertex -7.22985 -17.3835 3.8176
   vertex -7.22985 -17.3835 -4.5432
  end loop
 end facet
 facet normal 0.956966 0.290199 -0
  outer loop
   vertex -7.8707 -15.2702 -4.5432
   vertex -7.8707 -15.2702 3.8176
   vertex -7.22985 -17.3835 3.8176
  end loop
 end facet
 facet normal 0.936489 0.350698 0
  outer loop
   vertex -7.22985 -17.3835 -4.5432
   vertex -6.50979 -19.3063 3.8176
   vertex -6.50979 -19.3063 -4.5432
  end loop
 end facet
 facet normal 0.936489 0.350698 -0
  outer loop
   vertex -7.22985 -17.3835 -4.5432
   vertex -7.22985 -17.3835 3.8176
   vertex -6.50979 -19.3063 3.8176
  end loop
 end facet
 facet normal 0.907646 0.419737 0
  outer loop
   vertex -6.50979 -19.3063 -4.5432
   vertex -5.7184 -21.0176 3.8176
   vertex -5.7184 -21.0176 -4.5432
  end loop
 end facet
 facet normal 0.907646 0.419737 -0
  outer loop
   vertex -6.50979 -19.3063 -4.5432
   vertex -6.50979 -19.3063 3.8176
   vertex -5.7184 -21.0176 3.8176
  end loop
 end facet
 facet normal 0.866287 0.499546 0
  outer loop
   vertex -5.7184 -21.0176 -4.5432
   vertex -4.86436 -22.4986 3.8176
   vertex -4.86436 -22.4986 -4.5432
  end loop
 end facet
 facet normal 0.866287 0.499546 -0
  outer loop
   vertex -5.7184 -21.0176 -4.5432
   vertex -5.7184 -21.0176 3.8176
   vertex -4.86436 -22.4986 3.8176
  end loop
 end facet
 facet normal 0.805779 0.592217 0
  outer loop
   vertex -4.86436 -22.4986 -4.5432
   vertex -3.95703 -23.7331 3.8176
   vertex -3.95703 -23.7331 -4.5432
  end loop
 end facet
 facet normal 0.805779 0.592217 -0
  outer loop
   vertex -4.86436 -22.4986 -4.5432
   vertex -4.86436 -22.4986 3.8176
   vertex -3.95703 -23.7331 3.8176
  end loop
 end facet
 facet normal 0.7158 0.698305 0
  outer loop
   vertex -3.95703 -23.7331 -4.5432
   vertex -3.00634 -24.7077 3.8176
   vertex -3.00634 -24.7077 -4.5432
  end loop
 end facet
 facet normal 0.7158 0.698305 -0
  outer loop
   vertex -3.95703 -23.7331 -4.5432
   vertex -3.95703 -23.7331 3.8176
   vertex -3.00634 -24.7077 3.8176
  end loop
 end facet
 facet normal 0.581903 0.813258 0
  outer loop
   vertex -3.00634 -24.7077 -4.5432
   vertex -2.02272 -25.4115 3.8176
   vertex -2.02272 -25.4115 -4.5432
  end loop
 end facet
 facet normal 0.581903 0.813258 -0
  outer loop
   vertex -3.00634 -24.7077 -4.5432
   vertex -3.00634 -24.7077 3.8176
   vertex -2.02272 -25.4115 3.8176
  end loop
 end facet
 facet normal 0.389535 0.921012 0
  outer loop
   vertex -2.02272 -25.4115 -4.5432
   vertex -1.01693 -25.8369 3.8176
   vertex -1.01693 -25.8369 -4.5432
  end loop
 end facet
 facet normal 0.389535 0.921012 -0
  outer loop
   vertex -2.02272 -25.4115 -4.5432
   vertex -2.02272 -25.4115 3.8176
   vertex -1.01693 -25.8369 3.8176
  end loop
 end facet
 facet normal 0.138597 0.990349 0
  outer loop
   vertex -1.01693 -25.8369 -4.5432
   vertex -1.78714e-15 -25.9792 3.8176
   vertex -1.78714e-15 -25.9792 -4.5432
  end loop
 end facet
 facet normal 0.138597 0.990349 -0
  outer loop
   vertex -1.01693 -25.8369 -4.5432
   vertex -1.01693 -25.8369 3.8176
   vertex -1.78714e-15 -25.9792 3.8176
  end loop
 end facet
 facet normal -0.138597 0.990349 0
  outer loop
   vertex -1.78714e-15 -25.9792 -4.5432
   vertex 1.01693 -25.8369 3.8176
   vertex 1.01693 -25.8369 -4.5432
  end loop
 end facet
 facet normal -0.138597 0.990349 0
  outer loop
   vertex -1.78714e-15 -25.9792 -4.5432
   vertex -1.78714e-15 -25.9792 3.8176
   vertex 1.01693 -25.8369 3.8176
  end loop
 end facet
 facet normal -0.389535 0.921012 0
  outer loop
   vertex 1.01693 -25.8369 -4.5432
   vertex 2.02272 -25.4115 3.8176
   vertex 2.02272 -25.4115 -4.5432
  end loop
 end facet
 facet normal -0.389535 0.921012 0
  outer loop
   vertex 1.01693 -25.8369 -4.5432
   vertex 1.01693 -25.8369 3.8176
   vertex 2.02272 -25.4115 3.8176
  end loop
 end facet
 facet normal -0.581903 0.813258 0
  outer loop
   vertex 2.02272 -25.4115 -4.5432
   vertex 3.00634 -24.7077 3.8176
   vertex 3.00634 -24.7077 -4.5432
  end loop
 end facet
 facet normal -0.581903 0.813258 0
  outer loop
   vertex 2.02272 -25.4115 -4.5432
   vertex 2.02272 -25.4115 3.8176
   vertex 3.00634 -24.7077 3.8176
  end loop
 end facet
 facet normal -0.7158 0.698305 0
  outer loop
   vertex 3.00634 -24.7077 -4.5432
   vertex 3.95703 -23.7331 3.8176
   vertex 3.95703 -23.7331 -4.5432
  end loop
 end facet
 facet normal -0.7158 0.698305 0
  outer loop
   vertex 3.00634 -24.7077 -4.5432
   vertex 3.00634 -24.7077 3.8176
   vertex 3.95703 -23.7331 3.8176
  end loop
 end facet
 facet normal -0.805779 0.592217 0
  outer loop
   vertex 3.95703 -23.7331 -4.5432
   vertex 4.86436 -22.4986 3.8176
   vertex 4.86436 -22.4986 -4.5432
  end loop
 end facet
 facet normal -0.805779 0.592217 0
  outer loop
   vertex 3.95703 -23.7331 -4.5432
   vertex 3.95703 -23.7331 3.8176
   vertex 4.86436 -22.4986 3.8176
  end loop
 end facet
 facet normal -0.866287 0.499546 0
  outer loop
   vertex 4.86436 -22.4986 -4.5432
   vertex 5.7184 -21.0176 3.8176
   vertex 5.7184 -21.0176 -4.5432
  end loop
 end facet
 facet normal -0.866287 0.499546 0
  outer loop
   vertex 4.86436 -22.4986 -4.5432
   vertex 4.86436 -22.4986 3.8176
   vertex 5.7184 -21.0176 3.8176
  end loop
 end facet
 facet normal -0.907646 0.419737 0
  outer loop
   vertex 5.7184 -21.0176 -4.5432
   vertex 6.50979 -19.3063 3.8176
   vertex 6.50979 -19.3063 -4.5432
  end loop
 end facet
 facet normal -0.907646 0.419737 0
  outer loop
   vertex 5.7184 -21.0176 -4.5432
   vertex 5.7184 -21.0176 3.8176
   vertex 6.50979 -19.3063 3.8176
  end loop
 end facet
 facet normal -0.936489 0.350698 0
  outer loop
   vertex 6.50979 -19.3063 -4.5432
   vertex 7.22985 -17.3835 3.8176
   vertex 7.22985 -17.3835 -4.5432
  end loop
 end facet
 facet normal -0.936489 0.350698 0
  outer loop
   vertex 6.50979 -19.3063 -4.5432
   vertex 6.50979 -19.3063 3.8176
   vertex 7.22985 -17.3835 3.8176
  end loop
 end facet
 facet normal -0.956966 0.290199 0
  outer loop
   vertex 7.22985 -17.3835 -4.5432
   vertex 7.8707 -15.2702 3.8176
   vertex 7.8707 -15.2702 -4.5432
  end loop
 end facet
 facet normal -0.956966 0.290199 0
  outer loop
   vertex 7.22985 -17.3835 -4.5432
   vertex 7.22985 -17.3835 3.8176
   vertex 7.8707 -15.2702 3.8176
  end loop
 end facet
 facet normal -0.971679 0.236304 0
  outer loop
   vertex 7.8707 -15.2702 -4.5432
   vertex 8.42532 -12.9896 3.8176
   vertex 8.42532 -12.9896 -4.5432
  end loop
 end facet
 facet normal -0.971679 0.236304 0
  outer loop
   vertex 7.8707 -15.2702 -4.5432
   vertex 7.8707 -15.2702 3.8176
   vertex 8.42532 -12.9896 3.8176
  end loop
 end facet
 facet normal -0.982279 0.187427 0
  outer loop
   vertex 8.42532 -12.9896 -4.5432
   vertex 8.88763 -10.5667 3.8176
   vertex 8.88763 -10.5667 -4.5432
  end loop
 end facet
 facet normal -0.982279 0.187427 0
  outer loop
   vertex 8.42532 -12.9896 -4.5432
   vertex 8.42532 -12.9896 3.8176
   vertex 8.88763 -10.5667 3.8176
  end loop
 end facet
 facet normal -0.989825 0.142287 0
  outer loop
   vertex 8.88763 -10.5667 -4.5432
   vertex 9.25257 -8.028 3.8176
   vertex 9.25257 -8.028 -4.5432
  end loop
 end facet
 facet normal -0.989825 0.142287 0
  outer loop
   vertex 8.88763 -10.5667 -4.5432
   vertex 8.88763 -10.5667 3.8176
   vertex 9.25257 -8.028 3.8176
  end loop
 end facet
 facet normal -0.995003 0.0998407 0
  outer loop
   vertex 9.25257 -8.028 -4.5432
   vertex 9.51613 -5.40137 3.8176
   vertex 9.51613 -5.40137 -4.5432
  end loop
 end facet
 facet normal -0.995003 0.0998407 0
  outer loop
   vertex 9.25257 -8.028 -4.5432
   vertex 9.25257 -8.028 3.8176
   vertex 9.51613 -5.40137 3.8176
  end loop
 end facet
 facet normal -0.998246 0.059208 0
  outer loop
   vertex 9.51613 -5.40137 -4.5432
   vertex 9.67543 -2.71556 3.8176
   vertex 9.67543 -2.71556 -4.5432
  end loop
 end facet
 facet normal -0.998246 0.059208 0
  outer loop
   vertex 9.51613 -5.40137 -4.5432
   vertex 9.51613 -5.40137 3.8176
   vertex 9.67543 -2.71556 3.8176
  end loop
 end facet
 facet normal -0.999807 0.019622 0
  outer loop
   vertex 9.67543 -2.71556 -4.5432
   vertex 9.72872 0 3.8176
   vertex 9.72872 0 -4.5432
  end loop
 end facet
 facet normal -0.999807 0.019622 0
  outer loop
   vertex 9.67543 -2.71556 -4.5432
   vertex 9.67543 -2.71556 3.8176
   vertex 9.72872 0 3.8176
  end loop
 end facet
 facet normal 0 0 -1
  outer loop
   vertex 10.4787 0 -4.5432
   vertex 9.67543 2.71556 -4.5432
   vertex 10.4213 2.79396 -4.5432
  end loop
 end facet
 facet normal 0 0 -1
  outer loop
   vertex 10.4787 0 -4.5432
   vertex 9.72872 0 -4.5432
   vertex 9.67543 2.71556 -4.5432
  end loop
 end facet
 facet normal 0 0 -1
  outer loop
   vertex 10.4213 2.79396 -4.5432
   vertex 9.51613 5.40137 -4.5432
   vertex 10.2497 5.55731 -4.5432
  end loop
 end facet
 facet normal -0 0 -1
  outer loop
   vertex 10.4213 2.79396 -4.5432
   vertex 9.67543 2.71556 -4.5432
   vertex 9.51613 5.40137 -4.5432
  end loop
 end facet
 facet normal 0 0 -1
  outer loop
   vertex 10.2497 5.55731 -4.5432
   vertex 9.25257 8.028 -4.5432
   vertex 9.96586 8.25977 -4.5432
  end loop
 end facet
 facet normal -0 0 -1
  outer loop
   vertex 10.2497 5.55731 -4.5432
   vertex 9.51613 5.40137 -4.5432
   vertex 9.25257 8.028 -4.5432
  end loop
 end facet
 facet normal 0 0 -1
  outer loop
   vertex 9.96586 8.25977 -4.5432
   vertex 8.88763 10.5667 -4.5432
   vertex 9.57279 10.8717 -4.5432
  end loop
 end facet
 facet normal -0 0 -1
  outer loop
   vertex 9.96586 8.25977 -4.5432
   vertex 9.25257 8.028 -4.5432
   vertex 8.88763 10.5667 -4.5432
  end loop
 end facet
 facet normal 0 0 -1
  outer loop
   vertex 9.57279 10.8717 -4.5432
   vertex 8.42532 12.9896 -4.5432
   vertex 9.07484 13.3646 -4.5432
  end loop
 end facet
 facet normal -0 0 -1
  outer loop
   vertex 9.57279 10.8717 -4.5432
   vertex 8.88763 10.5667 -4.5432
   vertex 8.42532 12.9896 -4.5432
  end loop
 end facet
 facet normal 0 0 -1
  outer loop
   vertex 9.07484 13.3646 -4.5432
   vertex 7.8707 15.2702 -4.5432
   vertex 8.47747 15.711 -4.5432
  end loop
 end facet
 facet normal -0 0 -1
  outer loop
   vertex 9.07484 13.3646 -4.5432
   vertex 8.42532 12.9896 -4.5432
   vertex 7.8707 15.2702 -4.5432
  end loop
 end facet
 facet normal 0 0 -1
  outer loop
   vertex 8.47747 15.711 -4.5432
   vertex 7.22985 17.3835 -4.5432
   vertex 7.78721 17.8853 -4.5432
  end loop
 end facet
 facet normal -0 0 -1
  outer loop
   vertex 8.47747 15.711 -4.5432
   vertex 7.8707 15.2702 -4.5432
   vertex 7.22985 17.3835 -4.5432
  end loop
 end facet
 facet normal 0 0 -1
  outer loop
   vertex 7.78721 17.8853 -4.5432
   vertex 6.50979 19.3063 -4.5432
   vertex 7.01164 19.8636 -4.5432
  end loop
 end facet
 facet normal -0 0 -1
  outer loop
   vertex 7.78721 17.8853 -4.5432
   vertex 7.22985 17.3835 -4.5432
   vertex 6.50979 19.3063 -4.5432
  end loop
 end facet
 facet normal 0 0 -1
  outer loop
   vertex 7.01164 19.8636 -4.5432
   vertex 5.7184 21.0176 -4.5432
   vertex 6.15924 21.6244 -4.5432
  end loop
 end facet
 facet normal -0 0 -1
  outer loop
   vertex 7.01164 19.8636 -4.5432
   vertex 6.50979 19.3063 -4.5432
   vertex 5.7184 21.0176 -4.5432
  end loop
 end facet
 facet normal 0 0 -1
  outer loop
   vertex 6.15924 21.6244 -4.5432
   vertex 4.86436 22.4986 -4.5432
   vertex 5.23936 23.1481 -4.5432
  end loop
 end facet
 facet normal -0 0 -1
  outer loop
   vertex 6.15924 21.6244 -4.5432
   vertex 5.7184 21.0176 -4.5432
   vertex 4.86436 22.4986 -4.5432
  end loop
 end facet
 facet normal 0 0 -1
  outer loop
   vertex 5.23936 23.1481 -4.5432
   vertex 3.95703 23.7331 -4.5432
   vertex 4.26208 24.4183 -4.5432
  end loop
 end facet
 facet normal -0 0 -1
  outer loop
   vertex 5.23936 23.1481 -4.5432
   vertex 4.86436 22.4986 -4.5432
   vertex 3.95703 23.7331 -4.5432
  end loop
 end facet
 facet normal 0 0 -1
  outer loop
   vertex 4.26208 24.4183 -4.5432
   vertex 3.00634 24.7077 -4.5432
   vertex 3.2381 25.4209 -4.5432
  end loop
 end facet
 facet normal -0 0 -1
  outer loop
   vertex 4.26208 24.4183 -4.5432
   vertex 3.95703 23.7331 -4.5432
   vertex 3.00634 24.7077 -4.5432
  end loop
 end facet
 facet normal -0 0 -1
  outer loop
   vertex 3.2381 25.4209 -4.5432
   vertex 2.02272 25.4115 -4.5432
   vertex 2.17865 26.1451 -4.5432
  end loop
 end facet
 facet normal 0 0 -1
  outer loop
   vertex 3.2381 25.4209 -4.5432
   vertex 3.00634 24.7077 -4.5432
   vertex 2.02272 25.4115 -4.5432
  end loop
 end facet
 facet normal -0 0 -1
  outer loop
   vertex 2.17865 26.1451 -4.5432
   vertex 1.01693 25.8369 -4.5432
   vertex 1.09532 26.5827 -4.5432
  end loop
 end facet
 facet normal 0 0 -1
  outer loop
   vertex 2.17865 26.1451 -4.5432
   vertex 2.02272 25.4115 -4.5432
   vertex 1.01693 25.8369 -4.5432
  end loop
 end facet
 facet normal -0 0 -1
  outer loop
   vertex 1.09532 26.5827 -4.5432
   vertex 2.75592e-15 25.9792 -4.5432
   vertex 2.96838e-15 26.7292 -4.5432
  end loop
 end facet
 facet normal 0 0 -1
  outer loop
   vertex 1.09532 26.5827 -4.5432
   vertex 1.01693 25.8369 -4.5432
   vertex 2.75592e-15 25.9792 -4.5432
  end loop
 end facet
 facet normal 0 0 -1
  outer loop
   vertex 2.96838e-15 26.7292 -4.5432
   vertex -1.01693 25.8369 -4.5432
   vertex -1.09532 26.5827 -4.5432
  end loop
 end facet
 facet normal 0 0 -1
  outer loop
   vertex 2.96838e-15 26.7292 -4.5432
   vertex 2.75592e-15 25.9792 -4.5432
   vertex -1.01693 25.8369 -4.5432
  end loop
 end facet
 facet normal 0 0 -1
  outer loop
   vertex -1.09532 26.5827 -4.5432
   vertex -2.02272 25.4115 -4.5432
   vertex -2.17865 26.1451 -4.5432
  end loop
 end facet
 facet normal 0 -0 -1
  outer loop
   vertex -1.09532 26.5827 -4.5432
   vertex -1.01693 25.8369 -4.5432
   vertex -2.02272 25.4115 -4.5432
  end loop
 end facet
 facet normal 0 0 -1
  outer loop
   vertex -2.17865 26.1451 -4.5432
   vertex -3.00634 24.7077 -4.5432
   vertex -3.2381 25.4209 -4.5432
  end loop
 end facet
 facet normal 0 -0 -1
  outer loop
   vertex -2.17865 26.1451 -4.5432
   vertex -2.02272 25.4115 -4.5432
   vertex -3.00634 24.7077 -4.5432
  end loop
 end facet
 facet normal 0 0 -1
  outer loop
   vertex -3.2381 25.4209 -4.5432
   vertex -3.95703 23.7331 -4.5432
   vertex -4.26208 24.4183 -4.5432
  end loop
 end facet
 facet normal 0 -0 -1
  outer loop
   vertex -3.2381 25.4209 -4.5432
   vertex -3.00634 24.7077 -4.5432
   vertex -3.95703 23.7331 -4.5432
  end loop
 end facet
 facet normal 0 0 -1
  outer loop
   vertex -4.26208 24.4183 -4.5432
   vertex -4.86436 22.4986 -4.5432
   vertex -5.23936 23.1481 -4.5432
  end loop
 end facet
 facet normal 0 -0 -1
  outer loop
   vertex -4.26208 24.4183 -4.5432
   vertex -3.95703 23.7331 -4.5432
   vertex -4.86436 22.4986 -4.5432
  end loop
 end facet
 facet normal 0 0 -1
  outer loop
   vertex -5.23936 23.1481 -4.5432
   vertex -5.7184 21.0176 -4.5432
   vertex -6.15924 21.6244 -4.5432
  end loop
 end facet
 facet normal 0 -0 -1
  outer loop
   vertex -5.23936 23.1481 -4.5432
   vertex -4.86436 22.4986 -4.5432
   vertex -5.7184 21.0176 -4.5432
  end loop
 end facet
 facet normal 0 0 -1
  outer loop
   vertex -6.15924 21.6244 -4.5432
   vertex -6.50979 19.3063 -4.5432
   vertex -7.01164 19.8636 -4.5432
  end loop
 end facet
 facet normal 0 -0 -1
  outer loop
   vertex -6.15924 21.6244 -4.5432
   vertex -5.7184 21.0176 -4.5432
   vertex -6.50979 19.3063 -4.5432
  end loop
 end facet
 facet normal 0 0 -1
  outer loop
   vertex -7.01164 19.8636 -4.5432
   vertex -7.22985 17.3835 -4.5432
   vertex -7.78721 17.8853 -4.5432
  end loop
 end facet
 facet normal 0 -0 -1
  outer loop
   vertex -7.01164 19.8636 -4.5432
   vertex -6.50979 19.3063 -4.5432
   vertex -7.22985 17.3835 -4.5432
  end loop
 end facet
 facet normal 0 0 -1
  outer loop
   vertex -7.78721 17.8853 -4.5432
   vertex -7.8707 15.2702 -4.5432
   vertex -8.47747 15.711 -4.5432
  end loop
 end facet
 facet normal 0 -0 -1
  outer loop
   vertex -7.78721 17.8853 -4.5432
   vertex -7.22985 17.3835 -4.5432
   vertex -7.8707 15.2702 -4.5432
  end loop
 end facet
 facet normal 0 -0 -1
  outer loop
   vertex -8.47747 15.711 -4.5432
   vertex -8.42532 12.9896 -4.5432
   vertex -9.07484 13.3646 -4.5432
  end loop
 end facet
 facet normal 0 0 -1
  outer loop
   vertex -8.47747 15.711 -4.5432
   vertex -7.8707 15.2702 -4.5432
   vertex -8.42532 12.9896 -4.5432
  end loop
 end facet
 facet normal 0 -0 -1
  outer loop
   vertex -9.07484 13.3646 -4.5432
   vertex -8.88763 10.5667 -4.5432
   vertex -9.57279 10.8717 -4.5432
  end loop
 end facet
 facet normal 0 0 -1
  outer loop
   vertex -9.07484 13.3646 -4.5432
   vertex -8.42532 12.9896 -4.5432
   vertex -8.88763 10.5667 -4.5432
  end loop
 end facet
 facet normal 0 -0 -1
  outer loop
   vertex -9.57279 10.8717 -4.5432
   vertex -9.25257 8.028 -4.5432
   vertex -9.96586 8.25977 -4.5432
  end loop
 end facet
 facet normal 0 0 -1
  outer loop
   vertex -9.57279 10.8717 -4.5432
   vertex -8.88763 10.5667 -4.5432
   vertex -9.25257 8.028 -4.5432
  end loop
 end facet
 facet normal 0 -0 -1
  outer loop
   vertex -9.96586 8.25977 -4.5432
   vertex -9.51613 5.40137 -4.5432
   vertex -10.2497 5.55731 -4.5432
  end loop
 end facet
 facet normal 0 0 -1
  outer loop
   vertex -9.96586 8.25977 -4.5432
   vertex -9.25257 8.028 -4.5432
   vertex -9.51613 5.40137 -4.5432
  end loop
 end facet
 facet normal 0 -0 -1
  outer loop
   vertex -10.2497 5.55731 -4.5432
   vertex -9.67543 2.71556 -4.5432
   vertex -10.4213 2.79396 -4.5432
  end loop
 end facet
 facet normal 0 0 -1
  outer loop
   vertex -10.2497 5.55731 -4.5432
   vertex -9.51613 5.40137 -4.5432
   vertex -9.67543 2.71556 -4.5432
  end loop
 end facet
 facet normal 0 -0 -1
  outer loop
   vertex -10.4213 2.79396 -4.5432
   vertex -9.72872 1.47186e-14 -4.5432
   vertex -10.4787 1.51435e-14 -4.5432
  end loop
 end facet
 facet normal 0 0 -1
  outer loop
   vertex -10.4213 2.79396 -4.5432
   vertex -9.67543 2.71556 -4.5432
   vertex -9.72872 1.47186e-14 -4.5432
  end loop
 end facet
 facet normal 0 0 -1
  outer loop
   vertex -10.4787 1.51435e-14 -4.5432
   vertex -9.67543 -2.71556 -4.5432
   vertex -10.4213 -2.79396 -4.5432
  end loop
 end facet
 facet normal 0 0 -1
  outer loop
   vertex -10.4787 1.51435e-14 -4.5432
   vertex -9.72872 1.47186e-14 -4.5432
   vertex -9.67543 -2.71556 -4.5432
  end loop
 end facet
 facet normal 0 0 -1
  outer loop
   vertex -10.4213 -2.79396 -4.5432
   vertex -9.51613 -5.40137 -4.5432
   vertex -10.2497 -5.55731 -4.5432
  end loop
 end facet
 facet normal 0 0 -1
  outer loop
   vertex -10.4213 -2.79396 -4.5432
   vertex -9.67543 -2.71556 -4.5432
   vertex -9.51613 -5.40137 -4.5432
  end loop
 end facet
 facet normal 0 0 -1
  outer loop
   vertex -10.2497 -5.55731 -4.5432
   vertex -9.25257 -8.028 -4.5432
   vertex -9.96586 -8.25977 -4.5432
  end loop
 end facet
 facet normal 0 0 -1
  outer loop
   vertex -10.2497 -5.55731 -4.5432
   vertex -9.51613 -5.40137 -4.5432
   vertex -9.25257 -8.028 -4.5432
  end loop
 end facet
 facet normal 0 0 -1
  outer loop
   vertex -9.96586 -8.25977 -4.5432
   vertex -8.88763 -10.5667 -4.5432
   vertex -9.57279 -10.8717 -4.5432
  end loop
 end facet
 facet normal 0 0 -1
  outer loop
   vertex -9.96586 -8.25977 -4.5432
   vertex -9.25257 -8.028 -4.5432
   vertex -8.88763 -10.5667 -4.5432
  end loop
 end facet
 facet normal 0 0 -1
  outer loop
   vertex -9.57279 -10.8717 -4.5432
   vertex -8.42532 -12.9896 -4.5432
   vertex -9.07484 -13.3646 -4.5432
  end loop
 end facet
 facet normal 0 0 -1
  outer loop
   vertex -9.57279 -10.8717 -4.5432
   vertex -8.88763 -10.5667 -4.5432
   vertex -8.42532 -12.9896 -4.5432
  end loop
 end facet
 facet normal 0 0 -1
  outer loop
   vertex -9.07484 -13.3646 -4.5432
   vertex -7.8707 -15.2702 -4.5432
   vertex -8.47747 -15.711 -4.5432
  end loop
 end facet
 facet normal 0 0 -1
  outer loop
   vertex -9.07484 -13.3646 -4.5432
   vertex -8.42532 -12.9896 -4.5432
   vertex -7.8707 -15.2702 -4.5432
  end loop
 end facet
 facet normal 0 0 -1
  outer loop
   vertex -8.47747 -15.711 -4.5432
   vertex -7.22985 -17.3835 -4.5432
   vertex -7.78721 -17.8853 -4.5432
  end loop
 end facet
 facet normal 0 0 -1
  outer loop
   vertex -8.47747 -15.711 -4.5432
   vertex -7.8707 -15.2702 -4.5432
   vertex -7.22985 -17.3835 -4.5432
  end loop
 end facet
 facet normal 0 0 -1
  outer loop
   vertex -7.78721 -17.8853 -4.5432
   vertex -6.50979 -19.3063 -4.5432
   vertex -7.01164 -19.8636 -4.5432
  end loop
 end facet
 facet normal 0 0 -1
  outer loop
   vertex -7.78721 -17.8853 -4.5432
   vertex -7.22985 -17.3835 -4.5432
   vertex -6.50979 -19.3063 -4.5432
  end loop
 end facet
 facet normal 0 0 -1
  outer loop
   vertex -7.01164 -19.8636 -4.5432
   vertex -5.7184 -21.0176 -4.5432
   vertex -6.15924 -21.6244 -4.5432
  end loop
 end facet
 facet normal 0 0 -1
  outer loop
   vertex -7.01164 -19.8636 -4.5432
   vertex -6.50979 -19.3063 -4.5432
   vertex -5.7184 -21.0176 -4.5432
  end loop
 end facet
 facet normal 0 0 -1
  outer loop
   vertex -6.15924 -21.6244 -4.5432
   vertex -4.86436 -22.4986 -4.5432
   vertex -5.23936 -23.1481 -4.5432
  end loop
 end facet
 facet normal 0 0 -1
  outer loop
   vertex -6.15924 -21.6244 -4.5432
   vertex -5.7184 -21.0176 -4.5432
   vertex -4.86436 -22.4986 -4.5432
  end loop
 end facet
 facet normal 0 0 -1
  outer loop
   vertex -5.23936 -23.1481 -4.5432
   vertex -3.95703 -23.7331 -4.5432
   vertex -4.26208 -24.4183 -4.5432
  end loop
 end facet
 facet normal 0 0 -1
  outer loop
   vertex -5.23936 -23.1481 -4.5432
   vertex -4.86436 -22.4986 -4.5432
   vertex -3.95703 -23.7331 -4.5432
  end loop
 end facet
 facet normal 0 0 -1
  outer loop
   vertex -4.26208 -24.4183 -4.5432
   vertex -3.00634 -24.7077 -4.5432
   vertex -3.2381 -25.4209 -4.5432
  end loop
 end facet
 facet normal 0 0 -1
  outer loop
   vertex -4.26208 -24.4183 -4.5432
   vertex -3.95703 -23.7331 -4.5432
   vertex -3.00634 -24.7077 -4.5432
  end loop
 end facet
 facet normal 0 0 -1
  outer loop
   vertex -3.2381 -25.4209 -4.5432
   vertex -2.02272 -25.4115 -4.5432
   vertex -2.17865 -26.1451 -4.5432
  end loop
 end facet
 facet normal 0 0 -1
  outer loop
   vertex -3.2381 -25.4209 -4.5432
   vertex -3.00634 -24.7077 -4.5432
   vertex -2.02272 -25.4115 -4.5432
  end loop
 end facet
 facet normal 0 0 -1
  outer loop
   vertex -2.17865 -26.1451 -4.5432
   vertex -1.01693 -25.8369 -4.5432
   vertex -1.09532 -26.5827 -4.5432
  end loop
 end facet
 facet normal 0 0 -1
  outer loop
   vertex -2.17865 -26.1451 -4.5432
   vertex -2.02272 -25.4115 -4.5432
   vertex -1.01693 -25.8369 -4.5432
  end loop
 end facet
 facet normal 0 0 -1
  outer loop
   vertex -1.09532 -26.5827 -4.5432
   vertex -1.78714e-15 -25.9792 -4.5432
   vertex -1.92491e-15 -26.7292 -4.5432
  end loop
 end facet
 facet normal 0 0 -1
  outer loop
   vertex -1.09532 -26.5827 -4.5432
   vertex -1.01693 -25.8369 -4.5432
   vertex -1.78714e-15 -25.9792 -4.5432
  end loop
 end facet
 facet normal 0 0 -1
  outer loop
   vertex -1.92491e-15 -26.7292 -4.5432
   vertex 1.01693 -25.8369 -4.5432
   vertex 1.09532 -26.5827 -4.5432
  end loop
 end facet
 facet normal 0 0 -1
  outer loop
   vertex -1.92491e-15 -26.7292 -4.5432
   vertex -1.78714e-15 -25.9792 -4.5432
   vertex 1.01693 -25.8369 -4.5432
  end loop
 end facet
 facet normal 0 0 -1
  outer loop
   vertex 1.09532 -26.5827 -4.5432
   vertex 2.02272 -25.4115 -4.5432
   vertex 2.17865 -26.1451 -4.5432
  end loop
 end facet
 facet normal 0 0 -1
  outer loop
   vertex 1.09532 -26.5827 -4.5432
   vertex 1.01693 -25.8369 -4.5432
   vertex 2.02272 -25.4115 -4.5432
  end loop
 end facet
 facet normal 0 0 -1
  outer loop
   vertex 2.17865 -26.1451 -4.5432
   vertex 3.00634 -24.7077 -4.5432
   vertex 3.2381 -25.4209 -4.5432
  end loop
 end facet
 facet normal 0 0 -1
  outer loop
   vertex 2.17865 -26.1451 -4.5432
   vertex 2.02272 -25.4115 -4.5432
   vertex 3.00634 -24.7077 -4.5432
  end loop
 end facet
 facet normal 0 0 -1
  outer loop
   vertex 3.2381 -25.4209 -4.5432
   vertex 3.95703 -23.7331 -4.5432
   vertex 4.26208 -24.4183 -4.5432
  end loop
 end facet
 facet normal 0 0 -1
  outer loop
   vertex 3.2381 -25.4209 -4.5432
   vertex 3.00634 -24.7077 -4.5432
   vertex 3.95703 -23.7331 -4.5432
  end loop
 end facet
 facet normal 0 0 -1
  outer loop
   vertex 4.26208 -24.4183 -4.5432
   vertex 4.86436 -22.4986 -4.5432
   vertex 5.23936 -23.1481 -4.5432
  end loop
 end facet
 facet normal 0 0 -1
  outer loop
   vertex 4.26208 -24.4183 -4.5432
   vertex 3.95703 -23.7331 -4.5432
   vertex 4.86436 -22.4986 -4.5432
  end loop
 end facet
 facet normal 0 0 -1
  outer loop
   vertex 5.23936 -23.1481 -4.5432
   vertex 5.7184 -21.0176 -4.5432
   vertex 6.15924 -21.6244 -4.5432
  end loop
 end facet
 facet normal 0 0 -1
  outer loop
   vertex 5.23936 -23.1481 -4.5432
   vertex 4.86436 -22.4986 -4.5432
   vertex 5.7184 -21.0176 -4.5432
  end loop
 end facet
 facet normal 0 0 -1
  outer loop
   vertex 6.15924 -21.6244 -4.5432
   vertex 6.50979 -19.3063 -4.5432
   vertex 7.01164 -19.8636 -4.5432
  end loop
 end facet
 facet normal 0 0 -1
  outer loop
   vertex 6.15924 -21.6244 -4.5432
   vertex 5.7184 -21.0176 -4.5432
   vertex 6.50979 -19.3063 -4.5432
  end loop
 end facet
 facet normal 0 0 -1
  outer loop
   vertex 7.01164 -19.8636 -4.5432
   vertex 7.22985 -17.3835 -4.5432
   vertex 7.78721 -17.8853 -4.5432
  end loop
 end facet
 facet normal 0 0 -1
  outer loop
   vertex 7.01164 -19.8636 -4.5432
   vertex 6.50979 -19.3063 -4.5432
   vertex 7.22985 -17.3835 -4.5432
  end loop
 end facet
 facet normal 0 0 -1
  outer loop
   vertex 7.78721 -17.8853 -4.5432
   vertex 7.8707 -15.2702 -4.5432
   vertex 8.47747 -15.711 -4.5432
  end loop
 end facet
 facet normal 0 0 -1
  outer loop
   vertex 7.78721 -17.8853 -4.5432
   vertex 7.22985 -17.3835 -4.5432
   vertex 7.8707 -15.2702 -4.5432
  end loop
 end facet
 facet normal 0 0 -1
  outer loop
   vertex 8.47747 -15.711 -4.5432
   vertex 8.42532 -12.9896 -4.5432
   vertex 9.07484 -13.3646 -4.5432
  end loop
 end facet
 facet normal 0 0 -1
  outer loop
   vertex 8.47747 -15.711 -4.5432
   vertex 7.8707 -15.2702 -4.5432
   vertex 8.42532 -12.9896 -4.5432
  end loop
 end facet
 facet normal 0 0 -1
  outer loop
   vertex 9.07484 -13.3646 -4.5432
   vertex 8.88763 -10.5667 -4.5432
   vertex 9.57279 -10.8717 -4.5432
  end loop
 end facet
 facet normal 0 0 -1
  outer loop
   vertex 9.07484 -13.3646 -4.5432
   vertex 8.42532 -12.9896 -4.5432
   vertex 8.88763 -10.5667 -4.5432
  end loop
 end facet
 facet normal 0 0 -1
  outer loop
   vertex 9.57279 -10.8717 -4.5432
   vertex 9.25257 -8.028 -4.5432
   vertex 9.96586 -8.25977 -4.5432
  end loop
 end facet
 facet normal 0 0 -1
  outer loop
   vertex 9.57279 -10.8717 -4.5432
   vertex 8.88763 -10.5667 -4.5432
   vertex 9.25257 -8.028 -4.5432
  end loop
 end facet
 facet normal 0 0 -1
  outer loop
   vertex 9.96586 -8.25977 -4.5432
   vertex 9.51613 -5.40137 -4.5432
   vertex 10.2497 -5.55731 -4.5432
  end loop
 end facet
 facet normal 0 0 -1
  outer loop
   vertex 9.96586 -8.25977 -4.5432
   vertex 9.25257 -8.028 -4.5432
   vertex 9.51613 -5.40137 -4.5432
  end loop
 end facet
 facet normal 0 0 -1
  outer loop
   vertex 10.2497 -5.55731 -4.5432
   vertex 9.67543 -2.71556 -4.5432
   vertex 10.4213 -2.79396 -4.5432
  end loop
 end facet
 facet normal 0 0 -1
  outer loop
   vertex 10.2497 -5.55731 -4.5432
   vertex 9.51613 -5.40137 -4.5432
   vertex 9.67543 -2.71556 -4.5432
  end loop
 end facet
 facet normal 0 0 -1
  outer loop
   vertex 10.4213 -2.79396 -4.5432
   vertex 9.72872 0 -4.5432
   vertex 10.4787 0 -4.5432
  end loop
 end facet
 facet normal 0 0 -1
  outer loop
   vertex 10.4213 -2.79396 -4.5432
   vertex 9.67543 -2.71556 -4.5432
   vertex 9.72872 0 -4.5432
  end loop
 end facet
 facet normal 0 0 1
  outer loop
   vertex 10.4787 0 3.8176
   vertex 10.4213 2.79396 3.8176
   vertex 9.67543 2.71556 3.8176
  end loop
 end facet
 facet normal 0 0 1
  outer loop
   vertex 10.4787 0 3.8176
   vertex 9.67543 2.71556 3.8176
   vertex 9.72872 0 3.8176
  end loop
 end facet
 facet normal 0 0 1
  outer loop
   vertex 10.4213 2.79396 3.8176
   vertex 10.2497 5.55731 3.8176
   vertex 9.51613 5.40137 3.8176
  end loop
 end facet
 facet normal 0 0 1
  outer loop
   vertex 10.4213 2.79396 3.8176
   vertex 9.51613 5.40137 3.8176
   vertex 9.67543 2.71556 3.8176
  end loop
 end facet
 facet normal 0 0 1
  outer loop
   vertex 10.2497 5.55731 3.8176
   vertex 9.96586 8.25977 3.8176
   vertex 9.25257 8.028 3.8176
  end loop
 end facet
 facet normal 0 0 1
  outer loop
   vertex 10.2497 5.55731 3.8176
   vertex 9.25257 8.028 3.8176
   vertex 9.51613 5.40137 3.8176
  end loop
 end facet
 facet normal 0 0 1
  outer loop
   vertex 9.96586 8.25977 3.8176
   vertex 9.57279 10.8717 3.8176
   vertex 8.88763 10.5667 3.8176
  end loop
 end facet
 facet normal 0 0 1
  outer loop
   vertex 9.96586 8.25977 3.8176
   vertex 8.88763 10.5667 3.8176
   vertex 9.25257 8.028 3.8176
  end loop
 end facet
 facet normal 0 0 1
  outer loop
   vertex 9.57279 10.8717 3.8176
   vertex 9.07484 13.3646 3.8176
   vertex 8.42532 12.9896 3.8176
  end loop
 end facet
 facet normal 0 0 1
  outer loop
   vertex 9.57279 10.8717 3.8176
   vertex 8.42532 12.9896 3.8176
   vertex 8.88763 10.5667 3.8176
  end loop
 end facet
 facet normal 0 0 1
  outer loop
   vertex 9.07484 13.3646 3.8176
   vertex 8.47747 15.711 3.8176
   vertex 7.8707 15.2702 3.8176
  end loop
 end facet
 facet normal 0 0 1
  outer loop
   vertex 9.07484 13.3646 3.8176
   vertex 7.8707 15.2702 3.8176
   vertex 8.42532 12.9896 3.8176
  end loop
 end facet
 facet normal 0 0 1
  outer loop
   vertex 8.47747 15.711 3.8176
   vertex 7.78721 17.8853 3.8176
   vertex 7.22985 17.3835 3.8176
  end loop
 end facet
 facet normal 0 0 1
  outer loop
   vertex 8.47747 15.711 3.8176
   vertex 7.22985 17.3835 3.8176
   vertex 7.8707 15.2702 3.8176
  end loop
 end facet
 facet normal 0 0 1
  outer loop
   vertex 7.78721 17.8853 3.8176
   vertex 7.01164 19.8636 3.8176
   vertex 6.50979 19.3063 3.8176
  end loop
 end facet
 facet normal 0 0 1
  outer loop
   vertex 7.78721 17.8853 3.8176
   vertex 6.50979 19.3063 3.8176
   vertex 7.22985 17.3835 3.8176
  end loop
 end facet
 facet normal 0 0 1
  outer loop
   vertex 7.01164 19.8636 3.8176
   vertex 6.15924 21.6244 3.8176
   vertex 5.7184 21.0176 3.8176
  end loop
 end facet
 facet normal 0 0 1
  outer loop
   vertex 7.01164 19.8636 3.8176
   vertex 5.7184 21.0176 3.8176
   vertex 6.50979 19.3063 3.8176
  end loop
 end facet
 facet normal 0 0 1
  outer loop
   vertex 6.15924 21.6244 3.8176
   vertex 5.23936 23.1481 3.8176
   vertex 4.86436 22.4986 3.8176
  end loop
 end facet
 facet normal 0 0 1
  outer loop
   vertex 6.15924 21.6244 3.8176
   vertex 4.86436 22.4986 3.8176
   vertex 5.7184 21.0176 3.8176
  end loop
 end facet
 facet normal 0 0 1
  outer loop
   vertex 5.23936 23.1481 3.8176
   vertex 4.26208 24.4183 3.8176
   vertex 3.95703 23.7331 3.8176
  end loop
 end facet
 facet normal 0 0 1
  outer loop
   vertex 5.23936 23.1481 3.8176
   vertex 3.95703 23.7331 3.8176
   vertex 4.86436 22.4986 3.8176
  end loop
 end facet
 facet normal 0 0 1
  outer loop
   vertex 4.26208 24.4183 3.8176
   vertex 3.2381 25.4209 3.8176
   vertex 3.00634 24.7077 3.8176
  end loop
 end facet
 facet normal 0 0 1
  outer loop
   vertex 4.26208 24.4183 3.8176
   vertex 3.00634 24.7077 3.8176
   vertex 3.95703 23.7331 3.8176
  end loop
 end facet
 facet normal 0 0 1
  outer loop
   vertex 3.2381 25.4209 3.8176
   vertex 2.17865 26.1451 3.8176
   vertex 2.02272 25.4115 3.8176
  end loop
 end facet
 facet normal 0 0 1
  outer loop
   vertex 3.2381 25.4209 3.8176
   vertex 2.02272 25.4115 3.8176
   vertex 3.00634 24.7077 3.8176
  end loop
 end facet
 facet normal 0 0 1
  outer loop
   vertex 2.17865 26.1451 3.8176
   vertex 1.09532 26.5827 3.8176
   vertex 1.01693 25.8369 3.8176
  end loop
 end facet
 facet normal 0 0 1
  outer loop
   vertex 2.17865 26.1451 3.8176
   vertex 1.01693 25.8369 3.8176
   vertex 2.02272 25.4115 3.8176
  end loop
 end facet
 facet normal 0 0 1
  outer loop
   vertex 1.09532 26.5827 3.8176
   vertex 2.96838e-15 26.7292 3.8176
   vertex 2.75592e-15 25.9792 3.8176
  end loop
 end facet
 facet normal 0 0 1
  outer loop
   vertex 1.09532 26.5827 3.8176
   vertex 2.75592e-15 25.9792 3.8176
   vertex 1.01693 25.8369 3.8176
  end loop
 end facet
 facet normal 0 0 1
  outer loop
   vertex 2.96838e-15 26.7292 3.8176
   vertex -1.09532 26.5827 3.8176
   vertex -1.01693 25.8369 3.8176
  end loop
 end facet
 facet normal 0 0 1
  outer loop
   vertex 2.96838e-15 26.7292 3.8176
   vertex -1.01693 25.8369 3.8176
   vertex 2.75592e-15 25.9792 3.8176
  end loop
 end facet
 facet normal 0 0 1
  outer loop
   vertex -1.09532 26.5827 3.8176
   vertex -2.17865 26.1451 3.8176
   vertex -2.02272 25.4115 3.8176
  end loop
 end facet
 facet normal 0 0 1
  outer loop
   vertex -1.09532 26.5827 3.8176
   vertex -2.02272 25.4115 3.8176
   vertex -1.01693 25.8369 3.8176
  end loop
 end facet
 facet normal 0 0 1
  outer loop
   vertex -2.17865 26.1451 3.8176
   vertex -3.2381 25.4209 3.8176
   vertex -3.00634 24.7077 3.8176
  end loop
 end facet
 facet normal 0 0 1
  outer loop
   vertex -2.17865 26.1451 3.8176
   vertex -3.00634 24.7077 3.8176
   vertex -2.02272 25.4115 3.8176
  end loop
 end facet
 facet normal 0 0 1
  outer loop
   vertex -3.2381 25.4209 3.8176
   vertex -4.26208 24.4183 3.8176
   vertex -3.95703 23.7331 3.8176
  end loop
 end facet
 facet normal 0 0 1
  outer loop
   vertex -3.2381 25.4209 3.8176
   vertex -3.95703 23.7331 3.8176
   vertex -3.00634 24.7077 3.8176
  end loop
 end facet
 facet normal 0 0 1
  outer loop
   vertex -4.26208 24.4183 3.8176
   vertex -5.23936 23.1481 3.8176
   vertex -4.86436 22.4986 3.8176
  end loop
 end facet
 facet normal 0 0 1
  outer loop
   vertex -4.26208 24.4183 3.8176
   vertex -4.86436 22.4986 3.8176
   vertex -3.95703 23.7331 3.8176
  end loop
 end facet
 facet normal 0 0 1
  outer loop
   vertex -5.23936 23.1481 3.8176
   vertex -6.15924 21.6244 3.8176
   vertex -5.7184 21.0176 3.8176
  end loop
 end facet
 facet normal 0 0 1
  outer loop
   vertex -5.23936 23.1481 3.8176
   vertex -5.7184 21.0176 3.8176
   vertex -4.86436 22.4986 3.8176
  end loop
 end facet
 facet normal 0 0 1
  outer loop
   vertex -6.15924 21.6244 3.8176
   vertex -7.01164 19.8636 3.8176
   vertex -6.50979 19.3063 3.8176
  end loop
 end facet
 facet normal 0 0 1
  outer loop
   vertex -6.15924 21.6244 3.8176
   vertex -6.50979 19.3063 3.8176
   vertex -5.7184 21.0176 3.8176
  end loop
 end facet
 facet normal 0 0 1
  outer loop
   vertex -7.01164 19.8636 3.8176
   vertex -7.78721 17.8853 3.8176
   vertex -7.22985 17.3835 3.8176
  end loop
 end facet
 facet normal 0 0 1
  outer loop
   vertex -7.01164 19.8636 3.8176
   vertex -7.22985 17.3835 3.8176
   vertex -6.50979 19.3063 3.8176
  end loop
 end facet
 facet normal 0 0 1
  outer loop
   vertex -7.78721 17.8853 3.8176
   vertex -8.47747 15.711 3.8176
   vertex -7.8707 15.2702 3.8176
  end loop
 end facet
 facet normal 0 0 1
  outer loop
   vertex -7.78721 17.8853 3.8176
   vertex -7.8707 15.2702 3.8176
   vertex -7.22985 17.3835 3.8176
  end loop
 end facet
 facet normal 0 0 1
  outer loop
   vertex -8.47747 15.711 3.8176
   vertex -9.07484 13.3646 3.8176
   vertex -8.42532 12.9896 3.8176
  end loop
 end facet
 facet normal 0 0 1
  outer loop
   vertex -8.47747 15.711 3.8176
   vertex -8.42532 12.9896 3.8176
   vertex -7.8707 15.2702 3.8176
  end loop
 end facet
 facet normal 0 0 1
  outer loop
   vertex -9.07484 13.3646 3.8176
   vertex -9.57279 10.8717 3.8176
   vertex -8.88763 10.5667 3.8176
  end loop
 end facet
 facet normal 0 0 1
  outer loop
   vertex -9.07484 13.3646 3.8176
   vertex -8.88763 10.5667 3.8176
   vertex -8.42532 12.9896 3.8176
  end loop
 end facet
 facet normal 0 0 1
  outer loop
   vertex -9.57279 10.8717 3.8176
   vertex -9.96586 8.25977 3.8176
   vertex -9.25257 8.028 3.8176
  end loop
 end facet
 facet normal 0 0 1
  outer loop
   vertex -9.57279 10.8717 3.8176
   vertex -9.25257 8.028 3.8176
   vertex -8.88763 10.5667 3.8176
  end loop
 end facet
 facet normal 0 0 1
  outer loop
   vertex -9.96586 8.25977 3.8176
   vertex -10.2497 5.55731 3.8176
   vertex -9.51613 5.40137 3.8176
  end loop
 end facet
 facet normal 0 0 1
  outer loop
   vertex -9.96586 8.25977 3.8176
   vertex -9.51613 5.40137 3.8176
   vertex -9.25257 8.028 3.8176
  end loop
 end facet
 facet normal 0 0 1
  outer loop
   vertex -10.2497 5.55731 3.8176
   vertex -10.4213 2.79396 3.8176
   vertex -9.67543 2.71556 3.8176
  end loop
 end facet
 facet normal 0 0 1
  outer loop
   vertex -10.2497 5.55731 3.8176
   vertex -9.67543 2.71556 3.8176
   vertex -9.51613 5.40137 3.8176
  end loop
 end facet
 facet normal 0 0 1
  outer loop
   vertex -10.4213 2.79396 3.8176
   vertex -10.4787 1.51435e-14 3.8176
   vertex -9.72872 1.47186e-14 3.8176
  end loop
 end facet
 facet normal 0 0 1
  outer loop
   vertex -10.4213 2.79396 3.8176
   vertex -9.72872 1.47186e-14 3.8176
   vertex -9.67543 2.71556 3.8176
  end loop
 end facet
 facet normal 0 0 1
  outer loop
   vertex -10.4787 1.51435e-14 3.8176
   vertex -10.4213 -2.79396 3.8176
   vertex -9.67543 -2.71556 3.8176
  end loop
 end facet
 facet normal 0 0 1
  outer loop
   vertex -10.4787 1.51435e-14 3.8176
   vertex -9.67543 -2.71556 3.8176
   vertex -9.72872 1.47186e-14 3.8176
  end loop
 end facet
 facet normal 0 0 1
  outer loop
   vertex -10.4213 -2.79396 3.8176
   vertex -10.2497 -5.55731 3.8176
   vertex -9.51613 -5.40137 3.8176
  end loop
 end facet
 facet normal -0 0 1
  outer loop
   vertex -10.4213 -2.79396 3.8176
   vertex -9.51613 -5.40137 3.8176
   vertex -9.67543 -2.71556 3.8176
  end loop
 end facet
 facet normal 0 0 1
  outer loop
   vertex -10.2497 -5.55731 3.8176
   vertex -9.96586 -8.25977 3.8176
   vertex -9.25257 -8.028 3.8176
  end loop
 end facet
 facet normal -0 0 1
  outer loop
   vertex -10.2497 -5.55731 3.8176
   vertex -9.25257 -8.028 3.8176
   vertex -9.51613 -5.40137 3.8176
  end loop
 end facet
 facet normal 0 0 1
  outer loop
   vertex -9.96586 -8.25977 3.8176
   vertex -9.57279 -10.8717 3.8176
   vertex -8.88763 -10.5667 3.8176
  end loop
 end facet
 facet normal -0 0 1
  outer loop
   vertex -9.96586 -8.25977 3.8176
   vertex -8.88763 -10.5667 3.8176
   vertex -9.25257 -8.028 3.8176
  end loop
 end facet
 facet normal 0 0 1
  outer loop
   vertex -9.57279 -10.8717 3.8176
   vertex -9.07484 -13.3646 3.8176
   vertex -8.42532 -12.9896 3.8176
  end loop
 end facet
 facet normal -0 0 1
  outer loop
   vertex -9.57279 -10.8717 3.8176
   vertex -8.42532 -12.9896 3.8176
   vertex -8.88763 -10.5667 3.8176
  end loop
 end facet
 facet normal 0 0 1
  outer loop
   vertex -9.07484 -13.3646 3.8176
   vertex -8.47747 -15.711 3.8176
   vertex -7.8707 -15.2702 3.8176
  end loop
 end facet
 facet normal -0 0 1
  outer loop
   vertex -9.07484 -13.3646 3.8176
   vertex -7.8707 -15.2702 3.8176
   vertex -8.42532 -12.9896 3.8176
  end loop
 end facet
 facet normal 0 0 1
  outer loop
   vertex -8.47747 -15.711 3.8176
   vertex -7.78721 -17.8853 3.8176
   vertex -7.22985 -17.3835 3.8176
  end loop
 end facet
 facet normal -0 0 1
  outer loop
   vertex -8.47747 -15.711 3.8176
   vertex -7.22985 -17.3835 3.8176
   vertex -7.8707 -15.2702 3.8176
  end loop
 end facet
 facet normal 0 0 1
  outer loop
   vertex -7.78721 -17.8853 3.8176
   vertex -7.01164 -19.8636 3.8176
   vertex -6.50979 -19.3063 3.8176
  end loop
 end facet
 facet normal -0 0 1
  outer loop
   vertex -7.78721 -17.8853 3.8176
   vertex -6.50979 -19.3063 3.8176
   vertex -7.22985 -17.3835 3.8176
  end loop
 end facet
 facet normal 0 0 1
  outer loop
   vertex -7.01164 -19.8636 3.8176
   vertex -6.15924 -21.6244 3.8176
   vertex -5.7184 -21.0176 3.8176
  end loop
 end facet
 facet normal -0 0 1
  outer loop
   vertex -7.01164 -19.8636 3.8176
   vertex -5.7184 -21.0176 3.8176
   vertex -6.50979 -19.3063 3.8176
  end loop
 end facet
 facet normal 0 0 1
  outer loop
   vertex -6.15924 -21.6244 3.8176
   vertex -5.23936 -23.1481 3.8176
   vertex -4.86436 -22.4986 3.8176
  end loop
 end facet
 facet normal -0 0 1
  outer loop
   vertex -6.15924 -21.6244 3.8176
   vertex -4.86436 -22.4986 3.8176
   vertex -5.7184 -21.0176 3.8176
  end loop
 end facet
 facet normal 0 0 1
  outer loop
   vertex -5.23936 -23.1481 3.8176
   vertex -4.26208 -24.4183 3.8176
   vertex -3.95703 -23.7331 3.8176
  end loop
 end facet
 facet normal -0 0 1
  outer loop
   vertex -5.23936 -23.1481 3.8176
   vertex -3.95703 -23.7331 3.8176
   vertex -4.86436 -22.4986 3.8176
  end loop
 end facet
 facet normal 0 0 1
  outer loop
   vertex -4.26208 -24.4183 3.8176
   vertex -3.2381 -25.4209 3.8176
   vertex -3.00634 -24.7077 3.8176
  end loop
 end facet
 facet normal -0 0 1
  outer loop
   vertex -4.26208 -24.4183 3.8176
   vertex -3.00634 -24.7077 3.8176
   vertex -3.95703 -23.7331 3.8176
  end loop
 end facet
 facet normal -0 0 1
  outer loop
   vertex -3.2381 -25.4209 3.8176
   vertex -2.17865 -26.1451 3.8176
   vertex -2.02272 -25.4115 3.8176
  end loop
 end facet
 facet normal 0 0 1
  outer loop
   vertex -3.2381 -25.4209 3.8176
   vertex -2.02272 -25.4115 3.8176
   vertex -3.00634 -24.7077 3.8176
  end loop
 end facet
 facet normal -0 0 1
  outer loop
   vertex -2.17865 -26.1451 3.8176
   vertex -1.09532 -26.5827 3.8176
   vertex -1.01693 -25.8369 3.8176
  end loop
 end facet
 facet normal 0 0 1
  outer loop
   vertex -2.17865 -26.1451 3.8176
   vertex -1.01693 -25.8369 3.8176
   vertex -2.02272 -25.4115 3.8176
  end loop
 end facet
 facet normal -0 0 1
  outer loop
   vertex -1.09532 -26.5827 3.8176
   vertex -1.92491e-15 -26.7292 3.8176
   vertex -1.78714e-15 -25.9792 3.8176
  end loop
 end facet
 facet normal 0 0 1
  outer loop
   vertex -1.09532 -26.5827 3.8176
   vertex -1.78714e-15 -25.9792 3.8176
   vertex -1.01693 -25.8369 3.8176
  end loop
 end facet
 facet normal 0 0 1
  outer loop
   vertex -1.92491e-15 -26.7292 3.8176
   vertex 1.09532 -26.5827 3.8176
   vertex 1.01693 -25.8369 3.8176
  end loop
 end facet
 facet normal 0 0 1
  outer loop
   vertex -1.92491e-15 -26.7292 3.8176
   vertex 1.01693 -25.8369 3.8176
   vertex -1.78714e-15 -25.9792 3.8176
  end loop
 end facet
 facet normal 0 0 1
  outer loop
   vertex 1.09532 -26.5827 3.8176
   vertex 2.17865 -26.1451 3.8176
   vertex 2.02272 -25.4115 3.8176
  end loop
 end facet
 facet normal 0 -0 1
  outer loop
   vertex 1.09532 -26.5827 3.8176
   vertex 2.02272 -25.4115 3.8176
   vertex 1.01693 -25.8369 3.8176
  end loop
 end facet
 facet normal 0 0 1
  outer loop
   vertex 2.17865 -26.1451 3.8176
   vertex 3.2381 -25.4209 3.8176
   vertex 3.00634 -24.7077 3.8176
  end loop
 end facet
 facet normal 0 -0 1
  outer loop
   vertex 2.17865 -26.1451 3.8176
   vertex 3.00634 -24.7077 3.8176
   vertex 2.02272 -25.4115 3.8176
  end loop
 end facet
 facet normal 0 0 1
  outer loop
   vertex 3.2381 -25.4209 3.8176
   vertex 4.26208 -24.4183 3.8176
   vertex 3.95703 -23.7331 3.8176
  end loop
 end facet
 facet normal 0 -0 1
  outer loop
   vertex 3.2381 -25.4209 3.8176
   vertex 3.95703 -23.7331 3.8176
   vertex 3.00634 -24.7077 3.8176
  end loop
 end facet
 facet normal 0 0 1
  outer loop
   vertex 4.26208 -24.4183 3.8176
   vertex 5.23936 -23.1481 3.8176
   vertex 4.86436 -22.4986 3.8176
  end loop
 end facet
 facet normal 0 -0 1
  outer loop
   vertex 4.26208 -24.4183 3.8176
   vertex 4.86436 -22.4986 3.8176
   vertex 3.95703 -23.7331 3.8176
  end loop
 end facet
 facet normal 0 0 1
  outer loop
   vertex 5.23936 -23.1481 3.8176
   vertex 6.15924 -21.6244 3.8176
   vertex 5.7184 -21.0176 3.8176
  end loop
 end facet
 facet normal 0 -0 1
  outer loop
   vertex 5.23936 -23.1481 3.8176
   vertex 5.7184 -21.0176 3.8176
   vertex 4.86436 -22.4986 3.8176
  end loop
 end facet
 facet normal 0 0 1
  outer loop
   vertex 6.15924 -21.6244 3.8176
   vertex 7.01164 -19.8636 3.8176
   vertex 6.50979 -19.3063 3.8176
  end loop
 end facet
 facet normal 0 -0 1
  outer loop
   vertex 6.15924 -21.6244 3.8176
   vertex 6.50979 -19.3063 3.8176
   vertex 5.7184 -21.0176 3.8176
  end loop
 end facet
 facet normal 0 0 1
  outer loop
   vertex 7.01164 -19.8636 3.8176
   vertex 7.78721 -17.8853 3.8176
   vertex 7.22985 -17.3835 3.8176
  end loop
 end facet
 facet normal 0 -0 1
  outer loop
   vertex 7.01164 -19.8636 3.8176
   vertex 7.22985 -17.3835 3.8176
   vertex 6.50979 -19.3063 3.8176
  end loop
 end facet
 facet normal 0 0 1
  outer loop
   vertex 7.78721 -17.8853 3.8176
   vertex 8.47747 -15.711 3.8176
   vertex 7.8707 -15.2702 3.8176
  end loop
 end facet
 facet normal 0 -0 1
  outer loop
   vertex 7.78721 -17.8853 3.8176
   vertex 7.8707 -15.2702 3.8176
   vertex 7.22985 -17.3835 3.8176
  end loop
 end facet
 facet normal 0 -0 1
  outer loop
   vertex 8.47747 -15.711 3.8176
   vertex 9.07484 -13.3646 3.8176
   vertex 8.42532 -12.9896 3.8176
  end loop
 end facet
 facet normal 0 0 1
  outer loop
   vertex 8.47747 -15.711 3.8176
   vertex 8.42532 -12.9896 3.8176
   vertex 7.8707 -15.2702 3.8176
  end loop
 end facet
 facet normal 0 -0 1
  outer loop
   vertex 9.07484 -13.3646 3.8176
   vertex 9.57279 -10.8717 3.8176
   vertex 8.88763 -10.5667 3.8176
  end loop
 end facet
 facet normal 0 0 1
  outer loop
   vertex 9.07484 -13.3646 3.8176
   vertex 8.88763 -10.5667 3.8176
   vertex 8.42532 -12.9896 3.8176
  end loop
 end facet
 facet normal 0 -0 1
  outer loop
   vertex 9.57279 -10.8717 3.8176
   vertex 9.96586 -8.25977 3.8176
   vertex 9.25257 -8.028 3.8176
  end loop
 end facet
 facet normal 0 0 1
  outer loop
   vertex 9.57279 -10.8717 3.8176
   vertex 9.25257 -8.028 3.8176
   vertex 8.88763 -10.5667 3.8176
  end loop
 end facet
 facet normal 0 -0 1
  outer loop
   vertex 9.96586 -8.25977 3.8176
   vertex 10.2497 -5.55731 3.8176
   vertex 9.51613 -5.40137 3.8176
  end loop
 end facet
 facet normal 0 0 1
  outer loop
   vertex 9.96586 -8.25977 3.8176
   vertex 9.51613 -5.40137 3.8176
   vertex 9.25257 -8.028 3.8176
  end loop
 end facet
 facet normal 0 -0 1
  outer loop
   vertex 10.2497 -5.55731 3.8176
   vertex 10.4213 -2.79396 3.8176
   vertex 9.67543 -2.71556 3.8176
  end loop
 end facet
 facet normal 0 0 1
  outer loop
   vertex 10.2497 -5.55731 3.8176
   vertex 9.67543 -2.71556 3.8176
   vertex 9.51613 -5.40137 3.8176
  end loop
 end facet
 facet normal 0 -0 1
  outer loop
   vertex 10.4213 -2.79396 3.8176
   vertex 10.4787 0 3.8176
   vertex 9.72872 0 3.8176
  end loop
 end facet
 facet normal 0 0 1
  outer loop
   vertex 10.4213 -2.79396 3.8176
   vertex 9.72872 0 3.8176
   vertex 9.67543 -2.71556 3.8176
  end loop
 end facet
endsolid
