solid fish
 facet normal 0.99975 0.0223691 0
  outer loop
   vertex 10.7534 0 -26.577
   vertex 10.6945 2.63281 -26.577
   vertex 10.6945 2.63281 -20
  end loop
 end facet
 facet normal 0.99975 0.0223691 -0
  outer loop
   vertex 10.7534 0 -26.577
   vertex 10.6945 2.63281 -20
   vertex 10.7534 0 -20
  end loop
 end facet
 facet normal 0.997722 0.0674659 0
  outer loop
   vertex 10.6945 2.63281 -26.577
   vertex 10.5184 5.23678 -26.577
   vertex 10.5184 5.23678 -20
  end loop
 end facet
 facet normal 0.997722 0.0674659 -0
  outer loop
   vertex 10.6945 2.63281 -26.577
   vertex 10.5184 5.23678 -20
   vertex 10.6945 2.63281 -20
  end loop
 end facet
 facet normal 0.99352 0.113656 0
  outer loop
   vertex 10.5184 5.23678 -26.577
   vertex 10.2271 7.78337 -26.577
   vertex 10.2271 7.78337 -20
  end loop
 end facet
 facet normal 0.99352 0.113656 -0
  outer loop
   vertex 10.5184 5.23678 -26.577
   vertex 10.2271 7.78337 -20
   vertex 10.5184 5.23678 -20
  end loop
 end facet
 facet normal 0.986835 0.161728 0
  outer loop
   vertex 10.2271 7.78337 -26.577
   vertex 9.82375 10.2447 -26.577
   vertex 9.82375 10.2447 -20
  end loop
 end facet
 facet normal 0.986835 0.161728 -0
  outer loop
   vertex 10.2271 7.78337 -26.577
   vertex 9.82375 10.2447 -20
   vertex 10.2271 7.78337 -20
  end loop
 end facet
 facet normal 0.977147 0.212563 0
  outer loop
   vertex 9.82375 10.2447 -26.577
   vertex 9.31275 12.5937 -26.577
   vertex 9.31275 12.5937 -20
  end loop
 end facet
 facet normal 0.977147 0.212563 -0
  outer loop
   vertex 9.82375 10.2447 -26.577
   vertex 9.31275 12.5937 -20
   vertex 9.82375 10.2447 -20
  end loop
 end facet
 facet normal 0.963648 0.267176 0
  outer loop
   vertex 9.31275 12.5937 -26.577
   vertex 8.69971 14.8048 -26.577
   vertex 8.69971 14.8048 -20
  end loop
 end facet
 facet normal 0.963648 0.267176 -0
  outer loop
   vertex 9.31275 12.5937 -26.577
   vertex 8.69971 14.8048 -20
   vertex 9.31275 12.5937 -20
  end loop
 end facet
 facet normal 0.945111 0.326749 0
  outer loop
   vertex 8.69971 14.8048 -26.577
   vertex 7.99136 16.8537 -26.577
   vertex 7.99136 16.8537 -20
  end loop
 end facet
 facet normal 0.945111 0.326749 -0
  outer loop
   vertex 8.69971 14.8048 -26.577
   vertex 7.99136 16.8537 -20
   vertex 8.69971 14.8048 -20
  end loop
 end facet
 facet normal 0.919689 0.392648 0
  outer loop
   vertex 7.99136 16.8537 -26.577
   vertex 7.19545 18.718 -26.577
   vertex 7.19545 18.718 -20
  end loop
 end facet
 facet normal 0.919689 0.392648 -0
  outer loop
   vertex 7.99136 16.8537 -26.577
   vertex 7.19545 18.718 -20
   vertex 7.99136 16.8537 -20
  end loop
 end facet
 facet normal 0.884588 0.466374 0
  outer loop
   vertex 7.19545 18.718 -26.577
   vertex 6.32071 20.3771 -26.577
   vertex 6.32071 20.3771 -20
  end loop
 end facet
 facet normal 0.884588 0.466374 -0
  outer loop
   vertex 7.19545 18.718 -26.577
   vertex 6.32071 20.3771 -20
   vertex 7.19545 18.718 -20
  end loop
 end facet
 facet normal 0.835598 0.549341 0
  outer loop
   vertex 6.32071 20.3771 -26.577
   vertex 5.37672 21.813 -26.577
   vertex 5.37672 21.813 -20
  end loop
 end facet
 facet normal 0.835598 0.549341 -0
  outer loop
   vertex 6.32071 20.3771 -26.577
   vertex 5.37672 21.813 -20
   vertex 6.32071 20.3771 -20
  end loop
 end facet
 facet normal 0.766494 0.642251 0
  outer loop
   vertex 5.37672 21.813 -26.577
   vertex 4.37382 23.0099 -26.577
   vertex 4.37382 23.0099 -20
  end loop
 end facet
 facet normal 0.766494 0.642251 -0
  outer loop
   vertex 5.37672 21.813 -26.577
   vertex 4.37382 23.0099 -20
   vertex 5.37672 21.813 -20
  end loop
 end facet
 facet normal 0.668601 0.743621 0
  outer loop
   vertex 4.37382 23.0099 -26.577
   vertex 3.32299 23.9547 -26.577
   vertex 3.32299 23.9547 -20
  end loop
 end facet
 facet normal 0.668601 0.743621 -0
  outer loop
   vertex 4.37382 23.0099 -26.577
   vertex 3.32299 23.9547 -20
   vertex 4.37382 23.0099 -20
  end loop
 end facet
 facet normal 0.531588 0.847003 0
  outer loop
   vertex 3.32299 23.9547 -26.577
   vertex 2.23576 24.6371 -26.577
   vertex 2.23576 24.6371 -20
  end loop
 end facet
 facet normal 0.531588 0.847003 -0
  outer loop
   vertex 3.32299 23.9547 -26.577
   vertex 2.23576 24.6371 -20
   vertex 3.32299 23.9547 -20
  end loop
 end facet
 facet normal 0.347817 0.937563 0
  outer loop
   vertex 2.23576 24.6371 -26.577
   vertex 1.12404 25.0495 -26.577
   vertex 1.12404 25.0495 -20
  end loop
 end facet
 facet normal 0.347817 0.937563 -0
  outer loop
   vertex 2.23576 24.6371 -26.577
   vertex 1.12404 25.0495 -20
   vertex 2.23576 24.6371 -20
  end loop
 end facet
 facet normal 0.121839 0.99255 0
  outer loop
   vertex 1.12404 25.0495 -26.577
   vertex 3.0462e-15 25.1875 -26.577
   vertex 3.0462e-15 25.1875 -20
  end loop
 end facet
 facet normal 0.121839 0.99255 -0
  outer loop
   vertex 1.12404 25.0495 -26.577
   vertex 3.0462e-15 25.1875 -20
   vertex 1.12404 25.0495 -20
  end loop
 end facet
 facet normal -0.121839 0.99255 0
  outer loop
   vertex 3.0462e-15 25.1875 -26.577
   vertex -1.12404 25.0495 -26.577
   vertex -1.12404 25.0495 -20
  end loop
 end facet
 facet normal -0.121839 0.99255 0
  outer loop
   vertex 3.0462e-15 25.1875 -26.577
   vertex -1.12404 25.0495 -20
   vertex 3.0462e-15 25.1875 -20
  end loop
 end facet
 facet normal -0.347817 0.937563 0
  outer loop
   vertex -1.12404 25.0495 -26.577
   vertex -2.23576 24.6371 -26.577
   vertex -2.23576 24.6371 -20
  end loop
 end facet
 facet normal -0.347817 0.937563 0
  outer loop
   vertex -1.12404 25.0495 -26.577
   vertex -2.23576 24.6371 -20
   vertex -1.12404 25.0495 -20
  end loop
 end facet
 facet normal -0.531588 0.847003 0
  outer loop
   vertex -2.23576 24.6371 -26.577
   vertex -3.32299 23.9547 -26.577
   vertex -3.32299 23.9547 -20
  end loop
 end facet
 facet normal -0.531588 0.847003 0
  outer loop
   vertex -2.23576 24.6371 -26.577
   vertex -3.32299 23.9547 -20
   vertex -2.23576 24.6371 -20
  end loop
 end facet
 facet normal -0.668601 0.743621 0
  outer loop
   vertex -3.32299 23.9547 -26.577
   vertex -4.37382 23.0099 -26.577
   vertex -4.37382 23.0099 -20
  end loop
 end facet
 facet normal -0.668601 0.743621 0
  outer loop
   vertex -3.32299 23.9547 -26.577
   vertex -4.37382 23.0099 -20
   vertex -3.32299 23.9547 -20
  end loop
 end facet
 facet normal -0.766494 0.642251 0
  outer loop
   vertex -4.37382 23.0099 -26.577
   vertex -5.37672 21.813 -26.577
   vertex -5.37672 21.813 -20
  end loop
 end facet
 facet normal -0.766494 0.642251 0
  outer loop
   vertex -4.37382 23.0099 -26.577
   vertex -5.37672 21.813 -20
   vertex -4.37382 23.0099 -20
  end loop
 end facet
 facet normal -0.835598 0.549341 0
  outer loop
   vertex -5.37672 21.813 -26.577
   vertex -6.32071 20.3771 -26.577
   vertex -6.32071 20.3771 -20
  end loop
 end facet
 facet normal -0.835598 0.549341 0
  outer loop
   vertex -5.37672 21.813 -26.577
   vertex -6.32071 20.3771 -20
   vertex -5.37672 21.813 -20
  end loop
 end facet
 facet normal -0.884588 0.466374 0
  outer loop
   vertex -6.32071 20.3771 -26.577
   vertex -7.19545 18.718 -26.577
   vertex -7.19545 18.718 -20
  end loop
 end facet
 facet normal -0.884588 0.466374 0
  outer loop
   vertex -6.32071 20.3771 -26.577
   vertex -7.19545 18.718 -20
   vertex -6.32071 20.3771 -20
  end loop
 end facet
 facet normal -0.919689 0.392648 0
  outer loop
   vertex -7.19545 18.718 -26.577
   vertex -7.99136 16.8537 -26.577
   vertex -7.99136 16.8537 -20
  end loop
 end facet
 facet normal -0.919689 0.392648 0
  outer loop
   vertex -7.19545 18.718 -26.577
   vertex -7.99136 16.8537 -20
   vertex -7.19545 18.718 -20
  end loop
 end facet
 facet normal -0.945111 0.326749 0
  outer loop
   vertex -7.99136 16.8537 -26.577
   vertex -8.69971 14.8048 -26.577
   vertex -8.69971 14.8048 -20
  end loop
 end facet
 facet normal -0.945111 0.326749 0
  outer loop
   vertex -7.99136 16.8537 -26.577
   vertex -8.69971 14.8048 -20
   vertex -7.99136 16.8537 -20
  end loop
 end facet
 facet normal -0.963648 0.267176 0
  outer loop
   vertex -8.69971 14.8048 -26.577
   vertex -9.31275 12.5937 -26.577
   vertex -9.31275 12.5937 -20
  end loop
 end facet
 facet normal -0.963648 0.267176 0
  outer loop
   vertex -8.69971 14.8048 -26.577
   vertex -9.31275 12.5937 -20
   vertex -8.69971 14.8048 -20
  end loop
 end facet
 facet normal -0.977147 0.212563 0
  outer loop
   vertex -9.31275 12.5937 -26.577
   vertex -9.82375 10.2447 -26.577
   vertex -9.82375 10.2447 -20
  end loop
 end facet
 facet normal -0.977147 0.212563 0
  outer loop
   vertex -9.31275 12.5937 -26.577
   vertex -9.82375 10.2447 -20
   vertex -9.31275 12.5937 -20
  end loop
 end facet
 facet normal -0.986835 0.161728 0
  outer loop
   vertex -9.82375 10.2447 -26.577
   vertex -10.2271 7.78337 -26.577
   vertex -10.2271 7.78337 -20
  end loop
 end facet
 facet normal -0.986835 0.161728 0
  outer loop
   vertex -9.82375 10.2447 -26.577
   vertex -10.2271 7.78337 -20
   vertex -9.82375 10.2447 -20
  end loop
 end facet
 facet normal -0.99352 0.113656 0
  outer loop
   vertex -10.2271 7.78337 -26.577
   vertex -10.5184 5.23678 -26.577
   vertex -10.5184 5.23678 -20
  end loop
 end facet
 facet normal -0.99352 0.113656 0
  outer loop
   vertex -10.2271 7.78337 -26.577
   vertex -10.5184 5.23678 -20
   vertex -10.2271 7.78337 -20
  end loop
 end facet
 facet normal -0.997722 0.0674659 0
  outer loop
   vertex -10.5184 5.23678 -26.577
   vertex -10.6945 2.63281 -26.577
   vertex -10.6945 2.63281 -20
  end loop
 end facet
 facet normal -0.997722 0.0674659 0
  outer loop
   vertex -10.5184 5.23678 -26.577
   vertex -10.6945 2.63281 -20
   vertex -10.5184 5.23678 -20
  end loop
 end facet
 facet normal -0.99975 0.0223691 0
  outer loop
   vertex -10.6945 2.63281 -26.577
   vertex -10.7534 1.42701e-14 -26.577
   vertex -10.7534 1.42701e-14 -20
  end loop
 end facet
 facet normal -0.99975 0.0223691 0
  outer loop
   vertex -10.6945 2.63281 -26.577
   vertex -10.7534 1.42701e-14 -20
   vertex -10.6945 2.63281 -20
  end loop
 end facet
 facet normal -0.99975 -0.0223691 0
  outer loop
   vertex -10.7534 1.42701e-14 -26.577
   vertex -10.6945 -2.63281 -26.577
   vertex -10.6945 -2.63281 -20
  end loop
 end facet
 facet normal -0.99975 -0.0223691 0
  outer loop
   vertex -10.7534 1.42701e-14 -26.577
   vertex -10.6945 -2.63281 -20
   vertex -10.7534 1.42701e-14 -20
  end loop
 end facet
 facet normal -0.997722 -0.0674659 0
  outer loop
   vertex -10.6945 -2.63281 -26.577
   vertex -10.5184 -5.23678 -26.577
   vertex -10.5184 -5.23678 -20
  end loop
 end facet
 facet normal -0.997722 -0.0674659 0
  outer loop
   vertex -10.6945 -2.63281 -26.577
   vertex -10.5184 -5.23678 -20
   vertex -10.6945 -2.63281 -20
  end loop
 end facet
 facet normal -0.99352 -0.113656 0
  outer loop
   vertex -10.5184 -5.23678 -26.577
   vertex -10.2271 -7.78337 -26.577
   vertex -10.2271 -7.78337 -20
  end loop
 end facet
 facet normal -0.99352 -0.113656 0
  outer loop
   vertex -10.5184 -5.23678 -26.577
   vertex -10.2271 -7.78337 -20
   vertex -10.5184 -5.23678 -20
  end loop
 end facet
 facet normal -0.986835 -0.161728 0
  outer loop
   vertex -10.2271 -7.78337 -26.577
   vertex -9.82375 -10.2447 -26.577
   vertex -9.82375 -10.2447 -20
  end loop
 end facet
 facet normal -0.986835 -0.161728 0
  outer loop
   vertex -10.2271 -7.78337 -26.577
   vertex -9.82375 -10.2447 -20
   vertex -10.2271 -7.78337 -20
  end loop
 end facet
 facet normal -0.977147 -0.212563 0
  outer loop
   vertex -9.82375 -10.2447 -26.577
   vertex -9.31275 -12.5937 -26.577
   vertex -9.31275 -12.5937 -20
  end loop
 end facet
 facet normal -0.977147 -0.212563 0
  outer loop
   vertex -9.82375 -10.2447 -26.577
   vertex -9.31275 -12.5937 -20
   vertex -9.82375 -10.2447 -20
  end loop
 end facet
 facet normal -0.963648 -0.267176 0
  outer loop
   vertex -9.31275 -12.5937 -26.577
   vertex -8.69971 -14.8048 -26.577
   vertex -8.69971 -14.8048 -20
  end loop
 end facet
 facet normal -0.963648 -0.267176 0
  outer loop
   vertex -9.31275 -12.5937 -26.577
   vertex -8.69971 -14.8048 -20
   vertex -9.31275 -12.5937 -20
  end loop
 end facet
 facet normal -0.945111 -0.326749 0
  outer loop
   vertex -8.69971 -14.8048 -26.577
   vertex -7.99136 -16.8537 -26.577
   vertex -7.99136 -16.8537 -20
  end loop
 end facet
 facet normal -0.945111 -0.326749 0
  outer loop
   vertex -8.69971 -14.8048 -26.577
   vertex -7.99136 -16.8537 -20
   vertex -8.69971 -14.8048 -20
  end loop
 end facet
 facet normal -0.919689 -0.392648 0
  outer loop
   vertex -7.99136 -16.8537 -26.577
   vertex -7.19545 -18.718 -26.577
   vertex -7.19545 -18.718 -20
  end loop
 end facet
 facet normal -0.919689 -0.392648 0
  outer loop
   vertex -7.99136 -16.8537 -26.577
   vertex -7.19545 -18.718 -20
   vertex -7.99136 -16.8537 -20
  end loop
 end facet
 facet normal -0.884588 -0.466374 0
  outer loop
   vertex -7.19545 -18.718 -26.577
   vertex -6.32071 -20.3771 -26.577
   vertex -6.32071 -20.3771 -20
  end loop
 end facet
 facet normal -0.884588 -0.466374 0
  outer loop
   vertex -7.19545 -18.718 -26.577
   vertex -6.32071 -20.3771 -20
   vertex -7.19545 -18.718 -20
  end loop
 end facet
 facet normal -0.835598 -0.549341 0
  outer loop
   vertex -6.32071 -20.3771 -26.577
   vertex -5.37672 -21.813 -26.577
   vertex -5.37672 -21.813 -20
  end loop
 end facet
 facet normal -0.835598 -0.549341 0
  outer loop
   vertex -6.32071 -20.3771 -26.577
   vertex -5.37672 -21.813 -20
   vertex -6.32071 -20.3771 -20
  end loop
 end facet
 facet normal -0.766494 -0.642251 0
  outer loop
   vertex -5.37672 -21.813 -26.577
   vertex -4.37382 -23.0099 -26.577
   vertex -4.37382 -23.0099 -20
  end loop
 end facet
 facet normal -0.766494 -0.642251 0
  outer loop
   vertex -5.37672 -21.813 -26.577
   vertex -4.37382 -23.0099 -20
   vertex -5.37672 -21.813 -20
  end loop
 end facet
 facet normal -0.668601 -0.743621 0
  outer loop
   vertex -4.37382 -23.0099 -26.577
   vertex -3.32299 -23.9547 -26.577
   vertex -3.32299 -23.9547 -20
  end loop
 end facet
 facet normal -0.668601 -0.743621 0
  outer loop
   vertex -4.37382 -23.0099 -26.577
   vertex -3.32299 -23.9547 -20
   vertex -4.37382 -23.0099 -20
  end loop
 end facet
 facet normal -0.531588 -0.847003 0
  outer loop
   vertex -3.32299 -23.9547 -26.577
   vertex -2.23576 -24.6371 -26.577
   vertex -2.23576 -24.6371 -20
  end loop
 end facet
 facet normal -0.531588 -0.847003 0
  outer loop
   vertex -3.32299 -23.9547 -26.577
   vertex -2.23576 -24.6371 -20
   vertex -3.32299 -23.9547 -20
  end loop
 end facet
 facet normal -0.347817 -0.937563 0
  outer loop
   vertex -2.23576 -24.6371 -26.577
   vertex -1.12404 -25.0495 -26.577
   vertex -1.12404 -25.0495 -20
  end loop
 end facet
 facet normal -0.347817 -0.937563 0
  outer loop
   vertex -2.23576 -24.6371 -26.577
   vertex -1.12404 -25.0495 -20
   vertex -2.23576 -24.6371 -20
  end loop
 end facet
 facet normal -0.121839 -0.99255 0
  outer loop
   vertex -1.12404 -25.0495 -26.577
   vertex -1.97537e-15 -25.1875 -26.577
   vertex -1.97537e-15 -25.1875 -20
  end loop
 end facet
 facet normal -0.121839 -0.99255 0
  outer loop
   vertex -1.12404 -25.0495 -26.577
   vertex -1.97537e-15 -25.1875 -20
   vertex -1.12404 -25.0495 -20
  end loop
 end facet
 facet normal 0.121839 -0.99255 0
  outer loop
   vertex -1.97537e-15 -25.1875 -26.577
   vertex 1.12404 -25.0495 -26.577
   vertex 1.12404 -25.0495 -20
  end loop
 end facet
 facet normal 0.121839 -0.99255 0
  outer loop
   vertex -1.97537e-15 -25.1875 -26.577
   vertex 1.12404 -25.0495 -20
   vertex -1.97537e-15 -25.1875 -20
  end loop
 end facet
 facet normal 0.347817 -0.937563 0
  outer loop
   vertex 1.12404 -25.0495 -26.577
   vertex 2.23576 -24.6371 -26.577
   vertex 2.23576 -24.6371 -20
  end loop
 end facet
 facet normal 0.347817 -0.937563 0
  outer loop
   vertex 1.12404 -25.0495 -26.577
   vertex 2.23576 -24.6371 -20
   vertex 1.12404 -25.0495 -20
  end loop
 end facet
 facet normal 0.531588 -0.847003 0
  outer loop
   vertex 2.23576 -24.6371 -26.577
   vertex 3.32299 -23.9547 -26.577
   vertex 3.32299 -23.9547 -20
  end loop
 end facet
 facet normal 0.531588 -0.847003 0
  outer loop
   vertex 2.23576 -24.6371 -26.577
   vertex 3.32299 -23.9547 -20
   vertex 2.23576 -24.6371 -20
  end loop
 end facet
 facet normal 0.668601 -0.743621 0
  outer loop
   vertex 3.32299 -23.9547 -26.577
   vertex 4.37382 -23.0099 -26.577
   vertex 4.37382 -23.0099 -20
  end loop
 end facet
 facet normal 0.668601 -0.743621 0
  outer loop
   vertex 3.32299 -23.9547 -26.577
   vertex 4.37382 -23.0099 -20
   vertex 3.32299 -23.9547 -20
  end loop
 end facet
 facet normal 0.766494 -0.642251 0
  outer loop
   vertex 4.37382 -23.0099 -26.577
   vertex 5.37672 -21.813 -26.577
   vertex 5.37672 -21.813 -20
  end loop
 end facet
 facet normal 0.766494 -0.642251 0
  outer loop
   vertex 4.37382 -23.0099 -26.577
   vertex 5.37672 -21.813 -20
   vertex 4.37382 -23.0099 -20
  end loop
 end facet
 facet normal 0.835598 -0.549341 0
  outer loop
   vertex 5.37672 -21.813 -26.577
   vertex 6.32071 -20.3771 -26.577
   vertex 6.32071 -20.3771 -20
  end loop
 end facet
 facet normal 0.835598 -0.549341 0
  outer loop
   vertex 5.37672 -21.813 -26.577
   vertex 6.32071 -20.3771 -20
   vertex 5.37672 -21.813 -20
  end loop
 end facet
 facet normal 0.884588 -0.466374 0
  outer loop
   vertex 6.32071 -20.3771 -26.577
   vertex 7.19545 -18.718 -26.577
   vertex 7.19545 -18.718 -20
  end loop
 end facet
 facet normal 0.884588 -0.466374 0
  outer loop
   vertex 6.32071 -20.3771 -26.577
   vertex 7.19545 -18.718 -20
   vertex 6.32071 -20.3771 -20
  end loop
 end facet
 facet normal 0.919689 -0.392648 0
  outer loop
   vertex 7.19545 -18.718 -26.577
   vertex 7.99136 -16.8537 -26.577
   vertex 7.99136 -16.8537 -20
  end loop
 end facet
 facet normal 0.919689 -0.392648 0
  outer loop
   vertex 7.19545 -18.718 -26.577
   vertex 7.99136 -16.8537 -20
   vertex 7.19545 -18.718 -20
  end loop
 end facet
 facet normal 0.945111 -0.326749 0
  outer loop
   vertex 7.99136 -16.8537 -26.577
   vertex 8.69971 -14.8048 -26.577
   vertex 8.69971 -14.8048 -20
  end loop
 end facet
 facet normal 0.945111 -0.326749 0
  outer loop
   vertex 7.99136 -16.8537 -26.577
   vertex 8.69971 -14.8048 -20
   vertex 7.99136 -16.8537 -20
  end loop
 end facet
 facet normal 0.963648 -0.267176 0
  outer loop
   vertex 8.69971 -14.8048 -26.577
   vertex 9.31275 -12.5937 -26.577
   vertex 9.31275 -12.5937 -20
  end loop
 end facet
 facet normal 0.963648 -0.267176 0
  outer loop
   vertex 8.69971 -14.8048 -26.577
   vertex 9.31275 -12.5937 -20
   vertex 8.69971 -14.8048 -20
  end loop
 end facet
 facet normal 0.977147 -0.212563 0
  outer loop
   vertex 9.31275 -12.5937 -26.577
   vertex 9.82375 -10.2447 -26.577
   vertex 9.82375 -10.2447 -20
  end loop
 end facet
 facet normal 0.977147 -0.212563 0
  outer loop
   vertex 9.31275 -12.5937 -26.577
   vertex 9.82375 -10.2447 -20
   vertex 9.31275 -12.5937 -20
  end loop
 end facet
 facet normal 0.986835 -0.161728 0
  outer loop
   vertex 9.82375 -10.2447 -26.577
   vertex 10.2271 -7.78337 -26.577
   vertex 10.2271 -7.78337 -20
  end loop
 end facet
 facet normal 0.986835 -0.161728 0
  outer loop
   vertex 9.82375 -10.2447 -26.577
   vertex 10.2271 -7.78337 -20
   vertex 9.82375 -10.2447 -20
  end loop
 end facet
 facet normal 0.99352 -0.113656 0
  outer loop
   vertex 10.2271 -7.78337 -26.577
   vertex 10.5184 -5.23678 -26.577
   vertex 10.5184 -5.23678 -20
  end loop
 end facet
 facet normal 0.99352 -0.113656 0
  outer loop
   vertex 10.2271 -7.78337 -26.577
   vertex 10.5184 -5.23678 -20
   vertex 10.2271 -7.78337 -20
  end loop
 end facet
 facet normal 0.997722 -0.0674659 0
  outer loop
   vertex 10.5184 -5.23678 -26.577
   vertex 10.6945 -2.63281 -26.577
   vertex 10.6945 -2.63281 -20
  end loop
 end facet
 facet normal 0.997722 -0.0674659 0
  outer loop
   vertex 10.5184 -5.23678 -26.577
   vertex 10.6945 -2.63281 -20
   vertex 10.5184 -5.23678 -20
  end loop
 end facet
 facet normal 0.99975 -0.0223691 0
  outer loop
   vertex 10.6945 -2.63281 -26.577
   vertex 10.7534 0 -26.577
   vertex 10.7534 0 -20
  end loop
 end facet
 facet normal 0.99975 -0.0223691 0
  outer loop
   vertex 10.6945 -2.63281 -26.577
   vertex 10.7534 0 -20
   vertex 10.6945 -2.63281 -20
  end loop
 end facet
 facet normal -0.99977 -0.0214481 0
  outer loop
   vertex 10.0034 0 -26.577
   vertex 9.94864 2.55441 -20
   vertex 9.94864 2.55441 -26.577
  end loop
 end facet
 facet normal -0.99977 -0.0214481 0
  outer loop
   vertex 10.0034 0 -26.577
   vertex 10.0034 0 -20
   vertex 9.94864 2.55441 -20
  end loop
 end facet
 facet normal -0.997905 -0.0646985 0
  outer loop
   vertex 9.94864 2.55441 -26.577
   vertex 9.78484 5.08084 -20
   vertex 9.78484 5.08084 -26.577
  end loop
 end facet
 facet normal -0.997905 -0.0646985 0
  outer loop
   vertex 9.94864 2.55441 -26.577
   vertex 9.94864 2.55441 -20
   vertex 9.78484 5.08084 -20
  end loop
 end facet
 facet normal -0.994038 -0.10903 0
  outer loop
   vertex 9.78484 5.08084 -26.577
   vertex 9.51383 7.5516 -20
   vertex 9.51383 7.5516 -26.577
  end loop
 end facet
 facet normal -0.994038 -0.10903 0
  outer loop
   vertex 9.78484 5.08084 -26.577
   vertex 9.78484 5.08084 -20
   vertex 9.51383 7.5516 -20
  end loop
 end facet
 facet normal -0.987878 -0.155229 0
  outer loop
   vertex 9.51383 7.5516 -26.577
   vertex 9.13859 9.93963 -20
   vertex 9.13859 9.93963 -26.577
  end loop
 end facet
 facet normal -0.987878 -0.155229 0
  outer loop
   vertex 9.51383 7.5516 -26.577
   vertex 9.51383 7.5516 -20
   vertex 9.13859 9.93963 -20
  end loop
 end facet
 facet normal -0.978934 -0.204179 0
  outer loop
   vertex 9.13859 9.93963 -26.577
   vertex 8.66323 12.2187 -20
   vertex 8.66323 12.2187 -26.577
  end loop
 end facet
 facet normal -0.978934 -0.204179 0
  outer loop
   vertex 9.13859 9.93963 -26.577
   vertex 9.13859 9.93963 -20
   vertex 8.66323 12.2187 -20
  end loop
 end facet
 facet normal -0.966435 -0.256911 0
  outer loop
   vertex 8.66323 12.2187 -26.577
   vertex 8.09295 14.364 -20
   vertex 8.09295 14.364 -26.577
  end loop
 end facet
 facet normal -0.966435 -0.256911 0
  outer loop
   vertex 8.66323 12.2187 -26.577
   vertex 8.66323 12.2187 -20
   vertex 8.09295 14.364 -20
  end loop
 end facet
 facet normal -0.949209 -0.314647 0
  outer loop
   vertex 8.09295 14.364 -26.577
   vertex 7.434 16.3519 -20
   vertex 7.434 16.3519 -26.577
  end loop
 end facet
 facet normal -0.949209 -0.314647 0
  outer loop
   vertex 8.09295 14.364 -26.577
   vertex 8.09295 14.364 -20
   vertex 7.434 16.3519 -20
  end loop
 end facet
 facet normal -0.925464 -0.378836 0
  outer loop
   vertex 7.434 16.3519 -26.577
   vertex 6.6936 18.1606 -20
   vertex 6.6936 18.1606 -26.577
  end loop
 end facet
 facet normal -0.925464 -0.378836 0
  outer loop
   vertex 7.434 16.3519 -26.577
   vertex 7.434 16.3519 -20
   vertex 6.6936 18.1606 -20
  end loop
 end facet
 facet normal -0.892454 -0.451138 0
  outer loop
   vertex 6.6936 18.1606 -26.577
   vertex 5.87987 19.7704 -20
   vertex 5.87987 19.7704 -26.577
  end loop
 end facet
 facet normal -0.892454 -0.451138 0
  outer loop
   vertex 6.6936 18.1606 -26.577
   vertex 6.6936 18.1606 -20
   vertex 5.87987 19.7704 -20
  end loop
 end facet
 facet normal -0.845962 -0.533244 0
  outer loop
   vertex 5.87987 19.7704 -26.577
   vertex 5.00172 21.1635 -20
   vertex 5.00172 21.1635 -26.577
  end loop
 end facet
 facet normal -0.845962 -0.533244 0
  outer loop
   vertex 5.87987 19.7704 -26.577
   vertex 5.87987 19.7704 -20
   vertex 5.00172 21.1635 -20
  end loop
 end facet
 facet normal -0.779578 -0.626305 0
  outer loop
   vertex 5.00172 21.1635 -26.577
   vertex 4.06876 22.3248 -20
   vertex 4.06876 22.3248 -26.577
  end loop
 end facet
 facet normal -0.779578 -0.626305 0
  outer loop
   vertex 5.00172 21.1635 -26.577
   vertex 5.00172 21.1635 -20
   vertex 4.06876 22.3248 -20
  end loop
 end facet
 facet normal -0.684036 -0.729448 0
  outer loop
   vertex 4.06876 22.3248 -26.577
   vertex 3.09123 23.2414 -20
   vertex 3.09123 23.2414 -26.577
  end loop
 end facet
 facet normal -0.684036 -0.729448 0
  outer loop
   vertex 4.06876 22.3248 -26.577
   vertex 4.06876 22.3248 -20
   vertex 3.09123 23.2414 -20
  end loop
 end facet
 facet normal -0.547677 -0.83669 0
  outer loop
   vertex 3.09123 23.2414 -26.577
   vertex 2.07983 23.9035 -20
   vertex 2.07983 23.9035 -26.577
  end loop
 end facet
 facet normal -0.547677 -0.83669 0
  outer loop
   vertex 3.09123 23.2414 -26.577
   vertex 3.09123 23.2414 -20
   vertex 2.07983 23.9035 -20
  end loop
 end facet
 facet normal -0.36085 -0.932624 0
  outer loop
   vertex 2.07983 23.9035 -26.577
   vertex 1.04564 24.3036 -20
   vertex 1.04564 24.3036 -26.577
  end loop
 end facet
 facet normal -0.36085 -0.932624 0
  outer loop
   vertex 2.07983 23.9035 -26.577
   vertex 2.07983 23.9035 -20
   vertex 1.04564 24.3036 -20
  end loop
 end facet
 facet normal -0.126991 -0.991904 0
  outer loop
   vertex 1.04564 24.3036 -26.577
   vertex 2.83374e-15 24.4375 -20
   vertex 2.83374e-15 24.4375 -26.577
  end loop
 end facet
 facet normal -0.126991 -0.991904 0
  outer loop
   vertex 1.04564 24.3036 -26.577
   vertex 1.04564 24.3036 -20
   vertex 2.83374e-15 24.4375 -20
  end loop
 end facet
 facet normal 0.126991 -0.991904 0
  outer loop
   vertex 2.83374e-15 24.4375 -26.577
   vertex -1.04564 24.3036 -20
   vertex -1.04564 24.3036 -26.577
  end loop
 end facet
 facet normal 0.126991 -0.991904 0
  outer loop
   vertex 2.83374e-15 24.4375 -26.577
   vertex 2.83374e-15 24.4375 -20
   vertex -1.04564 24.3036 -20
  end loop
 end facet
 facet normal 0.36085 -0.932624 0
  outer loop
   vertex -1.04564 24.3036 -26.577
   vertex -2.07983 23.9035 -20
   vertex -2.07983 23.9035 -26.577
  end loop
 end facet
 facet normal 0.36085 -0.932624 0
  outer loop
   vertex -1.04564 24.3036 -26.577
   vertex -1.04564 24.3036 -20
   vertex -2.07983 23.9035 -20
  end loop
 end facet
 facet normal 0.547677 -0.83669 0
  outer loop
   vertex -2.07983 23.9035 -26.577
   vertex -3.09123 23.2414 -20
   vertex -3.09123 23.2414 -26.577
  end loop
 end facet
 facet normal 0.547677 -0.83669 0
  outer loop
   vertex -2.07983 23.9035 -26.577
   vertex -2.07983 23.9035 -20
   vertex -3.09123 23.2414 -20
  end loop
 end facet
 facet normal 0.684036 -0.729448 0
  outer loop
   vertex -3.09123 23.2414 -26.577
   vertex -4.06876 22.3248 -20
   vertex -4.06876 22.3248 -26.577
  end loop
 end facet
 facet normal 0.684036 -0.729448 0
  outer loop
   vertex -3.09123 23.2414 -26.577
   vertex -3.09123 23.2414 -20
   vertex -4.06876 22.3248 -20
  end loop
 end facet
 facet normal 0.779578 -0.626305 0
  outer loop
   vertex -4.06876 22.3248 -26.577
   vertex -5.00172 21.1635 -20
   vertex -5.00172 21.1635 -26.577
  end loop
 end facet
 facet normal 0.779578 -0.626305 0
  outer loop
   vertex -4.06876 22.3248 -26.577
   vertex -4.06876 22.3248 -20
   vertex -5.00172 21.1635 -20
  end loop
 end facet
 facet normal 0.845962 -0.533244 0
  outer loop
   vertex -5.00172 21.1635 -26.577
   vertex -5.87987 19.7704 -20
   vertex -5.87987 19.7704 -26.577
  end loop
 end facet
 facet normal 0.845962 -0.533244 0
  outer loop
   vertex -5.00172 21.1635 -26.577
   vertex -5.00172 21.1635 -20
   vertex -5.87987 19.7704 -20
  end loop
 end facet
 facet normal 0.892454 -0.451138 0
  outer loop
   vertex -5.87987 19.7704 -26.577
   vertex -6.6936 18.1606 -20
   vertex -6.6936 18.1606 -26.577
  end loop
 end facet
 facet normal 0.892454 -0.451138 0
  outer loop
   vertex -5.87987 19.7704 -26.577
   vertex -5.87987 19.7704 -20
   vertex -6.6936 18.1606 -20
  end loop
 end facet
 facet normal 0.925464 -0.378836 0
  outer loop
   vertex -6.6936 18.1606 -26.577
   vertex -7.434 16.3519 -20
   vertex -7.434 16.3519 -26.577
  end loop
 end facet
 facet normal 0.925464 -0.378836 0
  outer loop
   vertex -6.6936 18.1606 -26.577
   vertex -6.6936 18.1606 -20
   vertex -7.434 16.3519 -20
  end loop
 end facet
 facet normal 0.949209 -0.314647 0
  outer loop
   vertex -7.434 16.3519 -26.577
   vertex -8.09295 14.364 -20
   vertex -8.09295 14.364 -26.577
  end loop
 end facet
 facet normal 0.949209 -0.314647 0
  outer loop
   vertex -7.434 16.3519 -26.577
   vertex -7.434 16.3519 -20
   vertex -8.09295 14.364 -20
  end loop
 end facet
 facet normal 0.966435 -0.256911 0
  outer loop
   vertex -8.09295 14.364 -26.577
   vertex -8.66323 12.2187 -20
   vertex -8.66323 12.2187 -26.577
  end loop
 end facet
 facet normal 0.966435 -0.256911 0
  outer loop
   vertex -8.09295 14.364 -26.577
   vertex -8.09295 14.364 -20
   vertex -8.66323 12.2187 -20
  end loop
 end facet
 facet normal 0.978934 -0.204179 0
  outer loop
   vertex -8.66323 12.2187 -26.577
   vertex -9.13859 9.93963 -20
   vertex -9.13859 9.93963 -26.577
  end loop
 end facet
 facet normal 0.978934 -0.204179 0
  outer loop
   vertex -8.66323 12.2187 -26.577
   vertex -8.66323 12.2187 -20
   vertex -9.13859 9.93963 -20
  end loop
 end facet
 facet normal 0.987878 -0.155229 0
  outer loop
   vertex -9.13859 9.93963 -26.577
   vertex -9.51383 7.5516 -20
   vertex -9.51383 7.5516 -26.577
  end loop
 end facet
 facet normal 0.987878 -0.155229 0
  outer loop
   vertex -9.13859 9.93963 -26.577
   vertex -9.13859 9.93963 -20
   vertex -9.51383 7.5516 -20
  end loop
 end facet
 facet normal 0.994038 -0.10903 0
  outer loop
   vertex -9.51383 7.5516 -26.577
   vertex -9.78484 5.08084 -20
   vertex -9.78484 5.08084 -26.577
  end loop
 end facet
 facet normal 0.994038 -0.10903 0
  outer loop
   vertex -9.51383 7.5516 -26.577
   vertex -9.51383 7.5516 -20
   vertex -9.78484 5.08084 -20
  end loop
 end facet
 facet normal 0.997905 -0.0646985 0
  outer loop
   vertex -9.78484 5.08084 -26.577
   vertex -9.94864 2.55441 -20
   vertex -9.94864 2.55441 -26.577
  end loop
 end facet
 facet normal 0.997905 -0.0646985 0
  outer loop
   vertex -9.78484 5.08084 -26.577
   vertex -9.78484 5.08084 -20
   vertex -9.94864 2.55441 -20
  end loop
 end facet
 facet normal 0.99977 -0.0214481 0
  outer loop
   vertex -9.94864 2.55441 -26.577
   vertex -10.0034 1.38452e-14 -20
   vertex -10.0034 1.38452e-14 -26.577
  end loop
 end facet
 facet normal 0.99977 -0.0214481 0
  outer loop
   vertex -9.94864 2.55441 -26.577
   vertex -9.94864 2.55441 -20
   vertex -10.0034 1.38452e-14 -20
  end loop
 end facet
 facet normal 0.99977 0.0214481 0
  outer loop
   vertex -10.0034 1.38452e-14 -26.577
   vertex -9.94864 -2.55441 -20
   vertex -9.94864 -2.55441 -26.577
  end loop
 end facet
 facet normal 0.99977 0.0214481 -0
  outer loop
   vertex -10.0034 1.38452e-14 -26.577
   vertex -10.0034 1.38452e-14 -20
   vertex -9.94864 -2.55441 -20
  end loop
 end facet
 facet normal 0.997905 0.0646985 0
  outer loop
   vertex -9.94864 -2.55441 -26.577
   vertex -9.78484 -5.08084 -20
   vertex -9.78484 -5.08084 -26.577
  end loop
 end facet
 facet normal 0.997905 0.0646985 -0
  outer loop
   vertex -9.94864 -2.55441 -26.577
   vertex -9.94864 -2.55441 -20
   vertex -9.78484 -5.08084 -20
  end loop
 end facet
 facet normal 0.994038 0.10903 0
  outer loop
   vertex -9.78484 -5.08084 -26.577
   vertex -9.51383 -7.5516 -20
   vertex -9.51383 -7.5516 -26.577
  end loop
 end facet
 facet normal 0.994038 0.10903 -0
  outer loop
   vertex -9.78484 -5.08084 -26.577
   vertex -9.78484 -5.08084 -20
   vertex -9.51383 -7.5516 -20
  end loop
 end facet
 facet normal 0.987878 0.155229 0
  outer loop
   vertex -9.51383 -7.5516 -26.577
   vertex -9.13859 -9.93963 -20
   vertex -9.13859 -9.93963 -26.577
  end loop
 end facet
 facet normal 0.987878 0.155229 -0
  outer loop
   vertex -9.51383 -7.5516 -26.577
   vertex -9.51383 -7.5516 -20
   vertex -9.13859 -9.93963 -20
  end loop
 end facet
 facet normal 0.978934 0.204179 0
  outer loop
   vertex -9.13859 -9.93963 -26.577
   vertex -8.66323 -12.2187 -20
   vertex -8.66323 -12.2187 -26.577
  end loop
 end facet
 facet normal 0.978934 0.204179 -0
  outer loop
   vertex -9.13859 -9.93963 -26.577
   vertex -9.13859 -9.93963 -20
   vertex -8.66323 -12.2187 -20
  end loop
 end facet
 facet normal 0.966435 0.256911 0
  outer loop
   vertex -8.66323 -12.2187 -26.577
   vertex -8.09295 -14.364 -20
   vertex -8.09295 -14.364 -26.577
  end loop
 end facet
 facet normal 0.966435 0.256911 -0
  outer loop
   vertex -8.66323 -12.2187 -26.577
   vertex -8.66323 -12.2187 -20
   vertex -8.09295 -14.364 -20
  end loop
 end facet
 facet normal 0.949209 0.314647 0
  outer loop
   vertex -8.09295 -14.364 -26.577
   vertex -7.434 -16.3519 -20
   vertex -7.434 -16.3519 -26.577
  end loop
 end facet
 facet normal 0.949209 0.314647 -0
  outer loop
   vertex -8.09295 -14.364 -26.577
   vertex -8.09295 -14.364 -20
   vertex -7.434 -16.3519 -20
  end loop
 end facet
 facet normal 0.925464 0.378836 0
  outer loop
   vertex -7.434 -16.3519 -26.577
   vertex -6.6936 -18.1606 -20
   vertex -6.6936 -18.1606 -26.577
  end loop
 end facet
 facet normal 0.925464 0.378836 -0
  outer loop
   vertex -7.434 -16.3519 -26.577
   vertex -7.434 -16.3519 -20
   vertex -6.6936 -18.1606 -20
  end loop
 end facet
 facet normal 0.892454 0.451138 0
  outer loop
   vertex -6.6936 -18.1606 -26.577
   vertex -5.87987 -19.7704 -20
   vertex -5.87987 -19.7704 -26.577
  end loop
 end facet
 facet normal 0.892454 0.451138 -0
  outer loop
   vertex -6.6936 -18.1606 -26.577
   vertex -6.6936 -18.1606 -20
   vertex -5.87987 -19.7704 -20
  end loop
 end facet
 facet normal 0.845962 0.533244 0
  outer loop
   vertex -5.87987 -19.7704 -26.577
   vertex -5.00172 -21.1635 -20
   vertex -5.00172 -21.1635 -26.577
  end loop
 end facet
 facet normal 0.845962 0.533244 -0
  outer loop
   vertex -5.87987 -19.7704 -26.577
   vertex -5.87987 -19.7704 -20
   vertex -5.00172 -21.1635 -20
  end loop
 end facet
 facet normal 0.779578 0.626305 0
  outer loop
   vertex -5.00172 -21.1635 -26.577
   vertex -4.06876 -22.3248 -20
   vertex -4.06876 -22.3248 -26.577
  end loop
 end facet
 facet normal 0.779578 0.626305 -0
  outer loop
   vertex -5.00172 -21.1635 -26.577
   vertex -5.00172 -21.1635 -20
   vertex -4.06876 -22.3248 -20
  end loop
 end facet
 facet normal 0.684036 0.729448 0
  outer loop
   vertex -4.06876 -22.3248 -26.577
   vertex -3.09123 -23.2414 -20
   vertex -3.09123 -23.2414 -26.577
  end loop
 end facet
 facet normal 0.684036 0.729448 -0
  outer loop
   vertex -4.06876 -22.3248 -26.577
   vertex -4.06876 -22.3248 -20
   vertex -3.09123 -23.2414 -20
  end loop
 end facet
 facet normal 0.547677 0.83669 0
  outer loop
   vertex -3.09123 -23.2414 -26.577
   vertex -2.07983 -23.9035 -20
   vertex -2.07983 -23.9035 -26.577
  end loop
 end facet
 facet normal 0.547677 0.83669 -0
  outer loop
   vertex -3.09123 -23.2414 -26.577
   vertex -3.09123 -23.2414 -20
   vertex -2.07983 -23.9035 -20
  end loop
 end facet
 facet normal 0.36085 0.932624 0
  outer loop
   vertex -2.07983 -23.9035 -26.577
   vertex -1.04564 -24.3036 -20
   vertex -1.04564 -24.3036 -26.577
  end loop
 end facet
 facet normal 0.36085 0.932624 -0
  outer loop
   vertex -2.07983 -23.9035 -26.577
   vertex -2.07983 -23.9035 -20
   vertex -1.04564 -24.3036 -20
  end loop
 end facet
 facet normal 0.126991 0.991904 0
  outer loop
   vertex -1.04564 -24.3036 -26.577
   vertex -1.8376e-15 -24.4375 -20
   vertex -1.8376e-15 -24.4375 -26.577
  end loop
 end facet
 facet normal 0.126991 0.991904 -0
  outer loop
   vertex -1.04564 -24.3036 -26.577
   vertex -1.04564 -24.3036 -20
   vertex -1.8376e-15 -24.4375 -20
  end loop
 end facet
 facet normal -0.126991 0.991904 0
  outer loop
   vertex -1.8376e-15 -24.4375 -26.577
   vertex 1.04564 -24.3036 -20
   vertex 1.04564 -24.3036 -26.577
  end loop
 end facet
 facet normal -0.126991 0.991904 0
  outer loop
   vertex -1.8376e-15 -24.4375 -26.577
   vertex -1.8376e-15 -24.4375 -20
   vertex 1.04564 -24.3036 -20
  end loop
 end facet
 facet normal -0.36085 0.932624 0
  outer loop
   vertex 1.04564 -24.3036 -26.577
   vertex 2.07983 -23.9035 -20
   vertex 2.07983 -23.9035 -26.577
  end loop
 end facet
 facet normal -0.36085 0.932624 0
  outer loop
   vertex 1.04564 -24.3036 -26.577
   vertex 1.04564 -24.3036 -20
   vertex 2.07983 -23.9035 -20
  end loop
 end facet
 facet normal -0.547677 0.83669 0
  outer loop
   vertex 2.07983 -23.9035 -26.577
   vertex 3.09123 -23.2414 -20
   vertex 3.09123 -23.2414 -26.577
  end loop
 end facet
 facet normal -0.547677 0.83669 0
  outer loop
   vertex 2.07983 -23.9035 -26.577
   vertex 2.07983 -23.9035 -20
   vertex 3.09123 -23.2414 -20
  end loop
 end facet
 facet normal -0.684036 0.729448 0
  outer loop
   vertex 3.09123 -23.2414 -26.577
   vertex 4.06876 -22.3248 -20
   vertex 4.06876 -22.3248 -26.577
  end loop
 end facet
 facet normal -0.684036 0.729448 0
  outer loop
   vertex 3.09123 -23.2414 -26.577
   vertex 3.09123 -23.2414 -20
   vertex 4.06876 -22.3248 -20
  end loop
 end facet
 facet normal -0.779578 0.626305 0
  outer loop
   vertex 4.06876 -22.3248 -26.577
   vertex 5.00172 -21.1635 -20
   vertex 5.00172 -21.1635 -26.577
  end loop
 end facet
 facet normal -0.779578 0.626305 0
  outer loop
   vertex 4.06876 -22.3248 -26.577
   vertex 4.06876 -22.3248 -20
   vertex 5.00172 -21.1635 -20
  end loop
 end facet
 facet normal -0.845962 0.533244 0
  outer loop
   vertex 5.00172 -21.1635 -26.577
   vertex 5.87987 -19.7704 -20
   vertex 5.87987 -19.7704 -26.577
  end loop
 end facet
 facet normal -0.845962 0.533244 0
  outer loop
   vertex 5.00172 -21.1635 -26.577
   vertex 5.00172 -21.1635 -20
   vertex 5.87987 -19.7704 -20
  end loop
 end facet
 facet normal -0.892454 0.451138 0
  outer loop
   vertex 5.87987 -19.7704 -26.577
   vertex 6.6936 -18.1606 -20
   vertex 6.6936 -18.1606 -26.577
  end loop
 end facet
 facet normal -0.892454 0.451138 0
  outer loop
   vertex 5.87987 -19.7704 -26.577
   vertex 5.87987 -19.7704 -20
   vertex 6.6936 -18.1606 -20
  end loop
 end facet
 facet normal -0.925464 0.378836 0
  outer loop
   vertex 6.6936 -18.1606 -26.577
   vertex 7.434 -16.3519 -20
   vertex 7.434 -16.3519 -26.577
  end loop
 end facet
 facet normal -0.925464 0.378836 0
  outer loop
   vertex 6.6936 -18.1606 -26.577
   vertex 6.6936 -18.1606 -20
   vertex 7.434 -16.3519 -20
  end loop
 end facet
 facet normal -0.949209 0.314647 0
  outer loop
   vertex 7.434 -16.3519 -26.577
   vertex 8.09295 -14.364 -20
   vertex 8.09295 -14.364 -26.577
  end loop
 end facet
 facet normal -0.949209 0.314647 0
  outer loop
   vertex 7.434 -16.3519 -26.577
   vertex 7.434 -16.3519 -20
   vertex 8.09295 -14.364 -20
  end loop
 end facet
 facet normal -0.966435 0.256911 0
  outer loop
   vertex 8.09295 -14.364 -26.577
   vertex 8.66323 -12.2187 -20
   vertex 8.66323 -12.2187 -26.577
  end loop
 end facet
 facet normal -0.966435 0.256911 0
  outer loop
   vertex 8.09295 -14.364 -26.577
   vertex 8.09295 -14.364 -20
   vertex 8.66323 -12.2187 -20
  end loop
 end facet
 facet normal -0.978934 0.204179 0
  outer loop
   vertex 8.66323 -12.2187 -26.577
   vertex 9.13859 -9.93963 -20
   vertex 9.13859 -9.93963 -26.577
  end loop
 end facet
 facet normal -0.978934 0.204179 0
  outer loop
   vertex 8.66323 -12.2187 -26.577
   vertex 8.66323 -12.2187 -20
   vertex 9.13859 -9.93963 -20
  end loop
 end facet
 facet normal -0.987878 0.155229 0
  outer loop
   vertex 9.13859 -9.93963 -26.577
   vertex 9.51383 -7.5516 -20
   vertex 9.51383 -7.5516 -26.577
  end loop
 end facet
 facet normal -0.987878 0.155229 0
  outer loop
   vertex 9.13859 -9.93963 -26.577
   vertex 9.13859 -9.93963 -20
   vertex 9.51383 -7.5516 -20
  end loop
 end facet
 facet normal -0.994038 0.10903 0
  outer loop
   vertex 9.51383 -7.5516 -26.577
   vertex 9.78484 -5.08084 -20
   vertex 9.78484 -5.08084 -26.577
  end loop
 end facet
 facet normal -0.994038 0.10903 0
  outer loop
   vertex 9.51383 -7.5516 -26.577
   vertex 9.51383 -7.5516 -20
   vertex 9.78484 -5.08084 -20
  end loop
 end facet
 facet normal -0.997905 0.0646985 0
  outer loop
   vertex 9.78484 -5.08084 -26.577
   vertex 9.94864 -2.55441 -20
   vertex 9.94864 -2.55441 -26.577
  end loop
 end facet
 facet normal -0.997905 0.0646985 0
  outer loop
   vertex 9.78484 -5.08084 -26.577
   vertex 9.78484 -5.08084 -20
   vertex 9.94864 -2.55441 -20
  end loop
 end facet
 facet normal -0.99977 0.0214481 0
  outer loop
   vertex 9.94864 -2.55441 -26.577
   vertex 10.0034 0 -20
   vertex 10.0034 0 -26.577
  end loop
 end facet
 facet normal -0.99977 0.0214481 0
  outer loop
   vertex 9.94864 -2.55441 -26.577
   vertex 9.94864 -2.55441 -20
   vertex 10.0034 0 -20
  end loop
 end facet
 facet normal 0 0 -1
  outer loop
   vertex 10.7534 0 -26.577
   vertex 9.94864 2.55441 -26.577
   vertex 10.6945 2.63281 -26.577
  end loop
 end facet
 facet normal 0 0 -1
  outer loop
   vertex 10.7534 0 -26.577
   vertex 10.0034 0 -26.577
   vertex 9.94864 2.55441 -26.577
  end loop
 end facet
 facet normal 0 0 -1
  outer loop
   vertex 10.6945 2.63281 -26.577
   vertex 9.78484 5.08084 -26.577
   vertex 10.5184 5.23678 -26.577
  end loop
 end facet
 facet normal -0 0 -1
  outer loop
   vertex 10.6945 2.63281 -26.577
   vertex 9.94864 2.55441 -26.577
   vertex 9.78484 5.08084 -26.577
  end loop
 end facet
 facet normal 0 0 -1
  outer loop
   vertex 10.5184 5.23678 -26.577
   vertex 9.51383 7.5516 -26.577
   vertex 10.2271 7.78337 -26.577
  end loop
 end facet
 facet normal -0 0 -1
  outer loop
   vertex 10.5184 5.23678 -26.577
   vertex 9.78484 5.08084 -26.577
   vertex 9.51383 7.5516 -26.577
  end loop
 end facet
 facet normal 0 0 -1
  outer loop
   vertex 10.2271 7.78337 -26.577
   vertex 9.13859 9.93963 -26.577
   vertex 9.82375 10.2447 -26.577
  end loop
 end facet
 facet normal -0 0 -1
  outer loop
   vertex 10.2271 7.78337 -26.577
   vertex 9.51383 7.5516 -26.577
   vertex 9.13859 9.93963 -26.577
  end loop
 end facet
 facet normal 0 0 -1
  outer loop
   vertex 9.82375 10.2447 -26.577
   vertex 8.66323 12.2187 -26.577
   vertex 9.31275 12.5937 -26.577
  end loop
 end facet
 facet normal -0 0 -1
  outer loop
   vertex 9.82375 10.2447 -26.577
   vertex 9.13859 9.93963 -26.577
   vertex 8.66323 12.2187 -26.577
  end loop
 end facet
 facet normal 0 0 -1
  outer loop
   vertex 9.31275 12.5937 -26.577
   vertex 8.09295 14.364 -26.577
   vertex 8.69971 14.8048 -26.577
  end loop
 end facet
 facet normal -0 0 -1
  outer loop
   vertex 9.31275 12.5937 -26.577
   vertex 8.66323 12.2187 -26.577
   vertex 8.09295 14.364 -26.577
  end loop
 end facet
 facet normal 0 0 -1
  outer loop
   vertex 8.69971 14.8048 -26.577
   vertex 7.434 16.3519 -26.577
   vertex 7.99136 16.8537 -26.577
  end loop
 end facet
 facet normal -0 0 -1
  outer loop
   vertex 8.69971 14.8048 -26.577
   vertex 8.09295 14.364 -26.577
   vertex 7.434 16.3519 -26.577
  end loop
 end facet
 facet normal 0 0 -1
  outer loop
   vertex 7.99136 16.8537 -26.577
   vertex 6.6936 18.1606 -26.577
   vertex 7.19545 18.718 -26.577
  end loop
 end facet
 facet normal -0 0 -1
  outer loop
   vertex 7.99136 16.8537 -26.577
   vertex 7.434 16.3519 -26.577
   vertex 6.6936 18.1606 -26.577
  end loop
 end facet
 facet normal 0 0 -1
  outer loop
   vertex 7.19545 18.718 -26.577
   vertex 5.87987 19.7704 -26.577
   vertex 6.32071 20.3771 -26.577
  end loop
 end facet
 facet normal -0 0 -1
  outer loop
   vertex 7.19545 18.718 -26.577
   vertex 6.6936 18.1606 -26.577
   vertex 5.87987 19.7704 -26.577
  end loop
 end facet
 facet normal 0 0 -1
  outer loop
   vertex 6.32071 20.3771 -26.577
   vertex 5.00172 21.1635 -26.577
   vertex 5.37672 21.813 -26.577
  end loop
 end facet
 facet normal -0 0 -1
  outer loop
   vertex 6.32071 20.3771 -26.577
   vertex 5.87987 19.7704 -26.577
   vertex 5.00172 21.1635 -26.577
  end loop
 end facet
 facet normal 0 0 -1
  outer loop
   vertex 5.37672 21.813 -26.577
   vertex 4.06876 22.3248 -26.577
   vertex 4.37382 23.0099 -26.577
  end loop
 end facet
 facet normal -0 0 -1
  outer loop
   vertex 5.37672 21.813 -26.577
   vertex 5.00172 21.1635 -26.577
   vertex 4.06876 22.3248 -26.577
  end loop
 end facet
 facet normal 0 0 -1
  outer loop
   vertex 4.37382 23.0099 -26.577
   vertex 3.09123 23.2414 -26.577
   vertex 3.32299 23.9547 -26.577
  end loop
 end facet
 facet normal -0 0 -1
  outer loop
   vertex 4.37382 23.0099 -26.577
   vertex 4.06876 22.3248 -26.577
   vertex 3.09123 23.2414 -26.577
  end loop
 end facet
 facet normal -0 0 -1
  outer loop
   vertex 3.32299 23.9547 -26.577
   vertex 2.07983 23.9035 -26.577
   vertex 2.23576 24.6371 -26.577
  end loop
 end facet
 facet normal 0 0 -1
  outer loop
   vertex 3.32299 23.9547 -26.577
   vertex 3.09123 23.2414 -26.577
   vertex 2.07983 23.9035 -26.577
  end loop
 end facet
 facet normal -0 0 -1
  outer loop
   vertex 2.23576 24.6371 -26.577
   vertex 1.04564 24.3036 -26.577
   vertex 1.12404 25.0495 -26.577
  end loop
 end facet
 facet normal 0 0 -1
  outer loop
   vertex 2.23576 24.6371 -26.577
   vertex 2.07983 23.9035 -26.577
   vertex 1.04564 24.3036 -26.577
  end loop
 end facet
 facet normal -0 0 -1
  outer loop
   vertex 1.12404 25.0495 -26.577
   vertex 2.83374e-15 24.4375 -26.577
   vertex 3.0462e-15 25.1875 -26.577
  end loop
 end facet
 facet normal 0 0 -1
  outer loop
   vertex 1.12404 25.0495 -26.577
   vertex 1.04564 24.3036 -26.577
   vertex 2.83374e-15 24.4375 -26.577
  end loop
 end facet
 facet normal 0 0 -1
  outer loop
   vertex 3.0462e-15 25.1875 -26.577
   vertex -1.04564 24.3036 -26.577
   vertex -1.12404 25.0495 -26.577
  end loop
 end facet
 facet normal 0 0 -1
  outer loop
   vertex 3.0462e-15 25.1875 -26.577
   vertex 2.83374e-15 24.4375 -26.577
   vertex -1.04564 24.3036 -26.577
  end loop
 end facet
 facet normal 0 0 -1
  outer loop
   vertex -1.12404 25.0495 -26.577
   vertex -2.07983 23.9035 -26.577
   vertex -2.23576 24.6371 -26.577
  end loop
 end facet
 facet normal 0 -0 -1
  outer loop
   vertex -1.12404 25.0495 -26.577
   vertex -1.04564 24.3036 -26.577
   vertex -2.07983 23.9035 -26.577
  end loop
 end facet
 facet normal 0 0 -1
  outer loop
   vertex -2.23576 24.6371 -26.577
   vertex -3.09123 23.2414 -26.577
   vertex -3.32299 23.9547 -26.577
  end loop
 end facet
 facet normal 0 -0 -1
  outer loop
   vertex -2.23576 24.6371 -26.577
   vertex -2.07983 23.9035 -26.577
   vertex -3.09123 23.2414 -26.577
  end loop
 end facet
 facet normal 0 0 -1
  outer loop
   vertex -3.32299 23.9547 -26.577
   vertex -4.06876 22.3248 -26.577
   vertex -4.37382 23.0099 -26.577
  end loop
 end facet
 facet normal 0 -0 -1
  outer loop
   vertex -3.32299 23.9547 -26.577
   vertex -3.09123 23.2414 -26.577
   vertex -4.06876 22.3248 -26.577
  end loop
 end facet
 facet normal 0 0 -1
  outer loop
   vertex -4.37382 23.0099 -26.577
   vertex -5.00172 21.1635 -26.577
   vertex -5.37672 21.813 -26.577
  end loop
 end facet
 facet normal 0 -0 -1
  outer loop
   vertex -4.37382 23.0099 -26.577
   vertex -4.06876 22.3248 -26.577
   vertex -5.00172 21.1635 -26.577
  end loop
 end facet
 facet normal 0 0 -1
  outer loop
   vertex -5.37672 21.813 -26.577
   vertex -5.87987 19.7704 -26.577
   vertex -6.32071 20.3771 -26.577
  end loop
 end facet
 facet normal 0 -0 -1
  outer loop
   vertex -5.37672 21.813 -26.577
   vertex -5.00172 21.1635 -26.577
   vertex -5.87987 19.7704 -26.577
  end loop
 end facet
 facet normal 0 0 -1
  outer loop
   vertex -6.32071 20.3771 -26.577
   vertex -6.6936 18.1606 -26.577
   vertex -7.19545 18.718 -26.577
  end loop
 end facet
 facet normal 0 -0 -1
  outer loop
   vertex -6.32071 20.3771 -26.577
   vertex -5.87987 19.7704 -26.577
   vertex -6.6936 18.1606 -26.577
  end loop
 end facet
 facet normal 0 0 -1
  outer loop
   vertex -7.19545 18.718 -26.577
   vertex -7.434 16.3519 -26.577
   vertex -7.99136 16.8537 -26.577
  end loop
 end facet
 facet normal 0 -0 -1
  outer loop
   vertex -7.19545 18.718 -26.577
   vertex -6.6936 18.1606 -26.577
   vertex -7.434 16.3519 -26.577
  end loop
 end facet
 facet normal 0 0 -1
  outer loop
   vertex -7.99136 16.8537 -26.577
   vertex -8.09295 14.364 -26.577
   vertex -8.69971 14.8048 -26.577
  end loop
 end facet
 facet normal 0 -0 -1
  outer loop
   vertex -7.99136 16.8537 -26.577
   vertex -7.434 16.3519 -26.577
   vertex -8.09295 14.364 -26.577
  end loop
 end facet
 facet normal 0 -0 -1
  outer loop
   vertex -8.69971 14.8048 -26.577
   vertex -8.66323 12.2187 -26.577
   vertex -9.31275 12.5937 -26.577
  end loop
 end facet
 facet normal 0 0 -1
  outer loop
   vertex -8.69971 14.8048 -26.577
   vertex -8.09295 14.364 -26.577
   vertex -8.66323 12.2187 -26.577
  end loop
 end facet
 facet normal 0 -0 -1
  outer loop
   vertex -9.31275 12.5937 -26.577
   vertex -9.13859 9.93963 -26.577
   vertex -9.82375 10.2447 -26.577
  end loop
 end facet
 facet normal 0 0 -1
  outer loop
   vertex -9.31275 12.5937 -26.577
   vertex -8.66323 12.2187 -26.577
   vertex -9.13859 9.93963 -26.577
  end loop
 end facet
 facet normal 0 -0 -1
  outer loop
   vertex -9.82375 10.2447 -26.577
   vertex -9.51383 7.5516 -26.577
   vertex -10.2271 7.78337 -26.577
  end loop
 end facet
 facet normal 0 0 -1
  outer loop
   vertex -9.82375 10.2447 -26.577
   vertex -9.13859 9.93963 -26.577
   vertex -9.51383 7.5516 -26.577
  end loop
 end facet
 facet normal 0 -0 -1
  outer loop
   vertex -10.2271 7.78337 -26.577
   vertex -9.78484 5.08084 -26.577
   vertex -10.5184 5.23678 -26.577
  end loop
 end facet
 facet normal 0 0 -1
  outer loop
   vertex -10.2271 7.78337 -26.577
   vertex -9.51383 7.5516 -26.577
   vertex -9.78484 5.08084 -26.577
  end loop
 end facet
 facet normal 0 -0 -1
  outer loop
   vertex -10.5184 5.23678 -26.577
   vertex -9.94864 2.55441 -26.577
   vertex -10.6945 2.63281 -26.577
  end loop
 end facet
 facet normal 0 0 -1
  outer loop
   vertex -10.5184 5.23678 -26.577
   vertex -9.78484 5.08084 -26.577
   vertex -9.94864 2.55441 -26.577
  end loop
 end facet
 facet normal 0 -0 -1
  outer loop
   vertex -10.6945 2.63281 -26.577
   vertex -10.0034 1.38452e-14 -26.577
   vertex -10.7534 1.42701e-14 -26.577
  end loop
 end facet
 facet normal 0 0 -1
  outer loop
   vertex -10.6945 2.63281 -26.577
   vertex -9.94864 2.55441 -26.577
   vertex -10.0034 1.38452e-14 -26.577
  end loop
 end facet
 facet normal 0 0 -1
  outer loop
   vertex -10.7534 1.42701e-14 -26.577
   vertex -9.94864 -2.55441 -26.577
   vertex -10.6945 -2.63281 -26.577
  end loop
 end facet
 facet normal 0 0 -1
  outer loop
   vertex -10.7534 1.42701e-14 -26.577
   vertex -10.0034 1.38452e-14 -26.577
   vertex -9.94864 -2.55441 -26.577
  end loop
 end facet
 facet normal 0 0 -1
  outer loop
   vertex -10.6945 -2.63281 -26.577
   vertex -9.78484 -5.08084 -26.577
   vertex -10.5184 -5.23678 -26.577
  end loop
 end facet
 facet normal 0 0 -1
  outer loop
   vertex -10.6945 -2.63281 -26.577
   vertex -9.94864 -2.55441 -26.577
   vertex -9.78484 -5.08084 -26.577
  end loop
 end facet
 facet normal 0 0 -1
  outer loop
   vertex -10.5184 -5.23678 -26.577
   vertex -9.51383 -7.5516 -26.577
   vertex -10.2271 -7.78337 -26.577
  end loop
 end facet
 facet normal 0 0 -1
  outer loop
   vertex -10.5184 -5.23678 -26.577
   vertex -9.78484 -5.08084 -26.577
   vertex -9.51383 -7.5516 -26.577
  end loop
 end facet
 facet normal 0 0 -1
  outer loop
   vertex -10.2271 -7.78337 -26.577
   vertex -9.13859 -9.93963 -26.577
   vertex -9.82375 -10.2447 -26.577
  end loop
 end facet
 facet normal 0 0 -1
  outer loop
   vertex -10.2271 -7.78337 -26.577
   vertex -9.51383 -7.5516 -26.577
   vertex -9.13859 -9.93963 -26.577
  end loop
 end facet
 facet normal 0 0 -1
  outer loop
   vertex -9.82375 -10.2447 -26.577
   vertex -8.66323 -12.2187 -26.577
   vertex -9.31275 -12.5937 -26.577
  end loop
 end facet
 facet normal 0 0 -1
  outer loop
   vertex -9.82375 -10.2447 -26.577
   vertex -9.13859 -9.93963 -26.577
   vertex -8.66323 -12.2187 -26.577
  end loop
 end facet
 facet normal 0 0 -1
  outer loop
   vertex -9.31275 -12.5937 -26.577
   vertex -8.09295 -14.364 -26.577
   vertex -8.69971 -14.8048 -26.577
  end loop
 end facet
 facet normal 0 0 -1
  outer loop
   vertex -9.31275 -12.5937 -26.577
   vertex -8.66323 -12.2187 -26.577
   vertex -8.09295 -14.364 -26.577
  end loop
 end facet
 facet normal 0 0 -1
  outer loop
   vertex -8.69971 -14.8048 -26.577
   vertex -7.434 -16.3519 -26.577
   vertex -7.99136 -16.8537 -26.577
  end loop
 end facet
 facet normal 0 0 -1
  outer loop
   vertex -8.69971 -14.8048 -26.577
   vertex -8.09295 -14.364 -26.577
   vertex -7.434 -16.3519 -26.577
  end loop
 end facet
 facet normal 0 0 -1
  outer loop
   vertex -7.99136 -16.8537 -26.577
   vertex -6.6936 -18.1606 -26.577
   vertex -7.19545 -18.718 -26.577
  end loop
 end facet
 facet normal 0 0 -1
  outer loop
   vertex -7.99136 -16.8537 -26.577
   vertex -7.434 -16.3519 -26.577
   vertex -6.6936 -18.1606 -26.577
  end loop
 end facet
 facet normal 0 0 -1
  outer loop
   vertex -7.19545 -18.718 -26.577
   vertex -5.87987 -19.7704 -26.577
   vertex -6.32071 -20.3771 -26.577
  end loop
 end facet
 facet normal 0 0 -1
  outer loop
   vertex -7.19545 -18.718 -26.577
   vertex -6.6936 -18.1606 -26.577
   vertex -5.87987 -19.7704 -26.577
  end loop
 end facet
 facet normal 0 0 -1
  outer loop
   vertex -6.32071 -20.3771 -26.577
   vertex -5.00172 -21.1635 -26.577
   vertex -5.37672 -21.813 -26.577
  end loop
 end facet
 facet normal 0 0 -1
  outer loop
   vertex -6.32071 -20.3771 -26.577
   vertex -5.87987 -19.7704 -26.577
   vertex -5.00172 -21.1635 -26.577
  end loop
 end facet
 facet normal 0 0 -1
  outer loop
   vertex -5.37672 -21.813 -26.577
   vertex -4.06876 -22.3248 -26.577
   vertex -4.37382 -23.0099 -26.577
  end loop
 end facet
 facet normal 0 0 -1
  outer loop
   vertex -5.37672 -21.813 -26.577
   vertex -5.00172 -21.1635 -26.577
   vertex -4.06876 -22.3248 -26.577
  end loop
 end facet
 facet normal 0 0 -1
  outer loop
   vertex -4.37382 -23.0099 -26.577
   vertex -3.09123 -23.2414 -26.577
   vertex -3.32299 -23.9547 -26.577
  end loop
 end facet
 facet normal 0 0 -1
  outer loop
   vertex -4.37382 -23.0099 -26.577
   vertex -4.06876 -22.3248 -26.577
   vertex -3.09123 -23.2414 -26.577
  end loop
 end facet
 facet normal 0 0 -1
  outer loop
   vertex -3.32299 -23.9547 -26.577
   vertex -2.07983 -23.9035 -26.577
   vertex -2.23576 -24.6371 -26.577
  end loop
 end facet
 facet normal 0 0 -1
  outer loop
   vertex -3.32299 -23.9547 -26.577
   vertex -3.09123 -23.2414 -26.577
   vertex -2.07983 -23.9035 -26.577
  end loop
 end facet
 facet normal 0 0 -1
  outer loop
   vertex -2.23576 -24.6371 -26.577
   vertex -1.04564 -24.3036 -26.577
   vertex -1.12404 -25.0495 -26.577
  end loop
 end facet
 facet normal 0 0 -1
  outer loop
   vertex -2.23576 -24.6371 -26.577
   vertex -2.07983 -23.9035 -26.577
   vertex -1.04564 -24.3036 -26.577
  end loop
 end facet
 facet normal 0 0 -1
  outer loop
   vertex -1.12404 -25.0495 -26.577
   vertex -1.8376e-15 -24.4375 -26.577
   vertex -1.97537e-15 -25.1875 -26.577
  end loop
 end facet
 facet normal 0 0 -1
  outer loop
   vertex -1.12404 -25.0495 -26.577
   vertex -1.04564 -24.3036 -26.577
   vertex -1.8376e-15 -24.4375 -26.577
  end loop
 end facet
 facet normal 0 0 -1
  outer loop
   vertex -1.97537e-15 -25.1875 -26.577
   vertex 1.04564 -24.3036 -26.577
   vertex 1.12404 -25.0495 -26.577
  end loop
 end facet
 facet normal 0 0 -1
  outer loop
   vertex -1.97537e-15 -25.1875 -26.577
   vertex -1.8376e-15 -24.4375 -26.577
   vertex 1.04564 -24.3036 -26.577
  end loop
 end facet
 facet normal 0 0 -1
  outer loop
   vertex 1.12404 -25.0495 -26.577
   vertex 2.07983 -23.9035 -26.577
   vertex 2.23576 -24.6371 -26.577
  end loop
 end facet
 facet normal 0 0 -1
  outer loop
   vertex 1.12404 -25.0495 -26.577
   vertex 1.04564 -24.3036 -26.577
   vertex 2.07983 -23.9035 -26.577
  end loop
 end facet
 facet normal 0 0 -1
  outer loop
   vertex 2.23576 -24.6371 -26.577
   vertex 3.09123 -23.2414 -26.577
   vertex 3.32299 -23.9547 -26.577
  end loop
 end facet
 facet normal 0 0 -1
  outer loop
   vertex 2.23576 -24.6371 -26.577
   vertex 2.07983 -23.9035 -26.577
   vertex 3.09123 -23.2414 -26.577
  end loop
 end facet
 facet normal 0 0 -1
  outer loop
   vertex 3.32299 -23.9547 -26.577
   vertex 4.06876 -22.3248 -26.577
   vertex 4.37382 -23.0099 -26.577
  end loop
 end facet
 facet normal 0 0 -1
  outer loop
   vertex 3.32299 -23.9547 -26.577
   vertex 3.09123 -23.2414 -26.577
   vertex 4.06876 -22.3248 -26.577
  end loop
 end facet
 facet normal 0 0 -1
  outer loop
   vertex 4.37382 -23.0099 -26.577
   vertex 5.00172 -21.1635 -26.577
   vertex 5.37672 -21.813 -26.577
  end loop
 end facet
 facet normal 0 0 -1
  outer loop
   vertex 4.37382 -23.0099 -26.577
   vertex 4.06876 -22.3248 -26.577
   vertex 5.00172 -21.1635 -26.577
  end loop
 end facet
 facet normal 0 0 -1
  outer loop
   vertex 5.37672 -21.813 -26.577
   vertex 5.87987 -19.7704 -26.577
   vertex 6.32071 -20.3771 -26.577
  end loop
 end facet
 facet normal 0 0 -1
  outer loop
   vertex 5.37672 -21.813 -26.577
   vertex 5.00172 -21.1635 -26.577
   vertex 5.87987 -19.7704 -26.577
  end loop
 end facet
 facet normal 0 0 -1
  outer loop
   vertex 6.32071 -20.3771 -26.577
   vertex 6.6936 -18.1606 -26.577
   vertex 7.19545 -18.718 -26.577
  end loop
 end facet
 facet normal 0 0 -1
  outer loop
   vertex 6.32071 -20.3771 -26.577
   vertex 5.87987 -19.7704 -26.577
   vertex 6.6936 -18.1606 -26.577
  end loop
 end facet
 facet normal 0 0 -1
  outer loop
   vertex 7.19545 -18.718 -26.577
   vertex 7.434 -16.3519 -26.577
   vertex 7.99136 -16.8537 -26.577
  end loop
 end facet
 facet normal 0 0 -1
  outer loop
   vertex 7.19545 -18.718 -26.577
   vertex 6.6936 -18.1606 -26.577
   vertex 7.434 -16.3519 -26.577
  end loop
 end facet
 facet normal 0 0 -1
  outer loop
   vertex 7.99136 -16.8537 -26.577
   vertex 8.09295 -14.364 -26.577
   vertex 8.69971 -14.8048 -26.577
  end loop
 end facet
 facet normal 0 0 -1
  outer loop
   vertex 7.99136 -16.8537 -26.577
   vertex 7.434 -16.3519 -26.577
   vertex 8.09295 -14.364 -26.577
  end loop
 end facet
 facet normal 0 0 -1
  outer loop
   vertex 8.69971 -14.8048 -26.577
   vertex 8.66323 -12.2187 -26.577
   vertex 9.31275 -12.5937 -26.577
  end loop
 end facet
 facet normal 0 0 -1
  outer loop
   vertex 8.69971 -14.8048 -26.577
   vertex 8.09295 -14.364 -26.577
   vertex 8.66323 -12.2187 -26.577
  end loop
 end facet
 facet normal 0 0 -1
  outer loop
   vertex 9.31275 -12.5937 -26.577
   vertex 9.13859 -9.93963 -26.577
   vertex 9.82375 -10.2447 -26.577
  end loop
 end facet
 facet normal 0 0 -1
  outer loop
   vertex 9.31275 -12.5937 -26.577
   vertex 8.66323 -12.2187 -26.577
   vertex 9.13859 -9.93963 -26.577
  end loop
 end facet
 facet normal 0 0 -1
  outer loop
   vertex 9.82375 -10.2447 -26.577
   vertex 9.51383 -7.5516 -26.577
   vertex 10.2271 -7.78337 -26.577
  end loop
 end facet
 facet normal 0 0 -1
  outer loop
   vertex 9.82375 -10.2447 -26.577
   vertex 9.13859 -9.93963 -26.577
   vertex 9.51383 -7.5516 -26.577
  end loop
 end facet
 facet normal 0 0 -1
  outer loop
   vertex 10.2271 -7.78337 -26.577
   vertex 9.78484 -5.08084 -26.577
   vertex 10.5184 -5.23678 -26.577
  end loop
 end facet
 facet normal 0 0 -1
  outer loop
   vertex 10.2271 -7.78337 -26.577
   vertex 9.51383 -7.5516 -26.577
   vertex 9.78484 -5.08084 -26.577
  end loop
 end facet
 facet normal 0 0 -1
  outer loop
   vertex 10.5184 -5.23678 -26.577
   vertex 9.94864 -2.55441 -26.577
   vertex 10.6945 -2.63281 -26.577
  end loop
 end facet
 facet normal 0 0 -1
  outer loop
   vertex 10.5184 -5.23678 -26.577
   vertex 9.78484 -5.08084 -26.577
   vertex 9.94864 -2.55441 -26.577
  end loop
 end facet
 facet normal 0 0 -1
  outer loop
   vertex 10.6945 -2.63281 -26.577
   vertex 10.0034 0 -26.577
   vertex 10.7534 0 -26.577
  end loop
 end facet
 facet normal 0 0 -1
  outer loop
   vertex 10.6945 -2.63281 -26.577
   vertex 9.94864 -2.55441 -26.577
   vertex 10.0034 0 -26.577
  end loop
 end facet
 facet normal 0 0 1
  outer loop
   vertex 10.7534 0 -20
   vertex 10.6945 2.63281 -20
   vertex 9.94864 2.55441 -20
  end loop
 end facet
 facet normal 0 0 1
  outer loop
   vertex 10.7534 0 -20
   vertex 9.94864 2.55441 -20
   vertex 10.0034 0 -20
  end loop
 end facet
 facet normal 0 0 1
  outer loop
   vertex 10.6945 2.63281 -20
   vertex 10.5184 5.23678 -20
   vertex 9.78484 5.08084 -20
  end loop
 end facet
 facet normal 0 0 1
  outer loop
   vertex 10.6945 2.63281 -20
   vertex 9.78484 5.08084 -20
   vertex 9.94864 2.55441 -20
  end loop
 end facet
 facet normal 0 0 1
  outer loop
   vertex 10.5184 5.23678 -20
   vertex 10.2271 7.78337 -20
   vertex 9.51383 7.5516 -20
  end loop
 end facet
 facet normal 0 0 1
  outer loop
   vertex 10.5184 5.23678 -20
   vertex 9.51383 7.5516 -20
   vertex 9.78484 5.08084 -20
  end loop
 end facet
 facet normal 0 0 1
  outer loop
   vertex 10.2271 7.78337 -20
   vertex 9.82375 10.2447 -20
   vertex 9.13859 9.93963 -20
  end loop
 end facet
 facet normal 0 0 1
  outer loop
   vertex 10.2271 7.78337 -20
   vertex 9.13859 9.93963 -20
   vertex 9.51383 7.5516 -20
  end loop
 end facet
 facet normal 0 0 1
  outer loop
   vertex 9.82375 10.2447 -20
   vertex 9.31275 12.5937 -20
   vertex 8.66323 12.2187 -20
  end loop
 end facet
 facet normal 0 0 1
  outer loop
   vertex 9.82375 10.2447 -20
   vertex 8.66323 12.2187 -20
   vertex 9.13859 9.93963 -20
  end loop
 end facet
 facet normal 0 0 1
  outer loop
   vertex 9.31275 12.5937 -20
   vertex 8.69971 14.8048 -20
   vertex 8.09295 14.364 -20
  end loop
 end facet
 facet normal 0 0 1
  outer loop
   vertex 9.31275 12.5937 -20
   vertex 8.09295 14.364 -20
   vertex 8.66323 12.2187 -20
  end loop
 end facet
 facet normal 0 0 1
  outer loop
   vertex 8.69971 14.8048 -20
   vertex 7.99136 16.8537 -20
   vertex 7.434 16.3519 -20
  end loop
 end facet
 facet normal 0 0 1
  outer loop
   vertex 8.69971 14.8048 -20
   vertex 7.434 16.3519 -20
   vertex 8.09295 14.364 -20
  end loop
 end facet
 facet normal 0 0 1
  outer loop
   vertex 7.99136 16.8537 -20
   vertex 7.19545 18.718 -20
   vertex 6.6936 18.1606 -20
  end loop
 end facet
 facet normal 0 0 1
  outer loop
   vertex 7.99136 16.8537 -20
   vertex 6.6936 18.1606 -20
   vertex 7.434 16.3519 -20
  end loop
 end facet
 facet normal 0 0 1
  outer loop
   vertex 7.19545 18.718 -20
   vertex 6.32071 20.3771 -20
   vertex 5.87987 19.7704 -20
  end loop
 end facet
 facet normal 0 0 1
  outer loop
   vertex 7.19545 18.718 -20
   vertex 5.87987 19.7704 -20
   vertex 6.6936 18.1606 -20
  end loop
 end facet
 facet normal 0 0 1
  outer loop
   vertex 6.32071 20.3771 -20
   vertex 5.37672 21.813 -20
   vertex 5.00172 21.1635 -20
  end loop
 end facet
 facet normal 0 0 1
  outer loop
   vertex 6.32071 20.3771 -20
   vertex 5.00172 21.1635 -20
   vertex 5.87987 19.7704 -20
  end loop
 end facet
 facet normal 0 0 1
  outer loop
   vertex 5.37672 21.813 -20
   vertex 4.37382 23.0099 -20
   vertex 4.06876 22.3248 -20
  end loop
 end facet
 facet normal 0 0 1
  outer loop
   vertex 5.37672 21.813 -20
   vertex 4.06876 22.3248 -20
   vertex 5.00172 21.1635 -20
  end loop
 end facet
 facet normal 0 0 1
  outer loop
   vertex 4.37382 23.0099 -20
   vertex 3.32299 23.9547 -20
   vertex 3.09123 23.2414 -20
  end loop
 end facet
 facet normal 0 0 1
  outer loop
   vertex 4.37382 23.0099 -20
   vertex 3.09123 23.2414 -20
   vertex 4.06876 22.3248 -20
  end loop
 end facet
 facet normal 0 0 1
  outer loop
   vertex 3.32299 23.9547 -20
   vertex 2.23576 24.6371 -20
   vertex 2.07983 23.9035 -20
  end loop
 end facet
 facet normal 0 0 1
  outer loop
   vertex 3.32299 23.9547 -20
   vertex 2.07983 23.9035 -20
   vertex 3.09123 23.2414 -20
  end loop
 end facet
 facet normal 0 0 1
  outer loop
   vertex 2.23576 24.6371 -20
   vertex 1.12404 25.0495 -20
   vertex 1.04564 24.3036 -20
  end loop
 end facet
 facet normal 0 0 1
  outer loop
   vertex 2.23576 24.6371 -20
   vertex 1.04564 24.3036 -20
   vertex 2.07983 23.9035 -20
  end loop
 end facet
 facet normal 0 0 1
  outer loop
   vertex 1.12404 25.0495 -20
   vertex 3.0462e-15 25.1875 -20
   vertex 2.83374e-15 24.4375 -20
  end loop
 end facet
 facet normal 0 0 1
  outer loop
   vertex 1.12404 25.0495 -20
   vertex 2.83374e-15 24.4375 -20
   vertex 1.04564 24.3036 -20
  end loop
 end facet
 facet normal 0 0 1
  outer loop
   vertex 3.0462e-15 25.1875 -20
   vertex -1.12404 25.0495 -20
   vertex -1.04564 24.3036 -20
  end loop
 end facet
 facet normal 0 0 1
  outer loop
   vertex 3.0462e-15 25.1875 -20
   vertex -1.04564 24.3036 -20
   vertex 2.83374e-15 24.4375 -20
  end loop
 end facet
 facet normal 0 0 1
  outer loop
   vertex -1.12404 25.0495 -20
   vertex -2.23576 24.6371 -20
   vertex -2.07983 23.9035 -20
  end loop
 end facet
 facet normal 0 0 1
  outer loop
   vertex -1.12404 25.0495 -20
   vertex -2.07983 23.9035 -20
   vertex -1.04564 24.3036 -20
  end loop
 end facet
 facet normal 0 0 1
  outer loop
   vertex -2.23576 24.6371 -20
   vertex -3.32299 23.9547 -20
   vertex -3.09123 23.2414 -20
  end loop
 end facet
 facet normal 0 0 1
  outer loop
   vertex -2.23576 24.6371 -20
   vertex -3.09123 23.2414 -20
   vertex -2.07983 23.9035 -20
  end loop
 end facet
 facet normal 0 0 1
  outer loop
   vertex -3.32299 23.9547 -20
   vertex -4.37382 23.0099 -20
   vertex -4.06876 22.3248 -20
  end loop
 end facet
 facet normal 0 0 1
  outer loop
   vertex -3.32299 23.9547 -20
   vertex -4.06876 22.3248 -20
   vertex -3.09123 23.2414 -20
  end loop
 end facet
 facet normal 0 0 1
  outer loop
   vertex -4.37382 23.0099 -20
   vertex -5.37672 21.813 -20
   vertex -5.00172 21.1635 -20
  end loop
 end facet
 facet normal 0 0 1
  outer loop
   vertex -4.37382 23.0099 -20
   vertex -5.00172 21.1635 -20
   vertex -4.06876 22.3248 -20
  end loop
 end facet
 facet normal 0 0 1
  outer loop
   vertex -5.37672 21.813 -20
   vertex -6.32071 20.3771 -20
   vertex -5.87987 19.7704 -20
  end loop
 end facet
 facet normal 0 0 1
  outer loop
   vertex -5.37672 21.813 -20
   vertex -5.87987 19.7704 -20
   vertex -5.00172 21.1635 -20
  end loop
 end facet
 facet normal 0 0 1
  outer loop
   vertex -6.32071 20.3771 -20
   vertex -7.19545 18.718 -20
   vertex -6.6936 18.1606 -20
  end loop
 end facet
 facet normal 0 0 1
  outer loop
   vertex -6.32071 20.3771 -20
   vertex -6.6936 18.1606 -20
   vertex -5.87987 19.7704 -20
  end loop
 end facet
 facet normal 0 0 1
  outer loop
   vertex -7.19545 18.718 -20
   vertex -7.99136 16.8537 -20
   vertex -7.434 16.3519 -20
  end loop
 end facet
 facet normal 0 0 1
  outer loop
   vertex -7.19545 18.718 -20
   vertex -7.434 16.3519 -20
   vertex -6.6936 18.1606 -20
  end loop
 end facet
 facet normal 0 0 1
  outer loop
   vertex -7.99136 16.8537 -20
   vertex -8.69971 14.8048 -20
   vertex -8.09295 14.364 -20
  end loop
 end facet
 facet normal 0 0 1
  outer loop
   vertex -7.99136 16.8537 -20
   vertex -8.09295 14.364 -20
   vertex -7.434 16.3519 -20
  end loop
 end facet
 facet normal 0 0 1
  outer loop
   vertex -8.69971 14.8048 -20
   vertex -9.31275 12.5937 -20
   vertex -8.66323 12.2187 -20
  end loop
 end facet
 facet normal 0 0 1
  outer loop
   vertex -8.69971 14.8048 -20
   vertex -8.66323 12.2187 -20
   vertex -8.09295 14.364 -20
  end loop
 end facet
 facet normal 0 0 1
  outer loop
   vertex -9.31275 12.5937 -20
   vertex -9.82375 10.2447 -20
   vertex -9.13859 9.93963 -20
  end loop
 end facet
 facet normal 0 0 1
  outer loop
   vertex -9.31275 12.5937 -20
   vertex -9.13859 9.93963 -20
   vertex -8.66323 12.2187 -20
  end loop
 end facet
 facet normal 0 0 1
  outer loop
   vertex -9.82375 10.2447 -20
   vertex -10.2271 7.78337 -20
   vertex -9.51383 7.5516 -20
  end loop
 end facet
 facet normal 0 0 1
  outer loop
   vertex -9.82375 10.2447 -20
   vertex -9.51383 7.5516 -20
   vertex -9.13859 9.93963 -20
  end loop
 end facet
 facet normal 0 0 1
  outer loop
   vertex -10.2271 7.78337 -20
   vertex -10.5184 5.23678 -20
   vertex -9.78484 5.08084 -20
  end loop
 end facet
 facet normal 0 0 1
  outer loop
   vertex -10.2271 7.78337 -20
   vertex -9.78484 5.08084 -20
   vertex -9.51383 7.5516 -20
  end loop
 end facet
 facet normal 0 0 1
  outer loop
   vertex -10.5184 5.23678 -20
   vertex -10.6945 2.63281 -20
   vertex -9.94864 2.55441 -20
  end loop
 end facet
 facet normal 0 0 1
  outer loop
   vertex -10.5184 5.23678 -20
   vertex -9.94864 2.55441 -20
   vertex -9.78484 5.08084 -20
  end loop
 end facet
 facet normal 0 0 1
  outer loop
   vertex -10.6945 2.63281 -20
   vertex -10.7534 1.42701e-14 -20
   vertex -10.0034 1.38452e-14 -20
  end loop
 end facet
 facet normal 0 0 1
  outer loop
   vertex -10.6945 2.63281 -20
   vertex -10.0034 1.38452e-14 -20
   vertex -9.94864 2.55441 -20
  end loop
 end facet
 facet normal 0 0 1
  outer loop
   vertex -10.7534 1.42701e-14 -20
   vertex -10.6945 -2.63281 -20
   vertex -9.94864 -2.55441 -20
  end loop
 end facet
 facet normal 0 0 1
  outer loop
   vertex -10.7534 1.42701e-14 -20
   vertex -9.94864 -2.55441 -20
   vertex -10.0034 1.38452e-14 -20
  end loop
 end facet
 facet normal 0 0 1
  outer loop
   vertex -10.6945 -2.63281 -20
   vertex -10.5184 -5.23678 -20
   vertex -9.78484 -5.08084 -20
  end loop
 end facet
 facet normal -0 0 1
  outer loop
   vertex -10.6945 -2.63281 -20
   vertex -9.78484 -5.08084 -20
   vertex -9.94864 -2.55441 -20
  end loop
 end facet
 facet normal 0 0 1
  outer loop
   vertex -10.5184 -5.23678 -20
   vertex -10.2271 -7.78337 -20
   vertex -9.51383 -7.5516 -20
  end loop
 end facet
 facet normal -0 0 1
  outer loop
   vertex -10.5184 -5.23678 -20
   vertex -9.51383 -7.5516 -20
   vertex -9.78484 -5.08084 -20
  end loop
 end facet
 facet normal 0 0 1
  outer loop
   vertex -10.2271 -7.78337 -20
   vertex -9.82375 -10.2447 -20
   vertex -9.13859 -9.93963 -20
  end loop
 end facet
 facet normal -0 0 1
  outer loop
   vertex -10.2271 -7.78337 -20
   vertex -9.13859 -9.93963 -20
   vertex -9.51383 -7.5516 -20
  end loop
 end facet
 facet normal 0 0 1
  outer loop
   vertex -9.82375 -10.2447 -20
   vertex -9.31275 -12.5937 -20
   vertex -8.66323 -12.2187 -20
  end loop
 end facet
 facet normal -0 0 1
  outer loop
   vertex -9.82375 -10.2447 -20
   vertex -8.66323 -12.2187 -20
   vertex -9.13859 -9.93963 -20
  end loop
 end facet
 facet normal 0 0 1
  outer loop
   vertex -9.31275 -12.5937 -20
   vertex -8.69971 -14.8048 -20
   vertex -8.09295 -14.364 -20
  end loop
 end facet
 facet normal -0 0 1
  outer loop
   vertex -9.31275 -12.5937 -20
   vertex -8.09295 -14.364 -20
   vertex -8.66323 -12.2187 -20
  end loop
 end facet
 facet normal 0 0 1
  outer loop
   vertex -8.69971 -14.8048 -20
   vertex -7.99136 -16.8537 -20
   vertex -7.434 -16.3519 -20
  end loop
 end facet
 facet normal -0 0 1
  outer loop
   vertex -8.69971 -14.8048 -20
   vertex -7.434 -16.3519 -20
   vertex -8.09295 -14.364 -20
  end loop
 end facet
 facet normal 0 0 1
  outer loop
   vertex -7.99136 -16.8537 -20
   vertex -7.19545 -18.718 -20
   vertex -6.6936 -18.1606 -20
  end loop
 end facet
 facet normal -0 0 1
  outer loop
   vertex -7.99136 -16.8537 -20
   vertex -6.6936 -18.1606 -20
   vertex -7.434 -16.3519 -20
  end loop
 end facet
 facet normal 0 0 1
  outer loop
   vertex -7.19545 -18.718 -20
   vertex -6.32071 -20.3771 -20
   vertex -5.87987 -19.7704 -20
  end loop
 end facet
 facet normal -0 0 1
  outer loop
   vertex -7.19545 -18.718 -20
   vertex -5.87987 -19.7704 -20
   vertex -6.6936 -18.1606 -20
  end loop
 end facet
 facet normal 0 0 1
  outer loop
   vertex -6.32071 -20.3771 -20
   vertex -5.37672 -21.813 -20
   vertex -5.00172 -21.1635 -20
  end loop
 end facet
 facet normal -0 0 1
  outer loop
   vertex -6.32071 -20.3771 -20
   vertex -5.00172 -21.1635 -20
   vertex -5.87987 -19.7704 -20
  end loop
 end facet
 facet normal 0 0 1
  outer loop
   vertex -5.37672 -21.813 -20
   vertex -4.37382 -23.0099 -20
   vertex -4.06876 -22.3248 -20
  end loop
 end facet
 facet normal -0 0 1
  outer loop
   vertex -5.37672 -21.813 -20
   vertex -4.06876 -22.3248 -20
   vertex -5.00172 -21.1635 -20
  end loop
 end facet
 facet normal 0 0 1
  outer loop
   vertex -4.37382 -23.0099 -20
   vertex -3.32299 -23.9547 -20
   vertex -3.09123 -23.2414 -20
  end loop
 end facet
 facet normal -0 0 1
  outer loop
   vertex -4.37382 -23.0099 -20
   vertex -3.09123 -23.2414 -20
   vertex -4.06876 -22.3248 -20
  end loop
 end facet
 facet normal -0 0 1
  outer loop
   vertex -3.32299 -23.9547 -20
   vertex -2.23576 -24.6371 -20
   vertex -2.07983 -23.9035 -20
  end loop
 end facet
 facet normal 0 0 1
  outer loop
   vertex -3.32299 -23.9547 -20
   vertex -2.07983 -23.9035 -20
   vertex -3.09123 -23.2414 -20
  end loop
 end facet
 facet normal -0 0 1
  outer loop
   vertex -2.23576 -24.6371 -20
   vertex -1.12404 -25.0495 -20
   vertex -1.04564 -24.3036 -20
  end loop
 end facet
 facet normal 0 0 1
  outer loop
   vertex -2.23576 -24.6371 -20
   vertex -1.04564 -24.3036 -20
   vertex -2.07983 -23.9035 -20
  end loop
 end facet
 facet normal -0 0 1
  outer loop
   vertex -1.12404 -25.0495 -20
   vertex -1.97537e-15 -25.1875 -20
   vertex -1.8376e-15 -24.4375 -20
  end loop
 end facet
 facet normal 0 0 1
  outer loop
   vertex -1.12404 -25.0495 -20
   vertex -1.8376e-15 -24.4375 -20
   vertex -1.04564 -24.3036 -20
  end loop
 end facet
 facet normal 0 0 1
  outer loop
   vertex -1.97537e-15 -25.1875 -20
   vertex 1.12404 -25.0495 -20
   vertex 1.04564 -24.3036 -20
  end loop
 end facet
 facet normal 0 0 1
  outer loop
   vertex -1.97537e-15 -25.1875 -20
   vertex 1.04564 -24.3036 -20
   vertex -1.8376e-15 -24.4375 -20
  end loop
 end facet
 facet normal 0 0 1
  outer loop
   vertex 1.12404 -25.0495 -20
   vertex 2.23576 -24.6371 -20
   vertex 2.07983 -23.9035 -20
  end loop
 end facet
 facet normal 0 -0 1
  outer loop
   vertex 1.12404 -25.0495 -20
   vertex 2.07983 -23.9035 -20
   vertex 1.04564 -24.3036 -20
  end loop
 end facet
 facet normal 0 0 1
  outer loop
   vertex 2.23576 -24.6371 -20
   vertex 3.32299 -23.9547 -20
   vertex 3.09123 -23.2414 -20
  end loop
 end facet
 facet normal 0 -0 1
  outer loop
   vertex 2.23576 -24.6371 -20
   vertex 3.09123 -23.2414 -20
   vertex 2.07983 -23.9035 -20
  end loop
 end facet
 facet normal 0 0 1
  outer loop
   vertex 3.32299 -23.9547 -20
   vertex 4.37382 -23.0099 -20
   vertex 4.06876 -22.3248 -20
  end loop
 end facet
 facet normal 0 -0 1
  outer loop
   vertex 3.32299 -23.9547 -20
   vertex 4.06876 -22.3248 -20
   vertex 3.09123 -23.2414 -20
  end loop
 end facet
 facet normal 0 0 1
  outer loop
   vertex 4.37382 -23.0099 -20
   vertex 5.37672 -21.813 -20
   vertex 5.00172 -21.1635 -20
  end loop
 end facet
 facet normal 0 -0 1
  outer loop
   vertex 4.37382 -23.0099 -20
   vertex 5.00172 -21.1635 -20
   vertex 4.06876 -22.3248 -20
  end loop
 end facet
 facet normal 0 0 1
  outer loop
   vertex 5.37672 -21.813 -20
   vertex 6.32071 -20.3771 -20
   vertex 5.87987 -19.7704 -20
  end loop
 end facet
 facet normal 0 -0 1
  outer loop
   vertex 5.37672 -21.813 -20
   vertex 5.87987 -19.7704 -20
   vertex 5.00172 -21.1635 -20
  end loop
 end facet
 facet normal 0 0 1
  outer loop
   vertex 6.32071 -20.3771 -20
   vertex 7.19545 -18.718 -20
   vertex 6.6936 -18.1606 -20
  end loop
 end facet
 facet normal 0 -0 1
  outer loop
   vertex 6.32071 -20.3771 -20
   vertex 6.6936 -18.1606 -20
   vertex 5.87987 -19.7704 -20
  end loop
 end facet
 facet normal 0 0 1
  outer loop
   vertex 7.19545 -18.718 -20
   vertex 7.99136 -16.8537 -20
   vertex 7.434 -16.3519 -20
  end loop
 end facet
 facet normal 0 -0 1
  outer loop
   vertex 7.19545 -18.718 -20
   vertex 7.434 -16.3519 -20
   vertex 6.6936 -18.1606 -20
  end loop
 end facet
 facet normal 0 0 1
  outer loop
   vertex 7.99136 -16.8537 -20
   vertex 8.69971 -14.8048 -20
   vertex 8.09295 -14.364 -20
  end loop
 end facet
 facet normal 0 -0 1
  outer loop
   vertex 7.99136 -16.8537 -20
   vertex 8.09295 -14.364 -20
   vertex 7.434 -16.3519 -20
  end loop
 end facet
 facet normal 0 -0 1
  outer loop
   vertex 8.69971 -14.8048 -20
   vertex 9.31275 -12.5937 -20
   vertex 8.66323 -12.2187 -20
  end loop
 end facet
 facet normal 0 0 1
  outer loop
   vertex 8.69971 -14.8048 -20
   vertex 8.66323 -12.2187 -20
   vertex 8.09295 -14.364 -20
  end loop
 end facet
 facet normal 0 -0 1
  outer loop
   vertex 9.31275 -12.5937 -20
   vertex 9.82375 -10.2447 -20
   vertex 9.13859 -9.93963 -20
  end loop
 end facet
 facet normal 0 0 1
  outer loop
   vertex 9.31275 -12.5937 -20
   vertex 9.13859 -9.93963 -20
   vertex 8.66323 -12.2187 -20
  end loop
 end facet
 facet normal 0 -0 1
  outer loop
   vertex 9.82375 -10.2447 -20
   vertex 10.2271 -7.78337 -20
   vertex 9.51383 -7.5516 -20
  end loop
 end facet
 facet normal 0 0 1
  outer loop
   vertex 9.82375 -10.2447 -20
   vertex 9.51383 -7.5516 -20
   vertex 9.13859 -9.93963 -20
  end loop
 end facet
 facet normal 0 -0 1
  outer loop
   vertex 10.2271 -7.78337 -20
   vertex 10.5184 -5.23678 -20
   vertex 9.78484 -5.08084 -20
  end loop
 end facet
 facet normal 0 0 1
  outer loop
   vertex 10.2271 -7.78337 -20
   vertex 9.78484 -5.08084 -20
   vertex 9.51383 -7.5516 -20
  end loop
 end facet
 facet normal 0 -0 1
  outer loop
   vertex 10.5184 -5.23678 -20
   vertex 10.6945 -2.63281 -20
   vertex 9.94864 -2.55441 -20
  end loop
 end facet
 facet normal 0 0 1
  outer loop
   vertex 10.5184 -5.23678 -20
   vertex 9.94864 -2.55441 -20
   vertex 9.78484 -5.08084 -20
  end loop
 end facet
 facet normal 0 -0 1
  outer loop
   vertex 10.6945 -2.63281 -20
   vertex 10.7534 0 -20
   vertex 10.0034 0 -20
  end loop
 end facet
 facet normal 0 0 1
  outer loop
   vertex 10.6945 -2.63281 -20
   vertex 10.0034 0 -20
   vertex 9.94864 -2.55441 -20
  end loop
 end facet
endsolid
